<svg viewBox="0,0,954,500" xmlns="http://www.w3.org/2000/svg" xmlns:xlink="http://www.w3.org/1999/xlink"><g transform="translate(0,450)" fill="none" font-size="10" font-family="sans-serif" text-anchor="middle"><path class="domain" stroke="currentColor" d="M50.5,0.5H924.5"/><g class="tick" opacity="1" transform="translate(50.5,0)"><line stroke="currentColor" y2="6"/><text fill="currentColor" y="9" dy="0.71em">12 PM</text></g><g class="tick" opacity="1" transform="translate(159.75,0)"><line stroke="currentColor" y2="6"/><text fill="currentColor" y="9" dy="0.71em">12:15</text></g><g class="tick" opacity="1" transform="translate(269,0)"><line stroke="currentColor" y2="6"/><text fill="currentColor" y="9" dy="0.71em">12:30</text></g><g class="tick" opacity="1" transform="translate(378.25,0)"><line stroke="currentColor" y2="6"/><text fill="currentColor" y="9" dy="0.71em">12:45</text></g><g class="tick" opacity="1" transform="translate(487.5,0)"><line stroke="currentColor" y2="6"/><text fill="currentColor" y="9" dy="0.71em">01 PM</text></g><g class="tick" opacity="1" transform="translate(596.75,0)"><line stroke="currentColor" y2="6"/><text fill="currentColor" y="9" dy="0.71em">01:15</text></g><g class="tick" opacity="1" transform="translate(706,0)"><line stroke="currentColor" y2="6"/><text fill="currentColor" y="9" dy="0.71em">01:30</text></g><g class="tick" opacity="1" transform="translate(815.25,0)"><line stroke="currentColor" y2="6"/><text fill="currentColor" y="9" dy="0.71em">01:45</text></g><g class="tick" opacity="1" transform="translate(924.5,0)"><line stroke="currentColor" y2="6"/><text fill="currentColor" y="9" dy="0.71em">02 PM</text></g></g><g transform="translate(50,0)" fill="none" font-size="10" font-family="sans-serif" text-anchor="end"><g class="tick" opacity="1" transform="translate(0,450.5)"><line stroke="currentColor" x2="-6"/><text fill="currentColor" x="-9" dy="0.32em">0</text></g><g class="tick" opacity="1" transform="translate(0,415.5)"><line stroke="currentColor" x2="-6"/><text fill="currentColor" x="-9" dy="0.32em">10</text></g><g class="tick" opacity="1" transform="translate(0,380.5)"><line stroke="currentColor" x2="-6"/><text fill="currentColor" x="-9" dy="0.32em">20</text></g><g class="tick" opacity="1" transform="translate(0,345.5)"><line stroke="currentColor" x2="-6"/><text fill="currentColor" x="-9" dy="0.32em">30</text></g><g class="tick" opacity="1" transform="translate(0,310.50000000000006)"><line stroke="currentColor" x2="-6"/><text fill="currentColor" x="-9" dy="0.32em">40</text></g><g class="tick" opacity="1" transform="translate(0,275.49999999999994)"><line stroke="currentColor" x2="-6"/><text fill="currentColor" x="-9" dy="0.32em">50</text></g><g class="tick" opacity="1" transform="translate(0,240.5)"><line stroke="currentColor" x2="-6"/><text fill="currentColor" x="-9" dy="0.32em">60</text></g><g class="tick" opacity="1" transform="translate(0,205.49999999999997)"><line stroke="currentColor" x2="-6"/><text fill="currentColor" x="-9" dy="0.32em">70</text></g><g class="tick" opacity="1" transform="translate(0,170.50000000000003)"><line stroke="currentColor" x2="-6"/><text fill="currentColor" x="-9" dy="0.32em">80</text></g><g class="tick" opacity="1" transform="translate(0,135.5)"><line stroke="currentColor" x2="-6"/><text fill="currentColor" x="-9" dy="0.32em">90</text></g><g class="tick" opacity="1" transform="translate(0,100.49999999999999)"><line stroke="currentColor" x2="-6"/><text fill="currentColor" x="-9" dy="0.32em">100</text></g><g class="tick" opacity="1" transform="translate(0,65.50000000000001)"><line stroke="currentColor" x2="-6"/><text fill="currentColor" x="-9" dy="0.32em">110</text></g><g class="tick" opacity="1" transform="translate(0,30.5)"><line stroke="currentColor" x2="-6"/><text fill="currentColor" x="-9" dy="0.32em">120</text><text fill="currentColor" x="3" dy="0.32em" text-anchor="start" font-weight="bold"/></g></g><text transform="translate(477 ,490)" style="text-anchor: middle;">Time</text><text transform="rotate(-90)" y="0" x="-250" dy="1em" style="text-anchor: middle;">Heart Rate (BPM)</text><path fill="none" stroke="#377eb8" stroke-width="3" stroke-linejoin="round" stroke-linecap="round" d="M50,201.5L51.82083333333333,163L53.641666666666666,163L55.4625,163L57.28333333333334,163L59.10416666666667,166.49999999999997L60.925,166.49999999999997L62.74583333333334,166.49999999999997L64.56666666666666,166.49999999999997L66.3875,159.5L68.20833333333333,159.5L70.02916666666667,159.5L71.85,159.5L73.67083333333333,180.49999999999997L75.49166666666666,180.49999999999997L77.3125,180.49999999999997L79.13333333333334,180.49999999999997L80.95416666666667,208.50000000000003L82.775,208.50000000000003L84.59583333333333,208.50000000000003L86.41666666666667,208.50000000000003L88.2375,198L90.05833333333334,198L91.87916666666666,198L93.7,198L95.52083333333333,204.99999999999997L97.34166666666667,204.99999999999997L99.1625,204.99999999999997L100.98333333333333,204.99999999999997L102.80416666666667,201.5L104.625,201.5L106.44583333333334,201.5L108.26666666666667,201.5L110.0875,198L111.90833333333333,198L113.72916666666667,198L115.55,198L117.37083333333334,198L119.19166666666666,198L121.0125,198L122.83333333333333,198L124.65416666666667,187.5L126.475,187.5L128.29583333333335,187.5L130.11666666666665,187.5L131.9375,166.49999999999997L133.75833333333335,166.49999999999997L135.57916666666665,166.49999999999997L137.4,166.49999999999997L139.22083333333333,166.49999999999997L141.04166666666669,166.49999999999997L142.8625,166.49999999999997L144.68333333333334,166.49999999999997L146.50416666666666,177L148.325,177L150.14583333333331,177L151.96666666666667,177L153.7875,184L155.60833333333335,184L157.42916666666665,184L159.25,184L161.07083333333333,163L162.89166666666668,163L164.7125,163L166.53333333333333,163L168.35416666666666,173.5L170.175,173.5L171.99583333333334,173.5L173.81666666666666,173.5L175.6375,166.49999999999997L177.45833333333331,166.49999999999997L179.27916666666667,166.49999999999997L181.1,166.49999999999997L182.92083333333332,173.5L184.74166666666667,173.5L186.5625,173.5L188.38333333333333,173.5L190.20416666666668,166.49999999999997L192.025,166.49999999999997L193.84583333333333,166.49999999999997L195.66666666666669,166.49999999999997L197.4875,159.5L199.30833333333334,159.5L201.12916666666666,159.5L202.95,159.5L204.77083333333331,170.00000000000003L206.59166666666667,170.00000000000003L208.4125,170.00000000000003L210.23333333333332,170.00000000000003L212.05416666666667,173.5L213.875,173.5L215.69583333333333,173.5L217.51666666666668,173.5L219.3375,156.00000000000003L221.15833333333333,156.00000000000003L222.97916666666669,156.00000000000003L224.8,156.00000000000003L226.62083333333334,152.49999999999997L228.44166666666666,152.49999999999997L230.2625,152.49999999999997L232.08333333333331,152.49999999999997L233.90416666666667,163L235.725,163L237.54583333333332,163L239.36666666666667,163L241.1875,163L243.00833333333333,163L244.82916666666668,163L246.65,163L248.47083333333333,177L250.29166666666669,177L252.1125,177L253.93333333333334,177L255.75416666666666,177L257.575,177L259.3958333333333,177L261.2166666666667,177L263.0375,187.5L264.8583333333333,187.5L266.6791666666667,187.5L268.5,187.5L270.3208333333333,170.00000000000003L272.14166666666665,170.00000000000003L273.9625,170.00000000000003L275.78333333333336,170.00000000000003L277.6041666666667,170.00000000000003L279.425,170.00000000000003L281.24583333333334,170.00000000000003L283.06666666666666,170.00000000000003L284.8875,180.49999999999997L286.7083333333333,180.49999999999997L288.52916666666664,180.49999999999997L290.35,180.49999999999997L292.17083333333335,177L293.9916666666667,177L295.8125,177L297.6333333333333,177L299.45416666666665,159.5L301.275,159.5L303.09583333333336,159.5L304.9166666666667,159.5L306.7375,166.49999999999997L308.55833333333334,166.49999999999997L310.37916666666666,166.49999999999997L312.2,166.49999999999997L314.0208333333333,163L315.84166666666664,163L317.6625,163L319.48333333333335,163L321.3041666666667,170.00000000000003L323.125,170.00000000000003L324.9458333333333,170.00000000000003L326.76666666666665,170.00000000000003L328.5875,159.5L330.40833333333336,159.5L332.2291666666667,159.5L334.05,159.5L335.87083333333334,166.49999999999997L337.69166666666666,166.49999999999997L339.5125,166.49999999999997L341.3333333333333,166.49999999999997L343.15416666666664,156.00000000000003L344.975,156.00000000000003L346.79583333333335,156.00000000000003L348.6166666666667,156.00000000000003L350.4375,166.49999999999997L352.2583333333333,166.49999999999997L354.07916666666665,166.49999999999997L355.9,166.49999999999997L357.72083333333336,159.5L359.5416666666667,159.5L361.3625,159.5L363.18333333333334,159.5L365.00416666666666,135L366.825,135L368.6458333333333,135L370.46666666666664,135L372.2875,145.5L374.10833333333335,145.5L375.9291666666667,145.5L377.75,145.5L379.5708333333333,156.00000000000003L381.39166666666665,156.00000000000003L383.2125,156.00000000000003L385.03333333333336,156.00000000000003L386.8541666666667,152.49999999999997L388.675,152.49999999999997L390.49583333333334,152.49999999999997L392.31666666666666,152.49999999999997L394.1375,163L395.9583333333333,163L397.77916666666664,163L399.6,163L401.42083333333335,156.00000000000003L403.2416666666667,156.00000000000003L405.0625,156.00000000000003L406.8833333333333,156.00000000000003L408.70416666666665,138.5L410.525,138.5L412.34583333333336,138.5L414.1666666666667,138.5L415.9875,124.49999999999999L417.80833333333334,124.49999999999999L419.62916666666666,124.49999999999999L421.45,124.49999999999999L423.2708333333333,127.99999999999997L425.09166666666664,127.99999999999997L426.9125,127.99999999999997L428.73333333333335,127.99999999999997L430.5541666666667,152.49999999999997L432.375,152.49999999999997L434.1958333333333,152.49999999999997L436.01666666666665,152.49999999999997L437.8375,152.49999999999997L439.65833333333336,152.49999999999997L441.4791666666667,152.49999999999997L443.3,152.49999999999997L445.12083333333334,152.49999999999997L446.94166666666666,152.49999999999997L448.7625,152.49999999999997L450.5833333333333,152.49999999999997L452.40416666666664,156.00000000000003L454.225,156.00000000000003L456.04583333333335,156.00000000000003L457.8666666666667,156.00000000000003L459.6875,159.5L461.5083333333333,159.5L463.32916666666665,159.5L465.15,159.5L466.97083333333336,159.5L468.7916666666667,159.5L470.6125,159.5L472.43333333333334,159.5L474.25416666666666,163L476.075,163L477.8958333333333,163L479.71666666666664,163L481.5375,170.00000000000003L483.35833333333335,170.00000000000003L485.1791666666667,170.00000000000003L487,170.00000000000003L488.8208333333333,187.5L490.64166666666665,187.5L492.4625,187.5L494.2833333333333,187.5L496.10416666666663,177L497.92499999999995,177L499.7458333333333,177L501.5666666666667,177L503.38750000000005,173.5L505.20833333333337,173.5L507.0291666666667,173.5L508.85,173.5L510.67083333333335,166.49999999999997L512.4916666666667,166.49999999999997L514.3125,166.49999999999997L516.1333333333333,166.49999999999997L517.9541666666667,173.5L519.775,173.5L521.5958333333333,173.5L523.4166666666666,173.5L525.2375,173.5L527.0583333333333,173.5L528.8791666666667,173.5L530.7,173.5L532.5208333333334,173.5L534.3416666666667,173.5L536.1625,173.5L537.9833333333333,173.5L539.8041666666667,173.5L541.625,173.5L543.4458333333333,173.5L545.2666666666667,173.5L547.0875,156.00000000000003L548.9083333333333,156.00000000000003L550.7291666666666,156.00000000000003L552.55,156.00000000000003L554.3708333333333,156.00000000000003L556.1916666666667,156.00000000000003L558.0125,156.00000000000003L559.8333333333334,156.00000000000003L561.6541666666667,149L563.475,149L565.2958333333333,149L567.1166666666667,149L568.9375,163L570.7583333333333,163L572.5791666666667,163L574.4,163L576.2208333333333,173.5L578.0416666666666,173.5L579.8625,173.5L581.6833333333333,173.5L583.5041666666667,180.49999999999997L585.325,180.49999999999997L587.1458333333334,180.49999999999997L588.9666666666667,180.49999999999997L590.7875,180.49999999999997L592.6083333333333,180.49999999999997L594.4291666666667,180.49999999999997L596.25,180.49999999999997L598.0708333333333,180.49999999999997L599.8916666666667,180.49999999999997L601.7125,180.49999999999997L603.5333333333333,180.49999999999997L605.3541666666666,180.49999999999997L607.175,180.49999999999997L608.9958333333333,180.49999999999997L610.8166666666667,180.49999999999997L612.6375,184L614.4583333333334,184L616.2791666666667,184L618.1,184L619.9208333333333,173.5L621.7416666666667,173.5L623.5625,173.5L625.3833333333333,173.5L627.2041666666667,138.5L629.025,138.5L630.8458333333333,138.5L632.6666666666666,138.5L634.4875,93.00000000000001L636.3083333333333,93.00000000000001L638.1291666666667,93.00000000000001L639.95,93.00000000000001L641.7708333333334,68.5L643.5916666666667,68.5L645.4125,68.5L647.2333333333333,68.5L649.0541666666667,103.50000000000001L650.875,103.50000000000001L652.6958333333333,103.50000000000001L654.5166666666667,103.50000000000001L656.3375,113.99999999999999L658.1583333333333,113.99999999999999L659.9791666666666,113.99999999999999L661.8,113.99999999999999L663.6208333333333,79.00000000000001L665.4416666666667,79.00000000000001L667.2625,79.00000000000001L669.0833333333334,79.00000000000001L670.9041666666667,68.5L672.725,68.5L674.5458333333333,68.5L676.3666666666667,68.5L678.1875,117.50000000000001L680.0083333333333,117.50000000000001L681.8291666666667,117.50000000000001L683.65,117.50000000000001L685.4708333333333,89.50000000000003L687.2916666666666,89.50000000000003L689.1125,89.50000000000003L690.9333333333333,89.50000000000003L692.7541666666667,68.5L694.575,68.5L696.3958333333334,68.5L698.2166666666667,68.5L700.0375,121L701.8583333333333,121L703.6791666666667,121L705.5,121L707.3208333333333,135L709.1416666666667,135L710.9625,135L712.7833333333333,135L714.6041666666666,166.49999999999997L716.425,166.49999999999997L718.2458333333333,166.49999999999997L720.0666666666667,166.49999999999997L721.8875,159.5L723.7083333333334,159.5L725.5291666666667,159.5L727.35,159.5L729.1708333333333,166.49999999999997L730.9916666666667,166.49999999999997L732.8125,166.49999999999997L734.6333333333333,166.49999999999997L736.4541666666667,201.5L738.275,201.5L740.0958333333333,201.5L741.9166666666666,201.5L743.7375,201.5L745.5583333333333,201.5L747.3791666666667,201.5L749.2,201.5L751.0208333333334,177L752.8416666666667,177L754.6625,177L756.4833333333333,177L758.3041666666667,194.50000000000003L760.125,194.50000000000003L761.9458333333333,194.50000000000003L763.7666666666667,194.50000000000003L765.5875,191L767.4083333333333,191L769.2291666666666,191L771.05,191L772.8708333333333,166.49999999999997L774.6916666666667,166.49999999999997L776.5125,166.49999999999997L778.3333333333334,166.49999999999997L780.1541666666667,163L781.975,163L783.7958333333333,163L785.6166666666667,163L787.4375,166.49999999999997L789.2583333333333,166.49999999999997L791.0791666666667,166.49999999999997L792.9,166.49999999999997L794.7208333333333,170.00000000000003L796.5416666666666,170.00000000000003L798.3625,170.00000000000003L800.1833333333333,170.00000000000003L802.0041666666667,166.49999999999997L803.825,166.49999999999997L805.6458333333334,166.49999999999997L807.4666666666667,166.49999999999997L809.2875,152.49999999999997L811.1083333333333,152.49999999999997L812.9291666666667,152.49999999999997L814.75,152.49999999999997L816.5708333333333,149L818.3916666666667,149L820.2125,149L822.0333333333333,149L823.8541666666666,159.5L825.675,159.5L827.4958333333333,159.5L829.3166666666667,159.5L831.1375,142.00000000000003L832.9583333333334,142.00000000000003L834.7791666666667,142.00000000000003L836.6,142.00000000000003L838.4208333333333,145.5L840.2416666666667,145.5L842.0625,145.5L843.8833333333333,145.5L845.7041666666667,145.5L847.525,145.5L849.3458333333333,145.5L851.1666666666666,145.5L852.9875,131.5L854.8083333333333,131.5L856.6291666666667,131.5L858.45,131.5L860.2708333333334,152.49999999999997L862.0916666666667,152.49999999999997L863.9125,152.49999999999997L865.7333333333333,152.49999999999997L867.5541666666667,135L869.375,135L871.1958333333333,135L873.0166666666667,135L874.8375,149L876.6583333333333,149L878.4791666666666,149L880.3,149L882.1208333333333,138.5L883.9416666666667,138.5L885.7625,138.5L887.5833333333334,138.5L889.4041666666667,117.50000000000001L891.225,117.50000000000001L893.0458333333333,117.50000000000001L894.8666666666667,117.50000000000001L896.6875,149L898.5083333333333,149L900.3291666666667,149L902.15,149L903.9708333333333,138.5L905.7916666666666,138.5L907.6125,138.5L909.4333333333333,138.5L911.2541666666667,149L913.075,149L914.8958333333334,149L916.7166666666667,149L918.5375,152.49999999999997L920.3583333333333,152.49999999999997L922.1791666666667,152.49999999999997L924,152.49999999999997"/><line x1="210.23333333333332" y1="25" x2="210.23333333333332" y2="450" stroke="#e41a1c" stroke-width="2.5" stroke-linejoin="round" stroke-linecap="round"/><line x1="-10146.666666666666" y1="25" x2="-10146.666666666666" y2="450" stroke="#e41a1c" stroke-width="2.5" stroke-linejoin="round" stroke-linecap="round"/><text x="190.23333333333332" y="15" text-anchor="middle" style="font-size: 16px; fill: rgb(0, 0, 0);">Survey Sent</text><text x="-10126.666666666666" y="15" text-anchor="middle" style="font-size: 16px; fill: rgb(0, 0, 0);">Survey Received</text></svg>