<svg viewBox="0,0,954,500" xmlns="http://www.w3.org/2000/svg" xmlns:xlink="http://www.w3.org/1999/xlink"><g transform="translate(0, 50)" fill="none" font-size="10" font-family="sans-serif" text-anchor="middle"><path class="domain" stroke="currentColor" d="M50.5,0.5H924.5"/><g class="tick" opacity="1" transform="translate(50.5,0)"><line stroke="currentColor" y2="-6"/><text fill="currentColor" y="-9" dy="0em">12 PM</text></g><g class="tick" opacity="1" transform="translate(159.75,0)"><line stroke="currentColor" y2="-6"/><text fill="currentColor" y="-9" dy="0em">12:15</text></g><g class="tick" opacity="1" transform="translate(269,0)"><line stroke="currentColor" y2="-6"/><text fill="currentColor" y="-9" dy="0em">12:30</text></g><g class="tick" opacity="1" transform="translate(378.25,0)"><line stroke="currentColor" y2="-6"/><text fill="currentColor" y="-9" dy="0em">12:45</text></g><g class="tick" opacity="1" transform="translate(487.5,0)"><line stroke="currentColor" y2="-6"/><text fill="currentColor" y="-9" dy="0em">01 PM</text></g><g class="tick" opacity="1" transform="translate(596.75,0)"><line stroke="currentColor" y2="-6"/><text fill="currentColor" y="-9" dy="0em">01:15</text></g><g class="tick" opacity="1" transform="translate(706,0)"><line stroke="currentColor" y2="-6"/><text fill="currentColor" y="-9" dy="0em">01:30</text></g><g class="tick" opacity="1" transform="translate(815.25,0)"><line stroke="currentColor" y2="-6"/><text fill="currentColor" y="-9" dy="0em">01:45</text></g><g class="tick" opacity="1" transform="translate(924.5,0)"><line stroke="currentColor" y2="-6"/><text fill="currentColor" y="-9" dy="0em">02 PM</text></g></g><g transform="translate(50,0)" fill="none" font-size="10" font-family="sans-serif" text-anchor="end"><g class="tick" opacity="1" transform="translate(0,50.5)"><line stroke="currentColor" x2="-6"/><text fill="currentColor" x="-9" dy="0.32em">0</text></g><g class="tick" opacity="1" transform="translate(0,97.16666666666669)"><line stroke="currentColor" x2="-6"/><text fill="currentColor" x="-9" dy="0.32em">-10</text></g><g class="tick" opacity="1" transform="translate(0,143.83333333333334)"><line stroke="currentColor" x2="-6"/><text fill="currentColor" x="-9" dy="0.32em">-20</text></g><g class="tick" opacity="1" transform="translate(0,190.5)"><line stroke="currentColor" x2="-6"/><text fill="currentColor" x="-9" dy="0.32em">-30</text></g><g class="tick" opacity="1" transform="translate(0,237.16666666666666)"><line stroke="currentColor" x2="-6"/><text fill="currentColor" x="-9" dy="0.32em">-40</text></g><g class="tick" opacity="1" transform="translate(0,283.83333333333337)"><line stroke="currentColor" x2="-6"/><text fill="currentColor" x="-9" dy="0.32em">-50</text></g><g class="tick" opacity="1" transform="translate(0,330.50000000000006)"><line stroke="currentColor" x2="-6"/><text fill="currentColor" x="-9" dy="0.32em">-60</text></g><g class="tick" opacity="1" transform="translate(0,377.16666666666663)"><line stroke="currentColor" x2="-6"/><text fill="currentColor" x="-9" dy="0.32em">-70</text></g><g class="tick" opacity="1" transform="translate(0,423.8333333333333)"><line stroke="currentColor" x2="-6"/><text fill="currentColor" x="-9" dy="0.32em">-80</text></g><g class="tick" opacity="1" transform="translate(0,470.5)"><line stroke="currentColor" x2="-6"/><text fill="currentColor" x="-9" dy="0.32em">-90</text><text fill="currentColor" x="3" dy="0.32em" text-anchor="start" font-weight="bold"/></g></g><text transform="translate(477 ,20)" style="text-anchor: middle;">Time</text><text transform="rotate(-90)" y="0" x="-250" dy="1em" style="text-anchor: middle;">RSSI</text><g fill="#1b9e77"><rect x="96.12777777777777" y="50" height="414.00000000000006" width="6"/><rect x="175.51611111111112" y="50" height="428" width="6"/><rect x="253.56916666666666" y="50" height="372" width="6"/><rect x="295.56972222222225" y="50" height="344" width="6"/><rect x="330.16555555555556" y="50" height="381.3333333333333" width="6"/><rect x="371.55916666666667" y="50" height="400" width="6"/><rect x="409.4325" y="50" height="372" width="6"/><rect x="449.855" y="50" height="437.33333333333337" width="6"/><rect x="487.2427777777778" y="50" height="400" width="6"/><rect x="524.6305555555555" y="50" height="409.33333333333337" width="6"/><rect x="564.4461111111111" y="50" height="460.66666666666663" width="6"/><rect x="600.9841666666666" y="50" height="409.33333333333337" width="6"/><rect x="639.7072222222223" y="50" height="437.33333333333337" width="6"/><rect x="682.3147222222223" y="50" height="404.6666666666667" width="6"/><rect x="723.3441666666666" y="50" height="460.66666666666663" width="6"/><rect x="756.6047222222223" y="50" height="414.00000000000006" width="6"/><rect x="797.7555555555555" y="50" height="470" width="6"/><rect x="833.8080555555555" y="50" height="400" width="6"/><rect x="872.2883333333333" y="50" height="465.3333333333333" width="6"/><rect x="911.9825" y="50" height="409.33333333333337" width="6"/></g></svg>