<svg viewBox="0,0,954,500" xmlns="http://www.w3.org/2000/svg" xmlns:xlink="http://www.w3.org/1999/xlink"><g transform="translate(0,450)" fill="none" font-size="10" font-family="sans-serif" text-anchor="middle"><path class="domain" stroke="currentColor" d="M50.5,0.5H924.5"/><g class="tick" opacity="1" transform="translate(50.5,0)"><line stroke="currentColor" y2="6"/><text fill="currentColor" y="9" dy="0.71em">12 PM</text></g><g class="tick" opacity="1" transform="translate(159.75,0)"><line stroke="currentColor" y2="6"/><text fill="currentColor" y="9" dy="0.71em">12:15</text></g><g class="tick" opacity="1" transform="translate(269,0)"><line stroke="currentColor" y2="6"/><text fill="currentColor" y="9" dy="0.71em">12:30</text></g><g class="tick" opacity="1" transform="translate(378.25,0)"><line stroke="currentColor" y2="6"/><text fill="currentColor" y="9" dy="0.71em">12:45</text></g><g class="tick" opacity="1" transform="translate(487.5,0)"><line stroke="currentColor" y2="6"/><text fill="currentColor" y="9" dy="0.71em">01 PM</text></g><g class="tick" opacity="1" transform="translate(596.75,0)"><line stroke="currentColor" y2="6"/><text fill="currentColor" y="9" dy="0.71em">01:15</text></g><g class="tick" opacity="1" transform="translate(706,0)"><line stroke="currentColor" y2="6"/><text fill="currentColor" y="9" dy="0.71em">01:30</text></g><g class="tick" opacity="1" transform="translate(815.25,0)"><line stroke="currentColor" y2="6"/><text fill="currentColor" y="9" dy="0.71em">01:45</text></g><g class="tick" opacity="1" transform="translate(924.5,0)"><line stroke="currentColor" y2="6"/><text fill="currentColor" y="9" dy="0.71em">02 PM</text></g></g><g transform="translate(50,0)" fill="none" font-size="10" font-family="sans-serif" text-anchor="end"><g class="tick" opacity="1" transform="translate(0,450.5)"><line stroke="currentColor" x2="-6"/><text fill="currentColor" x="-9" dy="0.32em">0</text></g><g class="tick" opacity="1" transform="translate(0,412.3181818181818)"><line stroke="currentColor" x2="-6"/><text fill="currentColor" x="-9" dy="0.32em">10</text></g><g class="tick" opacity="1" transform="translate(0,374.13636363636357)"><line stroke="currentColor" x2="-6"/><text fill="currentColor" x="-9" dy="0.32em">20</text></g><g class="tick" opacity="1" transform="translate(0,335.9545454545455)"><line stroke="currentColor" x2="-6"/><text fill="currentColor" x="-9" dy="0.32em">30</text></g><g class="tick" opacity="1" transform="translate(0,297.7727272727273)"><line stroke="currentColor" x2="-6"/><text fill="currentColor" x="-9" dy="0.32em">40</text></g><g class="tick" opacity="1" transform="translate(0,259.59090909090907)"><line stroke="currentColor" x2="-6"/><text fill="currentColor" x="-9" dy="0.32em">50</text></g><g class="tick" opacity="1" transform="translate(0,221.40909090909093)"><line stroke="currentColor" x2="-6"/><text fill="currentColor" x="-9" dy="0.32em">60</text></g><g class="tick" opacity="1" transform="translate(0,183.22727272727275)"><line stroke="currentColor" x2="-6"/><text fill="currentColor" x="-9" dy="0.32em">70</text></g><g class="tick" opacity="1" transform="translate(0,145.04545454545453)"><line stroke="currentColor" x2="-6"/><text fill="currentColor" x="-9" dy="0.32em">80</text></g><g class="tick" opacity="1" transform="translate(0,106.86363636363635)"><line stroke="currentColor" x2="-6"/><text fill="currentColor" x="-9" dy="0.32em">90</text></g><g class="tick" opacity="1" transform="translate(0,68.68181818181819)"><line stroke="currentColor" x2="-6"/><text fill="currentColor" x="-9" dy="0.32em">100</text></g><g class="tick" opacity="1" transform="translate(0,30.5)"><line stroke="currentColor" x2="-6"/><text fill="currentColor" x="-9" dy="0.32em">110</text><text fill="currentColor" x="3" dy="0.32em" text-anchor="start" font-weight="bold"/></g></g><text transform="translate(477 ,490)" style="text-anchor: middle;">Time</text><text transform="rotate(-90)" y="0" x="-250" dy="1em" style="text-anchor: middle;">Heart Rate (BPM)</text><path fill="none" stroke="#377eb8" stroke-width="3" stroke-linejoin="round" stroke-linecap="round" d="M50,148.36363636363637L51.82083333333333,144.54545454545453L53.641666666666666,144.54545454545453L55.4625,144.54545454545453L57.28333333333334,144.54545454545453L59.10416666666667,152.1818181818182L60.925,152.1818181818182L62.74583333333334,152.1818181818182L64.56666666666666,152.1818181818182L66.3875,148.36363636363637L68.20833333333333,148.36363636363637L70.02916666666667,148.36363636363637L71.85,148.36363636363637L73.67083333333333,144.54545454545453L75.49166666666666,144.54545454545453L77.3125,144.54545454545453L79.13333333333334,144.54545454545453L80.95416666666667,133.0909090909091L82.775,133.0909090909091L84.59583333333333,133.0909090909091L86.41666666666667,133.0909090909091L88.2375,133.0909090909091L90.05833333333334,133.0909090909091L91.87916666666666,133.0909090909091L93.7,133.0909090909091L95.52083333333333,136.9090909090909L97.34166666666667,136.9090909090909L99.1625,136.9090909090909L100.98333333333333,136.9090909090909L102.80416666666667,121.63636363636361L104.625,121.63636363636361L106.44583333333334,121.63636363636361L108.26666666666667,121.63636363636361L110.0875,133.0909090909091L111.90833333333333,133.0909090909091L113.72916666666667,133.0909090909091L115.55,133.0909090909091L117.37083333333334,136.9090909090909L119.19166666666666,136.9090909090909L121.0125,136.9090909090909L122.83333333333333,136.9090909090909L124.65416666666667,117.81818181818181L126.475,117.81818181818181L128.29583333333335,117.81818181818181L130.11666666666665,117.81818181818181L131.9375,136.9090909090909L133.75833333333335,136.9090909090909L135.57916666666665,136.9090909090909L137.4,136.9090909090909L139.22083333333333,136.9090909090909L141.04166666666669,136.9090909090909L142.8625,136.9090909090909L144.68333333333334,136.9090909090909L146.50416666666666,113.99999999999999L148.325,113.99999999999999L150.14583333333331,113.99999999999999L151.96666666666667,113.99999999999999L153.7875,121.63636363636361L155.60833333333335,121.63636363636361L157.42916666666665,121.63636363636361L159.25,121.63636363636361L161.07083333333333,133.0909090909091L162.89166666666668,133.0909090909091L164.7125,133.0909090909091L166.53333333333333,133.0909090909091L168.35416666666666,117.81818181818181L170.175,117.81818181818181L171.99583333333334,117.81818181818181L173.81666666666666,117.81818181818181L175.6375,83.45454545454547L177.45833333333331,83.45454545454547L179.27916666666667,83.45454545454547L181.1,83.45454545454547L182.92083333333332,121.63636363636361L184.74166666666667,121.63636363636361L186.5625,121.63636363636361L188.38333333333333,121.63636363636361L190.20416666666668,144.54545454545453L192.025,144.54545454545453L193.84583333333333,144.54545454545453L195.66666666666669,144.54545454545453L197.4875,113.99999999999999L199.30833333333334,113.99999999999999L201.12916666666666,113.99999999999999L202.95,113.99999999999999L204.77083333333331,110.18181818181819L206.59166666666667,110.18181818181819L208.4125,110.18181818181819L210.23333333333332,110.18181818181819L212.05416666666667,113.99999999999999L213.875,113.99999999999999L215.69583333333333,113.99999999999999L217.51666666666668,113.99999999999999L219.3375,125.45454545454547L221.15833333333333,125.45454545454547L222.97916666666669,125.45454545454547L224.8,125.45454545454547L226.62083333333334,144.54545454545453L228.44166666666666,144.54545454545453L230.2625,144.54545454545453L232.08333333333331,144.54545454545453L233.90416666666667,152.1818181818182L235.725,152.1818181818182L237.54583333333332,152.1818181818182L239.36666666666667,152.1818181818182L241.1875,144.54545454545453L243.00833333333333,144.54545454545453L244.82916666666668,144.54545454545453L246.65,144.54545454545453L248.47083333333333,152.1818181818182L250.29166666666669,152.1818181818182L252.1125,152.1818181818182L253.93333333333334,152.1818181818182L255.75416666666666,159.8181818181818L257.575,159.8181818181818L259.3958333333333,159.8181818181818L261.2166666666667,159.8181818181818L263.0375,167.45454545454547L264.8583333333333,167.45454545454547L266.6791666666667,167.45454545454547L268.5,167.45454545454547L270.3208333333333,156.00000000000003L272.14166666666665,156.00000000000003L273.9625,156.00000000000003L275.78333333333336,156.00000000000003L277.6041666666667,144.54545454545453L279.425,144.54545454545453L281.24583333333334,144.54545454545453L283.06666666666666,144.54545454545453L284.8875,129.27272727272725L286.7083333333333,129.27272727272725L288.52916666666664,129.27272727272725L290.35,129.27272727272725L292.17083333333335,156.00000000000003L293.9916666666667,156.00000000000003L295.8125,156.00000000000003L297.6333333333333,156.00000000000003L299.45416666666665,175.0909090909091L301.275,175.0909090909091L303.09583333333336,175.0909090909091L304.9166666666667,175.0909090909091L306.7375,121.63636363636361L308.55833333333334,121.63636363636361L310.37916666666666,121.63636363636361L312.2,121.63636363636361L314.0208333333333,113.99999999999999L315.84166666666664,113.99999999999999L317.6625,113.99999999999999L319.48333333333335,113.99999999999999L321.3041666666667,167.45454545454547L323.125,167.45454545454547L324.9458333333333,167.45454545454547L326.76666666666665,167.45454545454547L328.5875,198L330.40833333333336,198L332.2291666666667,198L334.05,198L335.87083333333334,186.54545454545453L337.69166666666666,186.54545454545453L339.5125,186.54545454545453L341.3333333333333,186.54545454545453L343.15416666666664,144.54545454545453L344.975,144.54545454545453L346.79583333333335,144.54545454545453L348.6166666666667,144.54545454545453L350.4375,68.18181818181819L352.2583333333333,68.18181818181819L354.07916666666665,68.18181818181819L355.9,68.18181818181819L357.72083333333336,83.45454545454547L359.5416666666667,83.45454545454547L361.3625,83.45454545454547L363.18333333333334,83.45454545454547L365.00416666666666,140.72727272727275L366.825,140.72727272727275L368.6458333333333,140.72727272727275L370.46666666666664,140.72727272727275L372.2875,186.54545454545453L374.10833333333335,186.54545454545453L375.9291666666667,186.54545454545453L377.75,186.54545454545453L379.5708333333333,201.81818181818178L381.39166666666665,201.81818181818178L383.2125,201.81818181818178L385.03333333333336,201.81818181818178L386.8541666666667,205.63636363636363L388.675,205.63636363636363L390.49583333333334,205.63636363636363L392.31666666666666,205.63636363636363L394.1375,209.45454545454544L395.9583333333333,209.45454545454544L397.77916666666664,209.45454545454544L399.6,209.45454545454544L401.42083333333335,205.63636363636363L403.2416666666667,205.63636363636363L405.0625,205.63636363636363L406.8833333333333,205.63636363636363L408.70416666666665,175.0909090909091L410.525,175.0909090909091L412.34583333333336,175.0909090909091L414.1666666666667,175.0909090909091L415.9875,175.0909090909091L417.80833333333334,175.0909090909091L419.62916666666666,175.0909090909091L421.45,175.0909090909091L423.2708333333333,167.45454545454547L425.09166666666664,167.45454545454547L426.9125,167.45454545454547L428.73333333333335,167.45454545454547L430.5541666666667,171.27272727272725L432.375,171.27272727272725L434.1958333333333,171.27272727272725L436.01666666666665,171.27272727272725L437.8375,159.8181818181818L439.65833333333336,159.8181818181818L441.4791666666667,159.8181818181818L443.3,159.8181818181818L445.12083333333334,148.36363636363637L446.94166666666666,148.36363636363637L448.7625,148.36363636363637L450.5833333333333,148.36363636363637L452.40416666666664,110.18181818181819L454.225,110.18181818181819L456.04583333333335,110.18181818181819L457.8666666666667,110.18181818181819L459.6875,113.99999999999999L461.5083333333333,113.99999999999999L463.32916666666665,113.99999999999999L465.15,113.99999999999999L466.97083333333336,121.63636363636361L468.7916666666667,121.63636363636361L470.6125,121.63636363636361L472.43333333333334,121.63636363636361L474.25416666666666,140.72727272727275L476.075,140.72727272727275L477.8958333333333,140.72727272727275L479.71666666666664,140.72727272727275L481.5375,156.00000000000003L483.35833333333335,156.00000000000003L485.1791666666667,156.00000000000003L487,156.00000000000003L488.8208333333333,163.63636363636368L490.64166666666665,163.63636363636368L492.4625,163.63636363636368L494.2833333333333,163.63636363636368L496.10416666666663,167.45454545454547L497.92499999999995,167.45454545454547L499.7458333333333,167.45454545454547L501.5666666666667,167.45454545454547L503.38750000000005,171.27272727272725L505.20833333333337,171.27272727272725L507.0291666666667,171.27272727272725L508.85,171.27272727272725L510.67083333333335,171.27272727272725L512.4916666666667,171.27272727272725L514.3125,171.27272727272725L516.1333333333333,171.27272727272725L517.9541666666667,140.72727272727275L519.775,140.72727272727275L521.5958333333333,140.72727272727275L523.4166666666666,140.72727272727275L525.2375,83.45454545454547L527.0583333333333,83.45454545454547L528.8791666666667,83.45454545454547L530.7,83.45454545454547L532.5208333333334,75.81818181818184L534.3416666666667,75.81818181818184L536.1625,75.81818181818184L537.9833333333333,75.81818181818184L539.8041666666667,79.63636363636363L541.625,79.63636363636363L543.4458333333333,79.63636363636363L545.2666666666667,79.63636363636363L547.0875,136.9090909090909L548.9083333333333,136.9090909090909L550.7291666666666,136.9090909090909L552.55,136.9090909090909L554.3708333333333,148.36363636363637L556.1916666666667,148.36363636363637L558.0125,148.36363636363637L559.8333333333334,148.36363636363637L561.6541666666667,140.72727272727275L563.475,140.72727272727275L565.2958333333333,140.72727272727275L567.1166666666667,140.72727272727275L568.9375,72L570.7583333333333,72L572.5791666666667,72L574.4,72L576.2208333333333,49.09090909090907L578.0416666666666,49.09090909090907L579.8625,49.09090909090907L581.6833333333333,49.09090909090907L583.5041666666667,87.27272727272727L585.325,87.27272727272727L587.1458333333334,87.27272727272727L588.9666666666667,87.27272727272727L590.7875,125.45454545454547L592.6083333333333,125.45454545454547L594.4291666666667,125.45454545454547L596.25,125.45454545454547L598.0708333333333,136.9090909090909L599.8916666666667,136.9090909090909L601.7125,136.9090909090909L603.5333333333333,136.9090909090909L605.3541666666666,129.27272727272725L607.175,129.27272727272725L608.9958333333333,129.27272727272725L610.8166666666667,129.27272727272725L612.6375,83.45454545454547L614.4583333333334,83.45454545454547L616.2791666666667,83.45454545454547L618.1,83.45454545454547L619.9208333333333,79.63636363636363L621.7416666666667,79.63636363636363L623.5625,79.63636363636363L625.3833333333333,79.63636363636363L627.2041666666667,94.9090909090909L629.025,94.9090909090909L630.8458333333333,94.9090909090909L632.6666666666666,94.9090909090909L634.4875,106.36363636363635L636.3083333333333,106.36363636363635L638.1291666666667,106.36363636363635L639.95,106.36363636363635L641.7708333333334,94.9090909090909L643.5916666666667,94.9090909090909L645.4125,94.9090909090909L647.2333333333333,94.9090909090909L649.0541666666667,56.72727272727272L650.875,56.72727272727272L652.6958333333333,56.72727272727272L654.5166666666667,56.72727272727272L656.3375,83.45454545454547L658.1583333333333,83.45454545454547L659.9791666666666,83.45454545454547L661.8,83.45454545454547L663.6208333333333,117.81818181818181L665.4416666666667,117.81818181818181L667.2625,117.81818181818181L669.0833333333334,117.81818181818181L670.9041666666667,125.45454545454547L672.725,125.45454545454547L674.5458333333333,125.45454545454547L676.3666666666667,125.45454545454547L678.1875,117.81818181818181L680.0083333333333,117.81818181818181L681.8291666666667,117.81818181818181L683.65,117.81818181818181L685.4708333333333,133.0909090909091L687.2916666666666,133.0909090909091L689.1125,133.0909090909091L690.9333333333333,133.0909090909091L692.7541666666667,106.36363636363635L694.575,106.36363636363635L696.3958333333334,106.36363636363635L698.2166666666667,106.36363636363635L700.0375,45.27272727272728L701.8583333333333,45.27272727272728L703.6791666666667,45.27272727272728L705.5,45.27272727272728L707.3208333333333,94.9090909090909L709.1416666666667,94.9090909090909L710.9625,94.9090909090909L712.7833333333333,94.9090909090909L714.6041666666666,167.45454545454547L716.425,167.45454545454547L718.2458333333333,167.45454545454547L720.0666666666667,167.45454545454547L721.8875,182.72727272727275L723.7083333333334,182.72727272727275L725.5291666666667,182.72727272727275L727.35,182.72727272727275L729.1708333333333,190.36363636363637L730.9916666666667,190.36363636363637L732.8125,190.36363636363637L734.6333333333333,190.36363636363637L736.4541666666667,178.9090909090909L738.275,178.9090909090909L740.0958333333333,178.9090909090909L741.9166666666666,178.9090909090909L743.7375,167.45454545454547L745.5583333333333,167.45454545454547L747.3791666666667,167.45454545454547L749.2,167.45454545454547L751.0208333333334,136.9090909090909L752.8416666666667,136.9090909090909L754.6625,136.9090909090909L756.4833333333333,136.9090909090909L758.3041666666667,133.0909090909091L760.125,133.0909090909091L761.9458333333333,133.0909090909091L763.7666666666667,133.0909090909091L765.5875,144.54545454545453L767.4083333333333,144.54545454545453L769.2291666666666,144.54545454545453L771.05,144.54545454545453L772.8708333333333,159.8181818181818L774.6916666666667,159.8181818181818L776.5125,159.8181818181818L778.3333333333334,159.8181818181818L780.1541666666667,167.45454545454547L781.975,167.45454545454547L783.7958333333333,167.45454545454547L785.6166666666667,167.45454545454547L787.4375,167.45454545454547L789.2583333333333,167.45454545454547L791.0791666666667,167.45454545454547L792.9,167.45454545454547L794.7208333333333,156.00000000000003L796.5416666666666,156.00000000000003L798.3625,156.00000000000003L800.1833333333333,156.00000000000003L802.0041666666667,156.00000000000003L803.825,156.00000000000003L805.6458333333334,156.00000000000003L807.4666666666667,156.00000000000003L809.2875,156.00000000000003L811.1083333333333,156.00000000000003L812.9291666666667,156.00000000000003L814.75,156.00000000000003L816.5708333333333,152.1818181818182L818.3916666666667,152.1818181818182L820.2125,152.1818181818182L822.0333333333333,152.1818181818182L823.8541666666666,148.36363636363637L825.675,148.36363636363637L827.4958333333333,148.36363636363637L829.3166666666667,148.36363636363637L831.1375,152.1818181818182L832.9583333333334,152.1818181818182L834.7791666666667,152.1818181818182L836.6,152.1818181818182L838.4208333333333,152.1818181818182L840.2416666666667,152.1818181818182L842.0625,152.1818181818182L843.8833333333333,152.1818181818182L845.7041666666667,152.1818181818182L847.525,152.1818181818182L849.3458333333333,152.1818181818182L851.1666666666666,152.1818181818182L852.9875,156.00000000000003L854.8083333333333,156.00000000000003L856.6291666666667,156.00000000000003L858.45,156.00000000000003L860.2708333333334,156.00000000000003L862.0916666666667,156.00000000000003L863.9125,156.00000000000003L865.7333333333333,156.00000000000003L867.5541666666667,156.00000000000003L869.375,156.00000000000003L871.1958333333333,156.00000000000003L873.0166666666667,156.00000000000003L874.8375,156.00000000000003L876.6583333333333,156.00000000000003L878.4791666666666,156.00000000000003L880.3,156.00000000000003L882.1208333333333,156.00000000000003L883.9416666666667,156.00000000000003L885.7625,156.00000000000003L887.5833333333334,156.00000000000003L889.4041666666667,156.00000000000003L891.225,156.00000000000003L893.0458333333333,156.00000000000003L894.8666666666667,156.00000000000003L896.6875,156.00000000000003L898.5083333333333,156.00000000000003L900.3291666666667,156.00000000000003L902.15,156.00000000000003L903.9708333333333,152.1818181818182L905.7916666666666,152.1818181818182L907.6125,152.1818181818182L909.4333333333333,152.1818181818182L911.2541666666667,148.36363636363637L913.075,148.36363636363637L914.8958333333334,148.36363636363637L916.7166666666667,148.36363636363637L918.5375,144.54545454545453L920.3583333333333,144.54545454545453L922.1791666666667,144.54545454545453L924,144.54545454545453"/><line x1="210.23333333333332" y1="40.27272727272728" x2="210.23333333333332" y2="450" stroke="#e41a1c" stroke-width="2.5" stroke-linejoin="round" stroke-linecap="round"/><line x1="304.9166666666667" y1="40.27272727272728" x2="304.9166666666667" y2="450" stroke="#e41a1c" stroke-width="2.5" stroke-linejoin="round" stroke-linecap="round"/><text x="190.23333333333332" y="30.27272727272728" text-anchor="middle" style="font-size: 16px; fill: rgb(0, 0, 0);">Survey Sent</text><text x="324.9166666666667" y="30.27272727272728" text-anchor="middle" style="font-size: 16px; fill: rgb(0, 0, 0);">Survey Received</text></svg>