<svg viewBox="0,0,954,500" xmlns="http://www.w3.org/2000/svg" xmlns:xlink="http://www.w3.org/1999/xlink"><g transform="translate(0,450)" fill="none" font-size="10" font-family="sans-serif" text-anchor="middle"><path class="domain" stroke="currentColor" d="M50.5,0.5H924.5"/><g class="tick" opacity="1" transform="translate(50.5,0)"><line stroke="currentColor" y2="6"/><text fill="currentColor" y="9" dy="0.71em">12 PM</text></g><g class="tick" opacity="1" transform="translate(159.75,0)"><line stroke="currentColor" y2="6"/><text fill="currentColor" y="9" dy="0.71em">12:15</text></g><g class="tick" opacity="1" transform="translate(269,0)"><line stroke="currentColor" y2="6"/><text fill="currentColor" y="9" dy="0.71em">12:30</text></g><g class="tick" opacity="1" transform="translate(378.25,0)"><line stroke="currentColor" y2="6"/><text fill="currentColor" y="9" dy="0.71em">12:45</text></g><g class="tick" opacity="1" transform="translate(487.5,0)"><line stroke="currentColor" y2="6"/><text fill="currentColor" y="9" dy="0.71em">01 PM</text></g><g class="tick" opacity="1" transform="translate(596.75,0)"><line stroke="currentColor" y2="6"/><text fill="currentColor" y="9" dy="0.71em">01:15</text></g><g class="tick" opacity="1" transform="translate(706,0)"><line stroke="currentColor" y2="6"/><text fill="currentColor" y="9" dy="0.71em">01:30</text></g><g class="tick" opacity="1" transform="translate(815.25,0)"><line stroke="currentColor" y2="6"/><text fill="currentColor" y="9" dy="0.71em">01:45</text></g><g class="tick" opacity="1" transform="translate(924.5,0)"><line stroke="currentColor" y2="6"/><text fill="currentColor" y="9" dy="0.71em">02 PM</text></g></g><g transform="translate(50,0)" fill="none" font-size="10" font-family="sans-serif" text-anchor="end"><g class="tick" opacity="1" transform="translate(0,450.5)"><line stroke="currentColor" x2="-6"/><text fill="currentColor" x="-9" dy="0.32em">0</text></g><g class="tick" opacity="1" transform="translate(0,412.3181818181818)"><line stroke="currentColor" x2="-6"/><text fill="currentColor" x="-9" dy="0.32em">10</text></g><g class="tick" opacity="1" transform="translate(0,374.13636363636357)"><line stroke="currentColor" x2="-6"/><text fill="currentColor" x="-9" dy="0.32em">20</text></g><g class="tick" opacity="1" transform="translate(0,335.9545454545455)"><line stroke="currentColor" x2="-6"/><text fill="currentColor" x="-9" dy="0.32em">30</text></g><g class="tick" opacity="1" transform="translate(0,297.7727272727273)"><line stroke="currentColor" x2="-6"/><text fill="currentColor" x="-9" dy="0.32em">40</text></g><g class="tick" opacity="1" transform="translate(0,259.59090909090907)"><line stroke="currentColor" x2="-6"/><text fill="currentColor" x="-9" dy="0.32em">50</text></g><g class="tick" opacity="1" transform="translate(0,221.40909090909093)"><line stroke="currentColor" x2="-6"/><text fill="currentColor" x="-9" dy="0.32em">60</text></g><g class="tick" opacity="1" transform="translate(0,183.22727272727275)"><line stroke="currentColor" x2="-6"/><text fill="currentColor" x="-9" dy="0.32em">70</text></g><g class="tick" opacity="1" transform="translate(0,145.04545454545453)"><line stroke="currentColor" x2="-6"/><text fill="currentColor" x="-9" dy="0.32em">80</text></g><g class="tick" opacity="1" transform="translate(0,106.86363636363635)"><line stroke="currentColor" x2="-6"/><text fill="currentColor" x="-9" dy="0.32em">90</text></g><g class="tick" opacity="1" transform="translate(0,68.68181818181819)"><line stroke="currentColor" x2="-6"/><text fill="currentColor" x="-9" dy="0.32em">100</text></g><g class="tick" opacity="1" transform="translate(0,30.5)"><line stroke="currentColor" x2="-6"/><text fill="currentColor" x="-9" dy="0.32em">110</text><text fill="currentColor" x="3" dy="0.32em" text-anchor="start" font-weight="bold"/></g></g><text transform="translate(477 ,490)" style="text-anchor: middle;">Time</text><text transform="rotate(-90)" y="0" x="-250" dy="1em" style="text-anchor: middle;">Heart Rate (BPM)</text><path fill="none" stroke="#377eb8" stroke-width="3" stroke-linejoin="round" stroke-linecap="round" d="M50,190.36363636363637L51.82083333333333,159.8181818181818L53.641666666666666,159.8181818181818L55.4625,159.8181818181818L57.28333333333334,159.8181818181818L59.10416666666667,171.27272727272725L60.925,171.27272727272725L62.74583333333334,171.27272727272725L64.56666666666666,171.27272727272725L66.3875,148.36363636363637L68.20833333333333,148.36363636363637L70.02916666666667,148.36363636363637L71.85,148.36363636363637L73.67083333333333,175.0909090909091L75.49166666666666,175.0909090909091L77.3125,175.0909090909091L79.13333333333334,175.0909090909091L80.95416666666667,190.36363636363637L82.775,190.36363636363637L84.59583333333333,190.36363636363637L86.41666666666667,190.36363636363637L88.2375,198L90.05833333333334,198L91.87916666666666,198L93.7,198L95.52083333333333,201.81818181818178L97.34166666666667,201.81818181818178L99.1625,201.81818181818178L100.98333333333333,201.81818181818178L102.80416666666667,205.63636363636363L104.625,205.63636363636363L106.44583333333334,205.63636363636363L108.26666666666667,205.63636363636363L110.0875,205.63636363636363L111.90833333333333,205.63636363636363L113.72916666666667,205.63636363636363L115.55,205.63636363636363L117.37083333333334,209.45454545454544L119.19166666666666,209.45454545454544L121.0125,209.45454545454544L122.83333333333333,209.45454545454544L124.65416666666667,175.0909090909091L126.475,175.0909090909091L128.29583333333335,175.0909090909091L130.11666666666665,175.0909090909091L131.9375,171.27272727272725L133.75833333333335,171.27272727272725L135.57916666666665,171.27272727272725L137.4,171.27272727272725L139.22083333333333,167.45454545454547L141.04166666666669,167.45454545454547L142.8625,167.45454545454547L144.68333333333334,167.45454545454547L146.50416666666666,163.63636363636368L148.325,163.63636363636368L150.14583333333331,163.63636363636368L151.96666666666667,163.63636363636368L153.7875,159.8181818181818L155.60833333333335,159.8181818181818L157.42916666666665,159.8181818181818L159.25,159.8181818181818L161.07083333333333,144.54545454545453L162.89166666666668,144.54545454545453L164.7125,144.54545454545453L166.53333333333333,144.54545454545453L168.35416666666666,159.8181818181818L170.175,159.8181818181818L171.99583333333334,159.8181818181818L173.81666666666666,159.8181818181818L175.6375,140.72727272727275L177.45833333333331,140.72727272727275L179.27916666666667,140.72727272727275L181.1,140.72727272727275L182.92083333333332,156.00000000000003L184.74166666666667,156.00000000000003L186.5625,156.00000000000003L188.38333333333333,156.00000000000003L190.20416666666668,167.45454545454547L192.025,167.45454545454547L193.84583333333333,167.45454545454547L195.66666666666669,167.45454545454547L197.4875,171.27272727272725L199.30833333333334,171.27272727272725L201.12916666666666,171.27272727272725L202.95,171.27272727272725L204.77083333333331,175.0909090909091L206.59166666666667,175.0909090909091L208.4125,175.0909090909091L210.23333333333332,175.0909090909091L212.05416666666667,175.0909090909091L213.875,175.0909090909091L215.69583333333333,175.0909090909091L217.51666666666668,175.0909090909091L219.3375,178.9090909090909L221.15833333333333,178.9090909090909L222.97916666666669,178.9090909090909L224.8,178.9090909090909L226.62083333333334,175.0909090909091L228.44166666666666,175.0909090909091L230.2625,175.0909090909091L232.08333333333331,175.0909090909091L233.90416666666667,163.63636363636368L235.725,163.63636363636368L237.54583333333332,163.63636363636368L239.36666666666667,163.63636363636368L241.1875,163.63636363636368L243.00833333333333,163.63636363636368L244.82916666666668,163.63636363636368L246.65,163.63636363636368L248.47083333333333,163.63636363636368L250.29166666666669,163.63636363636368L252.1125,163.63636363636368L253.93333333333334,163.63636363636368L255.75416666666666,167.45454545454547L257.575,167.45454545454547L259.3958333333333,167.45454545454547L261.2166666666667,167.45454545454547L263.0375,182.72727272727275L264.8583333333333,182.72727272727275L266.6791666666667,182.72727272727275L268.5,182.72727272727275L270.3208333333333,182.72727272727275L272.14166666666665,182.72727272727275L273.9625,182.72727272727275L275.78333333333336,182.72727272727275L277.6041666666667,129.27272727272725L279.425,129.27272727272725L281.24583333333334,129.27272727272725L283.06666666666666,129.27272727272725L284.8875,49.09090909090907L286.7083333333333,49.09090909090907L288.52916666666664,49.09090909090907L290.35,49.09090909090907L292.17083333333335,56.72727272727272L293.9916666666667,56.72727272727272L295.8125,56.72727272727272L297.6333333333333,56.72727272727272L299.45416666666665,125.45454545454547L301.275,125.45454545454547L303.09583333333336,125.45454545454547L304.9166666666667,125.45454545454547L306.7375,163.63636363636368L308.55833333333334,163.63636363636368L310.37916666666666,163.63636363636368L312.2,163.63636363636368L314.0208333333333,182.72727272727275L315.84166666666664,182.72727272727275L317.6625,182.72727272727275L319.48333333333335,182.72727272727275L321.3041666666667,159.8181818181818L323.125,159.8181818181818L324.9458333333333,159.8181818181818L326.76666666666665,159.8181818181818L328.5875,171.27272727272725L330.40833333333336,171.27272727272725L332.2291666666667,171.27272727272725L334.05,171.27272727272725L335.87083333333334,140.72727272727275L337.69166666666666,140.72727272727275L339.5125,140.72727272727275L341.3333333333333,140.72727272727275L343.15416666666664,133.0909090909091L344.975,133.0909090909091L346.79583333333335,133.0909090909091L348.6166666666667,133.0909090909091L350.4375,186.54545454545453L352.2583333333333,186.54545454545453L354.07916666666665,186.54545454545453L355.9,186.54545454545453L357.72083333333336,175.0909090909091L359.5416666666667,175.0909090909091L361.3625,175.0909090909091L363.18333333333334,175.0909090909091L365.00416666666666,171.27272727272725L366.825,171.27272727272725L368.6458333333333,171.27272727272725L370.46666666666664,171.27272727272725L372.2875,175.0909090909091L374.10833333333335,175.0909090909091L375.9291666666667,175.0909090909091L377.75,175.0909090909091L379.5708333333333,159.8181818181818L381.39166666666665,159.8181818181818L383.2125,159.8181818181818L385.03333333333336,159.8181818181818L386.8541666666667,163.63636363636368L388.675,163.63636363636368L390.49583333333334,163.63636363636368L392.31666666666666,163.63636363636368L394.1375,156.00000000000003L395.9583333333333,156.00000000000003L397.77916666666664,156.00000000000003L399.6,156.00000000000003L401.42083333333335,125.45454545454547L403.2416666666667,125.45454545454547L405.0625,125.45454545454547L406.8833333333333,125.45454545454547L408.70416666666665,144.54545454545453L410.525,144.54545454545453L412.34583333333336,144.54545454545453L414.1666666666667,144.54545454545453L415.9875,152.1818181818182L417.80833333333334,152.1818181818182L419.62916666666666,152.1818181818182L421.45,152.1818181818182L423.2708333333333,156.00000000000003L425.09166666666664,156.00000000000003L426.9125,156.00000000000003L428.73333333333335,156.00000000000003L430.5541666666667,152.1818181818182L432.375,152.1818181818182L434.1958333333333,152.1818181818182L436.01666666666665,152.1818181818182L437.8375,125.45454545454547L439.65833333333336,125.45454545454547L441.4791666666667,125.45454545454547L443.3,125.45454545454547L445.12083333333334,171.27272727272725L446.94166666666666,171.27272727272725L448.7625,171.27272727272725L450.5833333333333,171.27272727272725L452.40416666666664,175.0909090909091L454.225,175.0909090909091L456.04583333333335,175.0909090909091L457.8666666666667,175.0909090909091L459.6875,94.9090909090909L461.5083333333333,94.9090909090909L463.32916666666665,94.9090909090909L465.15,94.9090909090909L466.97083333333336,125.45454545454547L468.7916666666667,125.45454545454547L470.6125,125.45454545454547L472.43333333333334,125.45454545454547L474.25416666666666,75.81818181818184L476.075,75.81818181818184L477.8958333333333,75.81818181818184L479.71666666666664,75.81818181818184L481.5375,113.99999999999999L483.35833333333335,113.99999999999999L485.1791666666667,113.99999999999999L487,113.99999999999999L488.8208333333333,159.8181818181818L490.64166666666665,159.8181818181818L492.4625,159.8181818181818L494.2833333333333,159.8181818181818L496.10416666666663,186.54545454545453L497.92499999999995,186.54545454545453L499.7458333333333,186.54545454545453L501.5666666666667,186.54545454545453L503.38750000000005,194.1818181818182L505.20833333333337,194.1818181818182L507.0291666666667,194.1818181818182L508.85,194.1818181818182L510.67083333333335,171.27272727272725L512.4916666666667,171.27272727272725L514.3125,171.27272727272725L516.1333333333333,171.27272727272725L517.9541666666667,167.45454545454547L519.775,167.45454545454547L521.5958333333333,167.45454545454547L523.4166666666666,167.45454545454547L525.2375,167.45454545454547L527.0583333333333,167.45454545454547L528.8791666666667,167.45454545454547L530.7,167.45454545454547L532.5208333333334,159.8181818181818L534.3416666666667,159.8181818181818L536.1625,159.8181818181818L537.9833333333333,159.8181818181818L539.8041666666667,140.72727272727275L541.625,140.72727272727275L543.4458333333333,140.72727272727275L545.2666666666667,140.72727272727275L547.0875,148.36363636363637L548.9083333333333,148.36363636363637L550.7291666666666,148.36363636363637L552.55,148.36363636363637L554.3708333333333,175.0909090909091L556.1916666666667,175.0909090909091L558.0125,175.0909090909091L559.8333333333334,175.0909090909091L561.6541666666667,178.9090909090909L563.475,178.9090909090909L565.2958333333333,178.9090909090909L567.1166666666667,178.9090909090909L568.9375,171.27272727272725L570.7583333333333,171.27272727272725L572.5791666666667,171.27272727272725L574.4,171.27272727272725L576.2208333333333,148.36363636363637L578.0416666666666,148.36363636363637L579.8625,148.36363636363637L581.6833333333333,148.36363636363637L583.5041666666667,159.8181818181818L585.325,159.8181818181818L587.1458333333334,159.8181818181818L588.9666666666667,159.8181818181818L590.7875,156.00000000000003L592.6083333333333,156.00000000000003L594.4291666666667,156.00000000000003L596.25,156.00000000000003L598.0708333333333,144.54545454545453L599.8916666666667,144.54545454545453L601.7125,144.54545454545453L603.5333333333333,144.54545454545453L605.3541666666666,121.63636363636361L607.175,121.63636363636361L608.9958333333333,121.63636363636361L610.8166666666667,121.63636363636361L612.6375,129.27272727272725L614.4583333333334,129.27272727272725L616.2791666666667,129.27272727272725L618.1,129.27272727272725L619.9208333333333,102.54545454545455L621.7416666666667,102.54545454545455L623.5625,102.54545454545455L625.3833333333333,102.54545454545455L627.2041666666667,83.45454545454547L629.025,83.45454545454547L630.8458333333333,83.45454545454547L632.6666666666666,83.45454545454547L634.4875,110.18181818181819L636.3083333333333,110.18181818181819L638.1291666666667,110.18181818181819L639.95,110.18181818181819L641.7708333333334,110.18181818181819L643.5916666666667,110.18181818181819L645.4125,110.18181818181819L647.2333333333333,110.18181818181819L649.0541666666667,94.9090909090909L650.875,94.9090909090909L652.6958333333333,94.9090909090909L654.5166666666667,94.9090909090909L656.3375,83.45454545454547L658.1583333333333,83.45454545454547L659.9791666666666,83.45454545454547L661.8,83.45454545454547L663.6208333333333,156.00000000000003L665.4416666666667,156.00000000000003L667.2625,156.00000000000003L669.0833333333334,156.00000000000003L670.9041666666667,178.9090909090909L672.725,178.9090909090909L674.5458333333333,178.9090909090909L676.3666666666667,178.9090909090909L678.1875,171.27272727272725L680.0083333333333,171.27272727272725L681.8291666666667,171.27272727272725L683.65,171.27272727272725L685.4708333333333,175.0909090909091L687.2916666666666,175.0909090909091L689.1125,175.0909090909091L690.9333333333333,175.0909090909091L692.7541666666667,163.63636363636368L694.575,163.63636363636368L696.3958333333334,163.63636363636368L698.2166666666667,163.63636363636368L700.0375,152.1818181818182L701.8583333333333,152.1818181818182L703.6791666666667,152.1818181818182L705.5,152.1818181818182L707.3208333333333,171.27272727272725L709.1416666666667,171.27272727272725L710.9625,171.27272727272725L712.7833333333333,171.27272727272725L714.6041666666666,182.72727272727275L716.425,182.72727272727275L718.2458333333333,182.72727272727275L720.0666666666667,182.72727272727275L721.8875,178.9090909090909L723.7083333333334,178.9090909090909L725.5291666666667,178.9090909090909L727.35,178.9090909090909L729.1708333333333,167.45454545454547L730.9916666666667,167.45454545454547L732.8125,167.45454545454547L734.6333333333333,167.45454545454547L736.4541666666667,148.36363636363637L738.275,148.36363636363637L740.0958333333333,148.36363636363637L741.9166666666666,148.36363636363637L743.7375,159.8181818181818L745.5583333333333,159.8181818181818L747.3791666666667,159.8181818181818L749.2,159.8181818181818L751.0208333333334,163.63636363636368L752.8416666666667,163.63636363636368L754.6625,163.63636363636368L756.4833333333333,163.63636363636368L758.3041666666667,163.63636363636368L760.125,163.63636363636368L761.9458333333333,163.63636363636368L763.7666666666667,163.63636363636368L765.5875,152.1818181818182L767.4083333333333,152.1818181818182L769.2291666666666,152.1818181818182L771.05,152.1818181818182L772.8708333333333,156.00000000000003L774.6916666666667,156.00000000000003L776.5125,156.00000000000003L778.3333333333334,156.00000000000003L780.1541666666667,75.81818181818184L781.975,75.81818181818184L783.7958333333333,75.81818181818184L785.6166666666667,75.81818181818184L787.4375,102.54545454545455L789.2583333333333,102.54545454545455L791.0791666666667,102.54545454545455L792.9,102.54545454545455L794.7208333333333,163.63636363636368L796.5416666666666,163.63636363636368L798.3625,163.63636363636368L800.1833333333333,163.63636363636368L802.0041666666667,156.00000000000003L803.825,156.00000000000003L805.6458333333334,156.00000000000003L807.4666666666667,156.00000000000003L809.2875,152.1818181818182L811.1083333333333,152.1818181818182L812.9291666666667,152.1818181818182L814.75,152.1818181818182L816.5708333333333,167.45454545454547L818.3916666666667,167.45454545454547L820.2125,167.45454545454547L822.0333333333333,167.45454545454547L823.8541666666666,83.45454545454547L825.675,83.45454545454547L827.4958333333333,83.45454545454547L829.3166666666667,83.45454545454547L831.1375,83.45454545454547L832.9583333333334,83.45454545454547L834.7791666666667,83.45454545454547L836.6,83.45454545454547L838.4208333333333,148.36363636363637L840.2416666666667,148.36363636363637L842.0625,148.36363636363637L843.8833333333333,148.36363636363637L845.7041666666667,171.27272727272725L847.525,171.27272727272725L849.3458333333333,171.27272727272725L851.1666666666666,171.27272727272725L852.9875,171.27272727272725L854.8083333333333,171.27272727272725L856.6291666666667,171.27272727272725L858.45,171.27272727272725L860.2708333333334,171.27272727272725L862.0916666666667,171.27272727272725L863.9125,171.27272727272725L865.7333333333333,171.27272727272725L867.5541666666667,167.45454545454547L869.375,167.45454545454547L871.1958333333333,167.45454545454547L873.0166666666667,167.45454545454547L874.8375,156.00000000000003L876.6583333333333,156.00000000000003L878.4791666666666,156.00000000000003L880.3,156.00000000000003L882.1208333333333,159.8181818181818L883.9416666666667,159.8181818181818L885.7625,159.8181818181818L887.5833333333334,159.8181818181818L889.4041666666667,159.8181818181818L891.225,159.8181818181818L893.0458333333333,159.8181818181818L894.8666666666667,159.8181818181818L896.6875,167.45454545454547L898.5083333333333,167.45454545454547L900.3291666666667,167.45454545454547L902.15,167.45454545454547L903.9708333333333,186.54545454545453L905.7916666666666,186.54545454545453L907.6125,186.54545454545453L909.4333333333333,186.54545454545453L911.2541666666667,178.9090909090909L913.075,178.9090909090909L914.8958333333334,178.9090909090909L916.7166666666667,178.9090909090909L918.5375,178.9090909090909L920.3583333333333,178.9090909090909L922.1791666666667,178.9090909090909L924,178.9090909090909"/><line x1="232.08333333333331" y1="44.09090909090907" x2="232.08333333333331" y2="450" stroke="#e41a1c" stroke-width="2.5" stroke-linejoin="round" stroke-linecap="round"/><line x1="428.73333333333335" y1="44.09090909090907" x2="428.73333333333335" y2="450" stroke="#e41a1c" stroke-width="2.5" stroke-linejoin="round" stroke-linecap="round"/><text x="212.08333333333331" y="34.09090909090907" text-anchor="middle" style="font-size: 16px; fill: rgb(0, 0, 0);">Survey Sent</text><text x="448.73333333333335" y="34.09090909090907" text-anchor="middle" style="font-size: 16px; fill: rgb(0, 0, 0);">Survey Received</text></svg>