<svg viewBox="0,0,954,500" xmlns="http://www.w3.org/2000/svg" xmlns:xlink="http://www.w3.org/1999/xlink"><g transform="translate(0, 50)" fill="none" font-size="10" font-family="sans-serif" text-anchor="middle"><path class="domain" stroke="currentColor" d="M50.5,0.5H924.5"/><g class="tick" opacity="1" transform="translate(50.5,0)"><line stroke="currentColor" y2="-6"/><text fill="currentColor" y="-9" dy="0em">12 PM</text></g><g class="tick" opacity="1" transform="translate(159.75,0)"><line stroke="currentColor" y2="-6"/><text fill="currentColor" y="-9" dy="0em">12:15</text></g><g class="tick" opacity="1" transform="translate(269,0)"><line stroke="currentColor" y2="-6"/><text fill="currentColor" y="-9" dy="0em">12:30</text></g><g class="tick" opacity="1" transform="translate(378.25,0)"><line stroke="currentColor" y2="-6"/><text fill="currentColor" y="-9" dy="0em">12:45</text></g><g class="tick" opacity="1" transform="translate(487.5,0)"><line stroke="currentColor" y2="-6"/><text fill="currentColor" y="-9" dy="0em">01 PM</text></g><g class="tick" opacity="1" transform="translate(596.75,0)"><line stroke="currentColor" y2="-6"/><text fill="currentColor" y="-9" dy="0em">01:15</text></g><g class="tick" opacity="1" transform="translate(706,0)"><line stroke="currentColor" y2="-6"/><text fill="currentColor" y="-9" dy="0em">01:30</text></g><g class="tick" opacity="1" transform="translate(815.25,0)"><line stroke="currentColor" y2="-6"/><text fill="currentColor" y="-9" dy="0em">01:45</text></g><g class="tick" opacity="1" transform="translate(924.5,0)"><line stroke="currentColor" y2="-6"/><text fill="currentColor" y="-9" dy="0em">02 PM</text></g></g><g transform="translate(50,0)" fill="none" font-size="10" font-family="sans-serif" text-anchor="end"><g class="tick" opacity="1" transform="translate(0,50.5)"><line stroke="currentColor" x2="-6"/><text fill="currentColor" x="-9" dy="0.32em">0</text></g><g class="tick" opacity="1" transform="translate(0,92.5)"><line stroke="currentColor" x2="-6"/><text fill="currentColor" x="-9" dy="0.32em">-10</text></g><g class="tick" opacity="1" transform="translate(0,134.5)"><line stroke="currentColor" x2="-6"/><text fill="currentColor" x="-9" dy="0.32em">-20</text></g><g class="tick" opacity="1" transform="translate(0,176.50000000000003)"><line stroke="currentColor" x2="-6"/><text fill="currentColor" x="-9" dy="0.32em">-30</text></g><g class="tick" opacity="1" transform="translate(0,218.5)"><line stroke="currentColor" x2="-6"/><text fill="currentColor" x="-9" dy="0.32em">-40</text></g><g class="tick" opacity="1" transform="translate(0,260.5)"><line stroke="currentColor" x2="-6"/><text fill="currentColor" x="-9" dy="0.32em">-50</text></g><g class="tick" opacity="1" transform="translate(0,302.5)"><line stroke="currentColor" x2="-6"/><text fill="currentColor" x="-9" dy="0.32em">-60</text></g><g class="tick" opacity="1" transform="translate(0,344.5)"><line stroke="currentColor" x2="-6"/><text fill="currentColor" x="-9" dy="0.32em">-70</text></g><g class="tick" opacity="1" transform="translate(0,386.5)"><line stroke="currentColor" x2="-6"/><text fill="currentColor" x="-9" dy="0.32em">-80</text></g><g class="tick" opacity="1" transform="translate(0,428.5)"><line stroke="currentColor" x2="-6"/><text fill="currentColor" x="-9" dy="0.32em">-90</text></g><g class="tick" opacity="1" transform="translate(0,470.5)"><line stroke="currentColor" x2="-6"/><text fill="currentColor" x="-9" dy="0.32em">-100</text><text fill="currentColor" x="3" dy="0.32em" text-anchor="start" font-weight="bold"/></g></g><text transform="translate(477 ,20)" style="text-anchor: middle;">Time</text><text transform="rotate(-90)" y="0" x="-250" dy="1em" style="text-anchor: middle;">RSSI</text><g fill="#1b9e77"><rect x="87.50916666666666" y="50" height="381.8" width="6"/><rect x="163.62" y="50" height="386" width="6"/><rect x="241.43027777777777" y="50" height="356.59999999999997" width="6"/><rect x="313.0497222222222" y="50" height="428" width="6"/><rect x="396.3225" y="50" height="436.40000000000003" width="6"/><rect x="471.705" y="50" height="386" width="6"/><rect x="487.1213888888889" y="50" height="318.8" width="6"/><rect x="550.9719444444445" y="50" height="344" width="6"/><rect x="551.3361111111111" y="50" height="386" width="6"/><rect x="626.1116666666667" y="50" height="323" width="6"/><rect x="626.2330555555556" y="50" height="335.59999999999997" width="6"/><rect x="705.9855555555555" y="50" height="255.79999999999998" width="6"/><rect x="706.5925" y="50" height="390.20000000000005" width="6"/><rect x="780.0327777777777" y="50" height="348.2" width="6"/><rect x="780.3969444444444" y="50" height="390.20000000000005" width="6"/><rect x="856.7505555555555" y="50" height="310.4" width="6"/><rect x="857.2361111111112" y="50" height="402.8" width="6"/></g></svg>