<svg viewBox="0,0,954,500" xmlns="http://www.w3.org/2000/svg" xmlns:xlink="http://www.w3.org/1999/xlink"><g transform="translate(0,450)" fill="none" font-size="10" font-family="sans-serif" text-anchor="middle"><path class="domain" stroke="currentColor" d="M50.5,0.5H924.5"/><g class="tick" opacity="1" transform="translate(50.5,0)"><line stroke="currentColor" y2="6"/><text fill="currentColor" y="9" dy="0.71em">12 PM</text></g><g class="tick" opacity="1" transform="translate(159.75,0)"><line stroke="currentColor" y2="6"/><text fill="currentColor" y="9" dy="0.71em">12:15</text></g><g class="tick" opacity="1" transform="translate(269,0)"><line stroke="currentColor" y2="6"/><text fill="currentColor" y="9" dy="0.71em">12:30</text></g><g class="tick" opacity="1" transform="translate(378.25,0)"><line stroke="currentColor" y2="6"/><text fill="currentColor" y="9" dy="0.71em">12:45</text></g><g class="tick" opacity="1" transform="translate(487.5,0)"><line stroke="currentColor" y2="6"/><text fill="currentColor" y="9" dy="0.71em">01 PM</text></g><g class="tick" opacity="1" transform="translate(596.75,0)"><line stroke="currentColor" y2="6"/><text fill="currentColor" y="9" dy="0.71em">01:15</text></g><g class="tick" opacity="1" transform="translate(706,0)"><line stroke="currentColor" y2="6"/><text fill="currentColor" y="9" dy="0.71em">01:30</text></g><g class="tick" opacity="1" transform="translate(815.25,0)"><line stroke="currentColor" y2="6"/><text fill="currentColor" y="9" dy="0.71em">01:45</text></g><g class="tick" opacity="1" transform="translate(924.5,0)"><line stroke="currentColor" y2="6"/><text fill="currentColor" y="9" dy="0.71em">02 PM</text></g></g><g transform="translate(50,0)" fill="none" font-size="10" font-family="sans-serif" text-anchor="end"><g class="tick" opacity="1" transform="translate(0,450.5)"><line stroke="currentColor" x2="-6"/><text fill="currentColor" x="-9" dy="0.32em">0</text></g><g class="tick" opacity="1" transform="translate(0,408.5)"><line stroke="currentColor" x2="-6"/><text fill="currentColor" x="-9" dy="0.32em">10</text></g><g class="tick" opacity="1" transform="translate(0,366.5)"><line stroke="currentColor" x2="-6"/><text fill="currentColor" x="-9" dy="0.32em">20</text></g><g class="tick" opacity="1" transform="translate(0,324.5)"><line stroke="currentColor" x2="-6"/><text fill="currentColor" x="-9" dy="0.32em">30</text></g><g class="tick" opacity="1" transform="translate(0,282.5)"><line stroke="currentColor" x2="-6"/><text fill="currentColor" x="-9" dy="0.32em">40</text></g><g class="tick" opacity="1" transform="translate(0,240.5)"><line stroke="currentColor" x2="-6"/><text fill="currentColor" x="-9" dy="0.32em">50</text></g><g class="tick" opacity="1" transform="translate(0,198.5)"><line stroke="currentColor" x2="-6"/><text fill="currentColor" x="-9" dy="0.32em">60</text></g><g class="tick" opacity="1" transform="translate(0,156.50000000000003)"><line stroke="currentColor" x2="-6"/><text fill="currentColor" x="-9" dy="0.32em">70</text></g><g class="tick" opacity="1" transform="translate(0,114.49999999999999)"><line stroke="currentColor" x2="-6"/><text fill="currentColor" x="-9" dy="0.32em">80</text></g><g class="tick" opacity="1" transform="translate(0,72.5)"><line stroke="currentColor" x2="-6"/><text fill="currentColor" x="-9" dy="0.32em">90</text></g><g class="tick" opacity="1" transform="translate(0,30.5)"><line stroke="currentColor" x2="-6"/><text fill="currentColor" x="-9" dy="0.32em">100</text><text fill="currentColor" x="3" dy="0.32em" text-anchor="start" font-weight="bold"/></g></g><text transform="translate(477 ,490)" style="text-anchor: middle;">Time</text><text transform="rotate(-90)" y="0" x="-250" dy="1em" style="text-anchor: middle;">Heart Rate (BPM)</text><path fill="none" stroke="#377eb8" stroke-width="3" stroke-linejoin="round" stroke-linecap="round" d="M50,143.4L51.82083333333333,160.20000000000002L53.641666666666666,160.20000000000002L55.4625,160.20000000000002L57.28333333333334,160.20000000000002L59.10416666666667,151.8L60.925,151.8L62.74583333333334,151.8L64.56666666666666,151.8L66.3875,143.4L68.20833333333333,143.4L70.02916666666667,143.4L71.85,143.4L73.67083333333333,156.00000000000003L75.49166666666666,156.00000000000003L77.3125,156.00000000000003L79.13333333333334,156.00000000000003L80.95416666666667,151.8L82.775,151.8L84.59583333333333,151.8L86.41666666666667,151.8L88.2375,156.00000000000003L90.05833333333334,156.00000000000003L91.87916666666666,156.00000000000003L93.7,156.00000000000003L95.52083333333333,156.00000000000003L97.34166666666667,156.00000000000003L99.1625,156.00000000000003L100.98333333333333,156.00000000000003L102.80416666666667,168.59999999999997L104.625,168.59999999999997L106.44583333333334,168.59999999999997L108.26666666666667,168.59999999999997L110.0875,147.60000000000002L111.90833333333333,147.60000000000002L113.72916666666667,147.60000000000002L115.55,147.60000000000002L117.37083333333334,118.19999999999999L119.19166666666666,118.19999999999999L121.0125,118.19999999999999L122.83333333333333,118.19999999999999L124.65416666666667,118.19999999999999L126.475,118.19999999999999L128.29583333333335,118.19999999999999L130.11666666666665,118.19999999999999L131.9375,118.19999999999999L133.75833333333335,118.19999999999999L135.57916666666665,118.19999999999999L137.4,118.19999999999999L139.22083333333333,151.8L141.04166666666669,151.8L142.8625,151.8L144.68333333333334,151.8L146.50416666666666,177L148.325,177L150.14583333333331,177L151.96666666666667,177L153.7875,177L155.60833333333335,177L157.42916666666665,177L159.25,177L161.07083333333333,185.4L162.89166666666668,185.4L164.7125,185.4L166.53333333333333,185.4L168.35416666666666,181.2L170.175,181.2L171.99583333333334,181.2L173.81666666666666,181.2L175.6375,181.2L177.45833333333331,181.2L179.27916666666667,181.2L181.1,181.2L182.92083333333332,181.2L184.74166666666667,181.2L186.5625,181.2L188.38333333333333,181.2L190.20416666666668,164.39999999999998L192.025,164.39999999999998L193.84583333333333,164.39999999999998L195.66666666666669,164.39999999999998L197.4875,172.8L199.30833333333334,172.8L201.12916666666666,172.8L202.95,172.8L204.77083333333331,177L206.59166666666667,177L208.4125,177L210.23333333333332,177L212.05416666666667,172.8L213.875,172.8L215.69583333333333,172.8L217.51666666666668,172.8L219.3375,172.8L221.15833333333333,172.8L222.97916666666669,172.8L224.8,172.8L226.62083333333334,181.2L228.44166666666666,181.2L230.2625,181.2L232.08333333333331,181.2L233.90416666666667,168.59999999999997L235.725,168.59999999999997L237.54583333333332,168.59999999999997L239.36666666666667,168.59999999999997L241.1875,177L243.00833333333333,177L244.82916666666668,177L246.65,177L248.47083333333333,172.8L250.29166666666669,172.8L252.1125,172.8L253.93333333333334,172.8L255.75416666666666,168.59999999999997L257.575,168.59999999999997L259.3958333333333,168.59999999999997L261.2166666666667,168.59999999999997L263.0375,177L264.8583333333333,177L266.6791666666667,177L268.5,177L270.3208333333333,177L272.14166666666665,177L273.9625,177L275.78333333333336,177L277.6041666666667,172.8L279.425,172.8L281.24583333333334,172.8L283.06666666666666,172.8L284.8875,177L286.7083333333333,177L288.52916666666664,177L290.35,177L292.17083333333335,177L293.9916666666667,177L295.8125,177L297.6333333333333,177L299.45416666666665,172.8L301.275,172.8L303.09583333333336,172.8L304.9166666666667,172.8L306.7375,172.8L308.55833333333334,172.8L310.37916666666666,172.8L312.2,172.8L314.0208333333333,181.2L315.84166666666664,181.2L317.6625,181.2L319.48333333333335,181.2L321.3041666666667,168.59999999999997L323.125,168.59999999999997L324.9458333333333,168.59999999999997L326.76666666666665,168.59999999999997L328.5875,135L330.40833333333336,135L332.2291666666667,135L334.05,135L335.87083333333334,105.60000000000002L337.69166666666666,105.60000000000002L339.5125,105.60000000000002L341.3333333333333,105.60000000000002L343.15416666666664,93.00000000000001L344.975,93.00000000000001L346.79583333333335,93.00000000000001L348.6166666666667,93.00000000000001L350.4375,97.20000000000002L352.2583333333333,97.20000000000002L354.07916666666665,97.20000000000002L355.9,97.20000000000002L357.72083333333336,122.39999999999999L359.5416666666667,122.39999999999999L361.3625,122.39999999999999L363.18333333333334,122.39999999999999L365.00416666666666,156.00000000000003L366.825,156.00000000000003L368.6458333333333,156.00000000000003L370.46666666666664,156.00000000000003L372.2875,118.19999999999999L374.10833333333335,118.19999999999999L375.9291666666667,118.19999999999999L377.75,118.19999999999999L379.5708333333333,76.19999999999999L381.39166666666665,76.19999999999999L383.2125,76.19999999999999L385.03333333333336,76.19999999999999L386.8541666666667,109.79999999999997L388.675,109.79999999999997L390.49583333333334,109.79999999999997L392.31666666666666,109.79999999999997L394.1375,130.8L395.9583333333333,130.8L397.77916666666664,130.8L399.6,130.8L401.42083333333335,105.60000000000002L403.2416666666667,105.60000000000002L405.0625,105.60000000000002L406.8833333333333,105.60000000000002L408.70416666666665,97.20000000000002L410.525,97.20000000000002L412.34583333333336,97.20000000000002L414.1666666666667,97.20000000000002L415.9875,97.20000000000002L417.80833333333334,97.20000000000002L419.62916666666666,97.20000000000002L421.45,97.20000000000002L423.2708333333333,55.200000000000024L425.09166666666664,55.200000000000024L426.9125,55.200000000000024L428.73333333333335,55.200000000000024L430.5541666666667,72L432.375,72L434.1958333333333,72L436.01666666666665,72L437.8375,130.8L439.65833333333336,130.8L441.4791666666667,130.8L443.3,130.8L445.12083333333334,135L446.94166666666666,135L448.7625,135L450.5833333333333,135L452.40416666666664,130.8L454.225,130.8L456.04583333333335,130.8L457.8666666666667,130.8L459.6875,139.2L461.5083333333333,139.2L463.32916666666665,139.2L465.15,139.2L466.97083333333336,135L468.7916666666667,135L470.6125,135L472.43333333333334,135L474.25416666666666,143.4L476.075,143.4L477.8958333333333,143.4L479.71666666666664,143.4L481.5375,151.8L483.35833333333335,151.8L485.1791666666667,151.8L487,151.8L488.8208333333333,151.8L490.64166666666665,151.8L492.4625,151.8L494.2833333333333,151.8L496.10416666666663,143.4L497.92499999999995,143.4L499.7458333333333,143.4L501.5666666666667,143.4L503.38750000000005,135L505.20833333333337,135L507.0291666666667,135L508.85,135L510.67083333333335,135L512.4916666666667,135L514.3125,135L516.1333333333333,135L517.9541666666667,139.2L519.775,139.2L521.5958333333333,139.2L523.4166666666666,139.2L525.2375,130.8L527.0583333333333,130.8L528.8791666666667,130.8L530.7,130.8L532.5208333333334,135L534.3416666666667,135L536.1625,135L537.9833333333333,135L539.8041666666667,122.39999999999999L541.625,122.39999999999999L543.4458333333333,122.39999999999999L545.2666666666667,122.39999999999999L547.0875,126.6L548.9083333333333,126.6L550.7291666666666,126.6L552.55,126.6L554.3708333333333,126.6L556.1916666666667,126.6L558.0125,126.6L559.8333333333334,126.6L561.6541666666667,118.19999999999999L563.475,118.19999999999999L565.2958333333333,118.19999999999999L567.1166666666667,118.19999999999999L568.9375,118.19999999999999L570.7583333333333,118.19999999999999L572.5791666666667,118.19999999999999L574.4,118.19999999999999L576.2208333333333,118.19999999999999L578.0416666666666,118.19999999999999L579.8625,118.19999999999999L581.6833333333333,118.19999999999999L583.5041666666667,122.39999999999999L585.325,122.39999999999999L587.1458333333334,122.39999999999999L588.9666666666667,122.39999999999999L590.7875,126.6L592.6083333333333,126.6L594.4291666666667,126.6L596.25,126.6L598.0708333333333,97.20000000000002L599.8916666666667,97.20000000000002L601.7125,97.20000000000002L603.5333333333333,97.20000000000002L605.3541666666666,101.4L607.175,101.4L608.9958333333333,101.4L610.8166666666667,101.4L612.6375,130.8L614.4583333333334,130.8L616.2791666666667,130.8L618.1,130.8L619.9208333333333,130.8L621.7416666666667,130.8L623.5625,130.8L625.3833333333333,130.8L627.2041666666667,126.6L629.025,126.6L630.8458333333333,126.6L632.6666666666666,126.6L634.4875,101.4L636.3083333333333,101.4L638.1291666666667,101.4L639.95,101.4L641.7708333333334,97.20000000000002L643.5916666666667,97.20000000000002L645.4125,97.20000000000002L647.2333333333333,97.20000000000002L649.0541666666667,126.6L650.875,126.6L652.6958333333333,126.6L654.5166666666667,126.6L656.3375,122.39999999999999L658.1583333333333,122.39999999999999L659.9791666666666,122.39999999999999L661.8,122.39999999999999L663.6208333333333,135L665.4416666666667,135L667.2625,135L669.0833333333334,135L670.9041666666667,118.19999999999999L672.725,118.19999999999999L674.5458333333333,118.19999999999999L676.3666666666667,118.19999999999999L678.1875,109.79999999999997L680.0083333333333,109.79999999999997L681.8291666666667,109.79999999999997L683.65,109.79999999999997L685.4708333333333,113.99999999999999L687.2916666666666,113.99999999999999L689.1125,113.99999999999999L690.9333333333333,113.99999999999999L692.7541666666667,118.19999999999999L694.575,118.19999999999999L696.3958333333334,118.19999999999999L698.2166666666667,118.19999999999999L700.0375,118.19999999999999L701.8583333333333,118.19999999999999L703.6791666666667,118.19999999999999L705.5,118.19999999999999L707.3208333333333,118.19999999999999L709.1416666666667,118.19999999999999L710.9625,118.19999999999999L712.7833333333333,118.19999999999999L714.6041666666666,122.39999999999999L716.425,122.39999999999999L718.2458333333333,122.39999999999999L720.0666666666667,122.39999999999999L721.8875,135L723.7083333333334,135L725.5291666666667,135L727.35,135L729.1708333333333,130.8L730.9916666666667,130.8L732.8125,130.8L734.6333333333333,130.8L736.4541666666667,122.39999999999999L738.275,122.39999999999999L740.0958333333333,122.39999999999999L741.9166666666666,122.39999999999999L743.7375,118.19999999999999L745.5583333333333,118.19999999999999L747.3791666666667,118.19999999999999L749.2,118.19999999999999L751.0208333333334,118.19999999999999L752.8416666666667,118.19999999999999L754.6625,118.19999999999999L756.4833333333333,118.19999999999999L758.3041666666667,105.60000000000002L760.125,105.60000000000002L761.9458333333333,105.60000000000002L763.7666666666667,105.60000000000002L765.5875,126.6L767.4083333333333,126.6L769.2291666666666,126.6L771.05,126.6L772.8708333333333,126.6L774.6916666666667,126.6L776.5125,126.6L778.3333333333334,126.6L780.1541666666667,126.6L781.975,126.6L783.7958333333333,126.6L785.6166666666667,126.6L787.4375,118.19999999999999L789.2583333333333,118.19999999999999L791.0791666666667,118.19999999999999L792.9,118.19999999999999L794.7208333333333,122.39999999999999L796.5416666666666,122.39999999999999L798.3625,122.39999999999999L800.1833333333333,122.39999999999999L802.0041666666667,118.19999999999999L803.825,118.19999999999999L805.6458333333334,118.19999999999999L807.4666666666667,118.19999999999999L809.2875,113.99999999999999L811.1083333333333,113.99999999999999L812.9291666666667,113.99999999999999L814.75,113.99999999999999L816.5708333333333,113.99999999999999L818.3916666666667,113.99999999999999L820.2125,113.99999999999999L822.0333333333333,113.99999999999999L823.8541666666666,113.99999999999999L825.675,113.99999999999999L827.4958333333333,113.99999999999999L829.3166666666667,113.99999999999999L831.1375,113.99999999999999L832.9583333333334,113.99999999999999L834.7791666666667,113.99999999999999L836.6,113.99999999999999L838.4208333333333,113.99999999999999L840.2416666666667,113.99999999999999L842.0625,113.99999999999999L843.8833333333333,113.99999999999999L845.7041666666667,113.99999999999999L847.525,113.99999999999999L849.3458333333333,113.99999999999999L851.1666666666666,113.99999999999999L852.9875,105.60000000000002L854.8083333333333,105.60000000000002L856.6291666666667,105.60000000000002L858.45,105.60000000000002L860.2708333333334,46.80000000000001L862.0916666666667,46.80000000000001L863.9125,46.80000000000001L865.7333333333333,46.80000000000001L867.5541666666667,88.80000000000001L869.375,88.80000000000001L871.1958333333333,88.80000000000001L873.0166666666667,88.80000000000001L874.8375,118.19999999999999L876.6583333333333,118.19999999999999L878.4791666666666,118.19999999999999L880.3,118.19999999999999L882.1208333333333,130.8L883.9416666666667,130.8L885.7625,130.8L887.5833333333334,130.8L889.4041666666667,122.39999999999999L891.225,122.39999999999999L893.0458333333333,122.39999999999999L894.8666666666667,122.39999999999999L896.6875,109.79999999999997L898.5083333333333,109.79999999999997L900.3291666666667,109.79999999999997L902.15,109.79999999999997L903.9708333333333,113.99999999999999L905.7916666666666,113.99999999999999L907.6125,113.99999999999999L909.4333333333333,113.99999999999999L911.2541666666667,97.20000000000002L913.075,97.20000000000002L914.8958333333334,97.20000000000002L916.7166666666667,97.20000000000002L918.5375,63.59999999999998L920.3583333333333,63.59999999999998L922.1791666666667,63.59999999999998L924,63.59999999999998"/><line x1="188.38333333333333" y1="41.80000000000001" x2="188.38333333333333" y2="450" stroke="#e41a1c" stroke-width="2.5" stroke-linejoin="round" stroke-linecap="round"/><line x1="210.23333333333332" y1="41.80000000000001" x2="210.23333333333332" y2="450" stroke="#e41a1c" stroke-width="2.5" stroke-linejoin="round" stroke-linecap="round"/><text x="168.38333333333333" y="31.80000000000001" text-anchor="middle" style="font-size: 16px; fill: rgb(0, 0, 0);">Survey Sent</text><text x="230.23333333333332" y="31.80000000000001" text-anchor="middle" style="font-size: 16px; fill: rgb(0, 0, 0);">Survey Received</text></svg>