<svg viewBox="0,0,954,500" xmlns="http://www.w3.org/2000/svg" xmlns:xlink="http://www.w3.org/1999/xlink"><g transform="translate(0,450)" fill="none" font-size="10" font-family="sans-serif" text-anchor="middle"><path class="domain" stroke="currentColor" d="M50.5,0.5H924.5"/><g class="tick" opacity="1" transform="translate(50.5,0)"><line stroke="currentColor" y2="6"/><text fill="currentColor" y="9" dy="0.71em">12 PM</text></g><g class="tick" opacity="1" transform="translate(159.75,0)"><line stroke="currentColor" y2="6"/><text fill="currentColor" y="9" dy="0.71em">12:15</text></g><g class="tick" opacity="1" transform="translate(269,0)"><line stroke="currentColor" y2="6"/><text fill="currentColor" y="9" dy="0.71em">12:30</text></g><g class="tick" opacity="1" transform="translate(378.25,0)"><line stroke="currentColor" y2="6"/><text fill="currentColor" y="9" dy="0.71em">12:45</text></g><g class="tick" opacity="1" transform="translate(487.5,0)"><line stroke="currentColor" y2="6"/><text fill="currentColor" y="9" dy="0.71em">01 PM</text></g><g class="tick" opacity="1" transform="translate(596.75,0)"><line stroke="currentColor" y2="6"/><text fill="currentColor" y="9" dy="0.71em">01:15</text></g><g class="tick" opacity="1" transform="translate(706,0)"><line stroke="currentColor" y2="6"/><text fill="currentColor" y="9" dy="0.71em">01:30</text></g><g class="tick" opacity="1" transform="translate(815.25,0)"><line stroke="currentColor" y2="6"/><text fill="currentColor" y="9" dy="0.71em">01:45</text></g><g class="tick" opacity="1" transform="translate(924.5,0)"><line stroke="currentColor" y2="6"/><text fill="currentColor" y="9" dy="0.71em">02 PM</text></g></g><g transform="translate(50,0)" fill="none" font-size="10" font-family="sans-serif" text-anchor="end"><g class="tick" opacity="1" transform="translate(0,450.5)"><line stroke="currentColor" x2="-6"/><text fill="currentColor" x="-9" dy="0.32em">0</text></g><g class="tick" opacity="1" transform="translate(0,408.5)"><line stroke="currentColor" x2="-6"/><text fill="currentColor" x="-9" dy="0.32em">10</text></g><g class="tick" opacity="1" transform="translate(0,366.5)"><line stroke="currentColor" x2="-6"/><text fill="currentColor" x="-9" dy="0.32em">20</text></g><g class="tick" opacity="1" transform="translate(0,324.5)"><line stroke="currentColor" x2="-6"/><text fill="currentColor" x="-9" dy="0.32em">30</text></g><g class="tick" opacity="1" transform="translate(0,282.5)"><line stroke="currentColor" x2="-6"/><text fill="currentColor" x="-9" dy="0.32em">40</text></g><g class="tick" opacity="1" transform="translate(0,240.5)"><line stroke="currentColor" x2="-6"/><text fill="currentColor" x="-9" dy="0.32em">50</text></g><g class="tick" opacity="1" transform="translate(0,198.5)"><line stroke="currentColor" x2="-6"/><text fill="currentColor" x="-9" dy="0.32em">60</text></g><g class="tick" opacity="1" transform="translate(0,156.50000000000003)"><line stroke="currentColor" x2="-6"/><text fill="currentColor" x="-9" dy="0.32em">70</text></g><g class="tick" opacity="1" transform="translate(0,114.49999999999999)"><line stroke="currentColor" x2="-6"/><text fill="currentColor" x="-9" dy="0.32em">80</text></g><g class="tick" opacity="1" transform="translate(0,72.5)"><line stroke="currentColor" x2="-6"/><text fill="currentColor" x="-9" dy="0.32em">90</text></g><g class="tick" opacity="1" transform="translate(0,30.5)"><line stroke="currentColor" x2="-6"/><text fill="currentColor" x="-9" dy="0.32em">100</text><text fill="currentColor" x="3" dy="0.32em" text-anchor="start" font-weight="bold"/></g></g><text transform="translate(477 ,490)" style="text-anchor: middle;">Time</text><text transform="rotate(-90)" y="0" x="-250" dy="1em" style="text-anchor: middle;">Heart Rate (BPM)</text><path fill="none" stroke="#377eb8" stroke-width="3" stroke-linejoin="round" stroke-linecap="round" d="M50,93.00000000000001L51.82083333333333,84.6L53.641666666666666,84.6L55.4625,84.6L57.28333333333334,84.6L59.10416666666667,76.19999999999999L60.925,76.19999999999999L62.74583333333334,76.19999999999999L64.56666666666666,76.19999999999999L66.3875,80.4L68.20833333333333,80.4L70.02916666666667,80.4L71.85,80.4L73.67083333333333,93.00000000000001L75.49166666666666,93.00000000000001L77.3125,93.00000000000001L79.13333333333334,93.00000000000001L80.95416666666667,93.00000000000001L82.775,93.00000000000001L84.59583333333333,93.00000000000001L86.41666666666667,93.00000000000001L88.2375,80.4L90.05833333333334,80.4L91.87916666666666,80.4L93.7,80.4L95.52083333333333,55.200000000000024L97.34166666666667,55.200000000000024L99.1625,55.200000000000024L100.98333333333333,55.200000000000024L102.80416666666667,93.00000000000001L104.625,93.00000000000001L106.44583333333334,93.00000000000001L108.26666666666667,93.00000000000001L110.0875,101.4L111.90833333333333,101.4L113.72916666666667,101.4L115.55,101.4L117.37083333333334,72L119.19166666666666,72L121.0125,72L122.83333333333333,72L124.65416666666667,42.60000000000001L126.475,42.60000000000001L128.29583333333335,42.60000000000001L130.11666666666665,42.60000000000001L131.9375,72L133.75833333333335,72L135.57916666666665,72L137.4,72L139.22083333333333,113.99999999999999L141.04166666666669,113.99999999999999L142.8625,113.99999999999999L144.68333333333334,113.99999999999999L146.50416666666666,88.80000000000001L148.325,88.80000000000001L150.14583333333331,88.80000000000001L151.96666666666667,88.80000000000001L153.7875,93.00000000000001L155.60833333333335,93.00000000000001L157.42916666666665,93.00000000000001L159.25,93.00000000000001L161.07083333333333,67.79999999999998L162.89166666666668,67.79999999999998L164.7125,67.79999999999998L166.53333333333333,67.79999999999998L168.35416666666666,59.39999999999998L170.175,59.39999999999998L171.99583333333334,59.39999999999998L173.81666666666666,59.39999999999998L175.6375,67.79999999999998L177.45833333333331,67.79999999999998L179.27916666666667,67.79999999999998L181.1,67.79999999999998L182.92083333333332,63.59999999999998L184.74166666666667,63.59999999999998L186.5625,63.59999999999998L188.38333333333333,63.59999999999998L190.20416666666668,122.39999999999999L192.025,122.39999999999999L193.84583333333333,122.39999999999999L195.66666666666669,122.39999999999999L197.4875,101.4L199.30833333333334,101.4L201.12916666666666,101.4L202.95,101.4L204.77083333333331,135L206.59166666666667,135L208.4125,135L210.23333333333332,135L212.05416666666667,168.59999999999997L213.875,168.59999999999997L215.69583333333333,168.59999999999997L217.51666666666668,168.59999999999997L219.3375,151.8L221.15833333333333,151.8L222.97916666666669,151.8L224.8,151.8L226.62083333333334,143.4L228.44166666666666,143.4L230.2625,143.4L232.08333333333331,143.4L233.90416666666667,143.4L235.725,143.4L237.54583333333332,143.4L239.36666666666667,143.4L241.1875,139.2L243.00833333333333,139.2L244.82916666666668,139.2L246.65,139.2L248.47083333333333,143.4L250.29166666666669,143.4L252.1125,143.4L253.93333333333334,143.4L255.75416666666666,135L257.575,135L259.3958333333333,135L261.2166666666667,135L263.0375,135L264.8583333333333,135L266.6791666666667,135L268.5,135L270.3208333333333,122.39999999999999L272.14166666666665,122.39999999999999L273.9625,122.39999999999999L275.78333333333336,122.39999999999999L277.6041666666667,109.79999999999997L279.425,109.79999999999997L281.24583333333334,109.79999999999997L283.06666666666666,109.79999999999997L284.8875,101.4L286.7083333333333,101.4L288.52916666666664,101.4L290.35,101.4L292.17083333333335,118.19999999999999L293.9916666666667,118.19999999999999L295.8125,118.19999999999999L297.6333333333333,118.19999999999999L299.45416666666665,118.19999999999999L301.275,118.19999999999999L303.09583333333336,118.19999999999999L304.9166666666667,118.19999999999999L306.7375,130.8L308.55833333333334,130.8L310.37916666666666,130.8L312.2,130.8L314.0208333333333,118.19999999999999L315.84166666666664,118.19999999999999L317.6625,118.19999999999999L319.48333333333335,118.19999999999999L321.3041666666667,143.4L323.125,143.4L324.9458333333333,143.4L326.76666666666665,143.4L328.5875,130.8L330.40833333333336,130.8L332.2291666666667,130.8L334.05,130.8L335.87083333333334,105.60000000000002L337.69166666666666,105.60000000000002L339.5125,105.60000000000002L341.3333333333333,105.60000000000002L343.15416666666664,122.39999999999999L344.975,122.39999999999999L346.79583333333335,122.39999999999999L348.6166666666667,122.39999999999999L350.4375,126.6L352.2583333333333,126.6L354.07916666666665,126.6L355.9,126.6L357.72083333333336,122.39999999999999L359.5416666666667,122.39999999999999L361.3625,122.39999999999999L363.18333333333334,122.39999999999999L365.00416666666666,139.2L366.825,139.2L368.6458333333333,139.2L370.46666666666664,139.2L372.2875,135L374.10833333333335,135L375.9291666666667,135L377.75,135L379.5708333333333,139.2L381.39166666666665,139.2L383.2125,139.2L385.03333333333336,139.2L386.8541666666667,118.19999999999999L388.675,118.19999999999999L390.49583333333334,118.19999999999999L392.31666666666666,118.19999999999999L394.1375,109.79999999999997L395.9583333333333,109.79999999999997L397.77916666666664,109.79999999999997L399.6,109.79999999999997L401.42083333333335,135L403.2416666666667,135L405.0625,135L406.8833333333333,135L408.70416666666665,143.4L410.525,143.4L412.34583333333336,143.4L414.1666666666667,143.4L415.9875,139.2L417.80833333333334,139.2L419.62916666666666,139.2L421.45,139.2L423.2708333333333,126.6L425.09166666666664,126.6L426.9125,126.6L428.73333333333335,126.6L430.5541666666667,126.6L432.375,126.6L434.1958333333333,126.6L436.01666666666665,126.6L437.8375,126.6L439.65833333333336,126.6L441.4791666666667,126.6L443.3,126.6L445.12083333333334,97.20000000000002L446.94166666666666,97.20000000000002L448.7625,97.20000000000002L450.5833333333333,97.20000000000002L452.40416666666664,101.4L454.225,101.4L456.04583333333335,101.4L457.8666666666667,101.4L459.6875,135L461.5083333333333,135L463.32916666666665,135L465.15,135L466.97083333333336,147.60000000000002L468.7916666666667,147.60000000000002L470.6125,147.60000000000002L472.43333333333334,147.60000000000002L474.25416666666666,147.60000000000002L476.075,147.60000000000002L477.8958333333333,147.60000000000002L479.71666666666664,147.60000000000002L481.5375,139.2L483.35833333333335,139.2L485.1791666666667,139.2L487,139.2L488.8208333333333,122.39999999999999L490.64166666666665,122.39999999999999L492.4625,122.39999999999999L494.2833333333333,122.39999999999999L496.10416666666663,143.4L497.92499999999995,143.4L499.7458333333333,143.4L501.5666666666667,143.4L503.38750000000005,156.00000000000003L505.20833333333337,156.00000000000003L507.0291666666667,156.00000000000003L508.85,156.00000000000003L510.67083333333335,156.00000000000003L512.4916666666667,156.00000000000003L514.3125,156.00000000000003L516.1333333333333,156.00000000000003L517.9541666666667,156.00000000000003L519.775,156.00000000000003L521.5958333333333,156.00000000000003L523.4166666666666,156.00000000000003L525.2375,156.00000000000003L527.0583333333333,156.00000000000003L528.8791666666667,156.00000000000003L530.7,156.00000000000003L532.5208333333334,126.6L534.3416666666667,126.6L536.1625,126.6L537.9833333333333,126.6L539.8041666666667,126.6L541.625,126.6L543.4458333333333,126.6L545.2666666666667,126.6L547.0875,135L548.9083333333333,135L550.7291666666666,135L552.55,135L554.3708333333333,118.19999999999999L556.1916666666667,118.19999999999999L558.0125,118.19999999999999L559.8333333333334,118.19999999999999L561.6541666666667,84.6L563.475,84.6L565.2958333333333,84.6L567.1166666666667,84.6L568.9375,46.80000000000001L570.7583333333333,46.80000000000001L572.5791666666667,46.80000000000001L574.4,46.80000000000001L576.2208333333333,101.4L578.0416666666666,101.4L579.8625,101.4L581.6833333333333,101.4L583.5041666666667,160.20000000000002L585.325,160.20000000000002L587.1458333333334,160.20000000000002L588.9666666666667,160.20000000000002L590.7875,147.60000000000002L592.6083333333333,147.60000000000002L594.4291666666667,147.60000000000002L596.25,147.60000000000002L598.0708333333333,151.8L599.8916666666667,151.8L601.7125,151.8L603.5333333333333,151.8L605.3541666666666,160.20000000000002L607.175,160.20000000000002L608.9958333333333,160.20000000000002L610.8166666666667,160.20000000000002L612.6375,160.20000000000002L614.4583333333334,160.20000000000002L616.2791666666667,160.20000000000002L618.1,160.20000000000002L619.9208333333333,160.20000000000002L621.7416666666667,160.20000000000002L623.5625,160.20000000000002L625.3833333333333,160.20000000000002L627.2041666666667,156.00000000000003L629.025,156.00000000000003L630.8458333333333,156.00000000000003L632.6666666666666,156.00000000000003L634.4875,156.00000000000003L636.3083333333333,156.00000000000003L638.1291666666667,156.00000000000003L639.95,156.00000000000003L641.7708333333334,156.00000000000003L643.5916666666667,156.00000000000003L645.4125,156.00000000000003L647.2333333333333,156.00000000000003L649.0541666666667,164.39999999999998L650.875,164.39999999999998L652.6958333333333,164.39999999999998L654.5166666666667,164.39999999999998L656.3375,164.39999999999998L658.1583333333333,164.39999999999998L659.9791666666666,164.39999999999998L661.8,164.39999999999998L663.6208333333333,151.8L665.4416666666667,151.8L667.2625,151.8L669.0833333333334,151.8L670.9041666666667,151.8L672.725,151.8L674.5458333333333,151.8L676.3666666666667,151.8L678.1875,160.20000000000002L680.0083333333333,160.20000000000002L681.8291666666667,160.20000000000002L683.65,160.20000000000002L685.4708333333333,164.39999999999998L687.2916666666666,164.39999999999998L689.1125,164.39999999999998L690.9333333333333,164.39999999999998L692.7541666666667,151.8L694.575,151.8L696.3958333333334,151.8L698.2166666666667,151.8L700.0375,147.60000000000002L701.8583333333333,147.60000000000002L703.6791666666667,147.60000000000002L705.5,147.60000000000002L707.3208333333333,143.4L709.1416666666667,143.4L710.9625,143.4L712.7833333333333,143.4L714.6041666666666,147.60000000000002L716.425,147.60000000000002L718.2458333333333,147.60000000000002L720.0666666666667,147.60000000000002L721.8875,135L723.7083333333334,135L725.5291666666667,135L727.35,135L729.1708333333333,135L730.9916666666667,135L732.8125,135L734.6333333333333,135L736.4541666666667,135L738.275,135L740.0958333333333,135L741.9166666666666,135L743.7375,139.2L745.5583333333333,139.2L747.3791666666667,139.2L749.2,139.2L751.0208333333334,135L752.8416666666667,135L754.6625,135L756.4833333333333,135L758.3041666666667,130.8L760.125,130.8L761.9458333333333,130.8L763.7666666666667,130.8L765.5875,122.39999999999999L767.4083333333333,122.39999999999999L769.2291666666666,122.39999999999999L771.05,122.39999999999999L772.8708333333333,156.00000000000003L774.6916666666667,156.00000000000003L776.5125,156.00000000000003L778.3333333333334,156.00000000000003L780.1541666666667,160.20000000000002L781.975,160.20000000000002L783.7958333333333,160.20000000000002L785.6166666666667,160.20000000000002L787.4375,164.39999999999998L789.2583333333333,164.39999999999998L791.0791666666667,164.39999999999998L792.9,164.39999999999998L794.7208333333333,151.8L796.5416666666666,151.8L798.3625,151.8L800.1833333333333,151.8L802.0041666666667,147.60000000000002L803.825,147.60000000000002L805.6458333333334,147.60000000000002L807.4666666666667,147.60000000000002L809.2875,139.2L811.1083333333333,139.2L812.9291666666667,139.2L814.75,139.2L816.5708333333333,143.4L818.3916666666667,143.4L820.2125,143.4L822.0333333333333,143.4L823.8541666666666,139.2L825.675,139.2L827.4958333333333,139.2L829.3166666666667,139.2L831.1375,143.4L832.9583333333334,143.4L834.7791666666667,143.4L836.6,143.4L838.4208333333333,130.8L840.2416666666667,130.8L842.0625,130.8L843.8833333333333,130.8L845.7041666666667,143.4L847.525,143.4L849.3458333333333,143.4L851.1666666666666,143.4L852.9875,135L854.8083333333333,135L856.6291666666667,135L858.45,135L860.2708333333334,151.8L862.0916666666667,151.8L863.9125,151.8L865.7333333333333,151.8L867.5541666666667,151.8L869.375,151.8L871.1958333333333,151.8L873.0166666666667,151.8L874.8375,147.60000000000002L876.6583333333333,147.60000000000002L878.4791666666666,147.60000000000002L880.3,147.60000000000002L882.1208333333333,160.20000000000002L883.9416666666667,160.20000000000002L885.7625,160.20000000000002L887.5833333333334,160.20000000000002L889.4041666666667,160.20000000000002L891.225,160.20000000000002L893.0458333333333,160.20000000000002L894.8666666666667,160.20000000000002L896.6875,168.59999999999997L898.5083333333333,168.59999999999997L900.3291666666667,168.59999999999997L902.15,168.59999999999997L903.9708333333333,151.8L905.7916666666666,151.8L907.6125,151.8L909.4333333333333,151.8L911.2541666666667,80.4L913.075,80.4L914.8958333333334,80.4L916.7166666666667,80.4L918.5375,80.4L920.3583333333333,80.4L922.1791666666667,80.4L924,80.4"/><line x1="385.03333333333336" y1="37.60000000000001" x2="385.03333333333336" y2="450" stroke="#e41a1c" stroke-width="2.5" stroke-linejoin="round" stroke-linecap="round"/><line x1="479.71666666666664" y1="37.60000000000001" x2="479.71666666666664" y2="450" stroke="#e41a1c" stroke-width="2.5" stroke-linejoin="round" stroke-linecap="round"/><text x="365.03333333333336" y="27.60000000000001" text-anchor="middle" style="font-size: 16px; fill: rgb(0, 0, 0);">Survey Sent</text><text x="499.71666666666664" y="27.60000000000001" text-anchor="middle" style="font-size: 16px; fill: rgb(0, 0, 0);">Survey Received</text></svg>