<svg viewBox="0,0,954,500" xmlns="http://www.w3.org/2000/svg" xmlns:xlink="http://www.w3.org/1999/xlink"><g transform="translate(0,450)" fill="none" font-size="10" font-family="sans-serif" text-anchor="middle"><path class="domain" stroke="currentColor" d="M50.5,0.5H924.5"/><g class="tick" opacity="1" transform="translate(50.5,0)"><line stroke="currentColor" y2="6"/><text fill="currentColor" y="9" dy="0.71em">12 PM</text></g><g class="tick" opacity="1" transform="translate(159.75,0)"><line stroke="currentColor" y2="6"/><text fill="currentColor" y="9" dy="0.71em">12:15</text></g><g class="tick" opacity="1" transform="translate(269,0)"><line stroke="currentColor" y2="6"/><text fill="currentColor" y="9" dy="0.71em">12:30</text></g><g class="tick" opacity="1" transform="translate(378.25,0)"><line stroke="currentColor" y2="6"/><text fill="currentColor" y="9" dy="0.71em">12:45</text></g><g class="tick" opacity="1" transform="translate(487.5,0)"><line stroke="currentColor" y2="6"/><text fill="currentColor" y="9" dy="0.71em">01 PM</text></g><g class="tick" opacity="1" transform="translate(596.75,0)"><line stroke="currentColor" y2="6"/><text fill="currentColor" y="9" dy="0.71em">01:15</text></g><g class="tick" opacity="1" transform="translate(706,0)"><line stroke="currentColor" y2="6"/><text fill="currentColor" y="9" dy="0.71em">01:30</text></g><g class="tick" opacity="1" transform="translate(815.25,0)"><line stroke="currentColor" y2="6"/><text fill="currentColor" y="9" dy="0.71em">01:45</text></g><g class="tick" opacity="1" transform="translate(924.5,0)"><line stroke="currentColor" y2="6"/><text fill="currentColor" y="9" dy="0.71em">02 PM</text></g></g><g transform="translate(50,0)" fill="none" font-size="10" font-family="sans-serif" text-anchor="end"><g class="tick" opacity="1" transform="translate(0,450.5)"><line stroke="currentColor" x2="-6"/><text fill="currentColor" x="-9" dy="0.32em">0</text></g><g class="tick" opacity="1" transform="translate(0,412.3181818181818)"><line stroke="currentColor" x2="-6"/><text fill="currentColor" x="-9" dy="0.32em">10</text></g><g class="tick" opacity="1" transform="translate(0,374.13636363636357)"><line stroke="currentColor" x2="-6"/><text fill="currentColor" x="-9" dy="0.32em">20</text></g><g class="tick" opacity="1" transform="translate(0,335.9545454545455)"><line stroke="currentColor" x2="-6"/><text fill="currentColor" x="-9" dy="0.32em">30</text></g><g class="tick" opacity="1" transform="translate(0,297.7727272727273)"><line stroke="currentColor" x2="-6"/><text fill="currentColor" x="-9" dy="0.32em">40</text></g><g class="tick" opacity="1" transform="translate(0,259.59090909090907)"><line stroke="currentColor" x2="-6"/><text fill="currentColor" x="-9" dy="0.32em">50</text></g><g class="tick" opacity="1" transform="translate(0,221.40909090909093)"><line stroke="currentColor" x2="-6"/><text fill="currentColor" x="-9" dy="0.32em">60</text></g><g class="tick" opacity="1" transform="translate(0,183.22727272727275)"><line stroke="currentColor" x2="-6"/><text fill="currentColor" x="-9" dy="0.32em">70</text></g><g class="tick" opacity="1" transform="translate(0,145.04545454545453)"><line stroke="currentColor" x2="-6"/><text fill="currentColor" x="-9" dy="0.32em">80</text></g><g class="tick" opacity="1" transform="translate(0,106.86363636363635)"><line stroke="currentColor" x2="-6"/><text fill="currentColor" x="-9" dy="0.32em">90</text></g><g class="tick" opacity="1" transform="translate(0,68.68181818181819)"><line stroke="currentColor" x2="-6"/><text fill="currentColor" x="-9" dy="0.32em">100</text></g><g class="tick" opacity="1" transform="translate(0,30.5)"><line stroke="currentColor" x2="-6"/><text fill="currentColor" x="-9" dy="0.32em">110</text><text fill="currentColor" x="3" dy="0.32em" text-anchor="start" font-weight="bold"/></g></g><text transform="translate(477 ,490)" style="text-anchor: middle;">Time</text><text transform="rotate(-90)" y="0" x="-250" dy="1em" style="text-anchor: middle;">Heart Rate (BPM)</text><path fill="none" stroke="#377eb8" stroke-width="3" stroke-linejoin="round" stroke-linecap="round" d="M50,159.8181818181818L51.82083333333333,163.63636363636368L53.641666666666666,163.63636363636368L55.4625,163.63636363636368L57.28333333333334,163.63636363636368L59.10416666666667,163.63636363636368L60.925,163.63636363636368L62.74583333333334,163.63636363636368L64.56666666666666,163.63636363636368L66.3875,159.8181818181818L68.20833333333333,159.8181818181818L70.02916666666667,159.8181818181818L71.85,159.8181818181818L73.67083333333333,171.27272727272725L75.49166666666666,171.27272727272725L77.3125,171.27272727272725L79.13333333333334,171.27272727272725L80.95416666666667,156.00000000000003L82.775,156.00000000000003L84.59583333333333,156.00000000000003L86.41666666666667,156.00000000000003L88.2375,159.8181818181818L90.05833333333334,159.8181818181818L91.87916666666666,159.8181818181818L93.7,159.8181818181818L95.52083333333333,171.27272727272725L97.34166666666667,171.27272727272725L99.1625,171.27272727272725L100.98333333333333,171.27272727272725L102.80416666666667,159.8181818181818L104.625,159.8181818181818L106.44583333333334,159.8181818181818L108.26666666666667,159.8181818181818L110.0875,159.8181818181818L111.90833333333333,159.8181818181818L113.72916666666667,159.8181818181818L115.55,159.8181818181818L117.37083333333334,152.1818181818182L119.19166666666666,152.1818181818182L121.0125,152.1818181818182L122.83333333333333,152.1818181818182L124.65416666666667,156.00000000000003L126.475,156.00000000000003L128.29583333333335,156.00000000000003L130.11666666666665,156.00000000000003L131.9375,159.8181818181818L133.75833333333335,159.8181818181818L135.57916666666665,159.8181818181818L137.4,159.8181818181818L139.22083333333333,156.00000000000003L141.04166666666669,156.00000000000003L142.8625,156.00000000000003L144.68333333333334,156.00000000000003L146.50416666666666,156.00000000000003L148.325,156.00000000000003L150.14583333333331,156.00000000000003L151.96666666666667,156.00000000000003L153.7875,156.00000000000003L155.60833333333335,156.00000000000003L157.42916666666665,156.00000000000003L159.25,156.00000000000003L161.07083333333333,163.63636363636368L162.89166666666668,163.63636363636368L164.7125,163.63636363636368L166.53333333333333,163.63636363636368L168.35416666666666,156.00000000000003L170.175,156.00000000000003L171.99583333333334,156.00000000000003L173.81666666666666,156.00000000000003L175.6375,152.1818181818182L177.45833333333331,152.1818181818182L179.27916666666667,152.1818181818182L181.1,152.1818181818182L182.92083333333332,102.54545454545455L184.74166666666667,102.54545454545455L186.5625,102.54545454545455L188.38333333333333,102.54545454545455L190.20416666666668,117.81818181818181L192.025,117.81818181818181L193.84583333333333,117.81818181818181L195.66666666666669,117.81818181818181L197.4875,140.72727272727275L199.30833333333334,140.72727272727275L201.12916666666666,140.72727272727275L202.95,140.72727272727275L204.77083333333331,156.00000000000003L206.59166666666667,156.00000000000003L208.4125,156.00000000000003L210.23333333333332,156.00000000000003L212.05416666666667,152.1818181818182L213.875,152.1818181818182L215.69583333333333,152.1818181818182L217.51666666666668,152.1818181818182L219.3375,182.72727272727275L221.15833333333333,182.72727272727275L222.97916666666669,182.72727272727275L224.8,182.72727272727275L226.62083333333334,167.45454545454547L228.44166666666666,167.45454545454547L230.2625,167.45454545454547L232.08333333333331,167.45454545454547L233.90416666666667,171.27272727272725L235.725,171.27272727272725L237.54583333333332,171.27272727272725L239.36666666666667,171.27272727272725L241.1875,159.8181818181818L243.00833333333333,159.8181818181818L244.82916666666668,159.8181818181818L246.65,159.8181818181818L248.47083333333333,156.00000000000003L250.29166666666669,156.00000000000003L252.1125,156.00000000000003L253.93333333333334,156.00000000000003L255.75416666666666,156.00000000000003L257.575,156.00000000000003L259.3958333333333,156.00000000000003L261.2166666666667,156.00000000000003L263.0375,156.00000000000003L264.8583333333333,156.00000000000003L266.6791666666667,156.00000000000003L268.5,156.00000000000003L270.3208333333333,148.36363636363637L272.14166666666665,148.36363636363637L273.9625,148.36363636363637L275.78333333333336,148.36363636363637L277.6041666666667,156.00000000000003L279.425,156.00000000000003L281.24583333333334,156.00000000000003L283.06666666666666,156.00000000000003L284.8875,163.63636363636368L286.7083333333333,163.63636363636368L288.52916666666664,163.63636363636368L290.35,163.63636363636368L292.17083333333335,144.54545454545453L293.9916666666667,144.54545454545453L295.8125,144.54545454545453L297.6333333333333,144.54545454545453L299.45416666666665,148.36363636363637L301.275,148.36363636363637L303.09583333333336,148.36363636363637L304.9166666666667,148.36363636363637L306.7375,167.45454545454547L308.55833333333334,167.45454545454547L310.37916666666666,167.45454545454547L312.2,167.45454545454547L314.0208333333333,163.63636363636368L315.84166666666664,163.63636363636368L317.6625,163.63636363636368L319.48333333333335,163.63636363636368L321.3041666666667,156.00000000000003L323.125,156.00000000000003L324.9458333333333,156.00000000000003L326.76666666666665,156.00000000000003L328.5875,156.00000000000003L330.40833333333336,156.00000000000003L332.2291666666667,156.00000000000003L334.05,156.00000000000003L335.87083333333334,156.00000000000003L337.69166666666666,156.00000000000003L339.5125,156.00000000000003L341.3333333333333,156.00000000000003L343.15416666666664,148.36363636363637L344.975,148.36363636363637L346.79583333333335,148.36363636363637L348.6166666666667,148.36363636363637L350.4375,156.00000000000003L352.2583333333333,156.00000000000003L354.07916666666665,156.00000000000003L355.9,156.00000000000003L357.72083333333336,159.8181818181818L359.5416666666667,159.8181818181818L361.3625,159.8181818181818L363.18333333333334,159.8181818181818L365.00416666666666,148.36363636363637L366.825,148.36363636363637L368.6458333333333,148.36363636363637L370.46666666666664,148.36363636363637L372.2875,106.36363636363635L374.10833333333335,106.36363636363635L375.9291666666667,106.36363636363635L377.75,106.36363636363635L379.5708333333333,94.9090909090909L381.39166666666665,94.9090909090909L383.2125,94.9090909090909L385.03333333333336,94.9090909090909L386.8541666666667,148.36363636363637L388.675,148.36363636363637L390.49583333333334,148.36363636363637L392.31666666666666,148.36363636363637L394.1375,148.36363636363637L395.9583333333333,148.36363636363637L397.77916666666664,148.36363636363637L399.6,148.36363636363637L401.42083333333335,79.63636363636363L403.2416666666667,79.63636363636363L405.0625,79.63636363636363L406.8833333333333,79.63636363636363L408.70416666666665,136.9090909090909L410.525,136.9090909090909L412.34583333333336,136.9090909090909L414.1666666666667,136.9090909090909L415.9875,171.27272727272725L417.80833333333334,171.27272727272725L419.62916666666666,171.27272727272725L421.45,171.27272727272725L423.2708333333333,148.36363636363637L425.09166666666664,148.36363636363637L426.9125,148.36363636363637L428.73333333333335,148.36363636363637L430.5541666666667,125.45454545454547L432.375,125.45454545454547L434.1958333333333,125.45454545454547L436.01666666666665,125.45454545454547L437.8375,125.45454545454547L439.65833333333336,125.45454545454547L441.4791666666667,125.45454545454547L443.3,125.45454545454547L445.12083333333334,121.63636363636361L446.94166666666666,121.63636363636361L448.7625,121.63636363636361L450.5833333333333,121.63636363636361L452.40416666666664,133.0909090909091L454.225,133.0909090909091L456.04583333333335,133.0909090909091L457.8666666666667,133.0909090909091L459.6875,136.9090909090909L461.5083333333333,136.9090909090909L463.32916666666665,136.9090909090909L465.15,136.9090909090909L466.97083333333336,129.27272727272725L468.7916666666667,129.27272727272725L470.6125,129.27272727272725L472.43333333333334,129.27272727272725L474.25416666666666,133.0909090909091L476.075,133.0909090909091L477.8958333333333,133.0909090909091L479.71666666666664,133.0909090909091L481.5375,117.81818181818181L483.35833333333335,117.81818181818181L485.1791666666667,117.81818181818181L487,117.81818181818181L488.8208333333333,144.54545454545453L490.64166666666665,144.54545454545453L492.4625,144.54545454545453L494.2833333333333,144.54545454545453L496.10416666666663,133.0909090909091L497.92499999999995,133.0909090909091L499.7458333333333,133.0909090909091L501.5666666666667,133.0909090909091L503.38750000000005,94.9090909090909L505.20833333333337,94.9090909090909L507.0291666666667,94.9090909090909L508.85,94.9090909090909L510.67083333333335,75.81818181818184L512.4916666666667,75.81818181818184L514.3125,75.81818181818184L516.1333333333333,75.81818181818184L517.9541666666667,129.27272727272725L519.775,129.27272727272725L521.5958333333333,129.27272727272725L523.4166666666666,129.27272727272725L525.2375,136.9090909090909L527.0583333333333,136.9090909090909L528.8791666666667,136.9090909090909L530.7,136.9090909090909L532.5208333333334,102.54545454545455L534.3416666666667,102.54545454545455L536.1625,102.54545454545455L537.9833333333333,102.54545454545455L539.8041666666667,49.09090909090907L541.625,49.09090909090907L543.4458333333333,49.09090909090907L545.2666666666667,49.09090909090907L547.0875,30L548.9083333333333,30L550.7291666666666,30L552.55,30L554.3708333333333,79.63636363636363L556.1916666666667,79.63636363636363L558.0125,79.63636363636363L559.8333333333334,79.63636363636363L561.6541666666667,87.27272727272727L563.475,87.27272727272727L565.2958333333333,87.27272727272727L567.1166666666667,87.27272727272727L568.9375,79.63636363636363L570.7583333333333,79.63636363636363L572.5791666666667,79.63636363636363L574.4,79.63636363636363L576.2208333333333,87.27272727272727L578.0416666666666,87.27272727272727L579.8625,87.27272727272727L581.6833333333333,87.27272727272727L583.5041666666667,121.63636363636361L585.325,121.63636363636361L587.1458333333334,121.63636363636361L588.9666666666667,121.63636363636361L590.7875,94.9090909090909L592.6083333333333,94.9090909090909L594.4291666666667,94.9090909090909L596.25,94.9090909090909L598.0708333333333,79.63636363636363L599.8916666666667,79.63636363636363L601.7125,79.63636363636363L603.5333333333333,79.63636363636363L605.3541666666666,152.1818181818182L607.175,152.1818181818182L608.9958333333333,152.1818181818182L610.8166666666667,152.1818181818182L612.6375,159.8181818181818L614.4583333333334,159.8181818181818L616.2791666666667,159.8181818181818L618.1,159.8181818181818L619.9208333333333,159.8181818181818L621.7416666666667,159.8181818181818L623.5625,159.8181818181818L625.3833333333333,159.8181818181818L627.2041666666667,159.8181818181818L629.025,159.8181818181818L630.8458333333333,159.8181818181818L632.6666666666666,159.8181818181818L634.4875,163.63636363636368L636.3083333333333,163.63636363636368L638.1291666666667,163.63636363636368L639.95,163.63636363636368L641.7708333333334,178.9090909090909L643.5916666666667,178.9090909090909L645.4125,178.9090909090909L647.2333333333333,178.9090909090909L649.0541666666667,175.0909090909091L650.875,175.0909090909091L652.6958333333333,175.0909090909091L654.5166666666667,175.0909090909091L656.3375,167.45454545454547L658.1583333333333,167.45454545454547L659.9791666666666,167.45454545454547L661.8,167.45454545454547L663.6208333333333,163.63636363636368L665.4416666666667,163.63636363636368L667.2625,163.63636363636368L669.0833333333334,163.63636363636368L670.9041666666667,167.45454545454547L672.725,167.45454545454547L674.5458333333333,167.45454545454547L676.3666666666667,167.45454545454547L678.1875,163.63636363636368L680.0083333333333,163.63636363636368L681.8291666666667,163.63636363636368L683.65,163.63636363636368L685.4708333333333,152.1818181818182L687.2916666666666,152.1818181818182L689.1125,152.1818181818182L690.9333333333333,152.1818181818182L692.7541666666667,152.1818181818182L694.575,152.1818181818182L696.3958333333334,152.1818181818182L698.2166666666667,152.1818181818182L700.0375,156.00000000000003L701.8583333333333,156.00000000000003L703.6791666666667,156.00000000000003L705.5,156.00000000000003L707.3208333333333,140.72727272727275L709.1416666666667,140.72727272727275L710.9625,140.72727272727275L712.7833333333333,140.72727272727275L714.6041666666666,140.72727272727275L716.425,140.72727272727275L718.2458333333333,140.72727272727275L720.0666666666667,140.72727272727275L721.8875,144.54545454545453L723.7083333333334,144.54545454545453L725.5291666666667,144.54545454545453L727.35,144.54545454545453L729.1708333333333,144.54545454545453L730.9916666666667,144.54545454545453L732.8125,144.54545454545453L734.6333333333333,144.54545454545453L736.4541666666667,152.1818181818182L738.275,152.1818181818182L740.0958333333333,152.1818181818182L741.9166666666666,152.1818181818182L743.7375,171.27272727272725L745.5583333333333,171.27272727272725L747.3791666666667,171.27272727272725L749.2,171.27272727272725L751.0208333333334,171.27272727272725L752.8416666666667,171.27272727272725L754.6625,171.27272727272725L756.4833333333333,171.27272727272725L758.3041666666667,175.0909090909091L760.125,175.0909090909091L761.9458333333333,175.0909090909091L763.7666666666667,175.0909090909091L765.5875,171.27272727272725L767.4083333333333,171.27272727272725L769.2291666666666,171.27272727272725L771.05,171.27272727272725L772.8708333333333,163.63636363636368L774.6916666666667,163.63636363636368L776.5125,163.63636363636368L778.3333333333334,163.63636363636368L780.1541666666667,175.0909090909091L781.975,175.0909090909091L783.7958333333333,175.0909090909091L785.6166666666667,175.0909090909091L787.4375,175.0909090909091L789.2583333333333,175.0909090909091L791.0791666666667,175.0909090909091L792.9,175.0909090909091L794.7208333333333,178.9090909090909L796.5416666666666,178.9090909090909L798.3625,178.9090909090909L800.1833333333333,178.9090909090909L802.0041666666667,171.27272727272725L803.825,171.27272727272725L805.6458333333334,171.27272727272725L807.4666666666667,171.27272727272725L809.2875,167.45454545454547L811.1083333333333,167.45454545454547L812.9291666666667,167.45454545454547L814.75,167.45454545454547L816.5708333333333,167.45454545454547L818.3916666666667,167.45454545454547L820.2125,167.45454545454547L822.0333333333333,167.45454545454547L823.8541666666666,167.45454545454547L825.675,167.45454545454547L827.4958333333333,167.45454545454547L829.3166666666667,167.45454545454547L831.1375,171.27272727272725L832.9583333333334,171.27272727272725L834.7791666666667,171.27272727272725L836.6,171.27272727272725L838.4208333333333,159.8181818181818L840.2416666666667,159.8181818181818L842.0625,159.8181818181818L843.8833333333333,159.8181818181818L845.7041666666667,163.63636363636368L847.525,163.63636363636368L849.3458333333333,163.63636363636368L851.1666666666666,163.63636363636368L852.9875,163.63636363636368L854.8083333333333,163.63636363636368L856.6291666666667,163.63636363636368L858.45,163.63636363636368L860.2708333333334,156.00000000000003L862.0916666666667,156.00000000000003L863.9125,156.00000000000003L865.7333333333333,156.00000000000003L867.5541666666667,171.27272727272725L869.375,171.27272727272725L871.1958333333333,171.27272727272725L873.0166666666667,171.27272727272725L874.8375,171.27272727272725L876.6583333333333,171.27272727272725L878.4791666666666,171.27272727272725L880.3,171.27272727272725L882.1208333333333,163.63636363636368L883.9416666666667,163.63636363636368L885.7625,163.63636363636368L887.5833333333334,163.63636363636368L889.4041666666667,163.63636363636368L891.225,163.63636363636368L893.0458333333333,163.63636363636368L894.8666666666667,163.63636363636368L896.6875,156.00000000000003L898.5083333333333,156.00000000000003L900.3291666666667,156.00000000000003L902.15,156.00000000000003L903.9708333333333,175.0909090909091L905.7916666666666,175.0909090909091L907.6125,175.0909090909091L909.4333333333333,175.0909090909091L911.2541666666667,178.9090909090909L913.075,178.9090909090909L914.8958333333334,178.9090909090909L916.7166666666667,178.9090909090909L918.5375,178.9090909090909L920.3583333333333,178.9090909090909L922.1791666666667,178.9090909090909L924,178.9090909090909"/><line x1="86.41666666666667" y1="25" x2="86.41666666666667" y2="450" stroke="#e41a1c" stroke-width="2.5" stroke-linejoin="round" stroke-linecap="round"/><line x1="-10357.883333333333" y1="25" x2="-10357.883333333333" y2="450" stroke="#e41a1c" stroke-width="2.5" stroke-linejoin="round" stroke-linecap="round"/><text x="66.41666666666667" y="15" text-anchor="middle" style="font-size: 16px; fill: rgb(0, 0, 0);">Survey Sent</text><text x="-10337.883333333333" y="15" text-anchor="middle" style="font-size: 16px; fill: rgb(0, 0, 0);">Survey Received</text></svg>