<svg viewBox="0,0,954,500" xmlns="http://www.w3.org/2000/svg" xmlns:xlink="http://www.w3.org/1999/xlink"><g transform="translate(0,450)" fill="none" font-size="10" font-family="sans-serif" text-anchor="middle"><path class="domain" stroke="currentColor" d="M50.5,0.5H924.5"/><g class="tick" opacity="1" transform="translate(50.5,0)"><line stroke="currentColor" y2="6"/><text fill="currentColor" y="9" dy="0.71em">12 PM</text></g><g class="tick" opacity="1" transform="translate(159.75,0)"><line stroke="currentColor" y2="6"/><text fill="currentColor" y="9" dy="0.71em">12:15</text></g><g class="tick" opacity="1" transform="translate(269,0)"><line stroke="currentColor" y2="6"/><text fill="currentColor" y="9" dy="0.71em">12:30</text></g><g class="tick" opacity="1" transform="translate(378.25,0)"><line stroke="currentColor" y2="6"/><text fill="currentColor" y="9" dy="0.71em">12:45</text></g><g class="tick" opacity="1" transform="translate(487.5,0)"><line stroke="currentColor" y2="6"/><text fill="currentColor" y="9" dy="0.71em">01 PM</text></g><g class="tick" opacity="1" transform="translate(596.75,0)"><line stroke="currentColor" y2="6"/><text fill="currentColor" y="9" dy="0.71em">01:15</text></g><g class="tick" opacity="1" transform="translate(706,0)"><line stroke="currentColor" y2="6"/><text fill="currentColor" y="9" dy="0.71em">01:30</text></g><g class="tick" opacity="1" transform="translate(815.25,0)"><line stroke="currentColor" y2="6"/><text fill="currentColor" y="9" dy="0.71em">01:45</text></g><g class="tick" opacity="1" transform="translate(924.5,0)"><line stroke="currentColor" y2="6"/><text fill="currentColor" y="9" dy="0.71em">02 PM</text></g></g><g transform="translate(50,0)" fill="none" font-size="10" font-family="sans-serif" text-anchor="end"><g class="tick" opacity="1" transform="translate(0,450.5)"><line stroke="currentColor" x2="-6"/><text fill="currentColor" x="-9" dy="0.32em">0</text></g><g class="tick" opacity="1" transform="translate(0,415.5)"><line stroke="currentColor" x2="-6"/><text fill="currentColor" x="-9" dy="0.32em">10</text></g><g class="tick" opacity="1" transform="translate(0,380.5)"><line stroke="currentColor" x2="-6"/><text fill="currentColor" x="-9" dy="0.32em">20</text></g><g class="tick" opacity="1" transform="translate(0,345.5)"><line stroke="currentColor" x2="-6"/><text fill="currentColor" x="-9" dy="0.32em">30</text></g><g class="tick" opacity="1" transform="translate(0,310.50000000000006)"><line stroke="currentColor" x2="-6"/><text fill="currentColor" x="-9" dy="0.32em">40</text></g><g class="tick" opacity="1" transform="translate(0,275.49999999999994)"><line stroke="currentColor" x2="-6"/><text fill="currentColor" x="-9" dy="0.32em">50</text></g><g class="tick" opacity="1" transform="translate(0,240.5)"><line stroke="currentColor" x2="-6"/><text fill="currentColor" x="-9" dy="0.32em">60</text></g><g class="tick" opacity="1" transform="translate(0,205.49999999999997)"><line stroke="currentColor" x2="-6"/><text fill="currentColor" x="-9" dy="0.32em">70</text></g><g class="tick" opacity="1" transform="translate(0,170.50000000000003)"><line stroke="currentColor" x2="-6"/><text fill="currentColor" x="-9" dy="0.32em">80</text></g><g class="tick" opacity="1" transform="translate(0,135.5)"><line stroke="currentColor" x2="-6"/><text fill="currentColor" x="-9" dy="0.32em">90</text></g><g class="tick" opacity="1" transform="translate(0,100.49999999999999)"><line stroke="currentColor" x2="-6"/><text fill="currentColor" x="-9" dy="0.32em">100</text></g><g class="tick" opacity="1" transform="translate(0,65.50000000000001)"><line stroke="currentColor" x2="-6"/><text fill="currentColor" x="-9" dy="0.32em">110</text></g><g class="tick" opacity="1" transform="translate(0,30.5)"><line stroke="currentColor" x2="-6"/><text fill="currentColor" x="-9" dy="0.32em">120</text><text fill="currentColor" x="3" dy="0.32em" text-anchor="start" font-weight="bold"/></g></g><text transform="translate(477 ,490)" style="text-anchor: middle;">Time</text><text transform="rotate(-90)" y="0" x="-250" dy="1em" style="text-anchor: middle;">Heart Rate (BPM)</text><path fill="none" stroke="#377eb8" stroke-width="3" stroke-linejoin="round" stroke-linecap="round" d="M50,191L51.82083333333333,198L53.641666666666666,198L55.4625,198L57.28333333333334,198L59.10416666666667,204.99999999999997L60.925,204.99999999999997L62.74583333333334,204.99999999999997L64.56666666666666,204.99999999999997L66.3875,201.5L68.20833333333333,201.5L70.02916666666667,201.5L71.85,201.5L73.67083333333333,184L75.49166666666666,184L77.3125,184L79.13333333333334,184L80.95416666666667,159.5L82.775,159.5L84.59583333333333,159.5L86.41666666666667,159.5L88.2375,177L90.05833333333334,177L91.87916666666666,177L93.7,177L95.52083333333333,187.5L97.34166666666667,187.5L99.1625,187.5L100.98333333333333,187.5L102.80416666666667,198L104.625,198L106.44583333333334,198L108.26666666666667,198L110.0875,191L111.90833333333333,191L113.72916666666667,191L115.55,191L117.37083333333334,187.5L119.19166666666666,187.5L121.0125,187.5L122.83333333333333,187.5L124.65416666666667,215.5L126.475,215.5L128.29583333333335,215.5L130.11666666666665,215.5L131.9375,201.5L133.75833333333335,201.5L135.57916666666665,201.5L137.4,201.5L139.22083333333333,201.5L141.04166666666669,201.5L142.8625,201.5L144.68333333333334,201.5L146.50416666666666,204.99999999999997L148.325,204.99999999999997L150.14583333333331,204.99999999999997L151.96666666666667,204.99999999999997L153.7875,215.5L155.60833333333335,215.5L157.42916666666665,215.5L159.25,215.5L161.07083333333333,204.99999999999997L162.89166666666668,204.99999999999997L164.7125,204.99999999999997L166.53333333333333,204.99999999999997L168.35416666666666,208.50000000000003L170.175,208.50000000000003L171.99583333333334,208.50000000000003L173.81666666666666,208.50000000000003L175.6375,198L177.45833333333331,198L179.27916666666667,198L181.1,198L182.92083333333332,208.50000000000003L184.74166666666667,208.50000000000003L186.5625,208.50000000000003L188.38333333333333,208.50000000000003L190.20416666666668,208.50000000000003L192.025,208.50000000000003L193.84583333333333,208.50000000000003L195.66666666666669,208.50000000000003L197.4875,204.99999999999997L199.30833333333334,204.99999999999997L201.12916666666666,204.99999999999997L202.95,204.99999999999997L204.77083333333331,201.5L206.59166666666667,201.5L208.4125,201.5L210.23333333333332,201.5L212.05416666666667,204.99999999999997L213.875,204.99999999999997L215.69583333333333,204.99999999999997L217.51666666666668,204.99999999999997L219.3375,204.99999999999997L221.15833333333333,204.99999999999997L222.97916666666669,204.99999999999997L224.8,204.99999999999997L226.62083333333334,212L228.44166666666666,212L230.2625,212L232.08333333333331,212L233.90416666666667,215.5L235.725,215.5L237.54583333333332,215.5L239.36666666666667,215.5L241.1875,208.50000000000003L243.00833333333333,208.50000000000003L244.82916666666668,208.50000000000003L246.65,208.50000000000003L248.47083333333333,204.99999999999997L250.29166666666669,204.99999999999997L252.1125,204.99999999999997L253.93333333333334,204.99999999999997L255.75416666666666,194.50000000000003L257.575,194.50000000000003L259.3958333333333,194.50000000000003L261.2166666666667,194.50000000000003L263.0375,166.49999999999997L264.8583333333333,166.49999999999997L266.6791666666667,166.49999999999997L268.5,166.49999999999997L270.3208333333333,138.5L272.14166666666665,138.5L273.9625,138.5L275.78333333333336,138.5L277.6041666666667,159.5L279.425,159.5L281.24583333333334,159.5L283.06666666666666,159.5L284.8875,191L286.7083333333333,191L288.52916666666664,191L290.35,191L292.17083333333335,222.50000000000003L293.9916666666667,222.50000000000003L295.8125,222.50000000000003L297.6333333333333,222.50000000000003L299.45416666666665,222.50000000000003L301.275,222.50000000000003L303.09583333333336,222.50000000000003L304.9166666666667,222.50000000000003L306.7375,215.5L308.55833333333334,215.5L310.37916666666666,215.5L312.2,215.5L314.0208333333333,208.50000000000003L315.84166666666664,208.50000000000003L317.6625,208.50000000000003L319.48333333333335,208.50000000000003L321.3041666666667,212L323.125,212L324.9458333333333,212L326.76666666666665,212L328.5875,212L330.40833333333336,212L332.2291666666667,212L334.05,212L335.87083333333334,198L337.69166666666666,198L339.5125,198L341.3333333333333,198L343.15416666666664,187.5L344.975,187.5L346.79583333333335,187.5L348.6166666666667,187.5L350.4375,201.5L352.2583333333333,201.5L354.07916666666665,201.5L355.9,201.5L357.72083333333336,187.5L359.5416666666667,187.5L361.3625,187.5L363.18333333333334,187.5L365.00416666666666,180.49999999999997L366.825,180.49999999999997L368.6458333333333,180.49999999999997L370.46666666666664,180.49999999999997L372.2875,187.5L374.10833333333335,187.5L375.9291666666667,187.5L377.75,187.5L379.5708333333333,191L381.39166666666665,191L383.2125,191L385.03333333333336,191L386.8541666666667,142.00000000000003L388.675,142.00000000000003L390.49583333333334,142.00000000000003L392.31666666666666,142.00000000000003L394.1375,85.99999999999999L395.9583333333333,85.99999999999999L397.77916666666664,85.99999999999999L399.6,85.99999999999999L401.42083333333335,142.00000000000003L403.2416666666667,142.00000000000003L405.0625,142.00000000000003L406.8833333333333,142.00000000000003L408.70416666666665,156.00000000000003L410.525,156.00000000000003L412.34583333333336,156.00000000000003L414.1666666666667,156.00000000000003L415.9875,131.5L417.80833333333334,131.5L419.62916666666666,131.5L421.45,131.5L423.2708333333333,89.50000000000003L425.09166666666664,89.50000000000003L426.9125,89.50000000000003L428.73333333333335,89.50000000000003L430.5541666666667,103.50000000000001L432.375,103.50000000000001L434.1958333333333,103.50000000000001L436.01666666666665,103.50000000000001L437.8375,170.00000000000003L439.65833333333336,170.00000000000003L441.4791666666667,170.00000000000003L443.3,170.00000000000003L445.12083333333334,177L446.94166666666666,177L448.7625,177L450.5833333333333,177L452.40416666666664,187.5L454.225,187.5L456.04583333333335,187.5L457.8666666666667,187.5L459.6875,177L461.5083333333333,177L463.32916666666665,177L465.15,177L466.97083333333336,180.49999999999997L468.7916666666667,180.49999999999997L470.6125,180.49999999999997L472.43333333333334,180.49999999999997L474.25416666666666,173.5L476.075,173.5L477.8958333333333,173.5L479.71666666666664,173.5L481.5375,173.5L483.35833333333335,173.5L485.1791666666667,173.5L487,173.5L488.8208333333333,159.5L490.64166666666665,159.5L492.4625,159.5L494.2833333333333,159.5L496.10416666666663,177L497.92499999999995,177L499.7458333333333,177L501.5666666666667,177L503.38750000000005,180.49999999999997L505.20833333333337,180.49999999999997L507.0291666666667,180.49999999999997L508.85,180.49999999999997L510.67083333333335,170.00000000000003L512.4916666666667,170.00000000000003L514.3125,170.00000000000003L516.1333333333333,170.00000000000003L517.9541666666667,177L519.775,177L521.5958333333333,177L523.4166666666666,177L525.2375,187.5L527.0583333333333,187.5L528.8791666666667,187.5L530.7,187.5L532.5208333333334,180.49999999999997L534.3416666666667,180.49999999999997L536.1625,180.49999999999997L537.9833333333333,180.49999999999997L539.8041666666667,142.00000000000003L541.625,142.00000000000003L543.4458333333333,142.00000000000003L545.2666666666667,142.00000000000003L547.0875,166.49999999999997L548.9083333333333,166.49999999999997L550.7291666666666,166.49999999999997L552.55,166.49999999999997L554.3708333333333,135L556.1916666666667,135L558.0125,135L559.8333333333334,135L561.6541666666667,138.5L563.475,138.5L565.2958333333333,138.5L567.1166666666667,138.5L568.9375,173.5L570.7583333333333,173.5L572.5791666666667,173.5L574.4,173.5L576.2208333333333,173.5L578.0416666666666,173.5L579.8625,173.5L581.6833333333333,173.5L583.5041666666667,173.5L585.325,173.5L587.1458333333334,173.5L588.9666666666667,173.5L590.7875,177L592.6083333333333,177L594.4291666666667,177L596.25,177L598.0708333333333,187.5L599.8916666666667,187.5L601.7125,187.5L603.5333333333333,187.5L605.3541666666666,194.50000000000003L607.175,194.50000000000003L608.9958333333333,194.50000000000003L610.8166666666667,194.50000000000003L612.6375,187.5L614.4583333333334,187.5L616.2791666666667,187.5L618.1,187.5L619.9208333333333,180.49999999999997L621.7416666666667,180.49999999999997L623.5625,180.49999999999997L625.3833333333333,180.49999999999997L627.2041666666667,177L629.025,177L630.8458333333333,177L632.6666666666666,177L634.4875,173.5L636.3083333333333,173.5L638.1291666666667,173.5L639.95,173.5L641.7708333333334,187.5L643.5916666666667,187.5L645.4125,187.5L647.2333333333333,187.5L649.0541666666667,177L650.875,177L652.6958333333333,177L654.5166666666667,177L656.3375,173.5L658.1583333333333,173.5L659.9791666666666,173.5L661.8,173.5L663.6208333333333,170.00000000000003L665.4416666666667,170.00000000000003L667.2625,170.00000000000003L669.0833333333334,170.00000000000003L670.9041666666667,170.00000000000003L672.725,170.00000000000003L674.5458333333333,170.00000000000003L676.3666666666667,170.00000000000003L678.1875,166.49999999999997L680.0083333333333,166.49999999999997L681.8291666666667,166.49999999999997L683.65,166.49999999999997L685.4708333333333,166.49999999999997L687.2916666666666,166.49999999999997L689.1125,166.49999999999997L690.9333333333333,166.49999999999997L692.7541666666667,170.00000000000003L694.575,170.00000000000003L696.3958333333334,170.00000000000003L698.2166666666667,170.00000000000003L700.0375,159.5L701.8583333333333,159.5L703.6791666666667,159.5L705.5,159.5L707.3208333333333,163L709.1416666666667,163L710.9625,163L712.7833333333333,163L714.6041666666666,184L716.425,184L718.2458333333333,184L720.0666666666667,184L721.8875,180.49999999999997L723.7083333333334,180.49999999999997L725.5291666666667,180.49999999999997L727.35,180.49999999999997L729.1708333333333,184L730.9916666666667,184L732.8125,184L734.6333333333333,184L736.4541666666667,170.00000000000003L738.275,170.00000000000003L740.0958333333333,170.00000000000003L741.9166666666666,170.00000000000003L743.7375,117.50000000000001L745.5583333333333,117.50000000000001L747.3791666666667,117.50000000000001L749.2,117.50000000000001L751.0208333333334,170.00000000000003L752.8416666666667,170.00000000000003L754.6625,170.00000000000003L756.4833333333333,170.00000000000003L758.3041666666667,145.5L760.125,145.5L761.9458333333333,145.5L763.7666666666667,145.5L765.5875,170.00000000000003L767.4083333333333,170.00000000000003L769.2291666666666,170.00000000000003L771.05,170.00000000000003L772.8708333333333,173.5L774.6916666666667,173.5L776.5125,173.5L778.3333333333334,173.5L780.1541666666667,184L781.975,184L783.7958333333333,184L785.6166666666667,184L787.4375,187.5L789.2583333333333,187.5L791.0791666666667,187.5L792.9,187.5L794.7208333333333,194.50000000000003L796.5416666666666,194.50000000000003L798.3625,194.50000000000003L800.1833333333333,194.50000000000003L802.0041666666667,184L803.825,184L805.6458333333334,184L807.4666666666667,184L809.2875,191L811.1083333333333,191L812.9291666666667,191L814.75,191L816.5708333333333,191L818.3916666666667,191L820.2125,191L822.0333333333333,191L823.8541666666666,177L825.675,177L827.4958333333333,177L829.3166666666667,177L831.1375,184L832.9583333333334,184L834.7791666666667,184L836.6,184L838.4208333333333,191L840.2416666666667,191L842.0625,191L843.8833333333333,191L845.7041666666667,180.49999999999997L847.525,180.49999999999997L849.3458333333333,180.49999999999997L851.1666666666666,180.49999999999997L852.9875,187.5L854.8083333333333,187.5L856.6291666666667,187.5L858.45,187.5L860.2708333333334,187.5L862.0916666666667,187.5L863.9125,187.5L865.7333333333333,187.5L867.5541666666667,184L869.375,184L871.1958333333333,184L873.0166666666667,184L874.8375,191L876.6583333333333,191L878.4791666666666,191L880.3,191L882.1208333333333,170.00000000000003L883.9416666666667,170.00000000000003L885.7625,170.00000000000003L887.5833333333334,170.00000000000003L889.4041666666667,170.00000000000003L891.225,170.00000000000003L893.0458333333333,170.00000000000003L894.8666666666667,170.00000000000003L896.6875,138.5L898.5083333333333,138.5L900.3291666666667,138.5L902.15,138.5L903.9708333333333,96.5L905.7916666666666,96.5L907.6125,96.5L909.4333333333333,96.5L911.2541666666667,51.00000000000002L913.075,51.00000000000002L914.8958333333334,51.00000000000002L916.7166666666667,51.00000000000002L918.5375,75.49999999999997L920.3583333333333,75.49999999999997L922.1791666666667,75.49999999999997L924,75.49999999999997"/><line x1="479.71666666666664" y1="25" x2="479.71666666666664" y2="450" stroke="#e41a1c" stroke-width="2.5" stroke-linejoin="round" stroke-linecap="round"/><line x1="-10146.666666666666" y1="25" x2="-10146.666666666666" y2="450" stroke="#e41a1c" stroke-width="2.5" stroke-linejoin="round" stroke-linecap="round"/><text x="459.71666666666664" y="15" text-anchor="middle" style="font-size: 16px; fill: rgb(0, 0, 0);">Survey Sent</text><text x="-10126.666666666666" y="15" text-anchor="middle" style="font-size: 16px; fill: rgb(0, 0, 0);">Survey Received</text></svg>