<svg viewBox="0,0,954,300" xmlns="http://www.w3.org/2000/svg" xmlns:xlink="http://www.w3.org/1999/xlink"><g transform="translate(0, 50)" fill="none" font-size="10" font-family="sans-serif" text-anchor="middle"><path class="domain" stroke="currentColor" d="M50.5,0.5H924.5"/><g class="tick" opacity="1" transform="translate(50.5,0)"><line stroke="currentColor" y2="-6"/><text fill="currentColor" y="-9" dy="0em">May</text></g><g class="tick" opacity="1" transform="translate(269,0)"><line stroke="currentColor" y2="-6"/><text fill="currentColor" y="-9" dy="0em">06 PM</text></g><g class="tick" opacity="1" transform="translate(487.5,0)"><line stroke="currentColor" y2="-6"/><text fill="currentColor" y="-9" dy="0em">12 PM</text></g><g class="tick" opacity="1" transform="translate(706,0)"><line stroke="currentColor" y2="-6"/><text fill="currentColor" y="-9" dy="0em">06 AM</text></g><g class="tick" opacity="1" transform="translate(924.5,0)"><line stroke="currentColor" y2="-6"/><text fill="currentColor" y="-9" dy="0em">Thu 30</text></g></g><g transform="translate(50,0)" fill="none" font-size="10" font-family="sans-serif" text-anchor="end"><g class="tick" opacity="1" transform="translate(0,81.42857142857143)"><line stroke="currentColor" x2="-6"/><text fill="currentColor" x="-9" dy="0.32em">22</text></g><g class="tick" opacity="1" transform="translate(0,133.80952380952382)"><line stroke="currentColor" x2="-6"/><text fill="currentColor" x="-9" dy="0.32em">23</text></g><g class="tick" opacity="1" transform="translate(0,186.1904761904762)"><line stroke="currentColor" x2="-6"/><text fill="currentColor" x="-9" dy="0.32em">25</text></g><g class="tick" opacity="1" transform="translate(0,238.57142857142858)"><line stroke="currentColor" x2="-6"/><text fill="currentColor" x="-9" dy="0.32em">26</text><text fill="currentColor" x="3" dy="0.32em" text-anchor="start" font-weight="bold"/></g></g><text transform="translate(477 ,20)" style="text-anchor: middle;">15-min windows on 2020-05-01</text><text transform="rotate(-90)" y="0" x="-150" dy="1em" style="text-anchor: middle;">Beacon IDs of Team 2</text><rect x="51.817047817047865" y="60.47619047619048" width="7.268191268191268" height="41.904761904761905" style="fill: rgb(247, 247, 247);"/><rect x="60.902286902286946" y="60.47619047619048" width="7.268191268191268" height="41.904761904761905" style="fill: rgb(247, 247, 247);"/><rect x="69.98752598752603" y="60.47619047619048" width="7.268191268191268" height="41.904761904761905" style="fill: rgb(247, 247, 247);"/><rect x="79.07276507276512" y="60.47619047619048" width="7.268191268191268" height="41.904761904761905" style="fill: rgb(247, 247, 247);"/><rect x="88.1580041580042" y="60.47619047619048" width="7.268191268191268" height="41.904761904761905" style="fill: rgb(247, 247, 247);"/><rect x="97.24324324324328" y="60.47619047619048" width="7.268191268191268" height="41.904761904761905" style="fill: rgb(247, 247, 247);"/><rect x="106.32848232848238" y="60.47619047619048" width="7.268191268191268" height="41.904761904761905" style="fill: rgb(247, 247, 247);"/><rect x="115.41372141372146" y="60.47619047619048" width="7.268191268191268" height="41.904761904761905" style="fill: rgb(247, 247, 247);"/><rect x="124.49896049896054" y="60.47619047619048" width="7.268191268191268" height="41.904761904761905" style="fill: rgb(247, 247, 247);"/><rect x="133.5841995841996" y="60.47619047619048" width="7.268191268191268" height="41.904761904761905" style="fill: rgb(247, 247, 247);"/><rect x="142.6694386694387" y="60.47619047619048" width="7.268191268191268" height="41.904761904761905" style="fill: rgb(247, 247, 247);"/><rect x="151.7546777546778" y="60.47619047619048" width="7.268191268191268" height="41.904761904761905" style="fill: rgb(247, 247, 247);"/><rect x="160.8399168399169" y="60.47619047619048" width="7.268191268191268" height="41.904761904761905" style="fill: rgb(247, 247, 247);"/><rect x="169.92515592515596" y="60.47619047619048" width="7.268191268191268" height="41.904761904761905" style="fill: rgb(247, 247, 247);"/><rect x="179.01039501039506" y="60.47619047619048" width="7.268191268191268" height="41.904761904761905" style="fill: rgb(247, 247, 247);"/><rect x="188.09563409563413" y="60.47619047619048" width="7.268191268191268" height="41.904761904761905" style="fill: rgb(247, 247, 247);"/><rect x="197.18087318087322" y="60.47619047619048" width="7.268191268191268" height="41.904761904761905" style="fill: rgb(247, 247, 247);"/><rect x="206.26611226611232" y="60.47619047619048" width="7.268191268191268" height="41.904761904761905" style="fill: rgb(247, 247, 247);"/><rect x="215.35135135135138" y="60.47619047619048" width="7.268191268191268" height="41.904761904761905" style="fill: rgb(247, 247, 247);"/><rect x="224.43659043659048" y="60.47619047619048" width="7.268191268191268" height="41.904761904761905" style="fill: rgb(247, 247, 247);"/><rect x="233.52182952182955" y="60.47619047619048" width="7.268191268191268" height="41.904761904761905" style="fill: rgb(247, 247, 247);"/><rect x="242.60706860706864" y="60.47619047619048" width="7.268191268191268" height="41.904761904761905" style="fill: rgb(247, 247, 247);"/><rect x="251.69230769230774" y="60.47619047619048" width="7.268191268191268" height="41.904761904761905" style="fill: rgb(247, 247, 247);"/><rect x="260.77754677754683" y="60.47619047619048" width="7.268191268191268" height="41.904761904761905" style="fill: rgb(247, 247, 247);"/><rect x="269.8627858627859" y="60.47619047619048" width="7.268191268191268" height="41.904761904761905" style="fill: rgb(247, 247, 247);"/><rect x="278.948024948025" y="60.47619047619048" width="7.268191268191268" height="41.904761904761905" style="fill: rgb(247, 247, 247);"/><rect x="288.03326403326406" y="60.47619047619048" width="7.268191268191268" height="41.904761904761905" style="fill: rgb(247, 247, 247);"/><rect x="297.11850311850316" y="60.47619047619048" width="7.268191268191268" height="41.904761904761905" style="fill: rgb(247, 247, 247);"/><rect x="306.20374220374225" y="60.47619047619048" width="7.268191268191268" height="41.904761904761905" style="fill: rgb(247, 247, 247);"/><rect x="315.28898128898135" y="60.47619047619048" width="7.268191268191268" height="41.904761904761905" style="fill: rgb(247, 247, 247);"/><rect x="324.3742203742204" y="60.47619047619048" width="7.268191268191268" height="41.904761904761905" style="fill: rgb(247, 247, 247);"/><rect x="333.4594594594595" y="60.47619047619048" width="7.268191268191268" height="41.904761904761905" style="fill: rgb(247, 247, 247);"/><rect x="342.5446985446986" y="60.47619047619048" width="7.268191268191268" height="41.904761904761905" style="fill: rgb(247, 247, 247);"/><rect x="351.6299376299377" y="60.47619047619048" width="7.268191268191268" height="41.904761904761905" style="fill: rgb(247, 247, 247);"/><rect x="360.71517671517677" y="60.47619047619048" width="7.268191268191268" height="41.904761904761905" style="fill: rgb(247, 247, 247);"/><rect x="369.8004158004158" y="60.47619047619048" width="7.268191268191268" height="41.904761904761905" style="fill: rgb(247, 247, 247);"/><rect x="378.8856548856549" y="60.47619047619048" width="7.268191268191268" height="41.904761904761905" style="fill: rgb(247, 247, 247);"/><rect x="387.970893970894" y="60.47619047619048" width="7.268191268191268" height="41.904761904761905" style="fill: rgb(247, 247, 247);"/><rect x="397.0561330561331" y="60.47619047619048" width="7.268191268191268" height="41.904761904761905" style="fill: rgb(247, 247, 247);"/><rect x="406.1413721413722" y="60.47619047619048" width="7.268191268191268" height="41.904761904761905" style="fill: rgb(247, 247, 247);"/><rect x="415.2266112266112" y="60.47619047619048" width="7.268191268191268" height="41.904761904761905" style="fill: rgb(247, 247, 247);"/><rect x="424.3118503118503" y="60.47619047619048" width="7.268191268191268" height="41.904761904761905" style="fill: rgb(247, 247, 247);"/><rect x="433.3970893970894" y="60.47619047619048" width="7.268191268191268" height="41.904761904761905" style="fill: rgb(247, 247, 247);"/><rect x="442.4823284823285" y="60.47619047619048" width="7.268191268191268" height="41.904761904761905" style="fill: rgb(247, 247, 247);"/><rect x="451.5675675675676" y="60.47619047619048" width="7.268191268191268" height="41.904761904761905" style="fill: rgb(247, 247, 247);"/><rect x="460.6528066528067" y="60.47619047619048" width="7.268191268191268" height="41.904761904761905" style="fill: rgb(247, 247, 247);"/><rect x="469.73804573804574" y="60.47619047619048" width="7.268191268191268" height="41.904761904761905" style="fill: rgb(247, 247, 247);"/><rect x="478.82328482328484" y="60.47619047619048" width="7.268191268191268" height="41.904761904761905" style="fill: rgb(247, 247, 247);"/><rect x="487.90852390852393" y="60.47619047619048" width="7.268191268191268" height="41.904761904761905" style="fill: rgb(247, 247, 247);"/><rect x="496.993762993763" y="60.47619047619048" width="7.268191268191268" height="41.904761904761905" style="fill: rgb(247, 247, 247);"/><rect x="506.0790020790021" y="60.47619047619048" width="7.268191268191268" height="41.904761904761905" style="fill: rgb(247, 247, 247);"/><rect x="515.1642411642412" y="60.47619047619048" width="7.268191268191268" height="41.904761904761905" style="fill: rgb(247, 247, 247);"/><rect x="524.2494802494803" y="60.47619047619048" width="7.268191268191268" height="41.904761904761905" style="fill: rgb(247, 247, 247);"/><rect x="533.3347193347194" y="60.47619047619048" width="7.268191268191268" height="41.904761904761905" style="fill: rgb(247, 247, 247);"/><rect x="542.4199584199584" y="60.47619047619048" width="7.268191268191268" height="41.904761904761905" style="fill: rgb(247, 247, 247);"/><rect x="551.5051975051975" y="60.47619047619048" width="7.268191268191268" height="41.904761904761905" style="fill: rgb(247, 247, 247);"/><rect x="560.5904365904366" y="60.47619047619048" width="7.268191268191268" height="41.904761904761905" style="fill: rgb(247, 247, 247);"/><rect x="569.6756756756757" y="60.47619047619048" width="7.268191268191268" height="41.904761904761905" style="fill: rgb(247, 247, 247);"/><rect x="578.7609147609148" y="60.47619047619048" width="7.268191268191268" height="41.904761904761905" style="fill: rgb(247, 247, 247);"/><rect x="587.8461538461538" y="60.47619047619048" width="7.268191268191268" height="41.904761904761905" style="fill: rgb(247, 247, 247);"/><rect x="596.9313929313929" y="60.47619047619048" width="7.268191268191268" height="41.904761904761905" style="fill: rgb(247, 247, 247);"/><rect x="606.016632016632" y="60.47619047619048" width="7.268191268191268" height="41.904761904761905" style="fill: rgb(247, 247, 247);"/><rect x="615.1018711018711" y="60.47619047619048" width="7.268191268191268" height="41.904761904761905" style="fill: rgb(247, 247, 247);"/><rect x="624.1871101871102" y="60.47619047619048" width="7.268191268191268" height="41.904761904761905" style="fill: rgb(247, 247, 247);"/><rect x="633.2723492723493" y="60.47619047619048" width="7.268191268191268" height="41.904761904761905" style="fill: rgb(247, 247, 247);"/><rect x="642.3575883575884" y="60.47619047619048" width="7.268191268191268" height="41.904761904761905" style="fill: rgb(247, 247, 247);"/><rect x="651.4428274428275" y="60.47619047619048" width="7.268191268191268" height="41.904761904761905" style="fill: rgb(247, 247, 247);"/><rect x="660.5280665280666" y="60.47619047619048" width="7.268191268191268" height="41.904761904761905" style="fill: rgb(247, 247, 247);"/><rect x="669.6133056133057" y="60.47619047619048" width="7.268191268191268" height="41.904761904761905" style="fill: rgb(247, 247, 247);"/><rect x="678.6985446985448" y="60.47619047619048" width="7.268191268191268" height="41.904761904761905" style="fill: rgb(247, 247, 247);"/><rect x="687.7837837837837" y="60.47619047619048" width="7.268191268191268" height="41.904761904761905" style="fill: rgb(247, 247, 247);"/><rect x="696.8690228690228" y="60.47619047619048" width="7.268191268191268" height="41.904761904761905" style="fill: rgb(247, 247, 247);"/><rect x="705.9542619542619" y="60.47619047619048" width="7.268191268191268" height="41.904761904761905" style="fill: rgb(247, 247, 247);"/><rect x="715.039501039501" y="60.47619047619048" width="7.268191268191268" height="41.904761904761905" style="fill: rgb(247, 247, 247);"/><rect x="724.1247401247401" y="60.47619047619048" width="7.268191268191268" height="41.904761904761905" style="fill: rgb(247, 247, 247);"/><rect x="733.2099792099792" y="60.47619047619048" width="7.268191268191268" height="41.904761904761905" style="fill: rgb(247, 247, 247);"/><rect x="742.2952182952183" y="60.47619047619048" width="7.268191268191268" height="41.904761904761905" style="fill: rgb(247, 247, 247);"/><rect x="751.3804573804574" y="60.47619047619048" width="7.268191268191268" height="41.904761904761905" style="fill: rgb(247, 247, 247);"/><rect x="760.4656964656965" y="60.47619047619048" width="7.268191268191268" height="41.904761904761905" style="fill: rgb(247, 247, 247);"/><rect x="769.5509355509356" y="60.47619047619048" width="7.268191268191268" height="41.904761904761905" style="fill: rgb(247, 247, 247);"/><rect x="778.6361746361746" y="60.47619047619048" width="7.268191268191268" height="41.904761904761905" style="fill: rgb(247, 247, 247);"/><rect x="787.7214137214137" y="60.47619047619048" width="7.268191268191268" height="41.904761904761905" style="fill: rgb(247, 247, 247);"/><rect x="796.8066528066528" y="60.47619047619048" width="7.268191268191268" height="41.904761904761905" style="fill: rgb(247, 247, 247);"/><rect x="805.8918918918919" y="60.47619047619048" width="7.268191268191268" height="41.904761904761905" style="fill: rgb(247, 247, 247);"/><rect x="814.977130977131" y="60.47619047619048" width="7.268191268191268" height="41.904761904761905" style="fill: rgb(247, 247, 247);"/><rect x="824.0623700623701" y="60.47619047619048" width="7.268191268191268" height="41.904761904761905" style="fill: rgb(247, 247, 247);"/><rect x="833.1476091476092" y="60.47619047619048" width="7.268191268191268" height="41.904761904761905" style="fill: rgb(247, 247, 247);"/><rect x="842.2328482328483" y="60.47619047619048" width="7.268191268191268" height="41.904761904761905" style="fill: rgb(247, 247, 247);"/><rect x="851.3180873180874" y="60.47619047619048" width="7.268191268191268" height="41.904761904761905" style="fill: rgb(247, 247, 247);"/><rect x="860.4033264033264" y="60.47619047619048" width="7.268191268191268" height="41.904761904761905" style="fill: rgb(247, 247, 247);"/><rect x="869.4885654885655" y="60.47619047619048" width="7.268191268191268" height="41.904761904761905" style="fill: rgb(247, 247, 247);"/><rect x="878.5738045738045" y="60.47619047619048" width="7.268191268191268" height="41.904761904761905" style="fill: rgb(247, 247, 247);"/><rect x="887.6590436590436" y="60.47619047619048" width="7.268191268191268" height="41.904761904761905" style="fill: rgb(247, 247, 247);"/><rect x="896.7442827442827" y="60.47619047619048" width="7.268191268191268" height="41.904761904761905" style="fill: rgb(247, 247, 247);"/><rect x="905.8295218295218" y="60.47619047619048" width="7.268191268191268" height="41.904761904761905" style="fill: rgb(247, 247, 247);"/><rect x="914.9147609147609" y="60.47619047619048" width="7.268191268191268" height="41.904761904761905" style="fill: rgb(247, 247, 247);"/><rect x="51.817047817047865" y="112.85714285714286" width="7.268191268191268" height="41.904761904761905" style="fill: rgb(247, 247, 247);"/><rect x="60.902286902286946" y="112.85714285714286" width="7.268191268191268" height="41.904761904761905" style="fill: rgb(247, 247, 247);"/><rect x="69.98752598752603" y="112.85714285714286" width="7.268191268191268" height="41.904761904761905" style="fill: rgb(247, 247, 247);"/><rect x="79.07276507276512" y="112.85714285714286" width="7.268191268191268" height="41.904761904761905" style="fill: rgb(247, 247, 247);"/><rect x="88.1580041580042" y="112.85714285714286" width="7.268191268191268" height="41.904761904761905" style="fill: rgb(247, 247, 247);"/><rect x="97.24324324324328" y="112.85714285714286" width="7.268191268191268" height="41.904761904761905" style="fill: rgb(247, 247, 247);"/><rect x="106.32848232848238" y="112.85714285714286" width="7.268191268191268" height="41.904761904761905" style="fill: rgb(247, 247, 247);"/><rect x="115.41372141372146" y="112.85714285714286" width="7.268191268191268" height="41.904761904761905" style="fill: rgb(247, 247, 247);"/><rect x="124.49896049896054" y="112.85714285714286" width="7.268191268191268" height="41.904761904761905" style="fill: rgb(118, 42, 131);"/><rect x="133.5841995841996" y="112.85714285714286" width="7.268191268191268" height="41.904761904761905" style="fill: rgb(247, 247, 247);"/><rect x="142.6694386694387" y="112.85714285714286" width="7.268191268191268" height="41.904761904761905" style="fill: rgb(247, 247, 247);"/><rect x="151.7546777546778" y="112.85714285714286" width="7.268191268191268" height="41.904761904761905" style="fill: rgb(247, 247, 247);"/><rect x="160.8399168399169" y="112.85714285714286" width="7.268191268191268" height="41.904761904761905" style="fill: rgb(247, 247, 247);"/><rect x="169.92515592515596" y="112.85714285714286" width="7.268191268191268" height="41.904761904761905" style="fill: rgb(247, 247, 247);"/><rect x="179.01039501039506" y="112.85714285714286" width="7.268191268191268" height="41.904761904761905" style="fill: rgb(247, 247, 247);"/><rect x="188.09563409563413" y="112.85714285714286" width="7.268191268191268" height="41.904761904761905" style="fill: rgb(247, 247, 247);"/><rect x="197.18087318087322" y="112.85714285714286" width="7.268191268191268" height="41.904761904761905" style="fill: rgb(247, 247, 247);"/><rect x="206.26611226611232" y="112.85714285714286" width="7.268191268191268" height="41.904761904761905" style="fill: rgb(247, 247, 247);"/><rect x="215.35135135135138" y="112.85714285714286" width="7.268191268191268" height="41.904761904761905" style="fill: rgb(247, 247, 247);"/><rect x="224.43659043659048" y="112.85714285714286" width="7.268191268191268" height="41.904761904761905" style="fill: rgb(247, 247, 247);"/><rect x="233.52182952182955" y="112.85714285714286" width="7.268191268191268" height="41.904761904761905" style="fill: rgb(118, 42, 131);"/><rect x="242.60706860706864" y="112.85714285714286" width="7.268191268191268" height="41.904761904761905" style="fill: rgb(247, 247, 247);"/><rect x="251.69230769230774" y="112.85714285714286" width="7.268191268191268" height="41.904761904761905" style="fill: rgb(247, 247, 247);"/><rect x="260.77754677754683" y="112.85714285714286" width="7.268191268191268" height="41.904761904761905" style="fill: rgb(247, 247, 247);"/><rect x="269.8627858627859" y="112.85714285714286" width="7.268191268191268" height="41.904761904761905" style="fill: rgb(247, 247, 247);"/><rect x="278.948024948025" y="112.85714285714286" width="7.268191268191268" height="41.904761904761905" style="fill: rgb(247, 247, 247);"/><rect x="288.03326403326406" y="112.85714285714286" width="7.268191268191268" height="41.904761904761905" style="fill: rgb(247, 247, 247);"/><rect x="297.11850311850316" y="112.85714285714286" width="7.268191268191268" height="41.904761904761905" style="fill: rgb(247, 247, 247);"/><rect x="306.20374220374225" y="112.85714285714286" width="7.268191268191268" height="41.904761904761905" style="fill: rgb(247, 247, 247);"/><rect x="315.28898128898135" y="112.85714285714286" width="7.268191268191268" height="41.904761904761905" style="fill: rgb(247, 247, 247);"/><rect x="324.3742203742204" y="112.85714285714286" width="7.268191268191268" height="41.904761904761905" style="fill: rgb(247, 247, 247);"/><rect x="333.4594594594595" y="112.85714285714286" width="7.268191268191268" height="41.904761904761905" style="fill: rgb(247, 247, 247);"/><rect x="342.5446985446986" y="112.85714285714286" width="7.268191268191268" height="41.904761904761905" style="fill: rgb(247, 247, 247);"/><rect x="351.6299376299377" y="112.85714285714286" width="7.268191268191268" height="41.904761904761905" style="fill: rgb(247, 247, 247);"/><rect x="360.71517671517677" y="112.85714285714286" width="7.268191268191268" height="41.904761904761905" style="fill: rgb(247, 247, 247);"/><rect x="369.8004158004158" y="112.85714285714286" width="7.268191268191268" height="41.904761904761905" style="fill: rgb(247, 247, 247);"/><rect x="378.8856548856549" y="112.85714285714286" width="7.268191268191268" height="41.904761904761905" style="fill: rgb(247, 247, 247);"/><rect x="387.970893970894" y="112.85714285714286" width="7.268191268191268" height="41.904761904761905" style="fill: rgb(247, 247, 247);"/><rect x="397.0561330561331" y="112.85714285714286" width="7.268191268191268" height="41.904761904761905" style="fill: rgb(247, 247, 247);"/><rect x="406.1413721413722" y="112.85714285714286" width="7.268191268191268" height="41.904761904761905" style="fill: rgb(247, 247, 247);"/><rect x="415.2266112266112" y="112.85714285714286" width="7.268191268191268" height="41.904761904761905" style="fill: rgb(247, 247, 247);"/><rect x="424.3118503118503" y="112.85714285714286" width="7.268191268191268" height="41.904761904761905" style="fill: rgb(247, 247, 247);"/><rect x="433.3970893970894" y="112.85714285714286" width="7.268191268191268" height="41.904761904761905" style="fill: rgb(247, 247, 247);"/><rect x="442.4823284823285" y="112.85714285714286" width="7.268191268191268" height="41.904761904761905" style="fill: rgb(247, 247, 247);"/><rect x="451.5675675675676" y="112.85714285714286" width="7.268191268191268" height="41.904761904761905" style="fill: rgb(247, 247, 247);"/><rect x="460.6528066528067" y="112.85714285714286" width="7.268191268191268" height="41.904761904761905" style="fill: rgb(247, 247, 247);"/><rect x="469.73804573804574" y="112.85714285714286" width="7.268191268191268" height="41.904761904761905" style="fill: rgb(247, 247, 247);"/><rect x="478.82328482328484" y="112.85714285714286" width="7.268191268191268" height="41.904761904761905" style="fill: rgb(247, 247, 247);"/><rect x="487.90852390852393" y="112.85714285714286" width="7.268191268191268" height="41.904761904761905" style="fill: rgb(247, 247, 247);"/><rect x="496.993762993763" y="112.85714285714286" width="7.268191268191268" height="41.904761904761905" style="fill: rgb(247, 247, 247);"/><rect x="506.0790020790021" y="112.85714285714286" width="7.268191268191268" height="41.904761904761905" style="fill: rgb(247, 247, 247);"/><rect x="515.1642411642412" y="112.85714285714286" width="7.268191268191268" height="41.904761904761905" style="fill: rgb(247, 247, 247);"/><rect x="524.2494802494803" y="112.85714285714286" width="7.268191268191268" height="41.904761904761905" style="fill: rgb(247, 247, 247);"/><rect x="533.3347193347194" y="112.85714285714286" width="7.268191268191268" height="41.904761904761905" style="fill: rgb(247, 247, 247);"/><rect x="542.4199584199584" y="112.85714285714286" width="7.268191268191268" height="41.904761904761905" style="fill: rgb(118, 42, 131);"/><rect x="551.5051975051975" y="112.85714285714286" width="7.268191268191268" height="41.904761904761905" style="fill: rgb(247, 247, 247);"/><rect x="560.5904365904366" y="112.85714285714286" width="7.268191268191268" height="41.904761904761905" style="fill: rgb(247, 247, 247);"/><rect x="569.6756756756757" y="112.85714285714286" width="7.268191268191268" height="41.904761904761905" style="fill: rgb(247, 247, 247);"/><rect x="578.7609147609148" y="112.85714285714286" width="7.268191268191268" height="41.904761904761905" style="fill: rgb(247, 247, 247);"/><rect x="587.8461538461538" y="112.85714285714286" width="7.268191268191268" height="41.904761904761905" style="fill: rgb(247, 247, 247);"/><rect x="596.9313929313929" y="112.85714285714286" width="7.268191268191268" height="41.904761904761905" style="fill: rgb(247, 247, 247);"/><rect x="606.016632016632" y="112.85714285714286" width="7.268191268191268" height="41.904761904761905" style="fill: rgb(247, 247, 247);"/><rect x="615.1018711018711" y="112.85714285714286" width="7.268191268191268" height="41.904761904761905" style="fill: rgb(247, 247, 247);"/><rect x="624.1871101871102" y="112.85714285714286" width="7.268191268191268" height="41.904761904761905" style="fill: rgb(118, 42, 131);"/><rect x="633.2723492723493" y="112.85714285714286" width="7.268191268191268" height="41.904761904761905" style="fill: rgb(247, 247, 247);"/><rect x="642.3575883575884" y="112.85714285714286" width="7.268191268191268" height="41.904761904761905" style="fill: rgb(247, 247, 247);"/><rect x="651.4428274428275" y="112.85714285714286" width="7.268191268191268" height="41.904761904761905" style="fill: rgb(247, 247, 247);"/><rect x="660.5280665280666" y="112.85714285714286" width="7.268191268191268" height="41.904761904761905" style="fill: rgb(247, 247, 247);"/><rect x="669.6133056133057" y="112.85714285714286" width="7.268191268191268" height="41.904761904761905" style="fill: rgb(247, 247, 247);"/><rect x="678.6985446985448" y="112.85714285714286" width="7.268191268191268" height="41.904761904761905" style="fill: rgb(247, 247, 247);"/><rect x="687.7837837837837" y="112.85714285714286" width="7.268191268191268" height="41.904761904761905" style="fill: rgb(247, 247, 247);"/><rect x="696.8690228690228" y="112.85714285714286" width="7.268191268191268" height="41.904761904761905" style="fill: rgb(247, 247, 247);"/><rect x="705.9542619542619" y="112.85714285714286" width="7.268191268191268" height="41.904761904761905" style="fill: rgb(118, 42, 131);"/><rect x="715.039501039501" y="112.85714285714286" width="7.268191268191268" height="41.904761904761905" style="fill: rgb(247, 247, 247);"/><rect x="724.1247401247401" y="112.85714285714286" width="7.268191268191268" height="41.904761904761905" style="fill: rgb(247, 247, 247);"/><rect x="733.2099792099792" y="112.85714285714286" width="7.268191268191268" height="41.904761904761905" style="fill: rgb(247, 247, 247);"/><rect x="742.2952182952183" y="112.85714285714286" width="7.268191268191268" height="41.904761904761905" style="fill: rgb(247, 247, 247);"/><rect x="751.3804573804574" y="112.85714285714286" width="7.268191268191268" height="41.904761904761905" style="fill: rgb(247, 247, 247);"/><rect x="760.4656964656965" y="112.85714285714286" width="7.268191268191268" height="41.904761904761905" style="fill: rgb(247, 247, 247);"/><rect x="769.5509355509356" y="112.85714285714286" width="7.268191268191268" height="41.904761904761905" style="fill: rgb(247, 247, 247);"/><rect x="778.6361746361746" y="112.85714285714286" width="7.268191268191268" height="41.904761904761905" style="fill: rgb(247, 247, 247);"/><rect x="787.7214137214137" y="112.85714285714286" width="7.268191268191268" height="41.904761904761905" style="fill: rgb(118, 42, 131);"/><rect x="796.8066528066528" y="112.85714285714286" width="7.268191268191268" height="41.904761904761905" style="fill: rgb(247, 247, 247);"/><rect x="805.8918918918919" y="112.85714285714286" width="7.268191268191268" height="41.904761904761905" style="fill: rgb(118, 42, 131);"/><rect x="814.977130977131" y="112.85714285714286" width="7.268191268191268" height="41.904761904761905" style="fill: rgb(247, 247, 247);"/><rect x="824.0623700623701" y="112.85714285714286" width="7.268191268191268" height="41.904761904761905" style="fill: rgb(247, 247, 247);"/><rect x="833.1476091476092" y="112.85714285714286" width="7.268191268191268" height="41.904761904761905" style="fill: rgb(247, 247, 247);"/><rect x="842.2328482328483" y="112.85714285714286" width="7.268191268191268" height="41.904761904761905" style="fill: rgb(247, 247, 247);"/><rect x="851.3180873180874" y="112.85714285714286" width="7.268191268191268" height="41.904761904761905" style="fill: rgb(247, 247, 247);"/><rect x="860.4033264033264" y="112.85714285714286" width="7.268191268191268" height="41.904761904761905" style="fill: rgb(247, 247, 247);"/><rect x="869.4885654885655" y="112.85714285714286" width="7.268191268191268" height="41.904761904761905" style="fill: rgb(247, 247, 247);"/><rect x="878.5738045738045" y="112.85714285714286" width="7.268191268191268" height="41.904761904761905" style="fill: rgb(247, 247, 247);"/><rect x="887.6590436590436" y="112.85714285714286" width="7.268191268191268" height="41.904761904761905" style="fill: rgb(118, 42, 131);"/><rect x="896.7442827442827" y="112.85714285714286" width="7.268191268191268" height="41.904761904761905" style="fill: rgb(247, 247, 247);"/><rect x="905.8295218295218" y="112.85714285714286" width="7.268191268191268" height="41.904761904761905" style="fill: rgb(247, 247, 247);"/><rect x="914.9147609147609" y="112.85714285714286" width="7.268191268191268" height="41.904761904761905" style="fill: rgb(247, 247, 247);"/><rect x="51.817047817047865" y="165.23809523809524" width="7.268191268191268" height="41.904761904761905" style="fill: rgb(118, 42, 131);"/><rect x="60.902286902286946" y="165.23809523809524" width="7.268191268191268" height="41.904761904761905" style="fill: rgb(118, 42, 131);"/><rect x="69.98752598752603" y="165.23809523809524" width="7.268191268191268" height="41.904761904761905" style="fill: rgb(118, 42, 131);"/><rect x="79.07276507276512" y="165.23809523809524" width="7.268191268191268" height="41.904761904761905" style="fill: rgb(118, 42, 131);"/><rect x="88.1580041580042" y="165.23809523809524" width="7.268191268191268" height="41.904761904761905" style="fill: rgb(118, 42, 131);"/><rect x="97.24324324324328" y="165.23809523809524" width="7.268191268191268" height="41.904761904761905" style="fill: rgb(118, 42, 131);"/><rect x="106.32848232848238" y="165.23809523809524" width="7.268191268191268" height="41.904761904761905" style="fill: rgb(118, 42, 131);"/><rect x="115.41372141372146" y="165.23809523809524" width="7.268191268191268" height="41.904761904761905" style="fill: rgb(118, 42, 131);"/><rect x="124.49896049896054" y="165.23809523809524" width="7.268191268191268" height="41.904761904761905" style="fill: rgb(118, 42, 131);"/><rect x="133.5841995841996" y="165.23809523809524" width="7.268191268191268" height="41.904761904761905" style="fill: rgb(118, 42, 131);"/><rect x="142.6694386694387" y="165.23809523809524" width="7.268191268191268" height="41.904761904761905" style="fill: rgb(118, 42, 131);"/><rect x="151.7546777546778" y="165.23809523809524" width="7.268191268191268" height="41.904761904761905" style="fill: rgb(118, 42, 131);"/><rect x="160.8399168399169" y="165.23809523809524" width="7.268191268191268" height="41.904761904761905" style="fill: rgb(118, 42, 131);"/><rect x="169.92515592515596" y="165.23809523809524" width="7.268191268191268" height="41.904761904761905" style="fill: rgb(247, 247, 247);"/><rect x="179.01039501039506" y="165.23809523809524" width="7.268191268191268" height="41.904761904761905" style="fill: rgb(247, 247, 247);"/><rect x="188.09563409563413" y="165.23809523809524" width="7.268191268191268" height="41.904761904761905" style="fill: rgb(118, 42, 131);"/><rect x="197.18087318087322" y="165.23809523809524" width="7.268191268191268" height="41.904761904761905" style="fill: rgb(118, 42, 131);"/><rect x="206.26611226611232" y="165.23809523809524" width="7.268191268191268" height="41.904761904761905" style="fill: rgb(118, 42, 131);"/><rect x="215.35135135135138" y="165.23809523809524" width="7.268191268191268" height="41.904761904761905" style="fill: rgb(118, 42, 131);"/><rect x="224.43659043659048" y="165.23809523809524" width="7.268191268191268" height="41.904761904761905" style="fill: rgb(118, 42, 131);"/><rect x="233.52182952182955" y="165.23809523809524" width="7.268191268191268" height="41.904761904761905" style="fill: rgb(118, 42, 131);"/><rect x="242.60706860706864" y="165.23809523809524" width="7.268191268191268" height="41.904761904761905" style="fill: rgb(118, 42, 131);"/><rect x="251.69230769230774" y="165.23809523809524" width="7.268191268191268" height="41.904761904761905" style="fill: rgb(118, 42, 131);"/><rect x="260.77754677754683" y="165.23809523809524" width="7.268191268191268" height="41.904761904761905" style="fill: rgb(118, 42, 131);"/><rect x="269.8627858627859" y="165.23809523809524" width="7.268191268191268" height="41.904761904761905" style="fill: rgb(118, 42, 131);"/><rect x="278.948024948025" y="165.23809523809524" width="7.268191268191268" height="41.904761904761905" style="fill: rgb(118, 42, 131);"/><rect x="288.03326403326406" y="165.23809523809524" width="7.268191268191268" height="41.904761904761905" style="fill: rgb(118, 42, 131);"/><rect x="297.11850311850316" y="165.23809523809524" width="7.268191268191268" height="41.904761904761905" style="fill: rgb(118, 42, 131);"/><rect x="306.20374220374225" y="165.23809523809524" width="7.268191268191268" height="41.904761904761905" style="fill: rgb(118, 42, 131);"/><rect x="315.28898128898135" y="165.23809523809524" width="7.268191268191268" height="41.904761904761905" style="fill: rgb(118, 42, 131);"/><rect x="324.3742203742204" y="165.23809523809524" width="7.268191268191268" height="41.904761904761905" style="fill: rgb(118, 42, 131);"/><rect x="333.4594594594595" y="165.23809523809524" width="7.268191268191268" height="41.904761904761905" style="fill: rgb(118, 42, 131);"/><rect x="342.5446985446986" y="165.23809523809524" width="7.268191268191268" height="41.904761904761905" style="fill: rgb(118, 42, 131);"/><rect x="351.6299376299377" y="165.23809523809524" width="7.268191268191268" height="41.904761904761905" style="fill: rgb(118, 42, 131);"/><rect x="360.71517671517677" y="165.23809523809524" width="7.268191268191268" height="41.904761904761905" style="fill: rgb(118, 42, 131);"/><rect x="369.8004158004158" y="165.23809523809524" width="7.268191268191268" height="41.904761904761905" style="fill: rgb(118, 42, 131);"/><rect x="378.8856548856549" y="165.23809523809524" width="7.268191268191268" height="41.904761904761905" style="fill: rgb(118, 42, 131);"/><rect x="387.970893970894" y="165.23809523809524" width="7.268191268191268" height="41.904761904761905" style="fill: rgb(118, 42, 131);"/><rect x="397.0561330561331" y="165.23809523809524" width="7.268191268191268" height="41.904761904761905" style="fill: rgb(118, 42, 131);"/><rect x="406.1413721413722" y="165.23809523809524" width="7.268191268191268" height="41.904761904761905" style="fill: rgb(118, 42, 131);"/><rect x="415.2266112266112" y="165.23809523809524" width="7.268191268191268" height="41.904761904761905" style="fill: rgb(118, 42, 131);"/><rect x="424.3118503118503" y="165.23809523809524" width="7.268191268191268" height="41.904761904761905" style="fill: rgb(118, 42, 131);"/><rect x="433.3970893970894" y="165.23809523809524" width="7.268191268191268" height="41.904761904761905" style="fill: rgb(118, 42, 131);"/><rect x="442.4823284823285" y="165.23809523809524" width="7.268191268191268" height="41.904761904761905" style="fill: rgb(118, 42, 131);"/><rect x="451.5675675675676" y="165.23809523809524" width="7.268191268191268" height="41.904761904761905" style="fill: rgb(118, 42, 131);"/><rect x="460.6528066528067" y="165.23809523809524" width="7.268191268191268" height="41.904761904761905" style="fill: rgb(118, 42, 131);"/><rect x="469.73804573804574" y="165.23809523809524" width="7.268191268191268" height="41.904761904761905" style="fill: rgb(118, 42, 131);"/><rect x="478.82328482328484" y="165.23809523809524" width="7.268191268191268" height="41.904761904761905" style="fill: rgb(118, 42, 131);"/><rect x="487.90852390852393" y="165.23809523809524" width="7.268191268191268" height="41.904761904761905" style="fill: rgb(118, 42, 131);"/><rect x="496.993762993763" y="165.23809523809524" width="7.268191268191268" height="41.904761904761905" style="fill: rgb(118, 42, 131);"/><rect x="506.0790020790021" y="165.23809523809524" width="7.268191268191268" height="41.904761904761905" style="fill: rgb(118, 42, 131);"/><rect x="515.1642411642412" y="165.23809523809524" width="7.268191268191268" height="41.904761904761905" style="fill: rgb(118, 42, 131);"/><rect x="524.2494802494803" y="165.23809523809524" width="7.268191268191268" height="41.904761904761905" style="fill: rgb(118, 42, 131);"/><rect x="533.3347193347194" y="165.23809523809524" width="7.268191268191268" height="41.904761904761905" style="fill: rgb(118, 42, 131);"/><rect x="542.4199584199584" y="165.23809523809524" width="7.268191268191268" height="41.904761904761905" style="fill: rgb(118, 42, 131);"/><rect x="551.5051975051975" y="165.23809523809524" width="7.268191268191268" height="41.904761904761905" style="fill: rgb(118, 42, 131);"/><rect x="560.5904365904366" y="165.23809523809524" width="7.268191268191268" height="41.904761904761905" style="fill: rgb(118, 42, 131);"/><rect x="569.6756756756757" y="165.23809523809524" width="7.268191268191268" height="41.904761904761905" style="fill: rgb(118, 42, 131);"/><rect x="578.7609147609148" y="165.23809523809524" width="7.268191268191268" height="41.904761904761905" style="fill: rgb(118, 42, 131);"/><rect x="587.8461538461538" y="165.23809523809524" width="7.268191268191268" height="41.904761904761905" style="fill: rgb(118, 42, 131);"/><rect x="596.9313929313929" y="165.23809523809524" width="7.268191268191268" height="41.904761904761905" style="fill: rgb(118, 42, 131);"/><rect x="606.016632016632" y="165.23809523809524" width="7.268191268191268" height="41.904761904761905" style="fill: rgb(118, 42, 131);"/><rect x="615.1018711018711" y="165.23809523809524" width="7.268191268191268" height="41.904761904761905" style="fill: rgb(118, 42, 131);"/><rect x="624.1871101871102" y="165.23809523809524" width="7.268191268191268" height="41.904761904761905" style="fill: rgb(118, 42, 131);"/><rect x="633.2723492723493" y="165.23809523809524" width="7.268191268191268" height="41.904761904761905" style="fill: rgb(118, 42, 131);"/><rect x="642.3575883575884" y="165.23809523809524" width="7.268191268191268" height="41.904761904761905" style="fill: rgb(118, 42, 131);"/><rect x="651.4428274428275" y="165.23809523809524" width="7.268191268191268" height="41.904761904761905" style="fill: rgb(118, 42, 131);"/><rect x="660.5280665280666" y="165.23809523809524" width="7.268191268191268" height="41.904761904761905" style="fill: rgb(118, 42, 131);"/><rect x="669.6133056133057" y="165.23809523809524" width="7.268191268191268" height="41.904761904761905" style="fill: rgb(118, 42, 131);"/><rect x="678.6985446985448" y="165.23809523809524" width="7.268191268191268" height="41.904761904761905" style="fill: rgb(118, 42, 131);"/><rect x="687.7837837837837" y="165.23809523809524" width="7.268191268191268" height="41.904761904761905" style="fill: rgb(118, 42, 131);"/><rect x="696.8690228690228" y="165.23809523809524" width="7.268191268191268" height="41.904761904761905" style="fill: rgb(118, 42, 131);"/><rect x="705.9542619542619" y="165.23809523809524" width="7.268191268191268" height="41.904761904761905" style="fill: rgb(118, 42, 131);"/><rect x="715.039501039501" y="165.23809523809524" width="7.268191268191268" height="41.904761904761905" style="fill: rgb(118, 42, 131);"/><rect x="724.1247401247401" y="165.23809523809524" width="7.268191268191268" height="41.904761904761905" style="fill: rgb(118, 42, 131);"/><rect x="733.2099792099792" y="165.23809523809524" width="7.268191268191268" height="41.904761904761905" style="fill: rgb(118, 42, 131);"/><rect x="742.2952182952183" y="165.23809523809524" width="7.268191268191268" height="41.904761904761905" style="fill: rgb(118, 42, 131);"/><rect x="751.3804573804574" y="165.23809523809524" width="7.268191268191268" height="41.904761904761905" style="fill: rgb(118, 42, 131);"/><rect x="760.4656964656965" y="165.23809523809524" width="7.268191268191268" height="41.904761904761905" style="fill: rgb(118, 42, 131);"/><rect x="769.5509355509356" y="165.23809523809524" width="7.268191268191268" height="41.904761904761905" style="fill: rgb(118, 42, 131);"/><rect x="778.6361746361746" y="165.23809523809524" width="7.268191268191268" height="41.904761904761905" style="fill: rgb(118, 42, 131);"/><rect x="787.7214137214137" y="165.23809523809524" width="7.268191268191268" height="41.904761904761905" style="fill: rgb(118, 42, 131);"/><rect x="796.8066528066528" y="165.23809523809524" width="7.268191268191268" height="41.904761904761905" style="fill: rgb(118, 42, 131);"/><rect x="805.8918918918919" y="165.23809523809524" width="7.268191268191268" height="41.904761904761905" style="fill: rgb(118, 42, 131);"/><rect x="814.977130977131" y="165.23809523809524" width="7.268191268191268" height="41.904761904761905" style="fill: rgb(118, 42, 131);"/><rect x="824.0623700623701" y="165.23809523809524" width="7.268191268191268" height="41.904761904761905" style="fill: rgb(118, 42, 131);"/><rect x="833.1476091476092" y="165.23809523809524" width="7.268191268191268" height="41.904761904761905" style="fill: rgb(118, 42, 131);"/><rect x="842.2328482328483" y="165.23809523809524" width="7.268191268191268" height="41.904761904761905" style="fill: rgb(118, 42, 131);"/><rect x="851.3180873180874" y="165.23809523809524" width="7.268191268191268" height="41.904761904761905" style="fill: rgb(118, 42, 131);"/><rect x="860.4033264033264" y="165.23809523809524" width="7.268191268191268" height="41.904761904761905" style="fill: rgb(118, 42, 131);"/><rect x="869.4885654885655" y="165.23809523809524" width="7.268191268191268" height="41.904761904761905" style="fill: rgb(118, 42, 131);"/><rect x="878.5738045738045" y="165.23809523809524" width="7.268191268191268" height="41.904761904761905" style="fill: rgb(118, 42, 131);"/><rect x="887.6590436590436" y="165.23809523809524" width="7.268191268191268" height="41.904761904761905" style="fill: rgb(118, 42, 131);"/><rect x="896.7442827442827" y="165.23809523809524" width="7.268191268191268" height="41.904761904761905" style="fill: rgb(118, 42, 131);"/><rect x="905.8295218295218" y="165.23809523809524" width="7.268191268191268" height="41.904761904761905" style="fill: rgb(118, 42, 131);"/><rect x="914.9147609147609" y="165.23809523809524" width="7.268191268191268" height="41.904761904761905" style="fill: rgb(247, 247, 247);"/><rect x="51.817047817047865" y="217.61904761904762" width="7.268191268191268" height="41.904761904761905" style="fill: rgb(118, 42, 131);"/><rect x="60.902286902286946" y="217.61904761904762" width="7.268191268191268" height="41.904761904761905" style="fill: rgb(118, 42, 131);"/><rect x="69.98752598752603" y="217.61904761904762" width="7.268191268191268" height="41.904761904761905" style="fill: rgb(118, 42, 131);"/><rect x="79.07276507276512" y="217.61904761904762" width="7.268191268191268" height="41.904761904761905" style="fill: rgb(118, 42, 131);"/><rect x="88.1580041580042" y="217.61904761904762" width="7.268191268191268" height="41.904761904761905" style="fill: rgb(118, 42, 131);"/><rect x="97.24324324324328" y="217.61904761904762" width="7.268191268191268" height="41.904761904761905" style="fill: rgb(118, 42, 131);"/><rect x="106.32848232848238" y="217.61904761904762" width="7.268191268191268" height="41.904761904761905" style="fill: rgb(118, 42, 131);"/><rect x="115.41372141372146" y="217.61904761904762" width="7.268191268191268" height="41.904761904761905" style="fill: rgb(118, 42, 131);"/><rect x="124.49896049896054" y="217.61904761904762" width="7.268191268191268" height="41.904761904761905" style="fill: rgb(118, 42, 131);"/><rect x="133.5841995841996" y="217.61904761904762" width="7.268191268191268" height="41.904761904761905" style="fill: rgb(118, 42, 131);"/><rect x="142.6694386694387" y="217.61904761904762" width="7.268191268191268" height="41.904761904761905" style="fill: rgb(118, 42, 131);"/><rect x="151.7546777546778" y="217.61904761904762" width="7.268191268191268" height="41.904761904761905" style="fill: rgb(118, 42, 131);"/><rect x="160.8399168399169" y="217.61904761904762" width="7.268191268191268" height="41.904761904761905" style="fill: rgb(118, 42, 131);"/><rect x="169.92515592515596" y="217.61904761904762" width="7.268191268191268" height="41.904761904761905" style="fill: rgb(118, 42, 131);"/><rect x="179.01039501039506" y="217.61904761904762" width="7.268191268191268" height="41.904761904761905" style="fill: rgb(118, 42, 131);"/><rect x="188.09563409563413" y="217.61904761904762" width="7.268191268191268" height="41.904761904761905" style="fill: rgb(118, 42, 131);"/><rect x="197.18087318087322" y="217.61904761904762" width="7.268191268191268" height="41.904761904761905" style="fill: rgb(118, 42, 131);"/><rect x="206.26611226611232" y="217.61904761904762" width="7.268191268191268" height="41.904761904761905" style="fill: rgb(118, 42, 131);"/><rect x="215.35135135135138" y="217.61904761904762" width="7.268191268191268" height="41.904761904761905" style="fill: rgb(118, 42, 131);"/><rect x="224.43659043659048" y="217.61904761904762" width="7.268191268191268" height="41.904761904761905" style="fill: rgb(118, 42, 131);"/><rect x="233.52182952182955" y="217.61904761904762" width="7.268191268191268" height="41.904761904761905" style="fill: rgb(118, 42, 131);"/><rect x="242.60706860706864" y="217.61904761904762" width="7.268191268191268" height="41.904761904761905" style="fill: rgb(118, 42, 131);"/><rect x="251.69230769230774" y="217.61904761904762" width="7.268191268191268" height="41.904761904761905" style="fill: rgb(118, 42, 131);"/><rect x="260.77754677754683" y="217.61904761904762" width="7.268191268191268" height="41.904761904761905" style="fill: rgb(118, 42, 131);"/><rect x="269.8627858627859" y="217.61904761904762" width="7.268191268191268" height="41.904761904761905" style="fill: rgb(118, 42, 131);"/><rect x="278.948024948025" y="217.61904761904762" width="7.268191268191268" height="41.904761904761905" style="fill: rgb(118, 42, 131);"/><rect x="288.03326403326406" y="217.61904761904762" width="7.268191268191268" height="41.904761904761905" style="fill: rgb(118, 42, 131);"/><rect x="297.11850311850316" y="217.61904761904762" width="7.268191268191268" height="41.904761904761905" style="fill: rgb(118, 42, 131);"/><rect x="306.20374220374225" y="217.61904761904762" width="7.268191268191268" height="41.904761904761905" style="fill: rgb(118, 42, 131);"/><rect x="315.28898128898135" y="217.61904761904762" width="7.268191268191268" height="41.904761904761905" style="fill: rgb(118, 42, 131);"/><rect x="324.3742203742204" y="217.61904761904762" width="7.268191268191268" height="41.904761904761905" style="fill: rgb(118, 42, 131);"/><rect x="333.4594594594595" y="217.61904761904762" width="7.268191268191268" height="41.904761904761905" style="fill: rgb(118, 42, 131);"/><rect x="342.5446985446986" y="217.61904761904762" width="7.268191268191268" height="41.904761904761905" style="fill: rgb(118, 42, 131);"/><rect x="351.6299376299377" y="217.61904761904762" width="7.268191268191268" height="41.904761904761905" style="fill: rgb(118, 42, 131);"/><rect x="360.71517671517677" y="217.61904761904762" width="7.268191268191268" height="41.904761904761905" style="fill: rgb(118, 42, 131);"/><rect x="369.8004158004158" y="217.61904761904762" width="7.268191268191268" height="41.904761904761905" style="fill: rgb(118, 42, 131);"/><rect x="378.8856548856549" y="217.61904761904762" width="7.268191268191268" height="41.904761904761905" style="fill: rgb(118, 42, 131);"/><rect x="387.970893970894" y="217.61904761904762" width="7.268191268191268" height="41.904761904761905" style="fill: rgb(118, 42, 131);"/><rect x="397.0561330561331" y="217.61904761904762" width="7.268191268191268" height="41.904761904761905" style="fill: rgb(118, 42, 131);"/><rect x="406.1413721413722" y="217.61904761904762" width="7.268191268191268" height="41.904761904761905" style="fill: rgb(118, 42, 131);"/><rect x="415.2266112266112" y="217.61904761904762" width="7.268191268191268" height="41.904761904761905" style="fill: rgb(118, 42, 131);"/><rect x="424.3118503118503" y="217.61904761904762" width="7.268191268191268" height="41.904761904761905" style="fill: rgb(118, 42, 131);"/><rect x="433.3970893970894" y="217.61904761904762" width="7.268191268191268" height="41.904761904761905" style="fill: rgb(118, 42, 131);"/><rect x="442.4823284823285" y="217.61904761904762" width="7.268191268191268" height="41.904761904761905" style="fill: rgb(118, 42, 131);"/><rect x="451.5675675675676" y="217.61904761904762" width="7.268191268191268" height="41.904761904761905" style="fill: rgb(118, 42, 131);"/><rect x="460.6528066528067" y="217.61904761904762" width="7.268191268191268" height="41.904761904761905" style="fill: rgb(118, 42, 131);"/><rect x="469.73804573804574" y="217.61904761904762" width="7.268191268191268" height="41.904761904761905" style="fill: rgb(118, 42, 131);"/><rect x="478.82328482328484" y="217.61904761904762" width="7.268191268191268" height="41.904761904761905" style="fill: rgb(118, 42, 131);"/><rect x="487.90852390852393" y="217.61904761904762" width="7.268191268191268" height="41.904761904761905" style="fill: rgb(118, 42, 131);"/><rect x="496.993762993763" y="217.61904761904762" width="7.268191268191268" height="41.904761904761905" style="fill: rgb(118, 42, 131);"/><rect x="506.0790020790021" y="217.61904761904762" width="7.268191268191268" height="41.904761904761905" style="fill: rgb(118, 42, 131);"/><rect x="515.1642411642412" y="217.61904761904762" width="7.268191268191268" height="41.904761904761905" style="fill: rgb(118, 42, 131);"/><rect x="524.2494802494803" y="217.61904761904762" width="7.268191268191268" height="41.904761904761905" style="fill: rgb(118, 42, 131);"/><rect x="533.3347193347194" y="217.61904761904762" width="7.268191268191268" height="41.904761904761905" style="fill: rgb(118, 42, 131);"/><rect x="542.4199584199584" y="217.61904761904762" width="7.268191268191268" height="41.904761904761905" style="fill: rgb(118, 42, 131);"/><rect x="551.5051975051975" y="217.61904761904762" width="7.268191268191268" height="41.904761904761905" style="fill: rgb(118, 42, 131);"/><rect x="560.5904365904366" y="217.61904761904762" width="7.268191268191268" height="41.904761904761905" style="fill: rgb(118, 42, 131);"/><rect x="569.6756756756757" y="217.61904761904762" width="7.268191268191268" height="41.904761904761905" style="fill: rgb(118, 42, 131);"/><rect x="578.7609147609148" y="217.61904761904762" width="7.268191268191268" height="41.904761904761905" style="fill: rgb(118, 42, 131);"/><rect x="587.8461538461538" y="217.61904761904762" width="7.268191268191268" height="41.904761904761905" style="fill: rgb(118, 42, 131);"/><rect x="596.9313929313929" y="217.61904761904762" width="7.268191268191268" height="41.904761904761905" style="fill: rgb(118, 42, 131);"/><rect x="606.016632016632" y="217.61904761904762" width="7.268191268191268" height="41.904761904761905" style="fill: rgb(118, 42, 131);"/><rect x="615.1018711018711" y="217.61904761904762" width="7.268191268191268" height="41.904761904761905" style="fill: rgb(118, 42, 131);"/><rect x="624.1871101871102" y="217.61904761904762" width="7.268191268191268" height="41.904761904761905" style="fill: rgb(118, 42, 131);"/><rect x="633.2723492723493" y="217.61904761904762" width="7.268191268191268" height="41.904761904761905" style="fill: rgb(118, 42, 131);"/><rect x="642.3575883575884" y="217.61904761904762" width="7.268191268191268" height="41.904761904761905" style="fill: rgb(118, 42, 131);"/><rect x="651.4428274428275" y="217.61904761904762" width="7.268191268191268" height="41.904761904761905" style="fill: rgb(118, 42, 131);"/><rect x="660.5280665280666" y="217.61904761904762" width="7.268191268191268" height="41.904761904761905" style="fill: rgb(118, 42, 131);"/><rect x="669.6133056133057" y="217.61904761904762" width="7.268191268191268" height="41.904761904761905" style="fill: rgb(118, 42, 131);"/><rect x="678.6985446985448" y="217.61904761904762" width="7.268191268191268" height="41.904761904761905" style="fill: rgb(118, 42, 131);"/><rect x="687.7837837837837" y="217.61904761904762" width="7.268191268191268" height="41.904761904761905" style="fill: rgb(118, 42, 131);"/><rect x="696.8690228690228" y="217.61904761904762" width="7.268191268191268" height="41.904761904761905" style="fill: rgb(118, 42, 131);"/><rect x="705.9542619542619" y="217.61904761904762" width="7.268191268191268" height="41.904761904761905" style="fill: rgb(118, 42, 131);"/><rect x="715.039501039501" y="217.61904761904762" width="7.268191268191268" height="41.904761904761905" style="fill: rgb(118, 42, 131);"/><rect x="724.1247401247401" y="217.61904761904762" width="7.268191268191268" height="41.904761904761905" style="fill: rgb(118, 42, 131);"/><rect x="733.2099792099792" y="217.61904761904762" width="7.268191268191268" height="41.904761904761905" style="fill: rgb(118, 42, 131);"/><rect x="742.2952182952183" y="217.61904761904762" width="7.268191268191268" height="41.904761904761905" style="fill: rgb(118, 42, 131);"/><rect x="751.3804573804574" y="217.61904761904762" width="7.268191268191268" height="41.904761904761905" style="fill: rgb(118, 42, 131);"/><rect x="760.4656964656965" y="217.61904761904762" width="7.268191268191268" height="41.904761904761905" style="fill: rgb(118, 42, 131);"/><rect x="769.5509355509356" y="217.61904761904762" width="7.268191268191268" height="41.904761904761905" style="fill: rgb(118, 42, 131);"/><rect x="778.6361746361746" y="217.61904761904762" width="7.268191268191268" height="41.904761904761905" style="fill: rgb(118, 42, 131);"/><rect x="787.7214137214137" y="217.61904761904762" width="7.268191268191268" height="41.904761904761905" style="fill: rgb(118, 42, 131);"/><rect x="796.8066528066528" y="217.61904761904762" width="7.268191268191268" height="41.904761904761905" style="fill: rgb(118, 42, 131);"/><rect x="805.8918918918919" y="217.61904761904762" width="7.268191268191268" height="41.904761904761905" style="fill: rgb(118, 42, 131);"/><rect x="814.977130977131" y="217.61904761904762" width="7.268191268191268" height="41.904761904761905" style="fill: rgb(118, 42, 131);"/><rect x="824.0623700623701" y="217.61904761904762" width="7.268191268191268" height="41.904761904761905" style="fill: rgb(118, 42, 131);"/><rect x="833.1476091476092" y="217.61904761904762" width="7.268191268191268" height="41.904761904761905" style="fill: rgb(118, 42, 131);"/><rect x="842.2328482328483" y="217.61904761904762" width="7.268191268191268" height="41.904761904761905" style="fill: rgb(118, 42, 131);"/><rect x="851.3180873180874" y="217.61904761904762" width="7.268191268191268" height="41.904761904761905" style="fill: rgb(118, 42, 131);"/><rect x="860.4033264033264" y="217.61904761904762" width="7.268191268191268" height="41.904761904761905" style="fill: rgb(118, 42, 131);"/><rect x="869.4885654885655" y="217.61904761904762" width="7.268191268191268" height="41.904761904761905" style="fill: rgb(118, 42, 131);"/><rect x="878.5738045738045" y="217.61904761904762" width="7.268191268191268" height="41.904761904761905" style="fill: rgb(118, 42, 131);"/><rect x="887.6590436590436" y="217.61904761904762" width="7.268191268191268" height="41.904761904761905" style="fill: rgb(118, 42, 131);"/><rect x="896.7442827442827" y="217.61904761904762" width="7.268191268191268" height="41.904761904761905" style="fill: rgb(118, 42, 131);"/><rect x="905.8295218295218" y="217.61904761904762" width="7.268191268191268" height="41.904761904761905" style="fill: rgb(118, 42, 131);"/><rect x="914.9147609147609" y="217.61904761904762" width="7.268191268191268" height="41.904761904761905" style="fill: rgb(118, 42, 131);"/></svg>