<svg viewBox="0,0,954,500" xmlns="http://www.w3.org/2000/svg" xmlns:xlink="http://www.w3.org/1999/xlink"><g transform="translate(0, 50)" fill="none" font-size="10" font-family="sans-serif" text-anchor="middle"><path class="domain" stroke="currentColor" d="M50.5,0.5H924.5"/><g class="tick" opacity="1" transform="translate(50.5,0)"><line stroke="currentColor" y2="-6"/><text fill="currentColor" y="-9" dy="0em">12 PM</text></g><g class="tick" opacity="1" transform="translate(159.75,0)"><line stroke="currentColor" y2="-6"/><text fill="currentColor" y="-9" dy="0em">12:15</text></g><g class="tick" opacity="1" transform="translate(269,0)"><line stroke="currentColor" y2="-6"/><text fill="currentColor" y="-9" dy="0em">12:30</text></g><g class="tick" opacity="1" transform="translate(378.25,0)"><line stroke="currentColor" y2="-6"/><text fill="currentColor" y="-9" dy="0em">12:45</text></g><g class="tick" opacity="1" transform="translate(487.5,0)"><line stroke="currentColor" y2="-6"/><text fill="currentColor" y="-9" dy="0em">01 PM</text></g><g class="tick" opacity="1" transform="translate(596.75,0)"><line stroke="currentColor" y2="-6"/><text fill="currentColor" y="-9" dy="0em">01:15</text></g><g class="tick" opacity="1" transform="translate(706,0)"><line stroke="currentColor" y2="-6"/><text fill="currentColor" y="-9" dy="0em">01:30</text></g><g class="tick" opacity="1" transform="translate(815.25,0)"><line stroke="currentColor" y2="-6"/><text fill="currentColor" y="-9" dy="0em">01:45</text></g><g class="tick" opacity="1" transform="translate(924.5,0)"><line stroke="currentColor" y2="-6"/><text fill="currentColor" y="-9" dy="0em">02 PM</text></g></g><g transform="translate(50,0)" fill="none" font-size="10" font-family="sans-serif" text-anchor="end"><g class="tick" opacity="1" transform="translate(0,50.5)"><line stroke="currentColor" x2="-6"/><text fill="currentColor" x="-9" dy="0.32em">0</text></g><g class="tick" opacity="1" transform="translate(0,92.5)"><line stroke="currentColor" x2="-6"/><text fill="currentColor" x="-9" dy="0.32em">-10</text></g><g class="tick" opacity="1" transform="translate(0,134.5)"><line stroke="currentColor" x2="-6"/><text fill="currentColor" x="-9" dy="0.32em">-20</text></g><g class="tick" opacity="1" transform="translate(0,176.50000000000003)"><line stroke="currentColor" x2="-6"/><text fill="currentColor" x="-9" dy="0.32em">-30</text></g><g class="tick" opacity="1" transform="translate(0,218.5)"><line stroke="currentColor" x2="-6"/><text fill="currentColor" x="-9" dy="0.32em">-40</text></g><g class="tick" opacity="1" transform="translate(0,260.5)"><line stroke="currentColor" x2="-6"/><text fill="currentColor" x="-9" dy="0.32em">-50</text></g><g class="tick" opacity="1" transform="translate(0,302.5)"><line stroke="currentColor" x2="-6"/><text fill="currentColor" x="-9" dy="0.32em">-60</text></g><g class="tick" opacity="1" transform="translate(0,344.5)"><line stroke="currentColor" x2="-6"/><text fill="currentColor" x="-9" dy="0.32em">-70</text></g><g class="tick" opacity="1" transform="translate(0,386.5)"><line stroke="currentColor" x2="-6"/><text fill="currentColor" x="-9" dy="0.32em">-80</text></g><g class="tick" opacity="1" transform="translate(0,428.5)"><line stroke="currentColor" x2="-6"/><text fill="currentColor" x="-9" dy="0.32em">-90</text></g><g class="tick" opacity="1" transform="translate(0,470.5)"><line stroke="currentColor" x2="-6"/><text fill="currentColor" x="-9" dy="0.32em">-100</text><text fill="currentColor" x="3" dy="0.32em" text-anchor="start" font-weight="bold"/></g></g><text transform="translate(477 ,20)" style="text-anchor: middle;">Time</text><text transform="rotate(-90)" y="0" x="-250" dy="1em" style="text-anchor: middle;">RSSI</text><g fill="#1b9e77"><rect x="102.80416666666667" y="50" height="360.8" width="6"/><rect x="181.82833333333332" y="50" height="352.4" width="6"/><rect x="259.8813888888889" y="50" height="331.4" width="6"/><rect x="338.05583333333334" y="50" height="415.4" width="6"/><rect x="415.74472222222226" y="50" height="415.4" width="6"/><rect x="492.58388888888885" y="50" height="432.2" width="6"/><rect x="567.3594444444445" y="50" height="436.40000000000003" width="6"/><rect x="647.9616666666667" y="50" height="440.59999999999997" width="6"/><rect x="723.5869444444445" y="50" height="289.40000000000003" width="6"/><rect x="803.4608333333333" y="50" height="281" width="6"/><rect x="882.485" y="50" height="281" width="6"/></g></svg>