<svg viewBox="0,0,954,500" xmlns="http://www.w3.org/2000/svg" xmlns:xlink="http://www.w3.org/1999/xlink"><g transform="translate(0,450)" fill="none" font-size="10" font-family="sans-serif" text-anchor="middle"><path class="domain" stroke="currentColor" d="M50.5,0.5H924.5"/><g class="tick" opacity="1" transform="translate(50.5,0)"><line stroke="currentColor" y2="6"/><text fill="currentColor" y="9" dy="0.71em">12 PM</text></g><g class="tick" opacity="1" transform="translate(159.75,0)"><line stroke="currentColor" y2="6"/><text fill="currentColor" y="9" dy="0.71em">12:15</text></g><g class="tick" opacity="1" transform="translate(269,0)"><line stroke="currentColor" y2="6"/><text fill="currentColor" y="9" dy="0.71em">12:30</text></g><g class="tick" opacity="1" transform="translate(378.25,0)"><line stroke="currentColor" y2="6"/><text fill="currentColor" y="9" dy="0.71em">12:45</text></g><g class="tick" opacity="1" transform="translate(487.5,0)"><line stroke="currentColor" y2="6"/><text fill="currentColor" y="9" dy="0.71em">01 PM</text></g><g class="tick" opacity="1" transform="translate(596.75,0)"><line stroke="currentColor" y2="6"/><text fill="currentColor" y="9" dy="0.71em">01:15</text></g><g class="tick" opacity="1" transform="translate(706,0)"><line stroke="currentColor" y2="6"/><text fill="currentColor" y="9" dy="0.71em">01:30</text></g><g class="tick" opacity="1" transform="translate(815.25,0)"><line stroke="currentColor" y2="6"/><text fill="currentColor" y="9" dy="0.71em">01:45</text></g><g class="tick" opacity="1" transform="translate(924.5,0)"><line stroke="currentColor" y2="6"/><text fill="currentColor" y="9" dy="0.71em">02 PM</text></g></g><g transform="translate(50,0)" fill="none" font-size="10" font-family="sans-serif" text-anchor="end"><g class="tick" opacity="1" transform="translate(0,450.5)"><line stroke="currentColor" x2="-6"/><text fill="currentColor" x="-9" dy="0.32em">0</text></g><g class="tick" opacity="1" transform="translate(0,412.3181818181818)"><line stroke="currentColor" x2="-6"/><text fill="currentColor" x="-9" dy="0.32em">10</text></g><g class="tick" opacity="1" transform="translate(0,374.13636363636357)"><line stroke="currentColor" x2="-6"/><text fill="currentColor" x="-9" dy="0.32em">20</text></g><g class="tick" opacity="1" transform="translate(0,335.9545454545455)"><line stroke="currentColor" x2="-6"/><text fill="currentColor" x="-9" dy="0.32em">30</text></g><g class="tick" opacity="1" transform="translate(0,297.7727272727273)"><line stroke="currentColor" x2="-6"/><text fill="currentColor" x="-9" dy="0.32em">40</text></g><g class="tick" opacity="1" transform="translate(0,259.59090909090907)"><line stroke="currentColor" x2="-6"/><text fill="currentColor" x="-9" dy="0.32em">50</text></g><g class="tick" opacity="1" transform="translate(0,221.40909090909093)"><line stroke="currentColor" x2="-6"/><text fill="currentColor" x="-9" dy="0.32em">60</text></g><g class="tick" opacity="1" transform="translate(0,183.22727272727275)"><line stroke="currentColor" x2="-6"/><text fill="currentColor" x="-9" dy="0.32em">70</text></g><g class="tick" opacity="1" transform="translate(0,145.04545454545453)"><line stroke="currentColor" x2="-6"/><text fill="currentColor" x="-9" dy="0.32em">80</text></g><g class="tick" opacity="1" transform="translate(0,106.86363636363635)"><line stroke="currentColor" x2="-6"/><text fill="currentColor" x="-9" dy="0.32em">90</text></g><g class="tick" opacity="1" transform="translate(0,68.68181818181819)"><line stroke="currentColor" x2="-6"/><text fill="currentColor" x="-9" dy="0.32em">100</text></g><g class="tick" opacity="1" transform="translate(0,30.5)"><line stroke="currentColor" x2="-6"/><text fill="currentColor" x="-9" dy="0.32em">110</text><text fill="currentColor" x="3" dy="0.32em" text-anchor="start" font-weight="bold"/></g></g><text transform="translate(477 ,490)" style="text-anchor: middle;">Time</text><text transform="rotate(-90)" y="0" x="-250" dy="1em" style="text-anchor: middle;">Heart Rate (BPM)</text><path fill="none" stroke="#377eb8" stroke-width="3" stroke-linejoin="round" stroke-linecap="round" d="M50,178.9090909090909L51.82083333333333,175.0909090909091L53.641666666666666,175.0909090909091L55.4625,175.0909090909091L57.28333333333334,175.0909090909091L59.10416666666667,186.54545454545453L60.925,186.54545454545453L62.74583333333334,186.54545454545453L64.56666666666666,186.54545454545453L66.3875,171.27272727272725L68.20833333333333,171.27272727272725L70.02916666666667,171.27272727272725L71.85,171.27272727272725L73.67083333333333,167.45454545454547L75.49166666666666,167.45454545454547L77.3125,167.45454545454547L79.13333333333334,167.45454545454547L80.95416666666667,167.45454545454547L82.775,167.45454545454547L84.59583333333333,167.45454545454547L86.41666666666667,167.45454545454547L88.2375,171.27272727272725L90.05833333333334,171.27272727272725L91.87916666666666,171.27272727272725L93.7,171.27272727272725L95.52083333333333,163.63636363636368L97.34166666666667,163.63636363636368L99.1625,163.63636363636368L100.98333333333333,163.63636363636368L102.80416666666667,167.45454545454547L104.625,167.45454545454547L106.44583333333334,167.45454545454547L108.26666666666667,167.45454545454547L110.0875,163.63636363636368L111.90833333333333,163.63636363636368L113.72916666666667,163.63636363636368L115.55,163.63636363636368L117.37083333333334,178.9090909090909L119.19166666666666,178.9090909090909L121.0125,178.9090909090909L122.83333333333333,178.9090909090909L124.65416666666667,171.27272727272725L126.475,171.27272727272725L128.29583333333335,171.27272727272725L130.11666666666665,171.27272727272725L131.9375,178.9090909090909L133.75833333333335,178.9090909090909L135.57916666666665,178.9090909090909L137.4,178.9090909090909L139.22083333333333,175.0909090909091L141.04166666666669,175.0909090909091L142.8625,175.0909090909091L144.68333333333334,175.0909090909091L146.50416666666666,178.9090909090909L148.325,178.9090909090909L150.14583333333331,178.9090909090909L151.96666666666667,178.9090909090909L153.7875,178.9090909090909L155.60833333333335,178.9090909090909L157.42916666666665,178.9090909090909L159.25,178.9090909090909L161.07083333333333,182.72727272727275L162.89166666666668,182.72727272727275L164.7125,182.72727272727275L166.53333333333333,182.72727272727275L168.35416666666666,182.72727272727275L170.175,182.72727272727275L171.99583333333334,182.72727272727275L173.81666666666666,182.72727272727275L175.6375,178.9090909090909L177.45833333333331,178.9090909090909L179.27916666666667,178.9090909090909L181.1,178.9090909090909L182.92083333333332,186.54545454545453L184.74166666666667,186.54545454545453L186.5625,186.54545454545453L188.38333333333333,186.54545454545453L190.20416666666668,178.9090909090909L192.025,178.9090909090909L193.84583333333333,178.9090909090909L195.66666666666669,178.9090909090909L197.4875,167.45454545454547L199.30833333333334,167.45454545454547L201.12916666666666,167.45454545454547L202.95,167.45454545454547L204.77083333333331,175.0909090909091L206.59166666666667,175.0909090909091L208.4125,175.0909090909091L210.23333333333332,175.0909090909091L212.05416666666667,87.27272727272727L213.875,87.27272727272727L215.69583333333333,87.27272727272727L217.51666666666668,87.27272727272727L219.3375,140.72727272727275L221.15833333333333,140.72727272727275L222.97916666666669,140.72727272727275L224.8,140.72727272727275L226.62083333333334,171.27272727272725L228.44166666666666,171.27272727272725L230.2625,171.27272727272725L232.08333333333331,171.27272727272725L233.90416666666667,163.63636363636368L235.725,163.63636363636368L237.54583333333332,163.63636363636368L239.36666666666667,163.63636363636368L241.1875,156.00000000000003L243.00833333333333,156.00000000000003L244.82916666666668,156.00000000000003L246.65,156.00000000000003L248.47083333333333,133.0909090909091L250.29166666666669,133.0909090909091L252.1125,133.0909090909091L253.93333333333334,133.0909090909091L255.75416666666666,133.0909090909091L257.575,133.0909090909091L259.3958333333333,133.0909090909091L261.2166666666667,133.0909090909091L263.0375,133.0909090909091L264.8583333333333,133.0909090909091L266.6791666666667,133.0909090909091L268.5,133.0909090909091L270.3208333333333,129.27272727272725L272.14166666666665,129.27272727272725L273.9625,129.27272727272725L275.78333333333336,129.27272727272725L277.6041666666667,144.54545454545453L279.425,144.54545454545453L281.24583333333334,144.54545454545453L283.06666666666666,144.54545454545453L284.8875,136.9090909090909L286.7083333333333,136.9090909090909L288.52916666666664,136.9090909090909L290.35,136.9090909090909L292.17083333333335,83.45454545454547L293.9916666666667,83.45454545454547L295.8125,83.45454545454547L297.6333333333333,83.45454545454547L299.45416666666665,49.09090909090907L301.275,49.09090909090907L303.09583333333336,49.09090909090907L304.9166666666667,49.09090909090907L306.7375,167.45454545454547L308.55833333333334,167.45454545454547L310.37916666666666,167.45454545454547L312.2,167.45454545454547L314.0208333333333,186.54545454545453L315.84166666666664,186.54545454545453L317.6625,186.54545454545453L319.48333333333335,186.54545454545453L321.3041666666667,156.00000000000003L323.125,156.00000000000003L324.9458333333333,156.00000000000003L326.76666666666665,156.00000000000003L328.5875,163.63636363636368L330.40833333333336,163.63636363636368L332.2291666666667,163.63636363636368L334.05,163.63636363636368L335.87083333333334,171.27272727272725L337.69166666666666,171.27272727272725L339.5125,171.27272727272725L341.3333333333333,171.27272727272725L343.15416666666664,163.63636363636368L344.975,163.63636363636368L346.79583333333335,163.63636363636368L348.6166666666667,163.63636363636368L350.4375,163.63636363636368L352.2583333333333,163.63636363636368L354.07916666666665,163.63636363636368L355.9,163.63636363636368L357.72083333333336,167.45454545454547L359.5416666666667,167.45454545454547L361.3625,167.45454545454547L363.18333333333334,167.45454545454547L365.00416666666666,156.00000000000003L366.825,156.00000000000003L368.6458333333333,156.00000000000003L370.46666666666664,156.00000000000003L372.2875,144.54545454545453L374.10833333333335,144.54545454545453L375.9291666666667,144.54545454545453L377.75,144.54545454545453L379.5708333333333,136.9090909090909L381.39166666666665,136.9090909090909L383.2125,136.9090909090909L385.03333333333336,136.9090909090909L386.8541666666667,144.54545454545453L388.675,144.54545454545453L390.49583333333334,144.54545454545453L392.31666666666666,144.54545454545453L394.1375,156.00000000000003L395.9583333333333,156.00000000000003L397.77916666666664,156.00000000000003L399.6,156.00000000000003L401.42083333333335,152.1818181818182L403.2416666666667,152.1818181818182L405.0625,152.1818181818182L406.8833333333333,152.1818181818182L408.70416666666665,159.8181818181818L410.525,159.8181818181818L412.34583333333336,159.8181818181818L414.1666666666667,159.8181818181818L415.9875,72L417.80833333333334,72L419.62916666666666,72L421.45,72L423.2708333333333,87.27272727272727L425.09166666666664,87.27272727272727L426.9125,87.27272727272727L428.73333333333335,87.27272727272727L430.5541666666667,98.72727272727275L432.375,98.72727272727275L434.1958333333333,98.72727272727275L436.01666666666665,98.72727272727275L437.8375,72L439.65833333333336,72L441.4791666666667,72L443.3,72L445.12083333333334,41.45454545454544L446.94166666666666,41.45454545454544L448.7625,41.45454545454544L450.5833333333333,41.45454545454544L452.40416666666664,45.27272727272728L454.225,45.27272727272728L456.04583333333335,45.27272727272728L457.8666666666667,45.27272727272728L459.6875,60.54545454545456L461.5083333333333,60.54545454545456L463.32916666666665,60.54545454545456L465.15,60.54545454545456L466.97083333333336,79.63636363636363L468.7916666666667,79.63636363636363L470.6125,79.63636363636363L472.43333333333334,79.63636363636363L474.25416666666666,30L476.075,30L477.8958333333333,30L479.71666666666664,30L481.5375,72L483.35833333333335,72L485.1791666666667,72L487,72L488.8208333333333,102.54545454545455L490.64166666666665,102.54545454545455L492.4625,102.54545454545455L494.2833333333333,102.54545454545455L496.10416666666663,121.63636363636361L497.92499999999995,121.63636363636361L499.7458333333333,121.63636363636361L501.5666666666667,121.63636363636361L503.38750000000005,129.27272727272725L505.20833333333337,129.27272727272725L507.0291666666667,129.27272727272725L508.85,129.27272727272725L510.67083333333335,121.63636363636361L512.4916666666667,121.63636363636361L514.3125,121.63636363636361L516.1333333333333,121.63636363636361L517.9541666666667,75.81818181818184L519.775,75.81818181818184L521.5958333333333,75.81818181818184L523.4166666666666,75.81818181818184L525.2375,133.0909090909091L527.0583333333333,133.0909090909091L528.8791666666667,133.0909090909091L530.7,133.0909090909091L532.5208333333334,178.9090909090909L534.3416666666667,178.9090909090909L536.1625,178.9090909090909L537.9833333333333,178.9090909090909L539.8041666666667,194.1818181818182L541.625,194.1818181818182L543.4458333333333,194.1818181818182L545.2666666666667,194.1818181818182L547.0875,194.1818181818182L548.9083333333333,194.1818181818182L550.7291666666666,194.1818181818182L552.55,194.1818181818182L554.3708333333333,178.9090909090909L556.1916666666667,178.9090909090909L558.0125,178.9090909090909L559.8333333333334,178.9090909090909L561.6541666666667,186.54545454545453L563.475,186.54545454545453L565.2958333333333,186.54545454545453L567.1166666666667,186.54545454545453L568.9375,182.72727272727275L570.7583333333333,182.72727272727275L572.5791666666667,182.72727272727275L574.4,182.72727272727275L576.2208333333333,186.54545454545453L578.0416666666666,186.54545454545453L579.8625,186.54545454545453L581.6833333333333,186.54545454545453L583.5041666666667,175.0909090909091L585.325,175.0909090909091L587.1458333333334,175.0909090909091L588.9666666666667,175.0909090909091L590.7875,159.8181818181818L592.6083333333333,159.8181818181818L594.4291666666667,159.8181818181818L596.25,159.8181818181818L598.0708333333333,156.00000000000003L599.8916666666667,156.00000000000003L601.7125,156.00000000000003L603.5333333333333,156.00000000000003L605.3541666666666,163.63636363636368L607.175,163.63636363636368L608.9958333333333,163.63636363636368L610.8166666666667,163.63636363636368L612.6375,175.0909090909091L614.4583333333334,175.0909090909091L616.2791666666667,175.0909090909091L618.1,175.0909090909091L619.9208333333333,171.27272727272725L621.7416666666667,171.27272727272725L623.5625,171.27272727272725L625.3833333333333,171.27272727272725L627.2041666666667,167.45454545454547L629.025,167.45454545454547L630.8458333333333,167.45454545454547L632.6666666666666,167.45454545454547L634.4875,159.8181818181818L636.3083333333333,159.8181818181818L638.1291666666667,159.8181818181818L639.95,159.8181818181818L641.7708333333334,156.00000000000003L643.5916666666667,156.00000000000003L645.4125,156.00000000000003L647.2333333333333,156.00000000000003L649.0541666666667,156.00000000000003L650.875,156.00000000000003L652.6958333333333,156.00000000000003L654.5166666666667,156.00000000000003L656.3375,148.36363636363637L658.1583333333333,148.36363636363637L659.9791666666666,148.36363636363637L661.8,148.36363636363637L663.6208333333333,182.72727272727275L665.4416666666667,182.72727272727275L667.2625,182.72727272727275L669.0833333333334,182.72727272727275L670.9041666666667,178.9090909090909L672.725,178.9090909090909L674.5458333333333,178.9090909090909L676.3666666666667,178.9090909090909L678.1875,163.63636363636368L680.0083333333333,163.63636363636368L681.8291666666667,163.63636363636368L683.65,163.63636363636368L685.4708333333333,163.63636363636368L687.2916666666666,163.63636363636368L689.1125,163.63636363636368L690.9333333333333,163.63636363636368L692.7541666666667,152.1818181818182L694.575,152.1818181818182L696.3958333333334,152.1818181818182L698.2166666666667,152.1818181818182L700.0375,121.63636363636361L701.8583333333333,121.63636363636361L703.6791666666667,121.63636363636361L705.5,121.63636363636361L707.3208333333333,159.8181818181818L709.1416666666667,159.8181818181818L710.9625,159.8181818181818L712.7833333333333,159.8181818181818L714.6041666666666,178.9090909090909L716.425,178.9090909090909L718.2458333333333,178.9090909090909L720.0666666666667,178.9090909090909L721.8875,167.45454545454547L723.7083333333334,167.45454545454547L725.5291666666667,167.45454545454547L727.35,167.45454545454547L729.1708333333333,163.63636363636368L730.9916666666667,163.63636363636368L732.8125,163.63636363636368L734.6333333333333,163.63636363636368L736.4541666666667,152.1818181818182L738.275,152.1818181818182L740.0958333333333,152.1818181818182L741.9166666666666,152.1818181818182L743.7375,152.1818181818182L745.5583333333333,152.1818181818182L747.3791666666667,152.1818181818182L749.2,152.1818181818182L751.0208333333334,163.63636363636368L752.8416666666667,163.63636363636368L754.6625,163.63636363636368L756.4833333333333,163.63636363636368L758.3041666666667,121.63636363636361L760.125,121.63636363636361L761.9458333333333,121.63636363636361L763.7666666666667,121.63636363636361L765.5875,144.54545454545453L767.4083333333333,144.54545454545453L769.2291666666666,144.54545454545453L771.05,144.54545454545453L772.8708333333333,171.27272727272725L774.6916666666667,171.27272727272725L776.5125,171.27272727272725L778.3333333333334,171.27272727272725L780.1541666666667,178.9090909090909L781.975,178.9090909090909L783.7958333333333,178.9090909090909L785.6166666666667,178.9090909090909L787.4375,159.8181818181818L789.2583333333333,159.8181818181818L791.0791666666667,159.8181818181818L792.9,159.8181818181818L794.7208333333333,163.63636363636368L796.5416666666666,163.63636363636368L798.3625,163.63636363636368L800.1833333333333,163.63636363636368L802.0041666666667,167.45454545454547L803.825,167.45454545454547L805.6458333333334,167.45454545454547L807.4666666666667,167.45454545454547L809.2875,167.45454545454547L811.1083333333333,167.45454545454547L812.9291666666667,167.45454545454547L814.75,167.45454545454547L816.5708333333333,175.0909090909091L818.3916666666667,175.0909090909091L820.2125,175.0909090909091L822.0333333333333,175.0909090909091L823.8541666666666,178.9090909090909L825.675,178.9090909090909L827.4958333333333,178.9090909090909L829.3166666666667,178.9090909090909L831.1375,175.0909090909091L832.9583333333334,175.0909090909091L834.7791666666667,175.0909090909091L836.6,175.0909090909091L838.4208333333333,182.72727272727275L840.2416666666667,182.72727272727275L842.0625,182.72727272727275L843.8833333333333,182.72727272727275L845.7041666666667,186.54545454545453L847.525,186.54545454545453L849.3458333333333,186.54545454545453L851.1666666666666,186.54545454545453L852.9875,201.81818181818178L854.8083333333333,201.81818181818178L856.6291666666667,201.81818181818178L858.45,201.81818181818178L860.2708333333334,209.45454545454544L862.0916666666667,209.45454545454544L863.9125,209.45454545454544L865.7333333333333,209.45454545454544L867.5541666666667,201.81818181818178L869.375,201.81818181818178L871.1958333333333,201.81818181818178L873.0166666666667,201.81818181818178L874.8375,201.81818181818178L876.6583333333333,201.81818181818178L878.4791666666666,201.81818181818178L880.3,201.81818181818178L882.1208333333333,133.0909090909091L883.9416666666667,133.0909090909091L885.7625,133.0909090909091L887.5833333333334,133.0909090909091L889.4041666666667,186.54545454545453L891.225,186.54545454545453L893.0458333333333,186.54545454545453L894.8666666666667,186.54545454545453L896.6875,182.72727272727275L898.5083333333333,182.72727272727275L900.3291666666667,182.72727272727275L902.15,182.72727272727275L903.9708333333333,194.1818181818182L905.7916666666666,194.1818181818182L907.6125,194.1818181818182L909.4333333333333,194.1818181818182L911.2541666666667,190.36363636363637L913.075,190.36363636363637L914.8958333333334,190.36363636363637L916.7166666666667,190.36363636363637L918.5375,209.45454545454544L920.3583333333333,209.45454545454544L922.1791666666667,209.45454545454544L924,209.45454545454544"/><line x1="144.68333333333334" y1="25" x2="144.68333333333334" y2="450" stroke="#e41a1c" stroke-width="2.5" stroke-linejoin="round" stroke-linecap="round"/><line x1="588.9666666666667" y1="25" x2="588.9666666666667" y2="450" stroke="#e41a1c" stroke-width="2.5" stroke-linejoin="round" stroke-linecap="round"/><text x="124.68333333333334" y="15" text-anchor="middle" style="font-size: 16px; fill: rgb(0, 0, 0);">Survey Sent</text><text x="608.9666666666667" y="15" text-anchor="middle" style="font-size: 16px; fill: rgb(0, 0, 0);">Survey Received</text></svg>