<svg viewBox="0,0,954,500" width="954" height="500" xmlns="http://www.w3.org/2000/svg" xmlns:xlink="http://www.w3.org/1999/xlink"><g><g transform="translate(50,0)"><rect x="3" y="10" width="22" height="440" fill="#8dd3c7"/><rect x="27" y="148" width="22" height="302" fill="#ffffb3"/><rect x="51" y="10" width="22" height="440" fill="#bebada"/><rect x="75" y="10" width="22" height="440" fill="#fb8072"/><rect x="99" y="10" width="22" height="440" fill="#80b1d3"/><rect x="123" y="10" width="22" height="440" fill="#fdb462"/><rect x="147" y="10" width="22" height="440" fill="#b3de69"/></g><g transform="translate(336,0)"><rect x="3" y="10" width="22" height="440" fill="#8dd3c7"/><rect x="27" y="111" width="22" height="339" fill="#ffffb3"/><rect x="51" y="450" width="22" height="0" fill="#bebada"/><rect x="75" y="450" width="22" height="0" fill="#fb8072"/><rect x="99" y="148" width="22" height="302" fill="#80b1d3"/><rect x="123" y="10" width="22" height="440" fill="#fdb462"/><rect x="147" y="10" width="22" height="440" fill="#b3de69"/></g><g transform="translate(622,0)"><rect x="3" y="450" width="22" height="0" fill="#8dd3c7"/><rect x="27" y="450" width="22" height="0" fill="#ffffb3"/><rect x="51" y="450" width="22" height="0" fill="#bebada"/><rect x="75" y="450" width="22" height="0" fill="#fb8072"/><rect x="99" y="450" width="22" height="0" fill="#80b1d3"/><rect x="123" y="450" width="22" height="0" fill="#fdb462"/><rect x="147" y="450" width="22" height="0" fill="#b3de69"/></g></g><g transform="translate(0,450)" fill="none" font-size="10" font-family="sans-serif" text-anchor="middle"><g class="tick" opacity="1" transform="translate(136.5,0)"><line stroke="currentColor" y2="6"/><text fill="currentColor" y="9" dy="0.71em">17</text></g><g class="tick" opacity="1" transform="translate(422.5,0)"><line stroke="currentColor" y2="6"/><text fill="currentColor" y="9" dy="0.71em">18</text></g><g class="tick" opacity="1" transform="translate(708.5,0)"><line stroke="currentColor" y2="6"/><text fill="currentColor" y="9" dy="0.71em">19</text></g></g><g transform="translate(50,0)" fill="none" font-size="10" font-family="sans-serif" text-anchor="end"><g class="tick" opacity="1" transform="translate(0,450.5)"><line stroke="currentColor" x2="-6"/><text fill="currentColor" x="-9" dy="0.32em">0</text></g><g class="tick" opacity="1" transform="translate(0,406.5)"><line stroke="currentColor" x2="-6"/><text fill="currentColor" x="-9" dy="0.32em">10</text></g><g class="tick" opacity="1" transform="translate(0,362.5)"><line stroke="currentColor" x2="-6"/><text fill="currentColor" x="-9" dy="0.32em">20</text></g><g class="tick" opacity="1" transform="translate(0,318.5)"><line stroke="currentColor" x2="-6"/><text fill="currentColor" x="-9" dy="0.32em">30</text></g><g class="tick" opacity="1" transform="translate(0,274.5)"><line stroke="currentColor" x2="-6"/><text fill="currentColor" x="-9" dy="0.32em">40</text></g><g class="tick" opacity="1" transform="translate(0,230.5)"><line stroke="currentColor" x2="-6"/><text fill="currentColor" x="-9" dy="0.32em">50</text></g><g class="tick" opacity="1" transform="translate(0,186.5)"><line stroke="currentColor" x2="-6"/><text fill="currentColor" x="-9" dy="0.32em">60</text></g><g class="tick" opacity="1" transform="translate(0,142.5)"><line stroke="currentColor" x2="-6"/><text fill="currentColor" x="-9" dy="0.32em">70</text></g><g class="tick" opacity="1" transform="translate(0,98.5)"><line stroke="currentColor" x2="-6"/><text fill="currentColor" x="-9" dy="0.32em">80</text></g><g class="tick" opacity="1" transform="translate(0,54.5)"><line stroke="currentColor" x2="-6"/><text fill="currentColor" x="-9" dy="0.32em">90</text></g><g class="tick" opacity="1" transform="translate(0,10.5)"><line stroke="currentColor" x2="-6"/><text fill="currentColor" x="-9" dy="0.32em">100</text><text fill="currentColor" x="3" dy="0.32em" text-anchor="start" font-weight="bold" font-size="14"/></g></g><text transform="translate(477 ,490)" style="text-anchor: middle;">Participant IDs of Team 3</text><text transform="rotate(-90)" y="0" x="-250" dy="1em" style="text-anchor: middle;">Compliance (%)</text><g transform="translate(954,0)" text-anchor="end" font-family="sans-serif" font-size="12"><g transform="translate(0,0)"><rect x="-19" width="19" height="19" fill="#b3de69"/><text x="-24" y="9.5" dy="0.35em">2020-05-13</text></g><g transform="translate(0,20)"><rect x="-19" width="19" height="19" fill="#fdb462"/><text x="-24" y="9.5" dy="0.35em">2020-05-12</text></g><g transform="translate(0,40)"><rect x="-19" width="19" height="19" fill="#80b1d3"/><text x="-24" y="9.5" dy="0.35em">2020-05-11</text></g><g transform="translate(0,60)"><rect x="-19" width="19" height="19" fill="#fb8072"/><text x="-24" y="9.5" dy="0.35em">2020-05-10</text></g><g transform="translate(0,80)"><rect x="-19" width="19" height="19" fill="#bebada"/><text x="-24" y="9.5" dy="0.35em">2020-05-09</text></g><g transform="translate(0,100)"><rect x="-19" width="19" height="19" fill="#ffffb3"/><text x="-24" y="9.5" dy="0.35em">2020-05-08</text></g><g transform="translate(0,120)"><rect x="-19" width="19" height="19" fill="#8dd3c7"/><text x="-24" y="9.5" dy="0.35em">2020-05-07</text></g></g></svg>