<svg viewBox="0,0,954,500" xmlns="http://www.w3.org/2000/svg" xmlns:xlink="http://www.w3.org/1999/xlink"><g transform="translate(0,450)" fill="none" font-size="10" font-family="sans-serif" text-anchor="middle"><path class="domain" stroke="currentColor" d="M50.5,0.5H924.5"/><g class="tick" opacity="1" transform="translate(50.5,0)"><line stroke="currentColor" y2="6"/><text fill="currentColor" y="9" dy="0.71em">12 PM</text></g><g class="tick" opacity="1" transform="translate(159.75,0)"><line stroke="currentColor" y2="6"/><text fill="currentColor" y="9" dy="0.71em">12:15</text></g><g class="tick" opacity="1" transform="translate(269,0)"><line stroke="currentColor" y2="6"/><text fill="currentColor" y="9" dy="0.71em">12:30</text></g><g class="tick" opacity="1" transform="translate(378.25,0)"><line stroke="currentColor" y2="6"/><text fill="currentColor" y="9" dy="0.71em">12:45</text></g><g class="tick" opacity="1" transform="translate(487.5,0)"><line stroke="currentColor" y2="6"/><text fill="currentColor" y="9" dy="0.71em">01 PM</text></g><g class="tick" opacity="1" transform="translate(596.75,0)"><line stroke="currentColor" y2="6"/><text fill="currentColor" y="9" dy="0.71em">01:15</text></g><g class="tick" opacity="1" transform="translate(706,0)"><line stroke="currentColor" y2="6"/><text fill="currentColor" y="9" dy="0.71em">01:30</text></g><g class="tick" opacity="1" transform="translate(815.25,0)"><line stroke="currentColor" y2="6"/><text fill="currentColor" y="9" dy="0.71em">01:45</text></g><g class="tick" opacity="1" transform="translate(924.5,0)"><line stroke="currentColor" y2="6"/><text fill="currentColor" y="9" dy="0.71em">02 PM</text></g></g><g transform="translate(50,0)" fill="none" font-size="10" font-family="sans-serif" text-anchor="end"><g class="tick" opacity="1" transform="translate(0,450.5)"><line stroke="currentColor" x2="-6"/><text fill="currentColor" x="-9" dy="0.32em">0</text></g><g class="tick" opacity="1" transform="translate(0,412.3181818181818)"><line stroke="currentColor" x2="-6"/><text fill="currentColor" x="-9" dy="0.32em">10</text></g><g class="tick" opacity="1" transform="translate(0,374.13636363636357)"><line stroke="currentColor" x2="-6"/><text fill="currentColor" x="-9" dy="0.32em">20</text></g><g class="tick" opacity="1" transform="translate(0,335.9545454545455)"><line stroke="currentColor" x2="-6"/><text fill="currentColor" x="-9" dy="0.32em">30</text></g><g class="tick" opacity="1" transform="translate(0,297.7727272727273)"><line stroke="currentColor" x2="-6"/><text fill="currentColor" x="-9" dy="0.32em">40</text></g><g class="tick" opacity="1" transform="translate(0,259.59090909090907)"><line stroke="currentColor" x2="-6"/><text fill="currentColor" x="-9" dy="0.32em">50</text></g><g class="tick" opacity="1" transform="translate(0,221.40909090909093)"><line stroke="currentColor" x2="-6"/><text fill="currentColor" x="-9" dy="0.32em">60</text></g><g class="tick" opacity="1" transform="translate(0,183.22727272727275)"><line stroke="currentColor" x2="-6"/><text fill="currentColor" x="-9" dy="0.32em">70</text></g><g class="tick" opacity="1" transform="translate(0,145.04545454545453)"><line stroke="currentColor" x2="-6"/><text fill="currentColor" x="-9" dy="0.32em">80</text></g><g class="tick" opacity="1" transform="translate(0,106.86363636363635)"><line stroke="currentColor" x2="-6"/><text fill="currentColor" x="-9" dy="0.32em">90</text></g><g class="tick" opacity="1" transform="translate(0,68.68181818181819)"><line stroke="currentColor" x2="-6"/><text fill="currentColor" x="-9" dy="0.32em">100</text></g><g class="tick" opacity="1" transform="translate(0,30.5)"><line stroke="currentColor" x2="-6"/><text fill="currentColor" x="-9" dy="0.32em">110</text><text fill="currentColor" x="3" dy="0.32em" text-anchor="start" font-weight="bold"/></g></g><text transform="translate(477 ,490)" style="text-anchor: middle;">Time</text><text transform="rotate(-90)" y="0" x="-250" dy="1em" style="text-anchor: middle;">Heart Rate (BPM)</text><path fill="none" stroke="#377eb8" stroke-width="3" stroke-linejoin="round" stroke-linecap="round" d="M50,175.0909090909091L51.82083333333333,175.0909090909091L53.641666666666666,175.0909090909091L55.4625,175.0909090909091L57.28333333333334,175.0909090909091L59.10416666666667,171.27272727272725L60.925,171.27272727272725L62.74583333333334,171.27272727272725L64.56666666666666,171.27272727272725L66.3875,171.27272727272725L68.20833333333333,171.27272727272725L70.02916666666667,171.27272727272725L71.85,171.27272727272725L73.67083333333333,163.63636363636368L75.49166666666666,163.63636363636368L77.3125,163.63636363636368L79.13333333333334,163.63636363636368L80.95416666666667,171.27272727272725L82.775,171.27272727272725L84.59583333333333,171.27272727272725L86.41666666666667,171.27272727272725L88.2375,175.0909090909091L90.05833333333334,175.0909090909091L91.87916666666666,175.0909090909091L93.7,175.0909090909091L95.52083333333333,201.81818181818178L97.34166666666667,201.81818181818178L99.1625,201.81818181818178L100.98333333333333,201.81818181818178L102.80416666666667,190.36363636363637L104.625,190.36363636363637L106.44583333333334,190.36363636363637L108.26666666666667,190.36363636363637L110.0875,182.72727272727275L111.90833333333333,182.72727272727275L113.72916666666667,182.72727272727275L115.55,182.72727272727275L117.37083333333334,182.72727272727275L119.19166666666666,182.72727272727275L121.0125,182.72727272727275L122.83333333333333,182.72727272727275L124.65416666666667,190.36363636363637L126.475,190.36363636363637L128.29583333333335,190.36363636363637L130.11666666666665,190.36363636363637L131.9375,190.36363636363637L133.75833333333335,190.36363636363637L135.57916666666665,190.36363636363637L137.4,190.36363636363637L139.22083333333333,186.54545454545453L141.04166666666669,186.54545454545453L142.8625,186.54545454545453L144.68333333333334,186.54545454545453L146.50416666666666,186.54545454545453L148.325,186.54545454545453L150.14583333333331,186.54545454545453L151.96666666666667,186.54545454545453L153.7875,182.72727272727275L155.60833333333335,182.72727272727275L157.42916666666665,182.72727272727275L159.25,182.72727272727275L161.07083333333333,175.0909090909091L162.89166666666668,175.0909090909091L164.7125,175.0909090909091L166.53333333333333,175.0909090909091L168.35416666666666,171.27272727272725L170.175,171.27272727272725L171.99583333333334,171.27272727272725L173.81666666666666,171.27272727272725L175.6375,175.0909090909091L177.45833333333331,175.0909090909091L179.27916666666667,175.0909090909091L181.1,175.0909090909091L182.92083333333332,171.27272727272725L184.74166666666667,171.27272727272725L186.5625,171.27272727272725L188.38333333333333,171.27272727272725L190.20416666666668,171.27272727272725L192.025,171.27272727272725L193.84583333333333,171.27272727272725L195.66666666666669,171.27272727272725L197.4875,167.45454545454547L199.30833333333334,167.45454545454547L201.12916666666666,167.45454545454547L202.95,167.45454545454547L204.77083333333331,156.00000000000003L206.59166666666667,156.00000000000003L208.4125,156.00000000000003L210.23333333333332,156.00000000000003L212.05416666666667,167.45454545454547L213.875,167.45454545454547L215.69583333333333,167.45454545454547L217.51666666666668,167.45454545454547L219.3375,171.27272727272725L221.15833333333333,171.27272727272725L222.97916666666669,171.27272727272725L224.8,171.27272727272725L226.62083333333334,175.0909090909091L228.44166666666666,175.0909090909091L230.2625,175.0909090909091L232.08333333333331,175.0909090909091L233.90416666666667,163.63636363636368L235.725,163.63636363636368L237.54583333333332,163.63636363636368L239.36666666666667,163.63636363636368L241.1875,178.9090909090909L243.00833333333333,178.9090909090909L244.82916666666668,178.9090909090909L246.65,178.9090909090909L248.47083333333333,190.36363636363637L250.29166666666669,190.36363636363637L252.1125,190.36363636363637L253.93333333333334,190.36363636363637L255.75416666666666,198L257.575,198L259.3958333333333,198L261.2166666666667,198L263.0375,190.36363636363637L264.8583333333333,190.36363636363637L266.6791666666667,190.36363636363637L268.5,190.36363636363637L270.3208333333333,167.45454545454547L272.14166666666665,167.45454545454547L273.9625,167.45454545454547L275.78333333333336,167.45454545454547L277.6041666666667,136.9090909090909L279.425,136.9090909090909L281.24583333333334,136.9090909090909L283.06666666666666,136.9090909090909L284.8875,125.45454545454547L286.7083333333333,125.45454545454547L288.52916666666664,125.45454545454547L290.35,125.45454545454547L292.17083333333335,156.00000000000003L293.9916666666667,156.00000000000003L295.8125,156.00000000000003L297.6333333333333,156.00000000000003L299.45416666666665,190.36363636363637L301.275,190.36363636363637L303.09583333333336,190.36363636363637L304.9166666666667,190.36363636363637L306.7375,190.36363636363637L308.55833333333334,190.36363636363637L310.37916666666666,190.36363636363637L312.2,190.36363636363637L314.0208333333333,182.72727272727275L315.84166666666664,182.72727272727275L317.6625,182.72727272727275L319.48333333333335,182.72727272727275L321.3041666666667,148.36363636363637L323.125,148.36363636363637L324.9458333333333,148.36363636363637L326.76666666666665,148.36363636363637L328.5875,163.63636363636368L330.40833333333336,163.63636363636368L332.2291666666667,163.63636363636368L334.05,163.63636363636368L335.87083333333334,186.54545454545453L337.69166666666666,186.54545454545453L339.5125,186.54545454545453L341.3333333333333,186.54545454545453L343.15416666666664,171.27272727272725L344.975,171.27272727272725L346.79583333333335,171.27272727272725L348.6166666666667,171.27272727272725L350.4375,182.72727272727275L352.2583333333333,182.72727272727275L354.07916666666665,182.72727272727275L355.9,182.72727272727275L357.72083333333336,171.27272727272725L359.5416666666667,171.27272727272725L361.3625,171.27272727272725L363.18333333333334,171.27272727272725L365.00416666666666,159.8181818181818L366.825,159.8181818181818L368.6458333333333,159.8181818181818L370.46666666666664,159.8181818181818L372.2875,167.45454545454547L374.10833333333335,167.45454545454547L375.9291666666667,167.45454545454547L377.75,167.45454545454547L379.5708333333333,171.27272727272725L381.39166666666665,171.27272727272725L383.2125,171.27272727272725L385.03333333333336,171.27272727272725L386.8541666666667,121.63636363636361L388.675,121.63636363636361L390.49583333333334,121.63636363636361L392.31666666666666,121.63636363636361L394.1375,121.63636363636361L395.9583333333333,121.63636363636361L397.77916666666664,121.63636363636361L399.6,121.63636363636361L401.42083333333335,129.27272727272725L403.2416666666667,129.27272727272725L405.0625,129.27272727272725L406.8833333333333,129.27272727272725L408.70416666666665,98.72727272727275L410.525,98.72727272727275L412.34583333333336,98.72727272727275L414.1666666666667,98.72727272727275L415.9875,98.72727272727275L417.80833333333334,98.72727272727275L419.62916666666666,98.72727272727275L421.45,98.72727272727275L423.2708333333333,94.9090909090909L425.09166666666664,94.9090909090909L426.9125,94.9090909090909L428.73333333333335,94.9090909090909L430.5541666666667,64.36363636363635L432.375,64.36363636363635L434.1958333333333,64.36363636363635L436.01666666666665,64.36363636363635L437.8375,49.09090909090907L439.65833333333336,49.09090909090907L441.4791666666667,49.09090909090907L443.3,49.09090909090907L445.12083333333334,72L446.94166666666666,72L448.7625,72L450.5833333333333,72L452.40416666666664,64.36363636363635L454.225,64.36363636363635L456.04583333333335,64.36363636363635L457.8666666666667,64.36363636363635L459.6875,64.36363636363635L461.5083333333333,64.36363636363635L463.32916666666665,64.36363636363635L465.15,64.36363636363635L466.97083333333336,52.90909090909092L468.7916666666667,52.90909090909092L470.6125,52.90909090909092L472.43333333333334,52.90909090909092L474.25416666666666,75.81818181818184L476.075,75.81818181818184L477.8958333333333,75.81818181818184L479.71666666666664,75.81818181818184L481.5375,129.27272727272725L483.35833333333335,129.27272727272725L485.1791666666667,129.27272727272725L487,129.27272727272725L488.8208333333333,148.36363636363637L490.64166666666665,148.36363636363637L492.4625,148.36363636363637L494.2833333333333,148.36363636363637L496.10416666666663,148.36363636363637L497.92499999999995,148.36363636363637L499.7458333333333,148.36363636363637L501.5666666666667,148.36363636363637L503.38750000000005,136.9090909090909L505.20833333333337,136.9090909090909L507.0291666666667,136.9090909090909L508.85,136.9090909090909L510.67083333333335,129.27272727272725L512.4916666666667,129.27272727272725L514.3125,129.27272727272725L516.1333333333333,129.27272727272725L517.9541666666667,133.0909090909091L519.775,133.0909090909091L521.5958333333333,133.0909090909091L523.4166666666666,133.0909090909091L525.2375,125.45454545454547L527.0583333333333,125.45454545454547L528.8791666666667,125.45454545454547L530.7,125.45454545454547L532.5208333333334,117.81818181818181L534.3416666666667,117.81818181818181L536.1625,117.81818181818181L537.9833333333333,117.81818181818181L539.8041666666667,136.9090909090909L541.625,136.9090909090909L543.4458333333333,136.9090909090909L545.2666666666667,136.9090909090909L547.0875,148.36363636363637L548.9083333333333,148.36363636363637L550.7291666666666,148.36363636363637L552.55,148.36363636363637L554.3708333333333,148.36363636363637L556.1916666666667,148.36363636363637L558.0125,148.36363636363637L559.8333333333334,148.36363636363637L561.6541666666667,152.1818181818182L563.475,152.1818181818182L565.2958333333333,152.1818181818182L567.1166666666667,152.1818181818182L568.9375,156.00000000000003L570.7583333333333,156.00000000000003L572.5791666666667,156.00000000000003L574.4,156.00000000000003L576.2208333333333,144.54545454545453L578.0416666666666,144.54545454545453L579.8625,144.54545454545453L581.6833333333333,144.54545454545453L583.5041666666667,156.00000000000003L585.325,156.00000000000003L587.1458333333334,156.00000000000003L588.9666666666667,156.00000000000003L590.7875,163.63636363636368L592.6083333333333,163.63636363636368L594.4291666666667,163.63636363636368L596.25,163.63636363636368L598.0708333333333,163.63636363636368L599.8916666666667,163.63636363636368L601.7125,163.63636363636368L603.5333333333333,163.63636363636368L605.3541666666666,156.00000000000003L607.175,156.00000000000003L608.9958333333333,156.00000000000003L610.8166666666667,156.00000000000003L612.6375,148.36363636363637L614.4583333333334,148.36363636363637L616.2791666666667,148.36363636363637L618.1,148.36363636363637L619.9208333333333,75.81818181818184L621.7416666666667,75.81818181818184L623.5625,75.81818181818184L625.3833333333333,75.81818181818184L627.2041666666667,83.45454545454547L629.025,83.45454545454547L630.8458333333333,83.45454545454547L632.6666666666666,83.45454545454547L634.4875,68.18181818181819L636.3083333333333,68.18181818181819L638.1291666666667,68.18181818181819L639.95,68.18181818181819L641.7708333333334,98.72727272727275L643.5916666666667,98.72727272727275L645.4125,98.72727272727275L647.2333333333333,98.72727272727275L649.0541666666667,125.45454545454547L650.875,125.45454545454547L652.6958333333333,125.45454545454547L654.5166666666667,125.45454545454547L656.3375,125.45454545454547L658.1583333333333,125.45454545454547L659.9791666666666,125.45454545454547L661.8,125.45454545454547L663.6208333333333,102.54545454545455L665.4416666666667,102.54545454545455L667.2625,102.54545454545455L669.0833333333334,102.54545454545455L670.9041666666667,106.36363636363635L672.725,106.36363636363635L674.5458333333333,106.36363636363635L676.3666666666667,106.36363636363635L678.1875,144.54545454545453L680.0083333333333,144.54545454545453L681.8291666666667,144.54545454545453L683.65,144.54545454545453L685.4708333333333,144.54545454545453L687.2916666666666,144.54545454545453L689.1125,144.54545454545453L690.9333333333333,144.54545454545453L692.7541666666667,152.1818181818182L694.575,152.1818181818182L696.3958333333334,152.1818181818182L698.2166666666667,152.1818181818182L700.0375,159.8181818181818L701.8583333333333,159.8181818181818L703.6791666666667,159.8181818181818L705.5,159.8181818181818L707.3208333333333,144.54545454545453L709.1416666666667,144.54545454545453L710.9625,144.54545454545453L712.7833333333333,144.54545454545453L714.6041666666666,136.9090909090909L716.425,136.9090909090909L718.2458333333333,136.9090909090909L720.0666666666667,136.9090909090909L721.8875,148.36363636363637L723.7083333333334,148.36363636363637L725.5291666666667,148.36363636363637L727.35,148.36363636363637L729.1708333333333,144.54545454545453L730.9916666666667,144.54545454545453L732.8125,144.54545454545453L734.6333333333333,144.54545454545453L736.4541666666667,117.81818181818181L738.275,117.81818181818181L740.0958333333333,117.81818181818181L741.9166666666666,117.81818181818181L743.7375,117.81818181818181L745.5583333333333,117.81818181818181L747.3791666666667,117.81818181818181L749.2,117.81818181818181L751.0208333333334,144.54545454545453L752.8416666666667,144.54545454545453L754.6625,144.54545454545453L756.4833333333333,144.54545454545453L758.3041666666667,156.00000000000003L760.125,156.00000000000003L761.9458333333333,156.00000000000003L763.7666666666667,156.00000000000003L765.5875,156.00000000000003L767.4083333333333,156.00000000000003L769.2291666666666,156.00000000000003L771.05,156.00000000000003L772.8708333333333,159.8181818181818L774.6916666666667,159.8181818181818L776.5125,159.8181818181818L778.3333333333334,159.8181818181818L780.1541666666667,159.8181818181818L781.975,159.8181818181818L783.7958333333333,159.8181818181818L785.6166666666667,159.8181818181818L787.4375,152.1818181818182L789.2583333333333,152.1818181818182L791.0791666666667,152.1818181818182L792.9,152.1818181818182L794.7208333333333,106.36363636363635L796.5416666666666,106.36363636363635L798.3625,106.36363636363635L800.1833333333333,106.36363636363635L802.0041666666667,64.36363636363635L803.825,64.36363636363635L805.6458333333334,64.36363636363635L807.4666666666667,64.36363636363635L809.2875,60.54545454545456L811.1083333333333,60.54545454545456L812.9291666666667,60.54545454545456L814.75,60.54545454545456L816.5708333333333,68.18181818181819L818.3916666666667,68.18181818181819L820.2125,68.18181818181819L822.0333333333333,68.18181818181819L823.8541666666666,79.63636363636363L825.675,79.63636363636363L827.4958333333333,79.63636363636363L829.3166666666667,79.63636363636363L831.1375,72L832.9583333333334,72L834.7791666666667,72L836.6,72L838.4208333333333,68.18181818181819L840.2416666666667,68.18181818181819L842.0625,68.18181818181819L843.8833333333333,68.18181818181819L845.7041666666667,83.45454545454547L847.525,83.45454545454547L849.3458333333333,83.45454545454547L851.1666666666666,83.45454545454547L852.9875,113.99999999999999L854.8083333333333,113.99999999999999L856.6291666666667,113.99999999999999L858.45,113.99999999999999L860.2708333333334,152.1818181818182L862.0916666666667,152.1818181818182L863.9125,152.1818181818182L865.7333333333333,152.1818181818182L867.5541666666667,163.63636363636368L869.375,163.63636363636368L871.1958333333333,163.63636363636368L873.0166666666667,163.63636363636368L874.8375,182.72727272727275L876.6583333333333,182.72727272727275L878.4791666666666,182.72727272727275L880.3,182.72727272727275L882.1208333333333,190.36363636363637L883.9416666666667,190.36363636363637L885.7625,190.36363636363637L887.5833333333334,190.36363636363637L889.4041666666667,159.8181818181818L891.225,159.8181818181818L893.0458333333333,159.8181818181818L894.8666666666667,159.8181818181818L896.6875,159.8181818181818L898.5083333333333,159.8181818181818L900.3291666666667,159.8181818181818L902.15,159.8181818181818L903.9708333333333,159.8181818181818L905.7916666666666,159.8181818181818L907.6125,159.8181818181818L909.4333333333333,159.8181818181818L911.2541666666667,148.36363636363637L913.075,148.36363636363637L914.8958333333334,148.36363636363637L916.7166666666667,148.36363636363637L918.5375,148.36363636363637L920.3583333333333,148.36363636363637L922.1791666666667,148.36363636363637L924,148.36363636363637"/><line x1="457.8666666666667" y1="44.09090909090907" x2="457.8666666666667" y2="450" stroke="#e41a1c" stroke-width="2.5" stroke-linejoin="round" stroke-linecap="round"/><line x1="537.9833333333333" y1="44.09090909090907" x2="537.9833333333333" y2="450" stroke="#e41a1c" stroke-width="2.5" stroke-linejoin="round" stroke-linecap="round"/><text x="437.8666666666667" y="34.09090909090907" text-anchor="middle" style="font-size: 16px; fill: rgb(0, 0, 0);">Survey Sent</text><text x="557.9833333333333" y="34.09090909090907" text-anchor="middle" style="font-size: 16px; fill: rgb(0, 0, 0);">Survey Received</text></svg>