<svg viewBox="0,0,954,500" xmlns="http://www.w3.org/2000/svg" xmlns:xlink="http://www.w3.org/1999/xlink"><g transform="translate(0,450)" fill="none" font-size="10" font-family="sans-serif" text-anchor="middle"><path class="domain" stroke="currentColor" d="M50.5,0.5H924.5"/><g class="tick" opacity="1" transform="translate(50.5,0)"><line stroke="currentColor" y2="6"/><text fill="currentColor" y="9" dy="0.71em">12 PM</text></g><g class="tick" opacity="1" transform="translate(159.75,0)"><line stroke="currentColor" y2="6"/><text fill="currentColor" y="9" dy="0.71em">12:15</text></g><g class="tick" opacity="1" transform="translate(269,0)"><line stroke="currentColor" y2="6"/><text fill="currentColor" y="9" dy="0.71em">12:30</text></g><g class="tick" opacity="1" transform="translate(378.25,0)"><line stroke="currentColor" y2="6"/><text fill="currentColor" y="9" dy="0.71em">12:45</text></g><g class="tick" opacity="1" transform="translate(487.5,0)"><line stroke="currentColor" y2="6"/><text fill="currentColor" y="9" dy="0.71em">01 PM</text></g><g class="tick" opacity="1" transform="translate(596.75,0)"><line stroke="currentColor" y2="6"/><text fill="currentColor" y="9" dy="0.71em">01:15</text></g><g class="tick" opacity="1" transform="translate(706,0)"><line stroke="currentColor" y2="6"/><text fill="currentColor" y="9" dy="0.71em">01:30</text></g><g class="tick" opacity="1" transform="translate(815.25,0)"><line stroke="currentColor" y2="6"/><text fill="currentColor" y="9" dy="0.71em">01:45</text></g><g class="tick" opacity="1" transform="translate(924.5,0)"><line stroke="currentColor" y2="6"/><text fill="currentColor" y="9" dy="0.71em">02 PM</text></g></g><g transform="translate(50,0)" fill="none" font-size="10" font-family="sans-serif" text-anchor="end"><g class="tick" opacity="1" transform="translate(0,450.5)"><line stroke="currentColor" x2="-6"/><text fill="currentColor" x="-9" dy="0.32em">0</text></g><g class="tick" opacity="1" transform="translate(0,415.5)"><line stroke="currentColor" x2="-6"/><text fill="currentColor" x="-9" dy="0.32em">10</text></g><g class="tick" opacity="1" transform="translate(0,380.5)"><line stroke="currentColor" x2="-6"/><text fill="currentColor" x="-9" dy="0.32em">20</text></g><g class="tick" opacity="1" transform="translate(0,345.5)"><line stroke="currentColor" x2="-6"/><text fill="currentColor" x="-9" dy="0.32em">30</text></g><g class="tick" opacity="1" transform="translate(0,310.50000000000006)"><line stroke="currentColor" x2="-6"/><text fill="currentColor" x="-9" dy="0.32em">40</text></g><g class="tick" opacity="1" transform="translate(0,275.49999999999994)"><line stroke="currentColor" x2="-6"/><text fill="currentColor" x="-9" dy="0.32em">50</text></g><g class="tick" opacity="1" transform="translate(0,240.5)"><line stroke="currentColor" x2="-6"/><text fill="currentColor" x="-9" dy="0.32em">60</text></g><g class="tick" opacity="1" transform="translate(0,205.49999999999997)"><line stroke="currentColor" x2="-6"/><text fill="currentColor" x="-9" dy="0.32em">70</text></g><g class="tick" opacity="1" transform="translate(0,170.50000000000003)"><line stroke="currentColor" x2="-6"/><text fill="currentColor" x="-9" dy="0.32em">80</text></g><g class="tick" opacity="1" transform="translate(0,135.5)"><line stroke="currentColor" x2="-6"/><text fill="currentColor" x="-9" dy="0.32em">90</text></g><g class="tick" opacity="1" transform="translate(0,100.49999999999999)"><line stroke="currentColor" x2="-6"/><text fill="currentColor" x="-9" dy="0.32em">100</text></g><g class="tick" opacity="1" transform="translate(0,65.50000000000001)"><line stroke="currentColor" x2="-6"/><text fill="currentColor" x="-9" dy="0.32em">110</text></g><g class="tick" opacity="1" transform="translate(0,30.5)"><line stroke="currentColor" x2="-6"/><text fill="currentColor" x="-9" dy="0.32em">120</text><text fill="currentColor" x="3" dy="0.32em" text-anchor="start" font-weight="bold"/></g></g><text transform="translate(477 ,490)" style="text-anchor: middle;">Time</text><text transform="rotate(-90)" y="0" x="-250" dy="1em" style="text-anchor: middle;">Heart Rate (BPM)</text><path fill="none" stroke="#377eb8" stroke-width="3" stroke-linejoin="round" stroke-linecap="round" d="M50,191L51.82083333333333,184L53.641666666666666,184L55.4625,184L57.28333333333334,184L59.10416666666667,180.49999999999997L60.925,180.49999999999997L62.74583333333334,180.49999999999997L64.56666666666666,180.49999999999997L66.3875,184L68.20833333333333,184L70.02916666666667,184L71.85,184L73.67083333333333,187.5L75.49166666666666,187.5L77.3125,187.5L79.13333333333334,187.5L80.95416666666667,187.5L82.775,187.5L84.59583333333333,187.5L86.41666666666667,187.5L88.2375,187.5L90.05833333333334,187.5L91.87916666666666,187.5L93.7,187.5L95.52083333333333,184L97.34166666666667,184L99.1625,184L100.98333333333333,184M131.9375,187.5L133.75833333333335,187.5L135.57916666666665,187.5L137.4,187.5L139.22083333333333,191L141.04166666666669,191L142.8625,191L144.68333333333334,191L146.50416666666666,184L148.325,184L150.14583333333331,184L151.96666666666667,184L153.7875,131.5L155.60833333333335,131.5L157.42916666666665,131.5L159.25,131.5L161.07083333333333,117.50000000000001L162.89166666666668,117.50000000000001L164.7125,117.50000000000001L166.53333333333333,117.50000000000001L168.35416666666666,184L170.175,184L171.99583333333334,184L173.81666666666666,184L175.6375,173.5L177.45833333333331,173.5L179.27916666666667,173.5L181.1,173.5L182.92083333333332,204.99999999999997L184.74166666666667,204.99999999999997L186.5625,204.99999999999997L188.38333333333333,204.99999999999997M226.62083333333334,204.99999999999997L228.44166666666666,204.99999999999997L230.2625,204.99999999999997L232.08333333333331,204.99999999999997L233.90416666666667,208.50000000000003L235.725,208.50000000000003L237.54583333333332,208.50000000000003L239.36666666666667,208.50000000000003L241.1875,194.50000000000003L243.00833333333333,194.50000000000003L244.82916666666668,194.50000000000003L246.65,194.50000000000003L248.47083333333333,184L250.29166666666669,184L252.1125,184L253.93333333333334,184L255.75416666666666,180.49999999999997L257.575,180.49999999999997L259.3958333333333,180.49999999999997L261.2166666666667,180.49999999999997L263.0375,180.49999999999997L264.8583333333333,180.49999999999997L266.6791666666667,180.49999999999997L268.5,180.49999999999997L270.3208333333333,201.5L272.14166666666665,201.5L273.9625,201.5L275.78333333333336,201.5L277.6041666666667,212L279.425,212L281.24583333333334,212L283.06666666666666,212L284.8875,215.5L286.7083333333333,215.5L288.52916666666664,215.5L290.35,215.5L292.17083333333335,218.99999999999997L293.9916666666667,218.99999999999997L295.8125,218.99999999999997L297.6333333333333,218.99999999999997L299.45416666666665,218.99999999999997L301.275,218.99999999999997L303.09583333333336,218.99999999999997L304.9166666666667,218.99999999999997L306.7375,204.99999999999997L308.55833333333334,204.99999999999997L310.37916666666666,204.99999999999997L312.2,204.99999999999997L314.0208333333333,107L315.84166666666664,107L317.6625,107L319.48333333333335,107L321.3041666666667,142.00000000000003L323.125,142.00000000000003L324.9458333333333,142.00000000000003L326.76666666666665,142.00000000000003L328.5875,184L330.40833333333336,184L332.2291666666667,184L334.05,184L335.87083333333334,208.50000000000003L337.69166666666666,208.50000000000003L339.5125,208.50000000000003L341.3333333333333,208.50000000000003L343.15416666666664,170.00000000000003L344.975,170.00000000000003L346.79583333333335,170.00000000000003L348.6166666666667,170.00000000000003L350.4375,180.49999999999997L352.2583333333333,180.49999999999997L354.07916666666665,180.49999999999997L355.9,180.49999999999997L357.72083333333336,180.49999999999997L359.5416666666667,180.49999999999997L361.3625,180.49999999999997L363.18333333333334,180.49999999999997L365.00416666666666,177L366.825,177L368.6458333333333,177L370.46666666666664,177L372.2875,198L374.10833333333335,198L375.9291666666667,198L377.75,198L379.5708333333333,180.49999999999997L381.39166666666665,180.49999999999997L383.2125,180.49999999999997L385.03333333333336,180.49999999999997L386.8541666666667,156.00000000000003L388.675,156.00000000000003L390.49583333333334,156.00000000000003L392.31666666666666,156.00000000000003L394.1375,138.5L395.9583333333333,138.5L397.77916666666664,138.5L399.6,138.5L401.42083333333335,142.00000000000003L403.2416666666667,142.00000000000003L405.0625,142.00000000000003L406.8833333333333,142.00000000000003L408.70416666666665,145.5L410.525,145.5L412.34583333333336,145.5L414.1666666666667,145.5L415.9875,142.00000000000003L417.80833333333334,142.00000000000003L419.62916666666666,142.00000000000003L421.45,142.00000000000003L423.2708333333333,124.49999999999999L425.09166666666664,124.49999999999999L426.9125,124.49999999999999L428.73333333333335,124.49999999999999L430.5541666666667,170.00000000000003L432.375,170.00000000000003L434.1958333333333,170.00000000000003L436.01666666666665,170.00000000000003L437.8375,201.5L439.65833333333336,201.5L441.4791666666667,201.5L443.3,201.5L445.12083333333334,204.99999999999997L446.94166666666666,204.99999999999997L448.7625,204.99999999999997L450.5833333333333,204.99999999999997L452.40416666666664,180.49999999999997L454.225,180.49999999999997L456.04583333333335,180.49999999999997L457.8666666666667,180.49999999999997L459.6875,177L461.5083333333333,177L463.32916666666665,177L465.15,177L466.97083333333336,194.50000000000003L468.7916666666667,194.50000000000003L470.6125,194.50000000000003L472.43333333333334,194.50000000000003L474.25416666666666,156.00000000000003L476.075,156.00000000000003L477.8958333333333,156.00000000000003L479.71666666666664,156.00000000000003L481.5375,135L483.35833333333335,135L485.1791666666667,135L487,135L488.8208333333333,121L490.64166666666665,121L492.4625,121L494.2833333333333,121L496.10416666666663,149L497.92499999999995,149L499.7458333333333,149L501.5666666666667,149L503.38750000000005,166.49999999999997L505.20833333333337,166.49999999999997L507.0291666666667,166.49999999999997L508.85,166.49999999999997L510.67083333333335,173.5L512.4916666666667,173.5L514.3125,173.5L516.1333333333333,173.5L517.9541666666667,159.5L519.775,159.5L521.5958333333333,159.5L523.4166666666666,159.5L525.2375,110.5L527.0583333333333,110.5L528.8791666666667,110.5L530.7,110.5L532.5208333333334,99.99999999999999L534.3416666666667,99.99999999999999L536.1625,99.99999999999999L537.9833333333333,99.99999999999999L539.8041666666667,103.50000000000001L541.625,103.50000000000001L543.4458333333333,103.50000000000001L545.2666666666667,103.50000000000001L547.0875,127.99999999999997L548.9083333333333,127.99999999999997L550.7291666666666,127.99999999999997L552.55,127.99999999999997L554.3708333333333,159.5L556.1916666666667,159.5L558.0125,159.5L559.8333333333334,159.5L561.6541666666667,187.5L563.475,187.5L565.2958333333333,187.5L567.1166666666667,187.5L568.9375,173.5L570.7583333333333,173.5L572.5791666666667,173.5L574.4,173.5M641.7708333333334,204.99999999999997L643.5916666666667,204.99999999999997L645.4125,204.99999999999997L647.2333333333333,204.99999999999997L649.0541666666667,184L650.875,184L652.6958333333333,184L654.5166666666667,184L656.3375,184L658.1583333333333,184L659.9791666666666,184L661.8,184L663.6208333333333,184L665.4416666666667,184L667.2625,184L669.0833333333334,184L670.9041666666667,184L672.725,184L674.5458333333333,184L676.3666666666667,184L678.1875,184L680.0083333333333,184L681.8291666666667,184L683.65,184L685.4708333333333,184L687.2916666666666,184L689.1125,184L690.9333333333333,184L692.7541666666667,177L694.575,177L696.3958333333334,177L698.2166666666667,177L700.0375,145.5L701.8583333333333,145.5L703.6791666666667,145.5L705.5,145.5L707.3208333333333,72L709.1416666666667,72L710.9625,72L712.7833333333333,72L714.6041666666666,79.00000000000001L716.425,79.00000000000001L718.2458333333333,79.00000000000001L720.0666666666667,79.00000000000001L721.8875,127.99999999999997L723.7083333333334,127.99999999999997L725.5291666666667,127.99999999999997L727.35,127.99999999999997L729.1708333333333,142.00000000000003L730.9916666666667,142.00000000000003L732.8125,142.00000000000003L734.6333333333333,142.00000000000003L736.4541666666667,173.5L738.275,173.5L740.0958333333333,173.5L741.9166666666666,173.5L743.7375,187.5L745.5583333333333,187.5L747.3791666666667,187.5L749.2,187.5L751.0208333333334,180.49999999999997L752.8416666666667,180.49999999999997L754.6625,180.49999999999997L756.4833333333333,180.49999999999997L758.3041666666667,149L760.125,149L761.9458333333333,149L763.7666666666667,149L765.5875,127.99999999999997L767.4083333333333,127.99999999999997L769.2291666666666,127.99999999999997L771.05,127.99999999999997L772.8708333333333,142.00000000000003L774.6916666666667,142.00000000000003L776.5125,142.00000000000003L778.3333333333334,142.00000000000003L780.1541666666667,149L781.975,149L783.7958333333333,149L785.6166666666667,149L787.4375,156.00000000000003L789.2583333333333,156.00000000000003L791.0791666666667,156.00000000000003L792.9,156.00000000000003L794.7208333333333,159.5L796.5416666666666,159.5L798.3625,159.5L800.1833333333333,159.5L802.0041666666667,103.50000000000001L803.825,103.50000000000001L805.6458333333334,103.50000000000001L807.4666666666667,103.50000000000001L809.2875,54.50000000000001L811.1083333333333,54.50000000000001L812.9291666666667,54.50000000000001L814.75,54.50000000000001L816.5708333333333,121L818.3916666666667,121L820.2125,121L822.0333333333333,121L823.8541666666666,156.00000000000003L825.675,156.00000000000003L827.4958333333333,156.00000000000003L829.3166666666667,156.00000000000003L831.1375,166.49999999999997L832.9583333333334,166.49999999999997L834.7791666666667,166.49999999999997L836.6,166.49999999999997L838.4208333333333,159.5L840.2416666666667,159.5L842.0625,159.5L843.8833333333333,159.5L845.7041666666667,170.00000000000003L847.525,170.00000000000003L849.3458333333333,170.00000000000003L851.1666666666666,170.00000000000003L852.9875,173.5L854.8083333333333,173.5L856.6291666666667,173.5L858.45,173.5L860.2708333333334,166.49999999999997L862.0916666666667,166.49999999999997L863.9125,166.49999999999997L865.7333333333333,166.49999999999997L867.5541666666667,159.5L869.375,159.5L871.1958333333333,159.5L873.0166666666667,159.5L874.8375,163L876.6583333333333,163L878.4791666666666,163L880.3,163L882.1208333333333,163L883.9416666666667,163L885.7625,163L887.5833333333334,163L889.4041666666667,166.49999999999997L891.225,166.49999999999997L893.0458333333333,166.49999999999997L894.8666666666667,166.49999999999997L896.6875,170.00000000000003L898.5083333333333,170.00000000000003L900.3291666666667,170.00000000000003L902.15,170.00000000000003L903.9708333333333,163L905.7916666666666,163L907.6125,163L909.4333333333333,163L911.2541666666667,135L913.075,135L914.8958333333334,135L916.7166666666667,135L918.5375,152.49999999999997L920.3583333333333,152.49999999999997L922.1791666666667,152.49999999999997L924,152.49999999999997"/><line x1="108.26666666666667" y1="49.50000000000001" x2="108.26666666666667" y2="450" stroke="#e41a1c" stroke-width="2.5" stroke-linejoin="round" stroke-linecap="round"/><line x1="130.11666666666665" y1="49.50000000000001" x2="130.11666666666665" y2="450" stroke="#e41a1c" stroke-width="2.5" stroke-linejoin="round" stroke-linecap="round"/><text x="88.26666666666667" y="39.50000000000001" text-anchor="middle" style="font-size: 16px; fill: rgb(0, 0, 0);">Survey Sent</text><text x="150.11666666666665" y="39.50000000000001" text-anchor="middle" style="font-size: 16px; fill: rgb(0, 0, 0);">Survey Received</text></svg>