<svg viewBox="0,0,954,300" xmlns="http://www.w3.org/2000/svg" xmlns:xlink="http://www.w3.org/1999/xlink"><g transform="translate(0, 50)" fill="none" font-size="10" font-family="sans-serif" text-anchor="middle"><path class="domain" stroke="currentColor" d="M50.5,0.5H924.5"/><g class="tick" opacity="1" transform="translate(69.94605809128628,0)"><line stroke="currentColor" y2="-6"/><text fill="currentColor" y="-9" dy="0em">1</text></g><g class="tick" opacity="1" transform="translate(106.21161825726138,0)"><line stroke="currentColor" y2="-6"/><text fill="currentColor" y="-9" dy="0em">2</text></g><g class="tick" opacity="1" transform="translate(142.4771784232365,0)"><line stroke="currentColor" y2="-6"/><text fill="currentColor" y="-9" dy="0em">3</text></g><g class="tick" opacity="1" transform="translate(178.74273858921163,0)"><line stroke="currentColor" y2="-6"/><text fill="currentColor" y="-9" dy="0em">4</text></g><g class="tick" opacity="1" transform="translate(215.00829875518673,0)"><line stroke="currentColor" y2="-6"/><text fill="currentColor" y="-9" dy="0em">5</text></g><g class="tick" opacity="1" transform="translate(251.27385892116183,0)"><line stroke="currentColor" y2="-6"/><text fill="currentColor" y="-9" dy="0em">6</text></g><g class="tick" opacity="1" transform="translate(287.53941908713693,0)"><line stroke="currentColor" y2="-6"/><text fill="currentColor" y="-9" dy="0em">7</text></g><g class="tick" opacity="1" transform="translate(323.80497925311204,0)"><line stroke="currentColor" y2="-6"/><text fill="currentColor" y="-9" dy="0em">8</text></g><g class="tick" opacity="1" transform="translate(360.07053941908714,0)"><line stroke="currentColor" y2="-6"/><text fill="currentColor" y="-9" dy="0em">9</text></g><g class="tick" opacity="1" transform="translate(396.33609958506224,0)"><line stroke="currentColor" y2="-6"/><text fill="currentColor" y="-9" dy="0em">10</text></g><g class="tick" opacity="1" transform="translate(432.60165975103735,0)"><line stroke="currentColor" y2="-6"/><text fill="currentColor" y="-9" dy="0em">11</text></g><g class="tick" opacity="1" transform="translate(468.86721991701245,0)"><line stroke="currentColor" y2="-6"/><text fill="currentColor" y="-9" dy="0em">12</text></g><g class="tick" opacity="1" transform="translate(505.1327800829876,0)"><line stroke="currentColor" y2="-6"/><text fill="currentColor" y="-9" dy="0em">13</text></g><g class="tick" opacity="1" transform="translate(541.3983402489627,0)"><line stroke="currentColor" y2="-6"/><text fill="currentColor" y="-9" dy="0em">14</text></g><g class="tick" opacity="1" transform="translate(577.6639004149378,0)"><line stroke="currentColor" y2="-6"/><text fill="currentColor" y="-9" dy="0em">15</text></g><g class="tick" opacity="1" transform="translate(613.9294605809129,0)"><line stroke="currentColor" y2="-6"/><text fill="currentColor" y="-9" dy="0em">16</text></g><g class="tick" opacity="1" transform="translate(650.195020746888,0)"><line stroke="currentColor" y2="-6"/><text fill="currentColor" y="-9" dy="0em">17</text></g><g class="tick" opacity="1" transform="translate(686.4605809128631,0)"><line stroke="currentColor" y2="-6"/><text fill="currentColor" y="-9" dy="0em">18</text></g><g class="tick" opacity="1" transform="translate(722.7261410788382,0)"><line stroke="currentColor" y2="-6"/><text fill="currentColor" y="-9" dy="0em">19</text></g><g class="tick" opacity="1" transform="translate(758.9917012448133,0)"><line stroke="currentColor" y2="-6"/><text fill="currentColor" y="-9" dy="0em">20</text></g><g class="tick" opacity="1" transform="translate(795.2572614107884,0)"><line stroke="currentColor" y2="-6"/><text fill="currentColor" y="-9" dy="0em">21</text></g><g class="tick" opacity="1" transform="translate(831.5228215767635,0)"><line stroke="currentColor" y2="-6"/><text fill="currentColor" y="-9" dy="0em">22</text></g><g class="tick" opacity="1" transform="translate(867.7883817427386,0)"><line stroke="currentColor" y2="-6"/><text fill="currentColor" y="-9" dy="0em">23</text></g><g class="tick" opacity="1" transform="translate(904.0539419087137,0)"><line stroke="currentColor" y2="-6"/><text fill="currentColor" y="-9" dy="0em">24</text></g></g><g transform="translate(50,0)" fill="none" font-size="10" font-family="sans-serif" text-anchor="end"><g class="tick" opacity="1" transform="translate(0,79.51219512195121)"><line stroke="currentColor" x2="-6"/><text fill="currentColor" x="-9" dy="0.32em">22</text></g><g class="tick" opacity="1" transform="translate(0,133.1707317073171)"><line stroke="currentColor" x2="-6"/><text fill="currentColor" x="-9" dy="0.32em">23</text></g><g class="tick" opacity="1" transform="translate(0,186.82926829268294)"><line stroke="currentColor" x2="-6"/><text fill="currentColor" x="-9" dy="0.32em">25</text></g><g class="tick" opacity="1" transform="translate(0,240.48780487804882)"><line stroke="currentColor" x2="-6"/><text fill="currentColor" x="-9" dy="0.32em">26</text><text fill="currentColor" x="3" dy="0.32em" text-anchor="start" font-weight="bold"/></g></g><text transform="translate(477 ,20)" style="text-anchor: middle;">1-hour windows on 2020-05-01</text><text transform="rotate(-90)" y="0" x="-150" dy="1em" style="text-anchor: middle;">Beacon IDs of Team 2</text><rect x="53.626556016597476" y="55.36585365853658" width="32.6390041493776" height="48.29268292682927" style="fill: rgb(247, 247, 247);"/><rect x="89.89211618257258" y="55.36585365853658" width="32.6390041493776" height="48.29268292682927" style="fill: rgb(247, 247, 247);"/><rect x="126.1576763485477" y="55.36585365853658" width="32.6390041493776" height="48.29268292682927" style="fill: rgb(247, 247, 247);"/><rect x="162.4232365145228" y="55.36585365853658" width="32.6390041493776" height="48.29268292682927" style="fill: rgb(247, 247, 247);"/><rect x="198.68879668049792" y="55.36585365853658" width="32.6390041493776" height="48.29268292682927" style="fill: rgb(247, 247, 247);"/><rect x="234.95435684647302" y="55.36585365853658" width="32.6390041493776" height="48.29268292682927" style="fill: rgb(247, 247, 247);"/><rect x="271.21991701244815" y="55.36585365853658" width="32.6390041493776" height="48.29268292682927" style="fill: rgb(247, 247, 247);"/><rect x="307.48547717842325" y="55.36585365853658" width="32.6390041493776" height="48.29268292682927" style="fill: rgb(247, 247, 247);"/><rect x="343.75103734439836" y="55.36585365853658" width="32.6390041493776" height="48.29268292682927" style="fill: rgb(247, 247, 247);"/><rect x="380.01659751037346" y="55.36585365853658" width="32.6390041493776" height="48.29268292682927" style="fill: rgb(247, 247, 247);"/><rect x="416.28215767634856" y="55.36585365853658" width="32.6390041493776" height="48.29268292682927" style="fill: rgb(247, 247, 247);"/><rect x="452.54771784232366" y="55.36585365853658" width="32.6390041493776" height="48.29268292682927" style="fill: rgb(247, 247, 247);"/><rect x="488.8132780082988" y="55.36585365853658" width="32.6390041493776" height="48.29268292682927" style="fill: rgb(247, 247, 247);"/><rect x="525.0788381742739" y="55.36585365853658" width="32.6390041493776" height="48.29268292682927" style="fill: rgb(247, 247, 247);"/><rect x="561.344398340249" y="55.36585365853658" width="32.6390041493776" height="48.29268292682927" style="fill: rgb(247, 247, 247);"/><rect x="597.6099585062241" y="55.36585365853658" width="32.6390041493776" height="48.29268292682927" style="fill: rgb(247, 247, 247);"/><rect x="633.8755186721992" y="55.36585365853658" width="32.6390041493776" height="48.29268292682927" style="fill: rgb(247, 247, 247);"/><rect x="670.1410788381743" y="55.36585365853658" width="32.6390041493776" height="48.29268292682927" style="fill: rgb(247, 247, 247);"/><rect x="706.4066390041494" y="55.36585365853658" width="32.6390041493776" height="48.29268292682927" style="fill: rgb(247, 247, 247);"/><rect x="742.6721991701245" y="55.36585365853658" width="32.6390041493776" height="48.29268292682927" style="fill: rgb(247, 247, 247);"/><rect x="778.9377593360996" y="55.36585365853658" width="32.6390041493776" height="48.29268292682927" style="fill: rgb(247, 247, 247);"/><rect x="815.2033195020747" y="55.36585365853658" width="32.6390041493776" height="48.29268292682927" style="fill: rgb(247, 247, 247);"/><rect x="851.4688796680498" y="55.36585365853658" width="32.6390041493776" height="48.29268292682927" style="fill: rgb(247, 247, 247);"/><rect x="887.7344398340249" y="55.36585365853658" width="32.6390041493776" height="48.29268292682927" style="fill: rgb(247, 247, 247);"/><rect x="53.626556016597476" y="109.02439024390245" width="32.6390041493776" height="48.29268292682927" style="fill: rgb(247, 247, 247);"/><rect x="89.89211618257258" y="109.02439024390245" width="32.6390041493776" height="48.29268292682927" style="fill: rgb(247, 247, 247);"/><rect x="126.1576763485477" y="109.02439024390245" width="32.6390041493776" height="48.29268292682927" style="fill: rgb(118, 42, 131);"/><rect x="162.4232365145228" y="109.02439024390245" width="32.6390041493776" height="48.29268292682927" style="fill: rgb(247, 247, 247);"/><rect x="198.68879668049792" y="109.02439024390245" width="32.6390041493776" height="48.29268292682927" style="fill: rgb(247, 247, 247);"/><rect x="234.95435684647302" y="109.02439024390245" width="32.6390041493776" height="48.29268292682927" style="fill: rgb(118, 42, 131);"/><rect x="271.21991701244815" y="109.02439024390245" width="32.6390041493776" height="48.29268292682927" style="fill: rgb(247, 247, 247);"/><rect x="307.48547717842325" y="109.02439024390245" width="32.6390041493776" height="48.29268292682927" style="fill: rgb(247, 247, 247);"/><rect x="343.75103734439836" y="109.02439024390245" width="32.6390041493776" height="48.29268292682927" style="fill: rgb(247, 247, 247);"/><rect x="380.01659751037346" y="109.02439024390245" width="32.6390041493776" height="48.29268292682927" style="fill: rgb(247, 247, 247);"/><rect x="416.28215767634856" y="109.02439024390245" width="32.6390041493776" height="48.29268292682927" style="fill: rgb(247, 247, 247);"/><rect x="452.54771784232366" y="109.02439024390245" width="32.6390041493776" height="48.29268292682927" style="fill: rgb(247, 247, 247);"/><rect x="488.8132780082988" y="109.02439024390245" width="32.6390041493776" height="48.29268292682927" style="fill: rgb(247, 247, 247);"/><rect x="525.0788381742739" y="109.02439024390245" width="32.6390041493776" height="48.29268292682927" style="fill: rgb(118, 42, 131);"/><rect x="561.344398340249" y="109.02439024390245" width="32.6390041493776" height="48.29268292682927" style="fill: rgb(247, 247, 247);"/><rect x="597.6099585062241" y="109.02439024390245" width="32.6390041493776" height="48.29268292682927" style="fill: rgb(118, 42, 131);"/><rect x="633.8755186721992" y="109.02439024390245" width="32.6390041493776" height="48.29268292682927" style="fill: rgb(247, 247, 247);"/><rect x="670.1410788381743" y="109.02439024390245" width="32.6390041493776" height="48.29268292682927" style="fill: rgb(247, 247, 247);"/><rect x="706.4066390041494" y="109.02439024390245" width="32.6390041493776" height="48.29268292682927" style="fill: rgb(118, 42, 131);"/><rect x="742.6721991701245" y="109.02439024390245" width="32.6390041493776" height="48.29268292682927" style="fill: rgb(247, 247, 247);"/><rect x="778.9377593360996" y="109.02439024390245" width="32.6390041493776" height="48.29268292682927" style="fill: rgb(118, 42, 131);"/><rect x="815.2033195020747" y="109.02439024390245" width="32.6390041493776" height="48.29268292682927" style="fill: rgb(247, 247, 247);"/><rect x="851.4688796680498" y="109.02439024390245" width="32.6390041493776" height="48.29268292682927" style="fill: rgb(247, 247, 247);"/><rect x="887.7344398340249" y="109.02439024390245" width="32.6390041493776" height="48.29268292682927" style="fill: rgb(118, 42, 131);"/><rect x="53.626556016597476" y="162.6829268292683" width="32.6390041493776" height="48.29268292682927" style="fill: rgb(118, 42, 131);"/><rect x="89.89211618257258" y="162.6829268292683" width="32.6390041493776" height="48.29268292682927" style="fill: rgb(118, 42, 131);"/><rect x="126.1576763485477" y="162.6829268292683" width="32.6390041493776" height="48.29268292682927" style="fill: rgb(118, 42, 131);"/><rect x="162.4232365145228" y="162.6829268292683" width="32.6390041493776" height="48.29268292682927" style="fill: rgb(118, 42, 131);"/><rect x="198.68879668049792" y="162.6829268292683" width="32.6390041493776" height="48.29268292682927" style="fill: rgb(118, 42, 131);"/><rect x="234.95435684647302" y="162.6829268292683" width="32.6390041493776" height="48.29268292682927" style="fill: rgb(118, 42, 131);"/><rect x="271.21991701244815" y="162.6829268292683" width="32.6390041493776" height="48.29268292682927" style="fill: rgb(118, 42, 131);"/><rect x="307.48547717842325" y="162.6829268292683" width="32.6390041493776" height="48.29268292682927" style="fill: rgb(118, 42, 131);"/><rect x="343.75103734439836" y="162.6829268292683" width="32.6390041493776" height="48.29268292682927" style="fill: rgb(118, 42, 131);"/><rect x="380.01659751037346" y="162.6829268292683" width="32.6390041493776" height="48.29268292682927" style="fill: rgb(118, 42, 131);"/><rect x="416.28215767634856" y="162.6829268292683" width="32.6390041493776" height="48.29268292682927" style="fill: rgb(118, 42, 131);"/><rect x="452.54771784232366" y="162.6829268292683" width="32.6390041493776" height="48.29268292682927" style="fill: rgb(118, 42, 131);"/><rect x="488.8132780082988" y="162.6829268292683" width="32.6390041493776" height="48.29268292682927" style="fill: rgb(118, 42, 131);"/><rect x="525.0788381742739" y="162.6829268292683" width="32.6390041493776" height="48.29268292682927" style="fill: rgb(118, 42, 131);"/><rect x="561.344398340249" y="162.6829268292683" width="32.6390041493776" height="48.29268292682927" style="fill: rgb(118, 42, 131);"/><rect x="597.6099585062241" y="162.6829268292683" width="32.6390041493776" height="48.29268292682927" style="fill: rgb(118, 42, 131);"/><rect x="633.8755186721992" y="162.6829268292683" width="32.6390041493776" height="48.29268292682927" style="fill: rgb(118, 42, 131);"/><rect x="670.1410788381743" y="162.6829268292683" width="32.6390041493776" height="48.29268292682927" style="fill: rgb(118, 42, 131);"/><rect x="706.4066390041494" y="162.6829268292683" width="32.6390041493776" height="48.29268292682927" style="fill: rgb(118, 42, 131);"/><rect x="742.6721991701245" y="162.6829268292683" width="32.6390041493776" height="48.29268292682927" style="fill: rgb(118, 42, 131);"/><rect x="778.9377593360996" y="162.6829268292683" width="32.6390041493776" height="48.29268292682927" style="fill: rgb(118, 42, 131);"/><rect x="815.2033195020747" y="162.6829268292683" width="32.6390041493776" height="48.29268292682927" style="fill: rgb(118, 42, 131);"/><rect x="851.4688796680498" y="162.6829268292683" width="32.6390041493776" height="48.29268292682927" style="fill: rgb(118, 42, 131);"/><rect x="887.7344398340249" y="162.6829268292683" width="32.6390041493776" height="48.29268292682927" style="fill: rgb(118, 42, 131);"/><rect x="53.626556016597476" y="216.34146341463418" width="32.6390041493776" height="48.29268292682927" style="fill: rgb(118, 42, 131);"/><rect x="89.89211618257258" y="216.34146341463418" width="32.6390041493776" height="48.29268292682927" style="fill: rgb(118, 42, 131);"/><rect x="126.1576763485477" y="216.34146341463418" width="32.6390041493776" height="48.29268292682927" style="fill: rgb(118, 42, 131);"/><rect x="162.4232365145228" y="216.34146341463418" width="32.6390041493776" height="48.29268292682927" style="fill: rgb(118, 42, 131);"/><rect x="198.68879668049792" y="216.34146341463418" width="32.6390041493776" height="48.29268292682927" style="fill: rgb(118, 42, 131);"/><rect x="234.95435684647302" y="216.34146341463418" width="32.6390041493776" height="48.29268292682927" style="fill: rgb(118, 42, 131);"/><rect x="271.21991701244815" y="216.34146341463418" width="32.6390041493776" height="48.29268292682927" style="fill: rgb(118, 42, 131);"/><rect x="307.48547717842325" y="216.34146341463418" width="32.6390041493776" height="48.29268292682927" style="fill: rgb(118, 42, 131);"/><rect x="343.75103734439836" y="216.34146341463418" width="32.6390041493776" height="48.29268292682927" style="fill: rgb(118, 42, 131);"/><rect x="380.01659751037346" y="216.34146341463418" width="32.6390041493776" height="48.29268292682927" style="fill: rgb(118, 42, 131);"/><rect x="416.28215767634856" y="216.34146341463418" width="32.6390041493776" height="48.29268292682927" style="fill: rgb(118, 42, 131);"/><rect x="452.54771784232366" y="216.34146341463418" width="32.6390041493776" height="48.29268292682927" style="fill: rgb(118, 42, 131);"/><rect x="488.8132780082988" y="216.34146341463418" width="32.6390041493776" height="48.29268292682927" style="fill: rgb(118, 42, 131);"/><rect x="525.0788381742739" y="216.34146341463418" width="32.6390041493776" height="48.29268292682927" style="fill: rgb(118, 42, 131);"/><rect x="561.344398340249" y="216.34146341463418" width="32.6390041493776" height="48.29268292682927" style="fill: rgb(118, 42, 131);"/><rect x="597.6099585062241" y="216.34146341463418" width="32.6390041493776" height="48.29268292682927" style="fill: rgb(118, 42, 131);"/><rect x="633.8755186721992" y="216.34146341463418" width="32.6390041493776" height="48.29268292682927" style="fill: rgb(118, 42, 131);"/><rect x="670.1410788381743" y="216.34146341463418" width="32.6390041493776" height="48.29268292682927" style="fill: rgb(118, 42, 131);"/><rect x="706.4066390041494" y="216.34146341463418" width="32.6390041493776" height="48.29268292682927" style="fill: rgb(118, 42, 131);"/><rect x="742.6721991701245" y="216.34146341463418" width="32.6390041493776" height="48.29268292682927" style="fill: rgb(118, 42, 131);"/><rect x="778.9377593360996" y="216.34146341463418" width="32.6390041493776" height="48.29268292682927" style="fill: rgb(118, 42, 131);"/><rect x="815.2033195020747" y="216.34146341463418" width="32.6390041493776" height="48.29268292682927" style="fill: rgb(118, 42, 131);"/><rect x="851.4688796680498" y="216.34146341463418" width="32.6390041493776" height="48.29268292682927" style="fill: rgb(118, 42, 131);"/><rect x="887.7344398340249" y="216.34146341463418" width="32.6390041493776" height="48.29268292682927" style="fill: rgb(118, 42, 131);"/></svg>