<svg viewBox="0,0,954,500" xmlns="http://www.w3.org/2000/svg" xmlns:xlink="http://www.w3.org/1999/xlink"><g transform="translate(0,450)" fill="none" font-size="10" font-family="sans-serif" text-anchor="middle"><path class="domain" stroke="currentColor" d="M50.5,0.5H924.5"/><g class="tick" opacity="1" transform="translate(50.5,0)"><line stroke="currentColor" y2="6"/><text fill="currentColor" y="9" dy="0.71em">12 PM</text></g><g class="tick" opacity="1" transform="translate(159.75,0)"><line stroke="currentColor" y2="6"/><text fill="currentColor" y="9" dy="0.71em">12:15</text></g><g class="tick" opacity="1" transform="translate(269,0)"><line stroke="currentColor" y2="6"/><text fill="currentColor" y="9" dy="0.71em">12:30</text></g><g class="tick" opacity="1" transform="translate(378.25,0)"><line stroke="currentColor" y2="6"/><text fill="currentColor" y="9" dy="0.71em">12:45</text></g><g class="tick" opacity="1" transform="translate(487.5,0)"><line stroke="currentColor" y2="6"/><text fill="currentColor" y="9" dy="0.71em">01 PM</text></g><g class="tick" opacity="1" transform="translate(596.75,0)"><line stroke="currentColor" y2="6"/><text fill="currentColor" y="9" dy="0.71em">01:15</text></g><g class="tick" opacity="1" transform="translate(706,0)"><line stroke="currentColor" y2="6"/><text fill="currentColor" y="9" dy="0.71em">01:30</text></g><g class="tick" opacity="1" transform="translate(815.25,0)"><line stroke="currentColor" y2="6"/><text fill="currentColor" y="9" dy="0.71em">01:45</text></g><g class="tick" opacity="1" transform="translate(924.5,0)"><line stroke="currentColor" y2="6"/><text fill="currentColor" y="9" dy="0.71em">02 PM</text></g></g><g transform="translate(50,0)" fill="none" font-size="10" font-family="sans-serif" text-anchor="end"><g class="tick" opacity="1" transform="translate(0,450.5)"><line stroke="currentColor" x2="-6"/><text fill="currentColor" x="-9" dy="0.32em">0</text></g><g class="tick" opacity="1" transform="translate(0,408.5)"><line stroke="currentColor" x2="-6"/><text fill="currentColor" x="-9" dy="0.32em">10</text></g><g class="tick" opacity="1" transform="translate(0,366.5)"><line stroke="currentColor" x2="-6"/><text fill="currentColor" x="-9" dy="0.32em">20</text></g><g class="tick" opacity="1" transform="translate(0,324.5)"><line stroke="currentColor" x2="-6"/><text fill="currentColor" x="-9" dy="0.32em">30</text></g><g class="tick" opacity="1" transform="translate(0,282.5)"><line stroke="currentColor" x2="-6"/><text fill="currentColor" x="-9" dy="0.32em">40</text></g><g class="tick" opacity="1" transform="translate(0,240.5)"><line stroke="currentColor" x2="-6"/><text fill="currentColor" x="-9" dy="0.32em">50</text></g><g class="tick" opacity="1" transform="translate(0,198.5)"><line stroke="currentColor" x2="-6"/><text fill="currentColor" x="-9" dy="0.32em">60</text></g><g class="tick" opacity="1" transform="translate(0,156.50000000000003)"><line stroke="currentColor" x2="-6"/><text fill="currentColor" x="-9" dy="0.32em">70</text></g><g class="tick" opacity="1" transform="translate(0,114.49999999999999)"><line stroke="currentColor" x2="-6"/><text fill="currentColor" x="-9" dy="0.32em">80</text></g><g class="tick" opacity="1" transform="translate(0,72.5)"><line stroke="currentColor" x2="-6"/><text fill="currentColor" x="-9" dy="0.32em">90</text></g><g class="tick" opacity="1" transform="translate(0,30.5)"><line stroke="currentColor" x2="-6"/><text fill="currentColor" x="-9" dy="0.32em">100</text><text fill="currentColor" x="3" dy="0.32em" text-anchor="start" font-weight="bold"/></g></g><text transform="translate(477 ,490)" style="text-anchor: middle;">Time</text><text transform="rotate(-90)" y="0" x="-250" dy="1em" style="text-anchor: middle;">Heart Rate (BPM)</text><path fill="none" stroke="#377eb8" stroke-width="3" stroke-linejoin="round" stroke-linecap="round" d="M50,126.6L51.82083333333333,118.19999999999999L53.641666666666666,118.19999999999999L55.4625,118.19999999999999L57.28333333333334,118.19999999999999L59.10416666666667,126.6L60.925,126.6L62.74583333333334,126.6L64.56666666666666,126.6L66.3875,126.6L68.20833333333333,126.6L70.02916666666667,126.6L71.85,126.6L73.67083333333333,118.19999999999999L75.49166666666666,118.19999999999999L77.3125,118.19999999999999L79.13333333333334,118.19999999999999L80.95416666666667,139.2L82.775,139.2L84.59583333333333,139.2L86.41666666666667,139.2L88.2375,139.2L90.05833333333334,139.2L91.87916666666666,139.2L93.7,139.2L95.52083333333333,113.99999999999999L97.34166666666667,113.99999999999999L99.1625,113.99999999999999L100.98333333333333,113.99999999999999L102.80416666666667,122.39999999999999L104.625,122.39999999999999L106.44583333333334,122.39999999999999L108.26666666666667,122.39999999999999L110.0875,118.19999999999999L111.90833333333333,118.19999999999999L113.72916666666667,118.19999999999999L115.55,118.19999999999999L117.37083333333334,109.79999999999997L119.19166666666666,109.79999999999997L121.0125,109.79999999999997L122.83333333333333,109.79999999999997L124.65416666666667,122.39999999999999L126.475,122.39999999999999L128.29583333333335,122.39999999999999L130.11666666666665,122.39999999999999L131.9375,130.8L133.75833333333335,130.8L135.57916666666665,130.8L137.4,130.8L139.22083333333333,135L141.04166666666669,135L142.8625,135L144.68333333333334,135L146.50416666666666,130.8L148.325,130.8L150.14583333333331,130.8L151.96666666666667,130.8L153.7875,130.8L155.60833333333335,130.8L157.42916666666665,130.8L159.25,130.8L161.07083333333333,135L162.89166666666668,135L164.7125,135L166.53333333333333,135L168.35416666666666,135L170.175,135L171.99583333333334,135L173.81666666666666,135L175.6375,122.39999999999999L177.45833333333331,122.39999999999999L179.27916666666667,122.39999999999999L181.1,122.39999999999999L182.92083333333332,113.99999999999999L184.74166666666667,113.99999999999999L186.5625,113.99999999999999L188.38333333333333,113.99999999999999L190.20416666666668,113.99999999999999L192.025,113.99999999999999L193.84583333333333,113.99999999999999L195.66666666666669,113.99999999999999L197.4875,143.4L199.30833333333334,143.4L201.12916666666666,143.4L202.95,143.4L204.77083333333331,147.60000000000002L206.59166666666667,147.60000000000002L208.4125,147.60000000000002L210.23333333333332,147.60000000000002L212.05416666666667,126.6L213.875,126.6L215.69583333333333,126.6L217.51666666666668,126.6L219.3375,135L221.15833333333333,135L222.97916666666669,135L224.8,135L226.62083333333334,97.20000000000002L228.44166666666666,97.20000000000002L230.2625,97.20000000000002L232.08333333333331,97.20000000000002L233.90416666666667,59.39999999999998L235.725,59.39999999999998L237.54583333333332,59.39999999999998L239.36666666666667,59.39999999999998L241.1875,76.19999999999999L243.00833333333333,76.19999999999999L244.82916666666668,76.19999999999999L246.65,76.19999999999999L248.47083333333333,151.8L250.29166666666669,151.8L252.1125,151.8L253.93333333333334,151.8L255.75416666666666,160.20000000000002L257.575,160.20000000000002L259.3958333333333,160.20000000000002L261.2166666666667,160.20000000000002L263.0375,189.6L264.8583333333333,189.6L266.6791666666667,189.6L268.5,189.6L270.3208333333333,193.8L272.14166666666665,193.8L273.9625,193.8L275.78333333333336,193.8L277.6041666666667,193.8L279.425,193.8L281.24583333333334,193.8L283.06666666666666,193.8L284.8875,189.6L286.7083333333333,189.6L288.52916666666664,189.6L290.35,189.6L292.17083333333335,168.59999999999997L293.9916666666667,168.59999999999997L295.8125,168.59999999999997L297.6333333333333,168.59999999999997L299.45416666666665,147.60000000000002L301.275,147.60000000000002L303.09583333333336,147.60000000000002L304.9166666666667,147.60000000000002L306.7375,160.20000000000002L308.55833333333334,160.20000000000002L310.37916666666666,160.20000000000002L312.2,160.20000000000002L314.0208333333333,160.20000000000002L315.84166666666664,160.20000000000002L317.6625,160.20000000000002L319.48333333333335,160.20000000000002L321.3041666666667,130.8L323.125,130.8L324.9458333333333,130.8L326.76666666666665,130.8L328.5875,172.8L330.40833333333336,172.8L332.2291666666667,172.8L334.05,172.8L335.87083333333334,193.8L337.69166666666666,193.8L339.5125,193.8L341.3333333333333,193.8L343.15416666666664,202.2L344.975,202.2L346.79583333333335,202.2L348.6166666666667,202.2L350.4375,198L352.2583333333333,198L354.07916666666665,198L355.9,198L357.72083333333336,198L359.5416666666667,198L361.3625,198L363.18333333333334,198L365.00416666666666,185.4L366.825,185.4L368.6458333333333,185.4L370.46666666666664,185.4L372.2875,177L374.10833333333335,177L375.9291666666667,177L377.75,177L379.5708333333333,168.59999999999997L381.39166666666665,168.59999999999997L383.2125,168.59999999999997L385.03333333333336,168.59999999999997L386.8541666666667,168.59999999999997L388.675,168.59999999999997L390.49583333333334,168.59999999999997L392.31666666666666,168.59999999999997L394.1375,135L395.9583333333333,135L397.77916666666664,135L399.6,135L401.42083333333335,109.79999999999997L403.2416666666667,109.79999999999997L405.0625,109.79999999999997L406.8833333333333,109.79999999999997L408.70416666666665,93.00000000000001L410.525,93.00000000000001L412.34583333333336,93.00000000000001L414.1666666666667,93.00000000000001L415.9875,101.4L417.80833333333334,101.4L419.62916666666666,101.4L421.45,101.4L423.2708333333333,80.4L425.09166666666664,80.4L426.9125,80.4L428.73333333333335,80.4L430.5541666666667,109.79999999999997L432.375,109.79999999999997L434.1958333333333,109.79999999999997L436.01666666666665,109.79999999999997L437.8375,113.99999999999999L439.65833333333336,113.99999999999999L441.4791666666667,113.99999999999999L443.3,113.99999999999999L445.12083333333334,126.6L446.94166666666666,126.6L448.7625,126.6L450.5833333333333,126.6L452.40416666666664,164.39999999999998L454.225,164.39999999999998L456.04583333333335,164.39999999999998L457.8666666666667,164.39999999999998L459.6875,118.19999999999999L461.5083333333333,118.19999999999999L463.32916666666665,118.19999999999999L465.15,118.19999999999999L466.97083333333336,97.20000000000002L468.7916666666667,97.20000000000002L470.6125,97.20000000000002L472.43333333333334,97.20000000000002L474.25416666666666,126.6L476.075,126.6L477.8958333333333,126.6L479.71666666666664,126.6L481.5375,122.39999999999999L483.35833333333335,122.39999999999999L485.1791666666667,122.39999999999999L487,122.39999999999999L488.8208333333333,109.79999999999997L490.64166666666665,109.79999999999997L492.4625,109.79999999999997L494.2833333333333,109.79999999999997L496.10416666666663,97.20000000000002L497.92499999999995,97.20000000000002L499.7458333333333,97.20000000000002L501.5666666666667,97.20000000000002L503.38750000000005,93.00000000000001L505.20833333333337,93.00000000000001L507.0291666666667,93.00000000000001L508.85,93.00000000000001L510.67083333333335,88.80000000000001L512.4916666666667,88.80000000000001L514.3125,88.80000000000001L516.1333333333333,88.80000000000001L517.9541666666667,97.20000000000002L519.775,97.20000000000002L521.5958333333333,97.20000000000002L523.4166666666666,97.20000000000002L525.2375,135L527.0583333333333,135L528.8791666666667,135L530.7,135L532.5208333333334,118.19999999999999L534.3416666666667,118.19999999999999L536.1625,118.19999999999999L537.9833333333333,118.19999999999999L539.8041666666667,101.4L541.625,101.4L543.4458333333333,101.4L545.2666666666667,101.4L547.0875,118.19999999999999L548.9083333333333,118.19999999999999L550.7291666666666,118.19999999999999L552.55,118.19999999999999L554.3708333333333,113.99999999999999L556.1916666666667,113.99999999999999L558.0125,113.99999999999999L559.8333333333334,113.99999999999999L561.6541666666667,122.39999999999999L563.475,122.39999999999999L565.2958333333333,122.39999999999999L567.1166666666667,122.39999999999999L568.9375,126.6L570.7583333333333,126.6L572.5791666666667,126.6L574.4,126.6L576.2208333333333,135L578.0416666666666,135L579.8625,135L581.6833333333333,135L583.5041666666667,126.6L585.325,126.6L587.1458333333334,126.6L588.9666666666667,126.6L590.7875,76.19999999999999L592.6083333333333,76.19999999999999L594.4291666666667,76.19999999999999L596.25,76.19999999999999L598.0708333333333,55.200000000000024L599.8916666666667,55.200000000000024L601.7125,55.200000000000024L603.5333333333333,55.200000000000024L605.3541666666666,42.60000000000001L607.175,42.60000000000001L608.9958333333333,42.60000000000001L610.8166666666667,42.60000000000001L612.6375,42.60000000000001L614.4583333333334,42.60000000000001L616.2791666666667,42.60000000000001L618.1,42.60000000000001L619.9208333333333,93.00000000000001L621.7416666666667,93.00000000000001L623.5625,93.00000000000001L625.3833333333333,93.00000000000001L627.2041666666667,118.19999999999999L629.025,118.19999999999999L630.8458333333333,118.19999999999999L632.6666666666666,118.19999999999999L634.4875,130.8L636.3083333333333,130.8L638.1291666666667,130.8L639.95,130.8L641.7708333333334,135L643.5916666666667,135L645.4125,135L647.2333333333333,135L649.0541666666667,139.2L650.875,139.2L652.6958333333333,139.2L654.5166666666667,139.2L656.3375,139.2L658.1583333333333,139.2L659.9791666666666,139.2L661.8,139.2L663.6208333333333,135L665.4416666666667,135L667.2625,135L669.0833333333334,135L670.9041666666667,130.8L672.725,130.8L674.5458333333333,130.8L676.3666666666667,130.8L678.1875,109.79999999999997L680.0083333333333,109.79999999999997L681.8291666666667,109.79999999999997L683.65,109.79999999999997L685.4708333333333,105.60000000000002L687.2916666666666,105.60000000000002L689.1125,105.60000000000002L690.9333333333333,105.60000000000002L692.7541666666667,113.99999999999999L694.575,113.99999999999999L696.3958333333334,113.99999999999999L698.2166666666667,113.99999999999999L700.0375,109.79999999999997L701.8583333333333,109.79999999999997L703.6791666666667,109.79999999999997L705.5,109.79999999999997L707.3208333333333,105.60000000000002L709.1416666666667,105.60000000000002L710.9625,105.60000000000002L712.7833333333333,105.60000000000002L714.6041666666666,97.20000000000002L716.425,97.20000000000002L718.2458333333333,97.20000000000002L720.0666666666667,97.20000000000002L721.8875,93.00000000000001L723.7083333333334,93.00000000000001L725.5291666666667,93.00000000000001L727.35,93.00000000000001L729.1708333333333,97.20000000000002L730.9916666666667,97.20000000000002L732.8125,97.20000000000002L734.6333333333333,97.20000000000002L736.4541666666667,101.4L738.275,101.4L740.0958333333333,101.4L741.9166666666666,101.4L743.7375,105.60000000000002L745.5583333333333,105.60000000000002L747.3791666666667,105.60000000000002L749.2,105.60000000000002L751.0208333333334,122.39999999999999L752.8416666666667,122.39999999999999L754.6625,122.39999999999999L756.4833333333333,122.39999999999999L758.3041666666667,113.99999999999999L760.125,113.99999999999999L761.9458333333333,113.99999999999999L763.7666666666667,113.99999999999999L765.5875,105.60000000000002L767.4083333333333,105.60000000000002L769.2291666666666,105.60000000000002L771.05,105.60000000000002L772.8708333333333,109.79999999999997L774.6916666666667,109.79999999999997L776.5125,109.79999999999997L778.3333333333334,109.79999999999997L780.1541666666667,109.79999999999997L781.975,109.79999999999997L783.7958333333333,109.79999999999997L785.6166666666667,109.79999999999997L787.4375,101.4L789.2583333333333,101.4L791.0791666666667,101.4L792.9,101.4L794.7208333333333,97.20000000000002L796.5416666666666,97.20000000000002L798.3625,97.20000000000002L800.1833333333333,97.20000000000002L802.0041666666667,93.00000000000001L803.825,93.00000000000001L805.6458333333334,93.00000000000001L807.4666666666667,93.00000000000001L809.2875,105.60000000000002L811.1083333333333,105.60000000000002L812.9291666666667,105.60000000000002L814.75,105.60000000000002L816.5708333333333,139.2L818.3916666666667,139.2L820.2125,139.2L822.0333333333333,139.2L823.8541666666666,118.19999999999999L825.675,118.19999999999999L827.4958333333333,118.19999999999999L829.3166666666667,118.19999999999999L831.1375,118.19999999999999L832.9583333333334,118.19999999999999L834.7791666666667,118.19999999999999L836.6,118.19999999999999L838.4208333333333,113.99999999999999L840.2416666666667,113.99999999999999L842.0625,113.99999999999999L843.8833333333333,113.99999999999999L845.7041666666667,109.79999999999997L847.525,109.79999999999997L849.3458333333333,109.79999999999997L851.1666666666666,109.79999999999997L852.9875,113.99999999999999L854.8083333333333,113.99999999999999L856.6291666666667,113.99999999999999L858.45,113.99999999999999L860.2708333333334,118.19999999999999L862.0916666666667,118.19999999999999L863.9125,118.19999999999999L865.7333333333333,118.19999999999999L867.5541666666667,113.99999999999999L869.375,113.99999999999999L871.1958333333333,113.99999999999999L873.0166666666667,113.99999999999999L874.8375,101.4L876.6583333333333,101.4L878.4791666666666,101.4L880.3,101.4L882.1208333333333,88.80000000000001L883.9416666666667,88.80000000000001L885.7625,88.80000000000001L887.5833333333334,88.80000000000001L889.4041666666667,84.6L891.225,84.6L893.0458333333333,84.6L894.8666666666667,84.6L896.6875,84.6L898.5083333333333,84.6L900.3291666666667,84.6L902.15,84.6L903.9708333333333,93.00000000000001L905.7916666666666,93.00000000000001L907.6125,93.00000000000001L909.4333333333333,93.00000000000001L911.2541666666667,34.2L913.075,34.2L914.8958333333334,34.2L916.7166666666667,34.2L918.5375,34.2L920.3583333333333,34.2L922.1791666666667,34.2L924,34.2"/><line x1="246.65" y1="29.200000000000003" x2="246.65" y2="450" stroke="#e41a1c" stroke-width="2.5" stroke-linejoin="round" stroke-linecap="round"/><line x1="268.5" y1="29.200000000000003" x2="268.5" y2="450" stroke="#e41a1c" stroke-width="2.5" stroke-linejoin="round" stroke-linecap="round"/><text x="226.65" y="19.200000000000003" text-anchor="middle" style="font-size: 16px; fill: rgb(0, 0, 0);">Survey Sent</text><text x="288.5" y="19.200000000000003" text-anchor="middle" style="font-size: 16px; fill: rgb(0, 0, 0);">Survey Received</text></svg>