<svg viewBox="0,0,954,500" xmlns="http://www.w3.org/2000/svg" xmlns:xlink="http://www.w3.org/1999/xlink"><g transform="translate(0,450)" fill="none" font-size="10" font-family="sans-serif" text-anchor="middle"><path class="domain" stroke="currentColor" d="M50.5,0.5H924.5"/><g class="tick" opacity="1" transform="translate(50.5,0)"><line stroke="currentColor" y2="6"/><text fill="currentColor" y="9" dy="0.71em">12 PM</text></g><g class="tick" opacity="1" transform="translate(159.75,0)"><line stroke="currentColor" y2="6"/><text fill="currentColor" y="9" dy="0.71em">12:15</text></g><g class="tick" opacity="1" transform="translate(269,0)"><line stroke="currentColor" y2="6"/><text fill="currentColor" y="9" dy="0.71em">12:30</text></g><g class="tick" opacity="1" transform="translate(378.25,0)"><line stroke="currentColor" y2="6"/><text fill="currentColor" y="9" dy="0.71em">12:45</text></g><g class="tick" opacity="1" transform="translate(487.5,0)"><line stroke="currentColor" y2="6"/><text fill="currentColor" y="9" dy="0.71em">01 PM</text></g><g class="tick" opacity="1" transform="translate(596.75,0)"><line stroke="currentColor" y2="6"/><text fill="currentColor" y="9" dy="0.71em">01:15</text></g><g class="tick" opacity="1" transform="translate(706,0)"><line stroke="currentColor" y2="6"/><text fill="currentColor" y="9" dy="0.71em">01:30</text></g><g class="tick" opacity="1" transform="translate(815.25,0)"><line stroke="currentColor" y2="6"/><text fill="currentColor" y="9" dy="0.71em">01:45</text></g><g class="tick" opacity="1" transform="translate(924.5,0)"><line stroke="currentColor" y2="6"/><text fill="currentColor" y="9" dy="0.71em">02 PM</text></g></g><g transform="translate(50,0)" fill="none" font-size="10" font-family="sans-serif" text-anchor="end"><g class="tick" opacity="1" transform="translate(0,450.5)"><line stroke="currentColor" x2="-6"/><text fill="currentColor" x="-9" dy="0.32em">0</text></g><g class="tick" opacity="1" transform="translate(0,415.5)"><line stroke="currentColor" x2="-6"/><text fill="currentColor" x="-9" dy="0.32em">10</text></g><g class="tick" opacity="1" transform="translate(0,380.5)"><line stroke="currentColor" x2="-6"/><text fill="currentColor" x="-9" dy="0.32em">20</text></g><g class="tick" opacity="1" transform="translate(0,345.5)"><line stroke="currentColor" x2="-6"/><text fill="currentColor" x="-9" dy="0.32em">30</text></g><g class="tick" opacity="1" transform="translate(0,310.50000000000006)"><line stroke="currentColor" x2="-6"/><text fill="currentColor" x="-9" dy="0.32em">40</text></g><g class="tick" opacity="1" transform="translate(0,275.49999999999994)"><line stroke="currentColor" x2="-6"/><text fill="currentColor" x="-9" dy="0.32em">50</text></g><g class="tick" opacity="1" transform="translate(0,240.5)"><line stroke="currentColor" x2="-6"/><text fill="currentColor" x="-9" dy="0.32em">60</text></g><g class="tick" opacity="1" transform="translate(0,205.49999999999997)"><line stroke="currentColor" x2="-6"/><text fill="currentColor" x="-9" dy="0.32em">70</text></g><g class="tick" opacity="1" transform="translate(0,170.50000000000003)"><line stroke="currentColor" x2="-6"/><text fill="currentColor" x="-9" dy="0.32em">80</text></g><g class="tick" opacity="1" transform="translate(0,135.5)"><line stroke="currentColor" x2="-6"/><text fill="currentColor" x="-9" dy="0.32em">90</text></g><g class="tick" opacity="1" transform="translate(0,100.49999999999999)"><line stroke="currentColor" x2="-6"/><text fill="currentColor" x="-9" dy="0.32em">100</text></g><g class="tick" opacity="1" transform="translate(0,65.50000000000001)"><line stroke="currentColor" x2="-6"/><text fill="currentColor" x="-9" dy="0.32em">110</text></g><g class="tick" opacity="1" transform="translate(0,30.5)"><line stroke="currentColor" x2="-6"/><text fill="currentColor" x="-9" dy="0.32em">120</text><text fill="currentColor" x="3" dy="0.32em" text-anchor="start" font-weight="bold"/></g></g><text transform="translate(477 ,490)" style="text-anchor: middle;">Time</text><text transform="rotate(-90)" y="0" x="-250" dy="1em" style="text-anchor: middle;">Heart Rate (BPM)</text><path fill="none" stroke="#377eb8" stroke-width="3" stroke-linejoin="round" stroke-linecap="round" d="M50,156.00000000000003L51.82083333333333,131.5L53.641666666666666,131.5L55.4625,131.5L57.28333333333334,131.5L59.10416666666667,177L60.925,177L62.74583333333334,177L64.56666666666666,177L66.3875,166.49999999999997L68.20833333333333,166.49999999999997L70.02916666666667,166.49999999999997L71.85,166.49999999999997L73.67083333333333,173.5L75.49166666666666,173.5L77.3125,173.5L79.13333333333334,173.5L80.95416666666667,170.00000000000003L82.775,170.00000000000003L84.59583333333333,170.00000000000003L86.41666666666667,170.00000000000003L88.2375,103.50000000000001L90.05833333333334,103.50000000000001L91.87916666666666,103.50000000000001L93.7,103.50000000000001L95.52083333333333,113.99999999999999L97.34166666666667,113.99999999999999L99.1625,113.99999999999999L100.98333333333333,113.99999999999999L102.80416666666667,163L104.625,163L106.44583333333334,163L108.26666666666667,163L110.0875,138.5L111.90833333333333,138.5L113.72916666666667,138.5L115.55,138.5L117.37083333333334,149L119.19166666666666,149L121.0125,149L122.83333333333333,149L124.65416666666667,159.5L126.475,159.5L128.29583333333335,159.5L130.11666666666665,159.5L131.9375,156.00000000000003L133.75833333333335,156.00000000000003L135.57916666666665,156.00000000000003L137.4,156.00000000000003L139.22083333333333,131.5L141.04166666666669,131.5L142.8625,131.5L144.68333333333334,131.5L146.50416666666666,135L148.325,135L150.14583333333331,135L151.96666666666667,135L153.7875,138.5L155.60833333333335,138.5L157.42916666666665,138.5L159.25,138.5L161.07083333333333,159.5L162.89166666666668,159.5L164.7125,159.5L166.53333333333333,159.5L168.35416666666666,159.5L170.175,159.5L171.99583333333334,159.5L173.81666666666666,159.5L175.6375,145.5L177.45833333333331,145.5L179.27916666666667,145.5L181.1,145.5L182.92083333333332,149L184.74166666666667,149L186.5625,149L188.38333333333333,149L190.20416666666668,103.50000000000001L192.025,103.50000000000001L193.84583333333333,103.50000000000001L195.66666666666669,103.50000000000001L197.4875,131.5L199.30833333333334,131.5L201.12916666666666,131.5L202.95,131.5L204.77083333333331,142.00000000000003L206.59166666666667,142.00000000000003L208.4125,142.00000000000003L210.23333333333332,142.00000000000003L212.05416666666667,142.00000000000003L213.875,142.00000000000003L215.69583333333333,142.00000000000003L217.51666666666668,142.00000000000003L219.3375,107L221.15833333333333,107L222.97916666666669,107L224.8,107L226.62083333333334,121L228.44166666666666,121L230.2625,121L232.08333333333331,121L233.90416666666667,138.5L235.725,138.5L237.54583333333332,138.5L239.36666666666667,138.5L241.1875,180.49999999999997L243.00833333333333,180.49999999999997L244.82916666666668,180.49999999999997L246.65,180.49999999999997L248.47083333333333,184L250.29166666666669,184L252.1125,184L253.93333333333334,184L255.75416666666666,145.5L257.575,145.5L259.3958333333333,145.5L261.2166666666667,145.5L263.0375,173.5L264.8583333333333,173.5L266.6791666666667,173.5L268.5,173.5L270.3208333333333,166.49999999999997L272.14166666666665,166.49999999999997L273.9625,166.49999999999997L275.78333333333336,166.49999999999997L277.6041666666667,163L279.425,163L281.24583333333334,163L283.06666666666666,163L284.8875,135L286.7083333333333,135L288.52916666666664,135L290.35,135L292.17083333333335,113.99999999999999L293.9916666666667,113.99999999999999L295.8125,113.99999999999999L297.6333333333333,113.99999999999999L299.45416666666665,127.99999999999997L301.275,127.99999999999997L303.09583333333336,127.99999999999997L304.9166666666667,127.99999999999997L306.7375,85.99999999999999L308.55833333333334,85.99999999999999L310.37916666666666,85.99999999999999L312.2,85.99999999999999L314.0208333333333,99.99999999999999L315.84166666666664,99.99999999999999L317.6625,99.99999999999999L319.48333333333335,99.99999999999999L321.3041666666667,163L323.125,163L324.9458333333333,163L326.76666666666665,163L328.5875,152.49999999999997L330.40833333333336,152.49999999999997L332.2291666666667,152.49999999999997L334.05,152.49999999999997L335.87083333333334,131.5L337.69166666666666,131.5L339.5125,131.5L341.3333333333333,131.5L343.15416666666664,127.99999999999997L344.975,127.99999999999997L346.79583333333335,127.99999999999997L348.6166666666667,127.99999999999997L350.4375,131.5L352.2583333333333,131.5L354.07916666666665,131.5L355.9,131.5L357.72083333333336,127.99999999999997L359.5416666666667,127.99999999999997L361.3625,127.99999999999997L363.18333333333334,127.99999999999997L365.00416666666666,121L366.825,121L368.6458333333333,121L370.46666666666664,121L372.2875,85.99999999999999L374.10833333333335,85.99999999999999L375.9291666666667,85.99999999999999L377.75,85.99999999999999L379.5708333333333,124.49999999999999L381.39166666666665,124.49999999999999L383.2125,124.49999999999999L385.03333333333336,124.49999999999999L386.8541666666667,124.49999999999999L388.675,124.49999999999999L390.49583333333334,124.49999999999999L392.31666666666666,124.49999999999999L394.1375,110.5L395.9583333333333,110.5L397.77916666666664,110.5L399.6,110.5L401.42083333333335,103.50000000000001L403.2416666666667,103.50000000000001L405.0625,103.50000000000001L406.8833333333333,103.50000000000001L408.70416666666665,103.50000000000001L410.525,103.50000000000001L412.34583333333336,103.50000000000001L414.1666666666667,103.50000000000001L415.9875,79.00000000000001L417.80833333333334,79.00000000000001L419.62916666666666,79.00000000000001L421.45,79.00000000000001L423.2708333333333,47.499999999999986L425.09166666666664,47.499999999999986L426.9125,47.499999999999986L428.73333333333335,47.499999999999986L430.5541666666667,54.50000000000001L432.375,54.50000000000001L434.1958333333333,54.50000000000001L436.01666666666665,54.50000000000001L437.8375,54.50000000000001L439.65833333333336,54.50000000000001L441.4791666666667,54.50000000000001L443.3,54.50000000000001L445.12083333333334,61.49999999999998L446.94166666666666,61.49999999999998L448.7625,61.49999999999998L450.5833333333333,61.49999999999998L452.40416666666664,82.5L454.225,82.5L456.04583333333335,82.5L457.8666666666667,82.5L459.6875,61.49999999999998L461.5083333333333,61.49999999999998L463.32916666666665,61.49999999999998L465.15,61.49999999999998L466.97083333333336,47.499999999999986L468.7916666666667,47.499999999999986L470.6125,47.499999999999986L472.43333333333334,47.499999999999986L474.25416666666666,61.49999999999998L476.075,61.49999999999998L477.8958333333333,61.49999999999998L479.71666666666664,61.49999999999998L481.5375,57.99999999999999L483.35833333333335,57.99999999999999L485.1791666666667,57.99999999999999L487,57.99999999999999L488.8208333333333,47.499999999999986L490.64166666666665,47.499999999999986L492.4625,47.499999999999986L494.2833333333333,47.499999999999986L496.10416666666663,57.99999999999999L497.92499999999995,57.99999999999999L499.7458333333333,57.99999999999999L501.5666666666667,57.99999999999999L503.38750000000005,57.99999999999999L505.20833333333337,57.99999999999999L507.0291666666667,57.99999999999999L508.85,57.99999999999999L510.67083333333335,61.49999999999998L512.4916666666667,61.49999999999998L514.3125,61.49999999999998L516.1333333333333,61.49999999999998L517.9541666666667,65.00000000000001L519.775,65.00000000000001L521.5958333333333,65.00000000000001L523.4166666666666,65.00000000000001L525.2375,79.00000000000001L527.0583333333333,79.00000000000001L528.8791666666667,79.00000000000001L530.7,79.00000000000001L532.5208333333334,93.00000000000001L534.3416666666667,93.00000000000001L536.1625,93.00000000000001L537.9833333333333,93.00000000000001L539.8041666666667,107L541.625,107L543.4458333333333,107L545.2666666666667,107L547.0875,82.5L548.9083333333333,82.5L550.7291666666666,82.5L552.55,82.5L554.3708333333333,110.5L556.1916666666667,110.5L558.0125,110.5L559.8333333333334,110.5L561.6541666666667,107L563.475,107L565.2958333333333,107L567.1166666666667,107L568.9375,107L570.7583333333333,107L572.5791666666667,107L574.4,107L576.2208333333333,113.99999999999999L578.0416666666666,113.99999999999999L579.8625,113.99999999999999L581.6833333333333,113.99999999999999L583.5041666666667,99.99999999999999L585.325,99.99999999999999L587.1458333333334,99.99999999999999L588.9666666666667,99.99999999999999L590.7875,107L592.6083333333333,107L594.4291666666667,107L596.25,107L598.0708333333333,103.50000000000001L599.8916666666667,103.50000000000001L601.7125,103.50000000000001L603.5333333333333,103.50000000000001L605.3541666666666,110.5L607.175,110.5L608.9958333333333,110.5L610.8166666666667,110.5L612.6375,121L614.4583333333334,121L616.2791666666667,121L618.1,121L619.9208333333333,117.50000000000001L621.7416666666667,117.50000000000001L623.5625,117.50000000000001L625.3833333333333,117.50000000000001L627.2041666666667,103.50000000000001L629.025,103.50000000000001L630.8458333333333,103.50000000000001L632.6666666666666,103.50000000000001L634.4875,110.5L636.3083333333333,110.5L638.1291666666667,110.5L639.95,110.5L641.7708333333334,127.99999999999997L643.5916666666667,127.99999999999997L645.4125,127.99999999999997L647.2333333333333,127.99999999999997L649.0541666666667,135L650.875,135L652.6958333333333,135L654.5166666666667,135L656.3375,131.5L658.1583333333333,131.5L659.9791666666666,131.5L661.8,131.5L663.6208333333333,135L665.4416666666667,135L667.2625,135L669.0833333333334,135L670.9041666666667,135L672.725,135L674.5458333333333,135L676.3666666666667,135L678.1875,135L680.0083333333333,135L681.8291666666667,135L683.65,135L685.4708333333333,138.5L687.2916666666666,138.5L689.1125,138.5L690.9333333333333,138.5L692.7541666666667,135L694.575,135L696.3958333333334,135L698.2166666666667,135L700.0375,131.5L701.8583333333333,131.5L703.6791666666667,131.5L705.5,131.5L707.3208333333333,142.00000000000003L709.1416666666667,142.00000000000003L710.9625,142.00000000000003L712.7833333333333,142.00000000000003L714.6041666666666,145.5L716.425,145.5L718.2458333333333,145.5L720.0666666666667,145.5L721.8875,138.5L723.7083333333334,138.5L725.5291666666667,138.5L727.35,138.5L729.1708333333333,135L730.9916666666667,135L732.8125,135L734.6333333333333,135L736.4541666666667,113.99999999999999L738.275,113.99999999999999L740.0958333333333,113.99999999999999L741.9166666666666,113.99999999999999L743.7375,79.00000000000001L745.5583333333333,79.00000000000001L747.3791666666667,79.00000000000001L749.2,79.00000000000001L751.0208333333334,121L752.8416666666667,121L754.6625,121L756.4833333333333,121L758.3041666666667,113.99999999999999L760.125,113.99999999999999L761.9458333333333,113.99999999999999L763.7666666666667,113.99999999999999L765.5875,103.50000000000001L767.4083333333333,103.50000000000001L769.2291666666666,103.50000000000001L771.05,103.50000000000001L772.8708333333333,124.49999999999999L774.6916666666667,124.49999999999999L776.5125,124.49999999999999L778.3333333333334,124.49999999999999L780.1541666666667,121L781.975,121L783.7958333333333,121L785.6166666666667,121L787.4375,135L789.2583333333333,135L791.0791666666667,135L792.9,135L794.7208333333333,135L796.5416666666666,135L798.3625,135L800.1833333333333,135L802.0041666666667,121L803.825,121L805.6458333333334,121L807.4666666666667,121L809.2875,152.49999999999997L811.1083333333333,152.49999999999997L812.9291666666667,152.49999999999997L814.75,152.49999999999997L816.5708333333333,177L818.3916666666667,177L820.2125,177L822.0333333333333,177L823.8541666666666,180.49999999999997L825.675,180.49999999999997L827.4958333333333,180.49999999999997L829.3166666666667,180.49999999999997L831.1375,177L832.9583333333334,177L834.7791666666667,177L836.6,177L838.4208333333333,170.00000000000003L840.2416666666667,170.00000000000003L842.0625,170.00000000000003L843.8833333333333,170.00000000000003L845.7041666666667,166.49999999999997L847.525,166.49999999999997L849.3458333333333,166.49999999999997L851.1666666666666,166.49999999999997L852.9875,145.5L854.8083333333333,145.5L856.6291666666667,145.5L858.45,145.5L860.2708333333334,156.00000000000003L862.0916666666667,156.00000000000003L863.9125,156.00000000000003L865.7333333333333,156.00000000000003L867.5541666666667,152.49999999999997L869.375,152.49999999999997L871.1958333333333,152.49999999999997L873.0166666666667,152.49999999999997L874.8375,127.99999999999997L876.6583333333333,127.99999999999997L878.4791666666666,127.99999999999997L880.3,127.99999999999997L882.1208333333333,135L883.9416666666667,135L885.7625,135L887.5833333333334,135L889.4041666666667,152.49999999999997L891.225,152.49999999999997L893.0458333333333,152.49999999999997L894.8666666666667,152.49999999999997L896.6875,142.00000000000003L898.5083333333333,142.00000000000003L900.3291666666667,142.00000000000003L902.15,142.00000000000003L903.9708333333333,145.5L905.7916666666666,145.5L907.6125,145.5L909.4333333333333,145.5L911.2541666666667,145.5L913.075,145.5L914.8958333333334,145.5L916.7166666666667,145.5L918.5375,145.5L920.3583333333333,145.5L922.1791666666667,145.5L924,145.5"/><line x1="253.93333333333334" y1="25" x2="253.93333333333334" y2="450" stroke="#e41a1c" stroke-width="2.5" stroke-linejoin="round" stroke-linecap="round"/><line x1="523.4166666666666" y1="25" x2="523.4166666666666" y2="450" stroke="#e41a1c" stroke-width="2.5" stroke-linejoin="round" stroke-linecap="round"/><text x="233.93333333333334" y="15" text-anchor="middle" style="font-size: 16px; fill: rgb(0, 0, 0);">Survey Sent</text><text x="543.4166666666666" y="15" text-anchor="middle" style="font-size: 16px; fill: rgb(0, 0, 0);">Survey Received</text></svg>