<svg viewBox="0,0,954,500" xmlns="http://www.w3.org/2000/svg" xmlns:xlink="http://www.w3.org/1999/xlink"><g transform="translate(0,450)" fill="none" font-size="10" font-family="sans-serif" text-anchor="middle"><path class="domain" stroke="currentColor" d="M50.5,0.5H924.5"/><g class="tick" opacity="1" transform="translate(50.5,0)"><line stroke="currentColor" y2="6"/><text fill="currentColor" y="9" dy="0.71em">12 PM</text></g><g class="tick" opacity="1" transform="translate(159.75,0)"><line stroke="currentColor" y2="6"/><text fill="currentColor" y="9" dy="0.71em">12:15</text></g><g class="tick" opacity="1" transform="translate(269,0)"><line stroke="currentColor" y2="6"/><text fill="currentColor" y="9" dy="0.71em">12:30</text></g><g class="tick" opacity="1" transform="translate(378.25,0)"><line stroke="currentColor" y2="6"/><text fill="currentColor" y="9" dy="0.71em">12:45</text></g><g class="tick" opacity="1" transform="translate(487.5,0)"><line stroke="currentColor" y2="6"/><text fill="currentColor" y="9" dy="0.71em">01 PM</text></g><g class="tick" opacity="1" transform="translate(596.75,0)"><line stroke="currentColor" y2="6"/><text fill="currentColor" y="9" dy="0.71em">01:15</text></g><g class="tick" opacity="1" transform="translate(706,0)"><line stroke="currentColor" y2="6"/><text fill="currentColor" y="9" dy="0.71em">01:30</text></g><g class="tick" opacity="1" transform="translate(815.25,0)"><line stroke="currentColor" y2="6"/><text fill="currentColor" y="9" dy="0.71em">01:45</text></g><g class="tick" opacity="1" transform="translate(924.5,0)"><line stroke="currentColor" y2="6"/><text fill="currentColor" y="9" dy="0.71em">02 PM</text></g></g><g transform="translate(50,0)" fill="none" font-size="10" font-family="sans-serif" text-anchor="end"><g class="tick" opacity="1" transform="translate(0,450.5)"><line stroke="currentColor" x2="-6"/><text fill="currentColor" x="-9" dy="0.32em">0</text></g><g class="tick" opacity="1" transform="translate(0,415.5)"><line stroke="currentColor" x2="-6"/><text fill="currentColor" x="-9" dy="0.32em">10</text></g><g class="tick" opacity="1" transform="translate(0,380.5)"><line stroke="currentColor" x2="-6"/><text fill="currentColor" x="-9" dy="0.32em">20</text></g><g class="tick" opacity="1" transform="translate(0,345.5)"><line stroke="currentColor" x2="-6"/><text fill="currentColor" x="-9" dy="0.32em">30</text></g><g class="tick" opacity="1" transform="translate(0,310.50000000000006)"><line stroke="currentColor" x2="-6"/><text fill="currentColor" x="-9" dy="0.32em">40</text></g><g class="tick" opacity="1" transform="translate(0,275.49999999999994)"><line stroke="currentColor" x2="-6"/><text fill="currentColor" x="-9" dy="0.32em">50</text></g><g class="tick" opacity="1" transform="translate(0,240.5)"><line stroke="currentColor" x2="-6"/><text fill="currentColor" x="-9" dy="0.32em">60</text></g><g class="tick" opacity="1" transform="translate(0,205.49999999999997)"><line stroke="currentColor" x2="-6"/><text fill="currentColor" x="-9" dy="0.32em">70</text></g><g class="tick" opacity="1" transform="translate(0,170.50000000000003)"><line stroke="currentColor" x2="-6"/><text fill="currentColor" x="-9" dy="0.32em">80</text></g><g class="tick" opacity="1" transform="translate(0,135.5)"><line stroke="currentColor" x2="-6"/><text fill="currentColor" x="-9" dy="0.32em">90</text></g><g class="tick" opacity="1" transform="translate(0,100.49999999999999)"><line stroke="currentColor" x2="-6"/><text fill="currentColor" x="-9" dy="0.32em">100</text></g><g class="tick" opacity="1" transform="translate(0,65.50000000000001)"><line stroke="currentColor" x2="-6"/><text fill="currentColor" x="-9" dy="0.32em">110</text></g><g class="tick" opacity="1" transform="translate(0,30.5)"><line stroke="currentColor" x2="-6"/><text fill="currentColor" x="-9" dy="0.32em">120</text><text fill="currentColor" x="3" dy="0.32em" text-anchor="start" font-weight="bold"/></g></g><text transform="translate(477 ,490)" style="text-anchor: middle;">Time</text><text transform="rotate(-90)" y="0" x="-250" dy="1em" style="text-anchor: middle;">Heart Rate (BPM)</text><path fill="none" stroke="#377eb8" stroke-width="3" stroke-linejoin="round" stroke-linecap="round" d="M50,145.5L51.82083333333333,149L53.641666666666666,149L55.4625,149L57.28333333333334,149L59.10416666666667,149L60.925,149L62.74583333333334,149L64.56666666666666,149L66.3875,170.00000000000003L68.20833333333333,170.00000000000003L70.02916666666667,170.00000000000003L71.85,170.00000000000003L73.67083333333333,159.5L75.49166666666666,159.5L77.3125,159.5L79.13333333333334,159.5L80.95416666666667,145.5L82.775,145.5L84.59583333333333,145.5L86.41666666666667,145.5L88.2375,152.49999999999997L90.05833333333334,152.49999999999997L91.87916666666666,152.49999999999997L93.7,152.49999999999997L95.52083333333333,152.49999999999997L97.34166666666667,152.49999999999997L99.1625,152.49999999999997L100.98333333333333,152.49999999999997L102.80416666666667,163L104.625,163L106.44583333333334,163L108.26666666666667,163L110.0875,166.49999999999997L111.90833333333333,166.49999999999997L113.72916666666667,166.49999999999997L115.55,166.49999999999997L117.37083333333334,170.00000000000003L119.19166666666666,170.00000000000003L121.0125,170.00000000000003L122.83333333333333,170.00000000000003L124.65416666666667,173.5L126.475,173.5L128.29583333333335,173.5L130.11666666666665,173.5L131.9375,163L133.75833333333335,163L135.57916666666665,163L137.4,163L139.22083333333333,156.00000000000003L141.04166666666669,156.00000000000003L142.8625,156.00000000000003L144.68333333333334,156.00000000000003L146.50416666666666,170.00000000000003L148.325,170.00000000000003L150.14583333333331,170.00000000000003L151.96666666666667,170.00000000000003L153.7875,159.5L155.60833333333335,159.5L157.42916666666665,159.5L159.25,159.5L161.07083333333333,142.00000000000003L162.89166666666668,142.00000000000003L164.7125,142.00000000000003L166.53333333333333,142.00000000000003L168.35416666666666,152.49999999999997L170.175,152.49999999999997L171.99583333333334,152.49999999999997L173.81666666666666,152.49999999999997L175.6375,152.49999999999997L177.45833333333331,152.49999999999997L179.27916666666667,152.49999999999997L181.1,152.49999999999997L182.92083333333332,159.5L184.74166666666667,159.5L186.5625,159.5L188.38333333333333,159.5L190.20416666666668,156.00000000000003L192.025,156.00000000000003L193.84583333333333,156.00000000000003L195.66666666666669,156.00000000000003L197.4875,156.00000000000003L199.30833333333334,156.00000000000003L201.12916666666666,156.00000000000003L202.95,156.00000000000003L204.77083333333331,156.00000000000003L206.59166666666667,156.00000000000003L208.4125,156.00000000000003L210.23333333333332,156.00000000000003L212.05416666666667,131.5L213.875,131.5L215.69583333333333,131.5L217.51666666666668,131.5L219.3375,159.5L221.15833333333333,159.5L222.97916666666669,159.5L224.8,159.5L226.62083333333334,159.5L228.44166666666666,159.5L230.2625,159.5L232.08333333333331,159.5L233.90416666666667,170.00000000000003L235.725,170.00000000000003L237.54583333333332,170.00000000000003L239.36666666666667,170.00000000000003L241.1875,163L243.00833333333333,163L244.82916666666668,163L246.65,163L248.47083333333333,163L250.29166666666669,163L252.1125,163L253.93333333333334,163L255.75416666666666,159.5L257.575,159.5L259.3958333333333,159.5L261.2166666666667,159.5L263.0375,166.49999999999997L264.8583333333333,166.49999999999997L266.6791666666667,166.49999999999997L268.5,166.49999999999997L270.3208333333333,166.49999999999997L272.14166666666665,166.49999999999997L273.9625,166.49999999999997L275.78333333333336,166.49999999999997L277.6041666666667,159.5L279.425,159.5L281.24583333333334,159.5L283.06666666666666,159.5L284.8875,149L286.7083333333333,149L288.52916666666664,149L290.35,149L292.17083333333335,180.49999999999997L293.9916666666667,180.49999999999997L295.8125,180.49999999999997L297.6333333333333,180.49999999999997L299.45416666666665,180.49999999999997L301.275,180.49999999999997L303.09583333333336,180.49999999999997L304.9166666666667,180.49999999999997L306.7375,149L308.55833333333334,149L310.37916666666666,149L312.2,149L314.0208333333333,145.5L315.84166666666664,145.5L317.6625,145.5L319.48333333333335,145.5L321.3041666666667,156.00000000000003L323.125,156.00000000000003L324.9458333333333,156.00000000000003L326.76666666666665,156.00000000000003L328.5875,159.5L330.40833333333336,159.5L332.2291666666667,159.5L334.05,159.5L335.87083333333334,166.49999999999997L337.69166666666666,166.49999999999997L339.5125,166.49999999999997L341.3333333333333,166.49999999999997L343.15416666666664,156.00000000000003L344.975,156.00000000000003L346.79583333333335,156.00000000000003L348.6166666666667,156.00000000000003L350.4375,166.49999999999997L352.2583333333333,166.49999999999997L354.07916666666665,166.49999999999997L355.9,166.49999999999997L357.72083333333336,170.00000000000003L359.5416666666667,170.00000000000003L361.3625,170.00000000000003L363.18333333333334,170.00000000000003L365.00416666666666,163L366.825,163L368.6458333333333,163L370.46666666666664,163L372.2875,159.5L374.10833333333335,159.5L375.9291666666667,159.5L377.75,159.5L379.5708333333333,152.49999999999997L381.39166666666665,152.49999999999997L383.2125,152.49999999999997L385.03333333333336,152.49999999999997L386.8541666666667,166.49999999999997L388.675,166.49999999999997L390.49583333333334,166.49999999999997L392.31666666666666,166.49999999999997L394.1375,166.49999999999997L395.9583333333333,166.49999999999997L397.77916666666664,166.49999999999997L399.6,166.49999999999997L401.42083333333335,170.00000000000003L403.2416666666667,170.00000000000003L405.0625,170.00000000000003L406.8833333333333,170.00000000000003L408.70416666666665,163L410.525,163L412.34583333333336,163L414.1666666666667,163L415.9875,152.49999999999997L417.80833333333334,152.49999999999997L419.62916666666666,152.49999999999997L421.45,152.49999999999997L423.2708333333333,173.5L425.09166666666664,173.5L426.9125,173.5L428.73333333333335,173.5L430.5541666666667,184L432.375,184L434.1958333333333,184L436.01666666666665,184L437.8375,191L439.65833333333336,191L441.4791666666667,191L443.3,191L445.12083333333334,194.50000000000003L446.94166666666666,194.50000000000003L448.7625,194.50000000000003L450.5833333333333,194.50000000000003L452.40416666666664,187.5L454.225,187.5L456.04583333333335,187.5L457.8666666666667,187.5L459.6875,177L461.5083333333333,177L463.32916666666665,177L465.15,177L466.97083333333336,191L468.7916666666667,191L470.6125,191L472.43333333333334,191L474.25416666666666,187.5L476.075,187.5L477.8958333333333,187.5L479.71666666666664,187.5L481.5375,187.5L483.35833333333335,187.5L485.1791666666667,187.5L487,187.5L488.8208333333333,184L490.64166666666665,184L492.4625,184L494.2833333333333,184L496.10416666666663,184L497.92499999999995,184L499.7458333333333,184L501.5666666666667,184L503.38750000000005,191L505.20833333333337,191L507.0291666666667,191L508.85,191L510.67083333333335,201.5L512.4916666666667,201.5L514.3125,201.5L516.1333333333333,201.5L517.9541666666667,194.50000000000003L519.775,194.50000000000003L521.5958333333333,194.50000000000003L523.4166666666666,194.50000000000003L525.2375,187.5L527.0583333333333,187.5L528.8791666666667,187.5L530.7,187.5L532.5208333333334,194.50000000000003L534.3416666666667,194.50000000000003L536.1625,194.50000000000003L537.9833333333333,194.50000000000003L539.8041666666667,194.50000000000003L541.625,194.50000000000003L543.4458333333333,194.50000000000003L545.2666666666667,194.50000000000003L547.0875,187.5L548.9083333333333,187.5L550.7291666666666,187.5L552.55,187.5L554.3708333333333,191L556.1916666666667,191L558.0125,191L559.8333333333334,191L561.6541666666667,187.5L563.475,187.5L565.2958333333333,187.5L567.1166666666667,187.5L568.9375,191L570.7583333333333,191L572.5791666666667,191L574.4,191L576.2208333333333,187.5L578.0416666666666,187.5L579.8625,187.5L581.6833333333333,187.5L583.5041666666667,184L585.325,184L587.1458333333334,184L588.9666666666667,184L590.7875,180.49999999999997L592.6083333333333,180.49999999999997L594.4291666666667,180.49999999999997L596.25,180.49999999999997L598.0708333333333,180.49999999999997L599.8916666666667,180.49999999999997L601.7125,180.49999999999997L603.5333333333333,180.49999999999997L605.3541666666666,180.49999999999997L607.175,180.49999999999997L608.9958333333333,180.49999999999997L610.8166666666667,180.49999999999997L612.6375,170.00000000000003L614.4583333333334,170.00000000000003L616.2791666666667,170.00000000000003L618.1,170.00000000000003L619.9208333333333,180.49999999999997L621.7416666666667,180.49999999999997L623.5625,180.49999999999997L625.3833333333333,180.49999999999997L627.2041666666667,184L629.025,184L630.8458333333333,184L632.6666666666666,184L634.4875,187.5L636.3083333333333,187.5L638.1291666666667,187.5L639.95,187.5L641.7708333333334,177L643.5916666666667,177L645.4125,177L647.2333333333333,177L649.0541666666667,170.00000000000003L650.875,170.00000000000003L652.6958333333333,170.00000000000003L654.5166666666667,170.00000000000003L656.3375,180.49999999999997L658.1583333333333,180.49999999999997L659.9791666666666,180.49999999999997L661.8,180.49999999999997L663.6208333333333,173.5L665.4416666666667,173.5L667.2625,173.5L669.0833333333334,173.5L670.9041666666667,173.5L672.725,173.5L674.5458333333333,173.5L676.3666666666667,173.5L678.1875,149L680.0083333333333,149L681.8291666666667,149L683.65,149L685.4708333333333,145.5L687.2916666666666,145.5L689.1125,145.5L690.9333333333333,145.5L692.7541666666667,177L694.575,177L696.3958333333334,177L698.2166666666667,177L700.0375,159.5L701.8583333333333,159.5L703.6791666666667,159.5L705.5,159.5L707.3208333333333,145.5L709.1416666666667,145.5L710.9625,145.5L712.7833333333333,145.5L714.6041666666666,117.50000000000001L716.425,117.50000000000001L718.2458333333333,117.50000000000001L720.0666666666667,117.50000000000001L721.8875,85.99999999999999L723.7083333333334,85.99999999999999L725.5291666666667,85.99999999999999L727.35,85.99999999999999L729.1708333333333,79.00000000000001L730.9916666666667,79.00000000000001L732.8125,79.00000000000001L734.6333333333333,79.00000000000001L736.4541666666667,51.00000000000002L738.275,51.00000000000002L740.0958333333333,51.00000000000002L741.9166666666666,51.00000000000002L743.7375,54.50000000000001L745.5583333333333,54.50000000000001L747.3791666666667,54.50000000000001L749.2,54.50000000000001L751.0208333333334,72L752.8416666666667,72L754.6625,72L756.4833333333333,72L758.3041666666667,99.99999999999999L760.125,99.99999999999999L761.9458333333333,99.99999999999999L763.7666666666667,99.99999999999999L765.5875,79.00000000000001L767.4083333333333,79.00000000000001L769.2291666666666,79.00000000000001L771.05,79.00000000000001L772.8708333333333,142.00000000000003L774.6916666666667,142.00000000000003L776.5125,142.00000000000003L778.3333333333334,142.00000000000003L780.1541666666667,89.50000000000003L781.975,89.50000000000003L783.7958333333333,89.50000000000003L785.6166666666667,89.50000000000003L787.4375,82.5L789.2583333333333,82.5L791.0791666666667,82.5L792.9,82.5L794.7208333333333,96.5L796.5416666666666,96.5L798.3625,96.5L800.1833333333333,96.5L802.0041666666667,103.50000000000001L803.825,103.50000000000001L805.6458333333334,103.50000000000001L807.4666666666667,103.50000000000001L809.2875,127.99999999999997L811.1083333333333,127.99999999999997L812.9291666666667,127.99999999999997L814.75,127.99999999999997L816.5708333333333,149L818.3916666666667,149L820.2125,149L822.0333333333333,149L823.8541666666666,184L825.675,184L827.4958333333333,184L829.3166666666667,184L831.1375,156.00000000000003L832.9583333333334,156.00000000000003L834.7791666666667,156.00000000000003L836.6,156.00000000000003L838.4208333333333,152.49999999999997L840.2416666666667,152.49999999999997L842.0625,152.49999999999997L843.8833333333333,152.49999999999997L845.7041666666667,163L847.525,163L849.3458333333333,163L851.1666666666666,163L852.9875,159.5L854.8083333333333,159.5L856.6291666666667,159.5L858.45,159.5L860.2708333333334,145.5L862.0916666666667,145.5L863.9125,145.5L865.7333333333333,145.5L867.5541666666667,131.5L869.375,131.5L871.1958333333333,131.5L873.0166666666667,131.5L874.8375,163L876.6583333333333,163L878.4791666666666,163L880.3,163L882.1208333333333,163L883.9416666666667,163L885.7625,163L887.5833333333334,163L889.4041666666667,173.5L891.225,173.5L893.0458333333333,173.5L894.8666666666667,173.5L896.6875,173.5L898.5083333333333,173.5L900.3291666666667,173.5L902.15,173.5L903.9708333333333,194.50000000000003L905.7916666666666,194.50000000000003L907.6125,194.50000000000003L909.4333333333333,194.50000000000003L911.2541666666667,117.50000000000001L913.075,117.50000000000001L914.8958333333334,117.50000000000001L916.7166666666667,117.50000000000001L918.5375,121L920.3583333333333,121L922.1791666666667,121L924,121"/><line x1="370.46666666666664" y1="25" x2="370.46666666666664" y2="450" stroke="#e41a1c" stroke-width="2.5" stroke-linejoin="round" stroke-linecap="round"/><line x1="698.2166666666667" y1="25" x2="698.2166666666667" y2="450" stroke="#e41a1c" stroke-width="2.5" stroke-linejoin="round" stroke-linecap="round"/><text x="350.46666666666664" y="15" text-anchor="middle" style="font-size: 16px; fill: rgb(0, 0, 0);">Survey Sent</text><text x="718.2166666666667" y="15" text-anchor="middle" style="font-size: 16px; fill: rgb(0, 0, 0);">Survey Received</text></svg>