<svg viewBox="0,0,954,500" xmlns="http://www.w3.org/2000/svg" xmlns:xlink="http://www.w3.org/1999/xlink"><g transform="translate(0,450)" fill="none" font-size="10" font-family="sans-serif" text-anchor="middle"><path class="domain" stroke="currentColor" d="M50.5,0.5H924.5"/><g class="tick" opacity="1" transform="translate(50.5,0)"><line stroke="currentColor" y2="6"/><text fill="currentColor" y="9" dy="0.71em">12 PM</text></g><g class="tick" opacity="1" transform="translate(159.75,0)"><line stroke="currentColor" y2="6"/><text fill="currentColor" y="9" dy="0.71em">12:15</text></g><g class="tick" opacity="1" transform="translate(269,0)"><line stroke="currentColor" y2="6"/><text fill="currentColor" y="9" dy="0.71em">12:30</text></g><g class="tick" opacity="1" transform="translate(378.25,0)"><line stroke="currentColor" y2="6"/><text fill="currentColor" y="9" dy="0.71em">12:45</text></g><g class="tick" opacity="1" transform="translate(487.5,0)"><line stroke="currentColor" y2="6"/><text fill="currentColor" y="9" dy="0.71em">01 PM</text></g><g class="tick" opacity="1" transform="translate(596.75,0)"><line stroke="currentColor" y2="6"/><text fill="currentColor" y="9" dy="0.71em">01:15</text></g><g class="tick" opacity="1" transform="translate(706,0)"><line stroke="currentColor" y2="6"/><text fill="currentColor" y="9" dy="0.71em">01:30</text></g><g class="tick" opacity="1" transform="translate(815.25,0)"><line stroke="currentColor" y2="6"/><text fill="currentColor" y="9" dy="0.71em">01:45</text></g><g class="tick" opacity="1" transform="translate(924.5,0)"><line stroke="currentColor" y2="6"/><text fill="currentColor" y="9" dy="0.71em">02 PM</text></g></g><g transform="translate(50,0)" fill="none" font-size="10" font-family="sans-serif" text-anchor="end"><g class="tick" opacity="1" transform="translate(0,450.5)"><line stroke="currentColor" x2="-6"/><text fill="currentColor" x="-9" dy="0.32em">0</text></g><g class="tick" opacity="1" transform="translate(0,415.5)"><line stroke="currentColor" x2="-6"/><text fill="currentColor" x="-9" dy="0.32em">10</text></g><g class="tick" opacity="1" transform="translate(0,380.5)"><line stroke="currentColor" x2="-6"/><text fill="currentColor" x="-9" dy="0.32em">20</text></g><g class="tick" opacity="1" transform="translate(0,345.5)"><line stroke="currentColor" x2="-6"/><text fill="currentColor" x="-9" dy="0.32em">30</text></g><g class="tick" opacity="1" transform="translate(0,310.50000000000006)"><line stroke="currentColor" x2="-6"/><text fill="currentColor" x="-9" dy="0.32em">40</text></g><g class="tick" opacity="1" transform="translate(0,275.49999999999994)"><line stroke="currentColor" x2="-6"/><text fill="currentColor" x="-9" dy="0.32em">50</text></g><g class="tick" opacity="1" transform="translate(0,240.5)"><line stroke="currentColor" x2="-6"/><text fill="currentColor" x="-9" dy="0.32em">60</text></g><g class="tick" opacity="1" transform="translate(0,205.49999999999997)"><line stroke="currentColor" x2="-6"/><text fill="currentColor" x="-9" dy="0.32em">70</text></g><g class="tick" opacity="1" transform="translate(0,170.50000000000003)"><line stroke="currentColor" x2="-6"/><text fill="currentColor" x="-9" dy="0.32em">80</text></g><g class="tick" opacity="1" transform="translate(0,135.5)"><line stroke="currentColor" x2="-6"/><text fill="currentColor" x="-9" dy="0.32em">90</text></g><g class="tick" opacity="1" transform="translate(0,100.49999999999999)"><line stroke="currentColor" x2="-6"/><text fill="currentColor" x="-9" dy="0.32em">100</text></g><g class="tick" opacity="1" transform="translate(0,65.50000000000001)"><line stroke="currentColor" x2="-6"/><text fill="currentColor" x="-9" dy="0.32em">110</text></g><g class="tick" opacity="1" transform="translate(0,30.5)"><line stroke="currentColor" x2="-6"/><text fill="currentColor" x="-9" dy="0.32em">120</text><text fill="currentColor" x="3" dy="0.32em" text-anchor="start" font-weight="bold"/></g></g><text transform="translate(477 ,490)" style="text-anchor: middle;">Time</text><text transform="rotate(-90)" y="0" x="-250" dy="1em" style="text-anchor: middle;">Heart Rate (BPM)</text><path fill="none" stroke="#377eb8" stroke-width="3" stroke-linejoin="round" stroke-linecap="round" d="M50,138.5L51.82083333333333,145.5L53.641666666666666,145.5L55.4625,145.5L57.28333333333334,145.5L59.10416666666667,138.5L60.925,138.5L62.74583333333334,138.5L64.56666666666666,138.5L66.3875,142.00000000000003L68.20833333333333,142.00000000000003L70.02916666666667,142.00000000000003L71.85,142.00000000000003L73.67083333333333,135L75.49166666666666,135L77.3125,135L79.13333333333334,135L80.95416666666667,135L82.775,135L84.59583333333333,135L86.41666666666667,135L88.2375,145.5L90.05833333333334,145.5L91.87916666666666,145.5L93.7,145.5L95.52083333333333,145.5L97.34166666666667,145.5L99.1625,145.5L100.98333333333333,145.5L102.80416666666667,163L104.625,163L106.44583333333334,163L108.26666666666667,163L110.0875,142.00000000000003L111.90833333333333,142.00000000000003L113.72916666666667,142.00000000000003L115.55,142.00000000000003L117.37083333333334,149L119.19166666666666,149L121.0125,149L122.83333333333333,149L124.65416666666667,149L126.475,149L128.29583333333335,149L130.11666666666665,149L131.9375,142.00000000000003L133.75833333333335,142.00000000000003L135.57916666666665,142.00000000000003L137.4,142.00000000000003L139.22083333333333,149L141.04166666666669,149L142.8625,149L144.68333333333334,149L146.50416666666666,149L148.325,149L150.14583333333331,149L151.96666666666667,149L153.7875,135L155.60833333333335,135L157.42916666666665,135L159.25,135L161.07083333333333,142.00000000000003L162.89166666666668,142.00000000000003L164.7125,142.00000000000003L166.53333333333333,142.00000000000003L168.35416666666666,145.5L170.175,145.5L171.99583333333334,145.5L173.81666666666666,145.5L175.6375,145.5L177.45833333333331,145.5L179.27916666666667,145.5L181.1,145.5L182.92083333333332,131.5L184.74166666666667,131.5L186.5625,131.5L188.38333333333333,131.5L190.20416666666668,163L192.025,163L193.84583333333333,163L195.66666666666669,163L197.4875,163L199.30833333333334,163L201.12916666666666,163L202.95,163L204.77083333333331,156.00000000000003L206.59166666666667,156.00000000000003L208.4125,156.00000000000003L210.23333333333332,156.00000000000003L212.05416666666667,152.49999999999997L213.875,152.49999999999997L215.69583333333333,152.49999999999997L217.51666666666668,152.49999999999997L219.3375,156.00000000000003L221.15833333333333,156.00000000000003L222.97916666666669,156.00000000000003L224.8,156.00000000000003L226.62083333333334,156.00000000000003L228.44166666666666,156.00000000000003L230.2625,156.00000000000003L232.08333333333331,156.00000000000003L233.90416666666667,159.5L235.725,159.5L237.54583333333332,159.5L239.36666666666667,159.5L241.1875,156.00000000000003L243.00833333333333,156.00000000000003L244.82916666666668,156.00000000000003L246.65,156.00000000000003L248.47083333333333,152.49999999999997L250.29166666666669,152.49999999999997L252.1125,152.49999999999997L253.93333333333334,152.49999999999997L255.75416666666666,156.00000000000003L257.575,156.00000000000003L259.3958333333333,156.00000000000003L261.2166666666667,156.00000000000003L263.0375,152.49999999999997L264.8583333333333,152.49999999999997L266.6791666666667,152.49999999999997L268.5,152.49999999999997L270.3208333333333,156.00000000000003L272.14166666666665,156.00000000000003L273.9625,156.00000000000003L275.78333333333336,156.00000000000003L277.6041666666667,152.49999999999997L279.425,152.49999999999997L281.24583333333334,152.49999999999997L283.06666666666666,152.49999999999997L284.8875,159.5L286.7083333333333,159.5L288.52916666666664,159.5L290.35,159.5L292.17083333333335,159.5L293.9916666666667,159.5L295.8125,159.5L297.6333333333333,159.5L299.45416666666665,156.00000000000003L301.275,156.00000000000003L303.09583333333336,156.00000000000003L304.9166666666667,156.00000000000003L306.7375,152.49999999999997L308.55833333333334,152.49999999999997L310.37916666666666,152.49999999999997L312.2,152.49999999999997L314.0208333333333,159.5L315.84166666666664,159.5L317.6625,159.5L319.48333333333335,159.5L321.3041666666667,159.5L323.125,159.5L324.9458333333333,159.5L326.76666666666665,159.5L328.5875,156.00000000000003L330.40833333333336,156.00000000000003L332.2291666666667,156.00000000000003L334.05,156.00000000000003L335.87083333333334,149L337.69166666666666,149L339.5125,149L341.3333333333333,149L343.15416666666664,145.5L344.975,145.5L346.79583333333335,145.5L348.6166666666667,145.5L350.4375,163L352.2583333333333,163L354.07916666666665,163L355.9,163L357.72083333333336,166.49999999999997L359.5416666666667,166.49999999999997L361.3625,166.49999999999997L363.18333333333334,166.49999999999997L365.00416666666666,152.49999999999997L366.825,152.49999999999997L368.6458333333333,152.49999999999997L370.46666666666664,152.49999999999997L372.2875,149L374.10833333333335,149L375.9291666666667,149L377.75,149L379.5708333333333,222.50000000000003L381.39166666666665,222.50000000000003L383.2125,222.50000000000003L385.03333333333336,222.50000000000003L386.8541666666667,208.50000000000003L388.675,208.50000000000003L390.49583333333334,208.50000000000003L392.31666666666666,208.50000000000003L394.1375,201.5L395.9583333333333,201.5L397.77916666666664,201.5L399.6,201.5L401.42083333333335,194.50000000000003L403.2416666666667,194.50000000000003L405.0625,194.50000000000003L406.8833333333333,194.50000000000003L408.70416666666665,163L410.525,163L412.34583333333336,163L414.1666666666667,163L415.9875,145.5L417.80833333333334,145.5L419.62916666666666,145.5L421.45,145.5L423.2708333333333,131.5L425.09166666666664,131.5L426.9125,131.5L428.73333333333335,131.5L430.5541666666667,135L432.375,135L434.1958333333333,135L436.01666666666665,135L437.8375,113.99999999999999L439.65833333333336,113.99999999999999L441.4791666666667,113.99999999999999L443.3,113.99999999999999L445.12083333333334,96.5L446.94166666666666,96.5L448.7625,96.5L450.5833333333333,96.5L452.40416666666664,82.5L454.225,82.5L456.04583333333335,82.5L457.8666666666667,82.5L459.6875,117.50000000000001L461.5083333333333,117.50000000000001L463.32916666666665,117.50000000000001L465.15,117.50000000000001L466.97083333333336,113.99999999999999L468.7916666666667,113.99999999999999L470.6125,113.99999999999999L472.43333333333334,113.99999999999999L474.25416666666666,103.50000000000001L476.075,103.50000000000001L477.8958333333333,103.50000000000001L479.71666666666664,103.50000000000001L481.5375,93.00000000000001L483.35833333333335,93.00000000000001L485.1791666666667,93.00000000000001L487,93.00000000000001L488.8208333333333,93.00000000000001L490.64166666666665,93.00000000000001L492.4625,93.00000000000001L494.2833333333333,93.00000000000001L496.10416666666663,121L497.92499999999995,121L499.7458333333333,121L501.5666666666667,121L503.38750000000005,113.99999999999999L505.20833333333337,113.99999999999999L507.0291666666667,113.99999999999999L508.85,113.99999999999999L510.67083333333335,121L512.4916666666667,121L514.3125,121L516.1333333333333,121L517.9541666666667,117.50000000000001L519.775,117.50000000000001L521.5958333333333,117.50000000000001L523.4166666666666,117.50000000000001L525.2375,96.5L527.0583333333333,96.5L528.8791666666667,96.5L530.7,96.5L532.5208333333334,51.00000000000002L534.3416666666667,51.00000000000002L536.1625,51.00000000000002L537.9833333333333,51.00000000000002L539.8041666666667,65.00000000000001L541.625,65.00000000000001L543.4458333333333,65.00000000000001L545.2666666666667,65.00000000000001L547.0875,85.99999999999999L548.9083333333333,85.99999999999999L550.7291666666666,85.99999999999999L552.55,85.99999999999999L554.3708333333333,65.00000000000001L556.1916666666667,65.00000000000001L558.0125,65.00000000000001L559.8333333333334,65.00000000000001L561.6541666666667,57.99999999999999L563.475,57.99999999999999L565.2958333333333,57.99999999999999L567.1166666666667,57.99999999999999L568.9375,82.5L570.7583333333333,82.5L572.5791666666667,82.5L574.4,82.5L576.2208333333333,61.49999999999998L578.0416666666666,61.49999999999998L579.8625,61.49999999999998L581.6833333333333,61.49999999999998L583.5041666666667,57.99999999999999L585.325,57.99999999999999L587.1458333333334,57.99999999999999L588.9666666666667,57.99999999999999L590.7875,89.50000000000003L592.6083333333333,89.50000000000003L594.4291666666667,89.50000000000003L596.25,89.50000000000003L598.0708333333333,61.49999999999998L599.8916666666667,61.49999999999998L601.7125,61.49999999999998L603.5333333333333,61.49999999999998L605.3541666666666,37.00000000000002L607.175,37.00000000000002L608.9958333333333,37.00000000000002L610.8166666666667,37.00000000000002L612.6375,37.00000000000002L614.4583333333334,37.00000000000002L616.2791666666667,37.00000000000002L618.1,37.00000000000002L619.9208333333333,44L621.7416666666667,44L623.5625,44L625.3833333333333,44L627.2041666666667,65.00000000000001L629.025,65.00000000000001L630.8458333333333,65.00000000000001L632.6666666666666,65.00000000000001L634.4875,72L636.3083333333333,72L638.1291666666667,72L639.95,72L641.7708333333334,93.00000000000001L643.5916666666667,93.00000000000001L645.4125,93.00000000000001L647.2333333333333,93.00000000000001L649.0541666666667,79.00000000000001L650.875,79.00000000000001L652.6958333333333,79.00000000000001L654.5166666666667,79.00000000000001L656.3375,61.49999999999998L658.1583333333333,61.49999999999998L659.9791666666666,61.49999999999998L661.8,61.49999999999998L663.6208333333333,26.500000000000014L665.4416666666667,26.500000000000014L667.2625,26.500000000000014L669.0833333333334,26.500000000000014L670.9041666666667,30L672.725,30L674.5458333333333,30L676.3666666666667,30L678.1875,15.999999999999957L680.0083333333333,15.999999999999957L681.8291666666667,15.999999999999957L683.65,15.999999999999957L685.4708333333333,23.00000000000003L687.2916666666666,23.00000000000003L689.1125,23.00000000000003L690.9333333333333,23.00000000000003L692.7541666666667,15.999999999999957L694.575,15.999999999999957L696.3958333333334,15.999999999999957L698.2166666666667,15.999999999999957L700.0375,33.499999999999986L701.8583333333333,33.499999999999986L703.6791666666667,33.499999999999986L705.5,33.499999999999986L707.3208333333333,107L709.1416666666667,107L710.9625,107L712.7833333333333,107L714.6041666666666,124.49999999999999L716.425,124.49999999999999L718.2458333333333,124.49999999999999L720.0666666666667,124.49999999999999L721.8875,124.49999999999999L723.7083333333334,124.49999999999999L725.5291666666667,124.49999999999999L727.35,124.49999999999999L729.1708333333333,117.50000000000001L730.9916666666667,117.50000000000001L732.8125,117.50000000000001L734.6333333333333,117.50000000000001L736.4541666666667,131.5L738.275,131.5L740.0958333333333,131.5L741.9166666666666,131.5L743.7375,127.99999999999997L745.5583333333333,127.99999999999997L747.3791666666667,127.99999999999997L749.2,127.99999999999997L751.0208333333334,127.99999999999997L752.8416666666667,127.99999999999997L754.6625,127.99999999999997L756.4833333333333,127.99999999999997L758.3041666666667,135L760.125,135L761.9458333333333,135L763.7666666666667,135L765.5875,82.5L767.4083333333333,82.5L769.2291666666666,82.5L771.05,82.5L772.8708333333333,30L774.6916666666667,30L776.5125,30L778.3333333333334,30L780.1541666666667,37.00000000000002L781.975,37.00000000000002L783.7958333333333,37.00000000000002L785.6166666666667,37.00000000000002L787.4375,33.499999999999986L789.2583333333333,33.499999999999986L791.0791666666667,33.499999999999986L792.9,33.499999999999986L794.7208333333333,26.500000000000014L796.5416666666666,26.500000000000014L798.3625,26.500000000000014L800.1833333333333,26.500000000000014L802.0041666666667,75.49999999999997L803.825,75.49999999999997L805.6458333333334,75.49999999999997L807.4666666666667,75.49999999999997L809.2875,110.5L811.1083333333333,110.5L812.9291666666667,110.5L814.75,110.5L816.5708333333333,124.49999999999999L818.3916666666667,124.49999999999999L820.2125,124.49999999999999L822.0333333333333,124.49999999999999L823.8541666666666,124.49999999999999L825.675,124.49999999999999L827.4958333333333,124.49999999999999L829.3166666666667,124.49999999999999L831.1375,117.50000000000001L832.9583333333334,117.50000000000001L834.7791666666667,117.50000000000001L836.6,117.50000000000001L838.4208333333333,124.49999999999999L840.2416666666667,124.49999999999999L842.0625,124.49999999999999L843.8833333333333,124.49999999999999L845.7041666666667,121L847.525,121L849.3458333333333,121L851.1666666666666,121L852.9875,131.5L854.8083333333333,131.5L856.6291666666667,131.5L858.45,131.5L860.2708333333334,127.99999999999997L862.0916666666667,127.99999999999997L863.9125,127.99999999999997L865.7333333333333,127.99999999999997L867.5541666666667,121L869.375,121L871.1958333333333,121L873.0166666666667,121L874.8375,121L876.6583333333333,121L878.4791666666666,121L880.3,121L882.1208333333333,142.00000000000003L883.9416666666667,142.00000000000003L885.7625,142.00000000000003L887.5833333333334,142.00000000000003L889.4041666666667,145.5L891.225,145.5L893.0458333333333,145.5L894.8666666666667,145.5L896.6875,145.5L898.5083333333333,145.5L900.3291666666667,145.5L902.15,145.5L903.9708333333333,131.5L905.7916666666666,131.5L907.6125,131.5L909.4333333333333,131.5L911.2541666666667,124.49999999999999L913.075,124.49999999999999L914.8958333333334,124.49999999999999L916.7166666666667,124.49999999999999L918.5375,124.49999999999999L920.3583333333333,124.49999999999999L922.1791666666667,124.49999999999999L924,124.49999999999999"/><line x1="79.13333333333334" y1="25" x2="79.13333333333334" y2="450" stroke="#e41a1c" stroke-width="2.5" stroke-linejoin="round" stroke-linecap="round"/><line x1="370.46666666666664" y1="25" x2="370.46666666666664" y2="450" stroke="#e41a1c" stroke-width="2.5" stroke-linejoin="round" stroke-linecap="round"/><text x="59.13333333333334" y="15" text-anchor="middle" style="font-size: 16px; fill: rgb(0, 0, 0);">Survey Sent</text><text x="390.46666666666664" y="15" text-anchor="middle" style="font-size: 16px; fill: rgb(0, 0, 0);">Survey Received</text></svg>