<svg viewBox="0,0,954,500" xmlns="http://www.w3.org/2000/svg" xmlns:xlink="http://www.w3.org/1999/xlink"><g transform="translate(0, 50)" fill="none" font-size="10" font-family="sans-serif" text-anchor="middle"><path class="domain" stroke="currentColor" d="M50.5,0.5H924.5"/><g class="tick" opacity="1" transform="translate(50.5,0)"><line stroke="currentColor" y2="-6"/><text fill="currentColor" y="-9" dy="0em">12 PM</text></g><g class="tick" opacity="1" transform="translate(159.75,0)"><line stroke="currentColor" y2="-6"/><text fill="currentColor" y="-9" dy="0em">12:15</text></g><g class="tick" opacity="1" transform="translate(269,0)"><line stroke="currentColor" y2="-6"/><text fill="currentColor" y="-9" dy="0em">12:30</text></g><g class="tick" opacity="1" transform="translate(378.25,0)"><line stroke="currentColor" y2="-6"/><text fill="currentColor" y="-9" dy="0em">12:45</text></g><g class="tick" opacity="1" transform="translate(487.5,0)"><line stroke="currentColor" y2="-6"/><text fill="currentColor" y="-9" dy="0em">01 PM</text></g><g class="tick" opacity="1" transform="translate(596.75,0)"><line stroke="currentColor" y2="-6"/><text fill="currentColor" y="-9" dy="0em">01:15</text></g><g class="tick" opacity="1" transform="translate(706,0)"><line stroke="currentColor" y2="-6"/><text fill="currentColor" y="-9" dy="0em">01:30</text></g><g class="tick" opacity="1" transform="translate(815.25,0)"><line stroke="currentColor" y2="-6"/><text fill="currentColor" y="-9" dy="0em">01:45</text></g><g class="tick" opacity="1" transform="translate(924.5,0)"><line stroke="currentColor" y2="-6"/><text fill="currentColor" y="-9" dy="0em">02 PM</text></g></g><g transform="translate(50,0)" fill="none" font-size="10" font-family="sans-serif" text-anchor="end"><g class="tick" opacity="1" transform="translate(0,50.5)"><line stroke="currentColor" x2="-6"/><text fill="currentColor" x="-9" dy="0.32em">0</text></g><g class="tick" opacity="1" transform="translate(0,97.16666666666669)"><line stroke="currentColor" x2="-6"/><text fill="currentColor" x="-9" dy="0.32em">-10</text></g><g class="tick" opacity="1" transform="translate(0,143.83333333333334)"><line stroke="currentColor" x2="-6"/><text fill="currentColor" x="-9" dy="0.32em">-20</text></g><g class="tick" opacity="1" transform="translate(0,190.5)"><line stroke="currentColor" x2="-6"/><text fill="currentColor" x="-9" dy="0.32em">-30</text></g><g class="tick" opacity="1" transform="translate(0,237.16666666666666)"><line stroke="currentColor" x2="-6"/><text fill="currentColor" x="-9" dy="0.32em">-40</text></g><g class="tick" opacity="1" transform="translate(0,283.83333333333337)"><line stroke="currentColor" x2="-6"/><text fill="currentColor" x="-9" dy="0.32em">-50</text></g><g class="tick" opacity="1" transform="translate(0,330.50000000000006)"><line stroke="currentColor" x2="-6"/><text fill="currentColor" x="-9" dy="0.32em">-60</text></g><g class="tick" opacity="1" transform="translate(0,377.16666666666663)"><line stroke="currentColor" x2="-6"/><text fill="currentColor" x="-9" dy="0.32em">-70</text></g><g class="tick" opacity="1" transform="translate(0,423.8333333333333)"><line stroke="currentColor" x2="-6"/><text fill="currentColor" x="-9" dy="0.32em">-80</text></g><g class="tick" opacity="1" transform="translate(0,470.5)"><line stroke="currentColor" x2="-6"/><text fill="currentColor" x="-9" dy="0.32em">-90</text><text fill="currentColor" x="3" dy="0.32em" text-anchor="start" font-weight="bold"/></g></g><text transform="translate(477 ,20)" style="text-anchor: middle;">Time</text><text transform="rotate(-90)" y="0" x="-250" dy="1em" style="text-anchor: middle;">RSSI</text><g fill="#1b9e77"><rect x="125.98944444444444" y="50" height="372" width="6"/><rect x="344.24666666666667" y="50" height="372" width="6"/><rect x="563.5963888888889" y="50" height="339.3333333333333" width="6"/><rect x="782.2177777777777" y="50" height="367.3333333333333" width="6"/><rect x="894.9880555555555" y="50" height="334.6666666666667" width="6"/><rect x="895.1094444444445" y="50" height="334.6666666666667" width="6"/><rect x="895.7163888888889" y="50" height="367.3333333333333" width="6"/><rect x="898.6297222222223" y="50" height="348.6666666666667" width="6"/><rect x="898.7511111111112" y="50" height="339.3333333333333" width="6"/><rect x="898.8725" y="50" height="339.3333333333333" width="6"/><rect x="899.2366666666667" y="50" height="334.6666666666667" width="6"/><rect x="899.965" y="50" height="418.66666666666663" width="6"/><rect x="900.0863888888889" y="50" height="414.00000000000006" width="6"/><rect x="900.3291666666667" y="50" height="414.00000000000006" width="6"/><rect x="902.5141666666667" y="50" height="339.3333333333333" width="6"/><rect x="902.6355555555555" y="50" height="348.6666666666667" width="6"/><rect x="902.7569444444445" y="50" height="344" width="6"/><rect x="903.2425" y="50" height="344" width="6"/><rect x="904.9419444444445" y="50" height="372" width="6"/><rect x="905.0633333333334" y="50" height="372" width="6"/><rect x="905.3061111111111" y="50" height="372" width="6"/><rect x="905.4275" y="50" height="367.3333333333333" width="6"/><rect x="905.9130555555555" y="50" height="344" width="6"/><rect x="905.9130555555555" y="50" height="437.33333333333337" width="6"/><rect x="906.1558333333334" y="50" height="348.6666666666667" width="6"/><rect x="906.3986111111111" y="50" height="348.6666666666667" width="6"/><rect x="906.52" y="50" height="344" width="6"/><rect x="907.0055555555555" y="50" height="334.6666666666667" width="6"/><rect x="910.0402777777776" y="50" height="348.6666666666667" width="6"/><rect x="910.0402777777776" y="50" height="470" width="6"/><rect x="910.1616666666666" y="50" height="344" width="6"/><rect x="910.4044444444445" y="50" height="376.66666666666663" width="6"/><rect x="910.5258333333334" y="50" height="376.66666666666663" width="6"/><rect x="910.89" y="50" height="376.66666666666663" width="6"/><rect x="913.9247222222223" y="50" height="348.6666666666667" width="6"/><rect x="914.0461111111111" y="50" height="353.33333333333337" width="6"/><rect x="915.0172222222222" y="50" height="367.3333333333333" width="6"/><rect x="915.1386111111111" y="50" height="367.3333333333333" width="6"/><rect x="915.6241666666666" y="50" height="409.33333333333337" width="6"/><rect x="918.0519444444445" y="50" height="348.6666666666667" width="6"/><rect x="918.4161111111111" y="50" height="348.6666666666667" width="6"/><rect x="920.3583333333333" y="50" height="414.00000000000006" width="6"/><rect x="920.4797222222223" y="50" height="414.00000000000006" width="6"/><rect x="920.6011111111111" y="50" height="414.00000000000006" width="6"/><rect x="920.7225" y="50" height="409.33333333333337" width="6"/><rect x="921.9363888888888" y="50" height="353.33333333333337" width="6"/><rect x="922.0577777777777" y="50" height="358" width="6"/><rect x="922.5433333333333" y="50" height="367.3333333333333" width="6"/><rect x="922.5433333333333" y="50" height="372" width="6"/></g></svg>