<svg viewBox="0,0,954,500" xmlns="http://www.w3.org/2000/svg" xmlns:xlink="http://www.w3.org/1999/xlink"><g transform="translate(0,450)" fill="none" font-size="10" font-family="sans-serif" text-anchor="middle"><path class="domain" stroke="currentColor" d="M50.5,0.5H924.5"/><g class="tick" opacity="1" transform="translate(50.5,0)"><line stroke="currentColor" y2="6"/><text fill="currentColor" y="9" dy="0.71em">12 PM</text></g><g class="tick" opacity="1" transform="translate(159.75,0)"><line stroke="currentColor" y2="6"/><text fill="currentColor" y="9" dy="0.71em">12:15</text></g><g class="tick" opacity="1" transform="translate(269,0)"><line stroke="currentColor" y2="6"/><text fill="currentColor" y="9" dy="0.71em">12:30</text></g><g class="tick" opacity="1" transform="translate(378.25,0)"><line stroke="currentColor" y2="6"/><text fill="currentColor" y="9" dy="0.71em">12:45</text></g><g class="tick" opacity="1" transform="translate(487.5,0)"><line stroke="currentColor" y2="6"/><text fill="currentColor" y="9" dy="0.71em">01 PM</text></g><g class="tick" opacity="1" transform="translate(596.75,0)"><line stroke="currentColor" y2="6"/><text fill="currentColor" y="9" dy="0.71em">01:15</text></g><g class="tick" opacity="1" transform="translate(706,0)"><line stroke="currentColor" y2="6"/><text fill="currentColor" y="9" dy="0.71em">01:30</text></g><g class="tick" opacity="1" transform="translate(815.25,0)"><line stroke="currentColor" y2="6"/><text fill="currentColor" y="9" dy="0.71em">01:45</text></g><g class="tick" opacity="1" transform="translate(924.5,0)"><line stroke="currentColor" y2="6"/><text fill="currentColor" y="9" dy="0.71em">02 PM</text></g></g><g transform="translate(50,0)" fill="none" font-size="10" font-family="sans-serif" text-anchor="end"><g class="tick" opacity="1" transform="translate(0,450.5)"><line stroke="currentColor" x2="-6"/><text fill="currentColor" x="-9" dy="0.32em">0</text></g><g class="tick" opacity="1" transform="translate(0,415.5)"><line stroke="currentColor" x2="-6"/><text fill="currentColor" x="-9" dy="0.32em">10</text></g><g class="tick" opacity="1" transform="translate(0,380.5)"><line stroke="currentColor" x2="-6"/><text fill="currentColor" x="-9" dy="0.32em">20</text></g><g class="tick" opacity="1" transform="translate(0,345.5)"><line stroke="currentColor" x2="-6"/><text fill="currentColor" x="-9" dy="0.32em">30</text></g><g class="tick" opacity="1" transform="translate(0,310.50000000000006)"><line stroke="currentColor" x2="-6"/><text fill="currentColor" x="-9" dy="0.32em">40</text></g><g class="tick" opacity="1" transform="translate(0,275.49999999999994)"><line stroke="currentColor" x2="-6"/><text fill="currentColor" x="-9" dy="0.32em">50</text></g><g class="tick" opacity="1" transform="translate(0,240.5)"><line stroke="currentColor" x2="-6"/><text fill="currentColor" x="-9" dy="0.32em">60</text></g><g class="tick" opacity="1" transform="translate(0,205.49999999999997)"><line stroke="currentColor" x2="-6"/><text fill="currentColor" x="-9" dy="0.32em">70</text></g><g class="tick" opacity="1" transform="translate(0,170.50000000000003)"><line stroke="currentColor" x2="-6"/><text fill="currentColor" x="-9" dy="0.32em">80</text></g><g class="tick" opacity="1" transform="translate(0,135.5)"><line stroke="currentColor" x2="-6"/><text fill="currentColor" x="-9" dy="0.32em">90</text></g><g class="tick" opacity="1" transform="translate(0,100.49999999999999)"><line stroke="currentColor" x2="-6"/><text fill="currentColor" x="-9" dy="0.32em">100</text></g><g class="tick" opacity="1" transform="translate(0,65.50000000000001)"><line stroke="currentColor" x2="-6"/><text fill="currentColor" x="-9" dy="0.32em">110</text></g><g class="tick" opacity="1" transform="translate(0,30.5)"><line stroke="currentColor" x2="-6"/><text fill="currentColor" x="-9" dy="0.32em">120</text><text fill="currentColor" x="3" dy="0.32em" text-anchor="start" font-weight="bold"/></g></g><text transform="translate(477 ,490)" style="text-anchor: middle;">Time</text><text transform="rotate(-90)" y="0" x="-250" dy="1em" style="text-anchor: middle;">Heart Rate (BPM)</text><path fill="none" stroke="#377eb8" stroke-width="3" stroke-linejoin="round" stroke-linecap="round" d="M50,156.00000000000003L51.82083333333333,187.5L53.641666666666666,187.5L55.4625,187.5L57.28333333333334,187.5L59.10416666666667,177L60.925,177L62.74583333333334,177L64.56666666666666,177L66.3875,173.5L68.20833333333333,173.5L70.02916666666667,173.5L71.85,173.5L73.67083333333333,163L75.49166666666666,163L77.3125,163L79.13333333333334,163L80.95416666666667,173.5L82.775,173.5L84.59583333333333,173.5L86.41666666666667,173.5L88.2375,166.49999999999997L90.05833333333334,166.49999999999997L91.87916666666666,166.49999999999997L93.7,166.49999999999997L95.52083333333333,159.5L97.34166666666667,159.5L99.1625,159.5L100.98333333333333,159.5L102.80416666666667,156.00000000000003L104.625,156.00000000000003L106.44583333333334,156.00000000000003L108.26666666666667,156.00000000000003L110.0875,159.5L111.90833333333333,159.5L113.72916666666667,159.5L115.55,159.5L117.37083333333334,156.00000000000003L119.19166666666666,156.00000000000003L121.0125,156.00000000000003L122.83333333333333,156.00000000000003L124.65416666666667,156.00000000000003L126.475,156.00000000000003L128.29583333333335,156.00000000000003L130.11666666666665,156.00000000000003L131.9375,156.00000000000003L133.75833333333335,156.00000000000003L135.57916666666665,156.00000000000003L137.4,156.00000000000003L139.22083333333333,166.49999999999997L141.04166666666669,166.49999999999997L142.8625,166.49999999999997L144.68333333333334,166.49999999999997L146.50416666666666,156.00000000000003L148.325,156.00000000000003L150.14583333333331,156.00000000000003L151.96666666666667,156.00000000000003L153.7875,149L155.60833333333335,149L157.42916666666665,149L159.25,149L161.07083333333333,156.00000000000003L162.89166666666668,156.00000000000003L164.7125,156.00000000000003L166.53333333333333,156.00000000000003L168.35416666666666,152.49999999999997L170.175,152.49999999999997L171.99583333333334,152.49999999999997L173.81666666666666,152.49999999999997L175.6375,166.49999999999997L177.45833333333331,166.49999999999997L179.27916666666667,166.49999999999997L181.1,166.49999999999997L182.92083333333332,156.00000000000003L184.74166666666667,156.00000000000003L186.5625,156.00000000000003L188.38333333333333,156.00000000000003L190.20416666666668,152.49999999999997L192.025,152.49999999999997L193.84583333333333,152.49999999999997L195.66666666666669,152.49999999999997L197.4875,170.00000000000003L199.30833333333334,170.00000000000003L201.12916666666666,170.00000000000003L202.95,170.00000000000003L204.77083333333331,177L206.59166666666667,177L208.4125,177L210.23333333333332,177L212.05416666666667,166.49999999999997L213.875,166.49999999999997L215.69583333333333,166.49999999999997L217.51666666666668,166.49999999999997L219.3375,173.5L221.15833333333333,173.5L222.97916666666669,173.5L224.8,173.5L226.62083333333334,173.5L228.44166666666666,173.5L230.2625,173.5L232.08333333333331,173.5L233.90416666666667,173.5L235.725,173.5L237.54583333333332,173.5L239.36666666666667,173.5L241.1875,170.00000000000003L243.00833333333333,170.00000000000003L244.82916666666668,170.00000000000003L246.65,170.00000000000003L248.47083333333333,173.5L250.29166666666669,173.5L252.1125,173.5L253.93333333333334,173.5L255.75416666666666,218.99999999999997L257.575,218.99999999999997L259.3958333333333,218.99999999999997L261.2166666666667,218.99999999999997L263.0375,215.5L264.8583333333333,215.5L266.6791666666667,215.5L268.5,215.5L270.3208333333333,222.50000000000003L272.14166666666665,222.50000000000003L273.9625,222.50000000000003L275.78333333333336,222.50000000000003L277.6041666666667,243.5L279.425,243.5L281.24583333333334,243.5L283.06666666666666,243.5L284.8875,243.5L286.7083333333333,243.5L288.52916666666664,243.5L290.35,243.5L292.17083333333335,222.50000000000003L293.9916666666667,222.50000000000003L295.8125,222.50000000000003L297.6333333333333,222.50000000000003L299.45416666666665,208.50000000000003L301.275,208.50000000000003L303.09583333333336,208.50000000000003L304.9166666666667,208.50000000000003L306.7375,170.00000000000003L308.55833333333334,170.00000000000003L310.37916666666666,170.00000000000003L312.2,170.00000000000003L314.0208333333333,187.5L315.84166666666664,187.5L317.6625,187.5L319.48333333333335,187.5L321.3041666666667,170.00000000000003L323.125,170.00000000000003L324.9458333333333,170.00000000000003L326.76666666666665,170.00000000000003L328.5875,166.49999999999997L330.40833333333336,166.49999999999997L332.2291666666667,166.49999999999997L334.05,166.49999999999997L335.87083333333334,177L337.69166666666666,177L339.5125,177L341.3333333333333,177L343.15416666666664,135L344.975,135L346.79583333333335,135L348.6166666666667,135L350.4375,110.5L352.2583333333333,110.5L354.07916666666665,110.5L355.9,110.5L357.72083333333336,93.00000000000001L359.5416666666667,93.00000000000001L361.3625,93.00000000000001L363.18333333333334,93.00000000000001L365.00416666666666,57.99999999999999L366.825,57.99999999999999L368.6458333333333,57.99999999999999L370.46666666666664,57.99999999999999L372.2875,54.50000000000001L374.10833333333335,54.50000000000001L375.9291666666667,54.50000000000001L377.75,54.50000000000001L379.5708333333333,79.00000000000001L381.39166666666665,79.00000000000001L383.2125,79.00000000000001L385.03333333333336,79.00000000000001L386.8541666666667,135L388.675,135L390.49583333333334,135L392.31666666666666,135L394.1375,135L395.9583333333333,135L397.77916666666664,135L399.6,135L401.42083333333335,113.99999999999999L403.2416666666667,113.99999999999999L405.0625,113.99999999999999L406.8833333333333,113.99999999999999L408.70416666666665,124.49999999999999L410.525,124.49999999999999L412.34583333333336,124.49999999999999L414.1666666666667,124.49999999999999L415.9875,99.99999999999999L417.80833333333334,99.99999999999999L419.62916666666666,99.99999999999999L421.45,99.99999999999999L423.2708333333333,215.5L425.09166666666664,215.5L426.9125,215.5L428.73333333333335,215.5L430.5541666666667,250.5L432.375,250.5L434.1958333333333,250.5L436.01666666666665,250.5L437.8375,254L439.65833333333336,254L441.4791666666667,254L443.3,254L445.12083333333334,246.99999999999997L446.94166666666666,246.99999999999997L448.7625,246.99999999999997L450.5833333333333,246.99999999999997L452.40416666666664,222.50000000000003L454.225,222.50000000000003L456.04583333333335,222.50000000000003L457.8666666666667,222.50000000000003L459.6875,226L461.5083333333333,226L463.32916666666665,226L465.15,226L466.97083333333336,226L468.7916666666667,226L470.6125,226L472.43333333333334,226L474.25416666666666,218.99999999999997L476.075,218.99999999999997L477.8958333333333,218.99999999999997L479.71666666666664,218.99999999999997L481.5375,222.50000000000003L483.35833333333335,222.50000000000003L485.1791666666667,222.50000000000003L487,222.50000000000003L488.8208333333333,222.50000000000003L490.64166666666665,222.50000000000003L492.4625,222.50000000000003L494.2833333333333,222.50000000000003L496.10416666666663,218.99999999999997L497.92499999999995,218.99999999999997L499.7458333333333,218.99999999999997L501.5666666666667,218.99999999999997L503.38750000000005,212L505.20833333333337,212L507.0291666666667,212L508.85,212L510.67083333333335,218.99999999999997L512.4916666666667,218.99999999999997L514.3125,218.99999999999997L516.1333333333333,218.99999999999997L517.9541666666667,208.50000000000003L519.775,208.50000000000003L521.5958333333333,208.50000000000003L523.4166666666666,208.50000000000003L525.2375,184L527.0583333333333,184L528.8791666666667,184L530.7,184L532.5208333333334,180.49999999999997L534.3416666666667,180.49999999999997L536.1625,180.49999999999997L537.9833333333333,180.49999999999997L539.8041666666667,149L541.625,149L543.4458333333333,149L545.2666666666667,149L547.0875,124.49999999999999L548.9083333333333,124.49999999999999L550.7291666666666,124.49999999999999L552.55,124.49999999999999L554.3708333333333,177L556.1916666666667,177L558.0125,177L559.8333333333334,177L561.6541666666667,218.99999999999997L563.475,218.99999999999997L565.2958333333333,218.99999999999997L567.1166666666667,218.99999999999997L568.9375,218.99999999999997L570.7583333333333,218.99999999999997L572.5791666666667,218.99999999999997L574.4,218.99999999999997L576.2208333333333,204.99999999999997L578.0416666666666,204.99999999999997L579.8625,204.99999999999997L581.6833333333333,204.99999999999997L583.5041666666667,198L585.325,198L587.1458333333334,198L588.9666666666667,198L590.7875,191L592.6083333333333,191L594.4291666666667,191L596.25,191L598.0708333333333,226L599.8916666666667,226L601.7125,226L603.5333333333333,226L605.3541666666666,218.99999999999997L607.175,218.99999999999997L608.9958333333333,218.99999999999997L610.8166666666667,218.99999999999997L612.6375,218.99999999999997L614.4583333333334,218.99999999999997L616.2791666666667,218.99999999999997L618.1,218.99999999999997L619.9208333333333,218.99999999999997L621.7416666666667,218.99999999999997L623.5625,218.99999999999997L625.3833333333333,218.99999999999997L627.2041666666667,229.5L629.025,229.5L630.8458333333333,229.5L632.6666666666666,229.5L634.4875,215.5L636.3083333333333,215.5L638.1291666666667,215.5L639.95,215.5L641.7708333333334,204.99999999999997L643.5916666666667,204.99999999999997L645.4125,204.99999999999997L647.2333333333333,204.99999999999997L649.0541666666667,201.5L650.875,201.5L652.6958333333333,201.5L654.5166666666667,201.5L656.3375,191L658.1583333333333,191L659.9791666666666,191L661.8,191L663.6208333333333,187.5L665.4416666666667,187.5L667.2625,187.5L669.0833333333334,187.5L670.9041666666667,173.5L672.725,173.5L674.5458333333333,173.5L676.3666666666667,173.5L678.1875,180.49999999999997L680.0083333333333,180.49999999999997L681.8291666666667,180.49999999999997L683.65,180.49999999999997L685.4708333333333,184L687.2916666666666,184L689.1125,184L690.9333333333333,184L692.7541666666667,187.5L694.575,187.5L696.3958333333334,187.5L698.2166666666667,187.5L700.0375,184L701.8583333333333,184L703.6791666666667,184L705.5,184L707.3208333333333,184L709.1416666666667,184L710.9625,184L712.7833333333333,184L714.6041666666666,187.5L716.425,187.5L718.2458333333333,187.5L720.0666666666667,187.5L721.8875,191L723.7083333333334,191L725.5291666666667,191L727.35,191L729.1708333333333,180.49999999999997L730.9916666666667,180.49999999999997L732.8125,180.49999999999997L734.6333333333333,180.49999999999997L736.4541666666667,191L738.275,191L740.0958333333333,191L741.9166666666666,191L743.7375,194.50000000000003L745.5583333333333,194.50000000000003L747.3791666666667,194.50000000000003L749.2,194.50000000000003L751.0208333333334,198L752.8416666666667,198L754.6625,198L756.4833333333333,198L758.3041666666667,194.50000000000003L760.125,194.50000000000003L761.9458333333333,194.50000000000003L763.7666666666667,194.50000000000003L765.5875,194.50000000000003L767.4083333333333,194.50000000000003L769.2291666666666,194.50000000000003L771.05,194.50000000000003L772.8708333333333,191L774.6916666666667,191L776.5125,191L778.3333333333334,191L780.1541666666667,177L781.975,177L783.7958333333333,177L785.6166666666667,177L787.4375,184L789.2583333333333,184L791.0791666666667,184L792.9,184L794.7208333333333,180.49999999999997L796.5416666666666,180.49999999999997L798.3625,180.49999999999997L800.1833333333333,180.49999999999997L802.0041666666667,191L803.825,191L805.6458333333334,191L807.4666666666667,191L809.2875,191L811.1083333333333,191L812.9291666666667,191L814.75,191L816.5708333333333,180.49999999999997L818.3916666666667,180.49999999999997L820.2125,180.49999999999997L822.0333333333333,180.49999999999997L823.8541666666666,187.5L825.675,187.5L827.4958333333333,187.5L829.3166666666667,187.5L831.1375,177L832.9583333333334,177L834.7791666666667,177L836.6,177L838.4208333333333,124.49999999999999L840.2416666666667,124.49999999999999L842.0625,124.49999999999999L843.8833333333333,124.49999999999999L845.7041666666667,135L847.525,135L849.3458333333333,135L851.1666666666666,135L852.9875,135L854.8083333333333,135L856.6291666666667,135L858.45,135L860.2708333333334,103.50000000000001L862.0916666666667,103.50000000000001L863.9125,103.50000000000001L865.7333333333333,103.50000000000001L867.5541666666667,96.5L869.375,96.5L871.1958333333333,96.5L873.0166666666667,96.5L874.8375,117.50000000000001L876.6583333333333,117.50000000000001L878.4791666666666,117.50000000000001L880.3,117.50000000000001L882.1208333333333,131.5L883.9416666666667,131.5L885.7625,131.5L887.5833333333334,131.5L889.4041666666667,131.5L891.225,131.5L893.0458333333333,131.5L894.8666666666667,131.5L896.6875,138.5L898.5083333333333,138.5L900.3291666666667,138.5L902.15,138.5L903.9708333333333,170.00000000000003L905.7916666666666,170.00000000000003L907.6125,170.00000000000003L909.4333333333333,170.00000000000003L911.2541666666667,159.5L913.075,159.5L914.8958333333334,159.5L916.7166666666667,159.5L918.5375,177L920.3583333333333,177L922.1791666666667,177L924,177"/><line x1="443.3" y1="49.50000000000001" x2="443.3" y2="450" stroke="#e41a1c" stroke-width="2.5" stroke-linejoin="round" stroke-linecap="round"/><line x1="494.2833333333333" y1="49.50000000000001" x2="494.2833333333333" y2="450" stroke="#e41a1c" stroke-width="2.5" stroke-linejoin="round" stroke-linecap="round"/><text x="423.3" y="39.50000000000001" text-anchor="middle" style="font-size: 16px; fill: rgb(0, 0, 0);">Survey Sent</text><text x="514.2833333333333" y="39.50000000000001" text-anchor="middle" style="font-size: 16px; fill: rgb(0, 0, 0);">Survey Received</text></svg>